%
M48
M72
T01C0.0100
T02C0.0315
T03C0.0320
T04C0.0354
T05C0.0400
T06C0.0440
%
T01
X2030Y4900
X2930Y5700
X3630Y6600
X3930Y7400
X4030Y7800
X4230Y5800
X3930Y5100
X2530Y7400
X1930Y8100
X1730Y8500
X2730Y10100
X1930Y12500
X1930Y14500
X2130Y15200
X2430Y16500
X2930Y15600
X1630Y17500
X2730Y18500
X1830Y21000
X4830Y20300
X5430Y19600
X6430Y20300
X5130Y17500
X6230Y15500
X4930Y13700
X4630Y13400
X4830Y12300
X5230Y11600
X6230Y12300
X6230Y9800
X6630Y8400
X5930Y7800
X5430Y6000
X5930Y5700
X5430Y4200
X7930Y6000
X8730Y5100
X9230Y3900
X9030Y3500
X8830Y1300
X8730Y7500
X8530Y8500
X7930Y8100
X8430Y9500
X8930Y10500
X9030Y9800
X7930Y11500
X9230Y14500
X8630Y16500
X8930Y17500
X8330Y18500
X8030Y19600
X9830Y21400
X4030Y10100
T02
X1824Y19250
X1036Y19250
X9036Y19250
X9824Y19250
T03
X6930Y19500
X6930Y18500
X6930Y17500
X6930Y16500
X6930Y15500
X6930Y14500
X4805Y10750
X3805Y10750
X3930Y14500
X3930Y15500
X3930Y16500
X3930Y17500
X3930Y18500
X3930Y19500
X4930Y5125
X5930Y5125
X9805Y3250
X9805Y2250
X9805Y1250
T04
X7930Y6875
X7930Y8875
X5930Y8875
X5930Y6875
X5430Y21000
X4430Y21000
X6430Y21000
T05
X930Y4500
X930Y5500
X930Y6500
X930Y7500
X930Y8500
X930Y9500
X930Y10500
X930Y11500
X930Y12500
X930Y13500
X930Y14500
X930Y15500
X930Y16500
X930Y17500
X2915Y9155
X2915Y6595
X4695Y6595
X4695Y9155
X6180Y10750
X7180Y10750
X9930Y10500
X9930Y9500
X9930Y8500
X9930Y7500
X9930Y6500
X9930Y5500
X9930Y4500
X9930Y11500
X9930Y12500
X9930Y13500
X9930Y14500
X9930Y15500
X9930Y16500
X9930Y17500
T06
X7430Y13375
X7430Y12250
X3430Y12250
X3430Y13375
M30
