%
M48
M72
T01C0.0100
T02C0.0315
T03C0.0320
T04C0.0354
T05C0.0400
T06C0.0440
%
T01
X3630Y5100
X3930Y4800
X4730Y7500
X4730Y7900
X5930Y6200
X7230Y6200
X7930Y4600
X8330Y3700
X8630Y4000
X8930Y5100
X8330Y6200
X8930Y6500
X9230Y7500
X8930Y8200
X8330Y9300
X8630Y9800
X8930Y9500
X8930Y10500
X8230Y10900
X7930Y11500
X7230Y10100
X6230Y9800
X5830Y10000
X5230Y11600
X5530Y11900
X4830Y12300
X4430Y11900
X4630Y13400
X4930Y13700
X5630Y14100
X6230Y15500
X5130Y17500
X5430Y18500
X4830Y20300
X6430Y20300
X8330Y19600
X8630Y18500
X8930Y17500
X9230Y16500
X8230Y14500
X6230Y12300
X7930Y7900
X8930Y1300
X3130Y11100
X2630Y10000
X2930Y8200
X1930Y7500
X1630Y7800
X1430Y11100
X2230Y12500
X2230Y14500
X1930Y15500
X1930Y16500
X1630Y17500
X2630Y19500
X1830Y21000
X2930Y16500
X9830Y21400
T02
X9824Y19250
X9036Y19250
X1824Y19250
X1036Y19250
T03
X3930Y19500
X3930Y18500
X3930Y17500
X3930Y16500
X3930Y15500
X3930Y14500
X3805Y10750
X4805Y10750
X6930Y14500
X6930Y15500
X6930Y16500
X6930Y17500
X6930Y18500
X6930Y19500
X5930Y5125
X4930Y5125
X9805Y3250
X9805Y2250
X9805Y1250
T04
X7930Y6875
X7930Y8875
X5930Y8875
X5930Y6875
X5430Y21000
X4430Y21000
X6430Y21000
T05
X930Y4500
X930Y5500
X930Y6500
X930Y7500
X930Y8500
X930Y9500
X930Y10500
X930Y11500
X930Y12500
X930Y13500
X930Y14500
X930Y15500
X930Y16500
X930Y17500
X2915Y9155
X2915Y6595
X4695Y6595
X4695Y9155
X6180Y10750
X7180Y10750
X9930Y10500
X9930Y9500
X9930Y8500
X9930Y7500
X9930Y6500
X9930Y5500
X9930Y4500
X9930Y11500
X9930Y12500
X9930Y13500
X9930Y14500
X9930Y15500
X9930Y16500
X9930Y17500
T06
X7430Y13375
X7430Y12250
X3430Y12250
X3430Y13375
M30
