G75*
%MOIN*%
%OFA0B0*%
%FSLAX24Y24*%
%IPPOS*%
%LPD*%
%AMOC8*
5,1,8,0,0,1.08239X$1,22.5*
%
%ADD10C,0.0740*%
%ADD11OC8,0.0560*%
%ADD12R,0.0551X0.2362*%
%ADD13C,0.0560*%
%ADD14C,0.0700*%
%ADD15C,0.0760*%
%ADD16C,0.0660*%
%ADD17R,0.0394X0.1811*%
%ADD18R,0.0630X0.1339*%
%ADD19OC8,0.0660*%
%ADD20C,0.0640*%
%ADD21C,0.0080*%
%ADD22C,0.0300*%
D10*
X000930Y004500D03*
X000930Y005500D03*
X000930Y006500D03*
X000930Y007500D03*
X000930Y008500D03*
X000930Y009500D03*
X000930Y010500D03*
X000930Y011500D03*
X000930Y012500D03*
X000930Y013500D03*
X000930Y014500D03*
X000930Y015500D03*
X000930Y016500D03*
X000930Y017500D03*
X009930Y017500D03*
X009930Y016500D03*
X009930Y015500D03*
X009930Y014500D03*
X009930Y013500D03*
X009930Y012500D03*
X009930Y011500D03*
X009930Y010500D03*
X009930Y009500D03*
X009930Y008500D03*
X009930Y007500D03*
X009930Y006500D03*
X009930Y005500D03*
X009930Y004500D03*
D11*
X006930Y015500D03*
X005930Y015500D03*
X004930Y015500D03*
X003930Y015500D03*
X003930Y018500D03*
X004930Y018500D03*
X005930Y018500D03*
X006930Y018500D03*
X005930Y021500D03*
X004930Y021500D03*
D12*
X004741Y002705D03*
X005430Y002705D03*
X006119Y002705D03*
D13*
X009150Y002250D02*
X009710Y002250D01*
X009710Y001250D02*
X009150Y001250D01*
X009150Y003250D02*
X009710Y003250D01*
D14*
X005930Y020000D03*
X004930Y020000D03*
D15*
X004680Y009000D03*
X003680Y009000D03*
X003680Y005000D03*
X004680Y005000D03*
D16*
X006080Y009131D03*
X007280Y009131D03*
X007780Y008369D03*
X006430Y014000D03*
X005430Y014000D03*
X004430Y014000D03*
D17*
X002324Y019793D03*
X001536Y019793D03*
X008536Y019793D03*
X009324Y019793D03*
D18*
X010269Y021841D03*
X007591Y021841D03*
X003269Y021841D03*
X000591Y021841D03*
D19*
X006680Y008369D03*
X006430Y005750D03*
X007430Y005750D03*
D20*
X007030Y010610D02*
X006390Y010610D01*
X006390Y012390D02*
X007030Y012390D01*
X004470Y012390D02*
X003830Y012390D01*
X003830Y010610D02*
X004470Y010610D01*
D21*
X004130Y011500D02*
X004130Y012300D01*
X004150Y012390D01*
X005130Y013600D02*
X004930Y013800D01*
X004930Y015500D01*
X004930Y016200D02*
X004930Y018500D01*
X004930Y019300D02*
X004930Y020000D01*
X004930Y021500D01*
X005930Y021500D02*
X005930Y020000D01*
X005930Y018500D02*
X005930Y017600D01*
X006930Y018500D02*
X006930Y016500D01*
X006930Y015500D02*
X006930Y014800D01*
X007130Y014600D01*
X007130Y013300D01*
X006430Y013400D02*
X005930Y012900D01*
X005930Y009900D01*
X005330Y009400D02*
X005430Y009300D01*
X005430Y006000D01*
X005530Y005900D01*
X005530Y005000D01*
X005730Y005200D02*
X005830Y005100D01*
X005830Y004200D01*
X006230Y004400D02*
X006230Y003000D01*
X006130Y002900D01*
X006130Y002800D01*
X006119Y002705D01*
X005230Y004200D02*
X005230Y005200D01*
X004930Y005500D01*
X004930Y006400D01*
X005230Y005800D02*
X005230Y009200D01*
X005130Y009300D01*
X005130Y013600D01*
X005430Y013300D02*
X005330Y013200D01*
X005330Y009400D01*
X004730Y009000D02*
X004680Y009000D01*
X004730Y009000D02*
X004730Y007100D01*
X005730Y006100D02*
X005730Y005200D01*
X006130Y007400D02*
X006130Y009100D01*
X006080Y009131D01*
X006680Y008369D02*
X006730Y008300D01*
X006730Y007700D01*
X007280Y009131D02*
X007330Y009200D01*
X007330Y009900D01*
X007530Y010100D01*
X007530Y011500D01*
X007830Y009500D02*
X007830Y008400D01*
X007780Y008369D01*
X008330Y007600D02*
X008030Y007300D01*
X008030Y006700D01*
X007930Y006600D01*
X007930Y006400D01*
X008130Y006200D01*
X008130Y005400D01*
X008730Y005300D02*
X008830Y005400D01*
X008730Y005300D02*
X008730Y002300D01*
X009430Y002300D01*
X009430Y002250D01*
X009430Y003250D02*
X009430Y003800D01*
X009230Y004000D01*
X009230Y009100D01*
X009030Y008900D02*
X008930Y009000D01*
X008930Y016500D01*
X008130Y015100D02*
X008530Y014700D01*
X008530Y007500D01*
X008230Y007200D01*
X008230Y006500D01*
X008530Y007100D02*
X008830Y007400D01*
X008830Y008800D01*
X008730Y008900D01*
X008730Y014800D01*
X007830Y015700D01*
X007830Y019200D01*
X007930Y019300D01*
X007630Y020000D02*
X007630Y015500D01*
X008030Y015100D02*
X008130Y015100D01*
X008230Y014500D02*
X008330Y014400D01*
X008330Y007600D01*
X008530Y007100D02*
X008530Y001300D01*
X007430Y004400D02*
X007430Y005750D01*
X008930Y005800D02*
X009030Y005900D01*
X009030Y008900D01*
X006430Y013400D02*
X006430Y014000D01*
X006030Y014500D02*
X006030Y014600D01*
X005930Y014700D01*
X005930Y015500D01*
X005430Y014800D02*
X005430Y014000D01*
X003930Y015500D02*
X003930Y016500D01*
X003030Y018300D02*
X002330Y019000D01*
X002330Y019700D01*
X002324Y019793D01*
X001536Y019793D02*
X001530Y019800D01*
X001530Y022100D01*
X003230Y018500D02*
X003230Y012400D01*
X003030Y012600D02*
X003030Y014100D01*
X002930Y014000D01*
X003030Y014100D02*
X003030Y018300D01*
X002730Y017600D02*
X002830Y017500D01*
X002830Y014300D01*
X002630Y014100D01*
X002630Y012500D01*
X002430Y012700D02*
X002330Y012600D01*
X002330Y012400D01*
X002730Y012000D01*
X002730Y005200D01*
X002630Y005100D01*
X002630Y004200D01*
X002930Y005000D02*
X002930Y012500D01*
X003030Y012600D01*
X002530Y011900D02*
X002530Y006200D01*
X002430Y006100D01*
X002230Y006500D02*
X002330Y006600D01*
X002330Y011800D01*
X001930Y012200D01*
X001930Y012800D01*
X002030Y012900D01*
X002030Y014200D01*
X001930Y014300D01*
X001930Y015300D01*
X001830Y015400D01*
X001830Y017500D01*
X002130Y015500D02*
X002130Y014400D01*
X002230Y014300D01*
X002230Y012800D01*
X002130Y012700D01*
X002130Y012300D01*
X002530Y011900D01*
X002430Y012700D02*
X002430Y014500D01*
X003730Y009900D02*
X003730Y009000D01*
X003680Y009000D01*
X004630Y004200D02*
X004630Y003000D01*
X004730Y002900D01*
X004730Y002800D01*
X004741Y002705D01*
X009230Y014800D02*
X009230Y018800D01*
X009330Y018900D01*
X009330Y019700D01*
X009324Y019793D01*
X008536Y019793D02*
X008530Y019800D01*
X008530Y022100D01*
D22*
X008530Y022100D03*
X007630Y020000D03*
X007930Y019300D03*
X006930Y016500D03*
X007630Y015500D03*
X008030Y015100D03*
X008230Y014500D03*
X009230Y014800D03*
X008930Y016500D03*
X007130Y013300D03*
X007530Y011500D03*
X007830Y009500D03*
X006730Y007700D03*
X006130Y007400D03*
X005730Y006100D03*
X005530Y005000D03*
X005230Y005800D03*
X004930Y006400D03*
X004730Y007100D03*
X003730Y009900D03*
X004130Y011500D03*
X003230Y012400D03*
X002630Y012500D03*
X002930Y014000D03*
X002430Y014500D03*
X002130Y015500D03*
X001830Y017500D03*
X002730Y017600D03*
X003230Y018500D03*
X003930Y016500D03*
X004930Y016200D03*
X005430Y014800D03*
X006030Y014500D03*
X005430Y013300D03*
X005930Y009900D03*
X008130Y005400D03*
X008230Y006500D03*
X008530Y007100D03*
X008930Y005800D03*
X008830Y005400D03*
X007430Y004400D03*
X006230Y004400D03*
X005830Y004200D03*
X005230Y004200D03*
X004630Y004200D03*
X002930Y005000D03*
X002630Y004200D03*
X002430Y006100D03*
X002230Y006500D03*
X005930Y017600D03*
X004930Y019300D03*
X001530Y022100D03*
X009230Y009100D03*
X008530Y001300D03*
M02*
