G75*
%MOIN*%
%OFA0B0*%
%FSLAX24Y24*%
%IPPOS*%
%LPD*%
%AMOC8*
5,1,8,0,0,1.08239X$1,22.5*
%
%ADD10C,0.0820*%
%ADD11OC8,0.0640*%
%ADD12R,0.0631X0.2442*%
%ADD13C,0.0640*%
%ADD14C,0.0780*%
%ADD15C,0.0840*%
%ADD16C,0.0740*%
%ADD17R,0.0474X0.1891*%
%ADD18R,0.0710X0.1419*%
%ADD19OC8,0.0740*%
%ADD20C,0.0720*%
D10*
X000930Y004500D03*
X000930Y005500D03*
X000930Y006500D03*
X000930Y007500D03*
X000930Y008500D03*
X000930Y009500D03*
X000930Y010500D03*
X000930Y011500D03*
X000930Y012500D03*
X000930Y013500D03*
X000930Y014500D03*
X000930Y015500D03*
X000930Y016500D03*
X000930Y017500D03*
X009930Y017500D03*
X009930Y016500D03*
X009930Y015500D03*
X009930Y014500D03*
X009930Y013500D03*
X009930Y012500D03*
X009930Y011500D03*
X009930Y010500D03*
X009930Y009500D03*
X009930Y008500D03*
X009930Y007500D03*
X009930Y006500D03*
X009930Y005500D03*
X009930Y004500D03*
D11*
X006930Y015500D03*
X005930Y015500D03*
X004930Y015500D03*
X003930Y015500D03*
X003930Y018500D03*
X004930Y018500D03*
X005930Y018500D03*
X006930Y018500D03*
X005930Y021500D03*
X004930Y021500D03*
D12*
X004741Y002705D03*
X005430Y002705D03*
X006119Y002705D03*
D13*
X009150Y002250D02*
X009710Y002250D01*
X009710Y001250D02*
X009150Y001250D01*
X009150Y003250D02*
X009710Y003250D01*
D14*
X005930Y020000D03*
X004930Y020000D03*
D15*
X004680Y009000D03*
X003680Y009000D03*
X003680Y005000D03*
X004680Y005000D03*
D16*
X006080Y009131D03*
X007280Y009131D03*
X007780Y008369D03*
X006430Y014000D03*
X005430Y014000D03*
X004430Y014000D03*
D17*
X002324Y019793D03*
X001536Y019793D03*
X008536Y019793D03*
X009324Y019793D03*
D18*
X010269Y021841D03*
X007591Y021841D03*
X003269Y021841D03*
X000591Y021841D03*
D19*
X006680Y008369D03*
X006430Y005750D03*
X007430Y005750D03*
D20*
X007030Y010610D02*
X006390Y010610D01*
X006390Y012390D02*
X007030Y012390D01*
X004470Y012390D02*
X003830Y012390D01*
X003830Y010610D02*
X004470Y010610D01*
M02*
