G75*
%MOIN*%
%OFA0B0*%
%FSLAX24Y24*%
%IPPOS*%
%LPD*%
%AMOC8*
5,1,8,0,0,1.08239X$1,22.5*
%
%ADD10C,0.0740*%
%ADD11R,0.0551X0.2362*%
%ADD12C,0.0560*%
%ADD13OC8,0.0560*%
%ADD14C,0.0700*%
%ADD15C,0.0760*%
%ADD16C,0.0660*%
%ADD17C,0.0560*%
%ADD18OC8,0.0660*%
%ADD19C,0.0640*%
%ADD20C,0.0080*%
%ADD21C,0.0300*%
D10*
X000930Y004500D03*
X000930Y005500D03*
X000930Y006500D03*
X000930Y007500D03*
X000930Y008500D03*
X000930Y009500D03*
X000930Y010500D03*
X000930Y011500D03*
X000930Y012500D03*
X000930Y013500D03*
X000930Y014500D03*
X000930Y015500D03*
X000930Y016500D03*
X000930Y017500D03*
X009930Y017500D03*
X009930Y016500D03*
X009930Y015500D03*
X009930Y014500D03*
X009930Y013500D03*
X009930Y012500D03*
X009930Y011500D03*
X009930Y010500D03*
X009930Y009500D03*
X009930Y008500D03*
X009930Y007500D03*
X009930Y006500D03*
X009930Y005500D03*
X009930Y004500D03*
D11*
X006119Y002705D03*
X005430Y002705D03*
X004741Y002705D03*
D12*
X009525Y002250D02*
X010085Y002250D01*
X010085Y003250D02*
X009525Y003250D01*
X009525Y001250D02*
X010085Y001250D01*
D13*
X004805Y010750D03*
X003805Y010750D03*
X003930Y014500D03*
X003930Y015500D03*
X003930Y016500D03*
X003930Y017500D03*
X003930Y018500D03*
X003930Y019500D03*
X006930Y019500D03*
X006930Y018500D03*
X006930Y017500D03*
X006930Y016500D03*
X006930Y015500D03*
X006930Y014500D03*
D14*
X007180Y010750D03*
X006180Y010750D03*
X005930Y008875D03*
X005930Y006875D03*
X007930Y006875D03*
X007930Y008875D03*
D15*
X007430Y012250D03*
X007430Y013375D03*
X003430Y013375D03*
X003430Y012250D03*
D16*
X004430Y021000D03*
X005430Y021000D03*
X006430Y021000D03*
D17*
X009036Y019250D03*
X009824Y019250D03*
X001824Y019250D03*
X001036Y019250D03*
D18*
X004930Y005125D03*
X005930Y005125D03*
D19*
X004695Y006275D02*
X004695Y006915D01*
X004695Y008835D02*
X004695Y009475D01*
X002915Y009475D02*
X002915Y008835D01*
X002915Y006915D02*
X002915Y006275D01*
D20*
X002915Y006595D02*
X002930Y006600D01*
X003630Y006600D01*
X003930Y007400D02*
X002530Y007400D01*
X002130Y008300D02*
X004230Y008300D01*
X004330Y008200D01*
X005630Y008200D01*
X005730Y008300D01*
X006530Y008300D01*
X006630Y008400D01*
X006230Y009800D02*
X009030Y009800D01*
X008930Y010500D02*
X009930Y010500D01*
X009930Y009500D02*
X008430Y009500D01*
X008530Y008500D02*
X009930Y008500D01*
X009930Y007500D02*
X008730Y007500D01*
X009030Y006500D02*
X008930Y006400D01*
X005730Y006400D01*
X005530Y006600D01*
X004730Y006600D01*
X004695Y006595D01*
X004230Y005800D02*
X003030Y005800D01*
X002930Y005700D01*
X003730Y004900D02*
X003830Y004800D01*
X004330Y004800D01*
X004730Y004400D01*
X004730Y002800D01*
X004741Y002705D01*
X005530Y004100D02*
X005430Y004200D01*
X005530Y004100D02*
X005730Y004100D01*
X006130Y003700D01*
X006130Y002800D01*
X006119Y002705D01*
X005930Y005100D02*
X005930Y005125D01*
X005930Y005100D02*
X008730Y005100D01*
X008730Y003900D02*
X009230Y003900D01*
X009030Y003500D02*
X009230Y003300D01*
X009730Y003300D01*
X009805Y003250D01*
X009730Y002300D02*
X009530Y002300D01*
X008730Y003100D01*
X008730Y003900D01*
X009730Y002300D02*
X009805Y002250D01*
X009730Y001300D02*
X009805Y001250D01*
X009730Y001300D02*
X008830Y001300D01*
X007930Y006000D02*
X005430Y006000D01*
X005230Y005800D02*
X005330Y005700D01*
X005930Y005700D01*
X005230Y005800D02*
X004230Y005800D01*
X003930Y005100D02*
X004930Y005100D01*
X004930Y005125D01*
X003730Y004900D02*
X002030Y004900D01*
X001930Y008100D02*
X004130Y008100D01*
X004230Y008000D01*
X005730Y008000D01*
X005830Y008100D01*
X007930Y008100D01*
X009030Y006500D02*
X009930Y006500D01*
X007930Y011500D02*
X005330Y011500D01*
X005230Y011600D01*
X004830Y010800D02*
X004805Y010750D01*
X004830Y010800D02*
X006130Y010800D01*
X006180Y010750D01*
X006330Y011300D02*
X004530Y011300D01*
X004030Y010800D01*
X003830Y010800D01*
X003805Y010750D01*
X004030Y010100D02*
X002730Y010100D01*
X002030Y008400D02*
X001830Y008400D01*
X001730Y008500D01*
X002030Y008400D02*
X002130Y008300D01*
X004030Y007800D02*
X005930Y007800D01*
X006830Y010800D02*
X006330Y011300D01*
X006830Y010800D02*
X007130Y010800D01*
X007180Y010750D01*
X007430Y012250D02*
X007430Y012300D01*
X006230Y012300D01*
X006930Y014500D02*
X009230Y014500D01*
X008630Y016500D02*
X006930Y016500D01*
X006930Y017500D02*
X008930Y017500D01*
X008330Y018500D02*
X006930Y018500D01*
X006830Y019000D02*
X006530Y019300D01*
X004330Y019300D01*
X004030Y019000D01*
X002230Y019000D01*
X002030Y018800D01*
X001530Y018800D01*
X001130Y019200D01*
X001036Y019250D01*
X000930Y017500D02*
X001630Y017500D01*
X002030Y016500D02*
X002930Y015600D01*
X003030Y015500D01*
X003930Y015500D01*
X003930Y014500D02*
X001930Y014500D01*
X001830Y015200D02*
X002130Y015200D01*
X001830Y015200D02*
X001530Y015500D01*
X000930Y015500D01*
X000930Y016500D02*
X002030Y016500D01*
X002430Y016500D02*
X003930Y016500D01*
X003930Y017500D02*
X005130Y017500D01*
X005330Y019500D02*
X005430Y019600D01*
X005330Y019500D02*
X003930Y019500D01*
X003930Y018500D02*
X002730Y018500D01*
X001830Y021000D02*
X004430Y021000D01*
X004830Y020300D02*
X006430Y020300D01*
X006930Y019500D02*
X007930Y019500D01*
X008030Y019600D01*
X007330Y019300D02*
X007030Y019000D01*
X006830Y019000D01*
X007330Y019300D02*
X009030Y019300D01*
X009036Y019250D01*
X009830Y021400D02*
X009730Y021500D01*
X006130Y021500D01*
X005630Y021000D01*
X005430Y021000D01*
X006230Y015500D02*
X006930Y015500D01*
X007430Y013400D02*
X007430Y013375D01*
X007430Y013400D02*
X004630Y013400D01*
X004530Y013700D02*
X004230Y013400D01*
X003430Y013400D01*
X003430Y013375D01*
X003430Y012300D02*
X003430Y012250D01*
X003430Y012300D02*
X004830Y012300D01*
X004930Y013700D02*
X004530Y013700D01*
X001930Y012500D02*
X000930Y012500D01*
D21*
X001930Y012500D03*
X001930Y014500D03*
X002130Y015200D03*
X002430Y016500D03*
X002930Y015600D03*
X001630Y017500D03*
X002730Y018500D03*
X001830Y021000D03*
X004830Y020300D03*
X005430Y019600D03*
X006430Y020300D03*
X005130Y017500D03*
X006230Y015500D03*
X004930Y013700D03*
X004630Y013400D03*
X004830Y012300D03*
X005230Y011600D03*
X006230Y012300D03*
X006230Y009800D03*
X006630Y008400D03*
X005930Y007800D03*
X005430Y006000D03*
X005930Y005700D03*
X005430Y004200D03*
X004230Y005800D03*
X003930Y005100D03*
X003630Y006600D03*
X003930Y007400D03*
X004030Y007800D03*
X002930Y005700D03*
X002030Y004900D03*
X002530Y007400D03*
X001930Y008100D03*
X001730Y008500D03*
X002730Y010100D03*
X004030Y010100D03*
X007930Y011500D03*
X008930Y010500D03*
X009030Y009800D03*
X008430Y009500D03*
X008530Y008500D03*
X008730Y007500D03*
X007930Y008100D03*
X007930Y006000D03*
X008730Y005100D03*
X009230Y003900D03*
X009030Y003500D03*
X008830Y001300D03*
X009230Y014500D03*
X008630Y016500D03*
X008930Y017500D03*
X008330Y018500D03*
X008030Y019600D03*
X009830Y021400D03*
M02*
