G75*
%MOIN*%
%OFA0B0*%
%FSLAX24Y24*%
%IPPOS*%
%LPD*%
%AMOC8*
5,1,8,0,0,1.08239X$1,22.5*
%
%ADD10C,0.0050*%
%ADD11C,0.0060*%
%ADD12C,0.0040*%
%ADD13C,0.0080*%
%ADD14C,0.0006*%
%ADD15C,0.0010*%
%ADD16R,0.0240X0.0340*%
%ADD17R,0.0250X0.0250*%
%ADD18C,0.0005*%
%ADD19R,0.1000X0.0200*%
%ADD20R,0.0300X0.0750*%
%ADD21C,0.0100*%
D10*
X001892Y004775D02*
X002027Y004775D01*
X002072Y004820D01*
X002072Y005000D01*
X002027Y005045D01*
X001892Y005045D01*
X001892Y004775D01*
X002186Y004775D02*
X002366Y004775D01*
X002276Y004775D02*
X002276Y005045D01*
X002186Y004955D01*
X002481Y004910D02*
X002571Y004955D01*
X002616Y004955D01*
X002661Y004910D01*
X002661Y004820D01*
X002616Y004775D01*
X002526Y004775D01*
X002481Y004820D01*
X002481Y004910D02*
X002481Y005045D01*
X002661Y005045D01*
X002616Y005775D02*
X002616Y006045D01*
X002481Y005910D01*
X002661Y005910D01*
X002366Y005775D02*
X002186Y005775D01*
X002276Y005775D02*
X002276Y006045D01*
X002186Y005955D01*
X002072Y006000D02*
X002072Y005820D01*
X002027Y005775D01*
X001892Y005775D01*
X001892Y006045D01*
X002027Y006045D01*
X002072Y006000D01*
X002027Y006775D02*
X001892Y006775D01*
X001892Y007045D01*
X002027Y007045D01*
X002072Y007000D01*
X002072Y006820D01*
X002027Y006775D01*
X002186Y006775D02*
X002366Y006775D01*
X002276Y006775D02*
X002276Y007045D01*
X002186Y006955D01*
X002481Y006955D02*
X002571Y007045D01*
X002571Y006775D01*
X002481Y006775D02*
X002661Y006775D01*
X002616Y007775D02*
X002526Y007775D01*
X002481Y007820D01*
X002661Y008000D01*
X002661Y007820D01*
X002616Y007775D01*
X002481Y007820D02*
X002481Y008000D01*
X002526Y008045D01*
X002616Y008045D01*
X002661Y008000D01*
X002366Y007775D02*
X002186Y007775D01*
X002276Y007775D02*
X002276Y008045D01*
X002186Y007955D01*
X002072Y008000D02*
X002072Y007820D01*
X002027Y007775D01*
X001892Y007775D01*
X001892Y008045D01*
X002027Y008045D01*
X002072Y008000D01*
X002027Y008775D02*
X001892Y008775D01*
X001892Y009045D01*
X002027Y009045D01*
X002072Y009000D01*
X002072Y008820D01*
X002027Y008775D01*
X002186Y008820D02*
X002231Y008775D01*
X002321Y008775D01*
X002366Y008820D01*
X002366Y009000D01*
X002321Y009045D01*
X002231Y009045D01*
X002186Y009000D01*
X002186Y008955D01*
X002231Y008910D01*
X002366Y008910D01*
X002321Y009775D02*
X002231Y009775D01*
X002186Y009820D01*
X002186Y009865D01*
X002231Y009910D01*
X002321Y009910D01*
X002366Y009865D01*
X002366Y009820D01*
X002321Y009775D01*
X002321Y009910D02*
X002366Y009955D01*
X002366Y010000D01*
X002321Y010045D01*
X002231Y010045D01*
X002186Y010000D01*
X002186Y009955D01*
X002231Y009910D01*
X002072Y009820D02*
X002027Y009775D01*
X001892Y009775D01*
X001892Y010045D01*
X002027Y010045D01*
X002072Y010000D01*
X002072Y009820D01*
X002027Y010775D02*
X001892Y010775D01*
X001892Y011045D01*
X002027Y011045D01*
X002072Y011000D01*
X002072Y010820D01*
X002027Y010775D01*
X002186Y010775D02*
X002186Y010820D01*
X002366Y011000D01*
X002366Y011045D01*
X002186Y011045D01*
X002231Y011775D02*
X002186Y011820D01*
X002186Y011910D01*
X002321Y011910D01*
X002366Y011865D01*
X002366Y011820D01*
X002321Y011775D01*
X002231Y011775D01*
X002186Y011910D02*
X002276Y012000D01*
X002366Y012045D01*
X002072Y012000D02*
X002072Y011820D01*
X002027Y011775D01*
X001892Y011775D01*
X001892Y012045D01*
X002027Y012045D01*
X002072Y012000D01*
X002027Y012775D02*
X001892Y012775D01*
X001892Y013045D01*
X002027Y013045D01*
X002072Y013000D01*
X002072Y012820D01*
X002027Y012775D01*
X002186Y012820D02*
X002231Y012775D01*
X002321Y012775D01*
X002366Y012820D01*
X002366Y012910D01*
X002321Y012955D01*
X002276Y012955D01*
X002186Y012910D01*
X002186Y013045D01*
X002366Y013045D01*
X002321Y013775D02*
X002321Y014045D01*
X002186Y013910D01*
X002366Y013910D01*
X002072Y013820D02*
X002072Y014000D01*
X002027Y014045D01*
X001892Y014045D01*
X001892Y013775D01*
X002027Y013775D01*
X002072Y013820D01*
X002027Y014775D02*
X001892Y014775D01*
X001892Y015045D01*
X002027Y015045D01*
X002072Y015000D01*
X002072Y014820D01*
X002027Y014775D01*
X002186Y014820D02*
X002231Y014775D01*
X002321Y014775D01*
X002366Y014820D01*
X002366Y014865D01*
X002321Y014910D01*
X002276Y014910D01*
X002321Y014910D02*
X002366Y014955D01*
X002366Y015000D01*
X002321Y015045D01*
X002231Y015045D01*
X002186Y015000D01*
X002186Y015775D02*
X002366Y015955D01*
X002366Y016000D01*
X002321Y016045D01*
X002231Y016045D01*
X002186Y016000D01*
X002072Y016000D02*
X002027Y016045D01*
X001892Y016045D01*
X001892Y015775D01*
X002027Y015775D01*
X002072Y015820D01*
X002072Y016000D01*
X002186Y015775D02*
X002366Y015775D01*
X002366Y016775D02*
X002366Y017045D01*
X002481Y017045D02*
X002481Y016775D01*
X002616Y016775D01*
X002661Y016820D01*
X002661Y017000D01*
X002616Y017045D01*
X002481Y017045D01*
X002366Y016775D02*
X002186Y017045D01*
X002186Y016775D01*
X002072Y016820D02*
X002072Y016910D01*
X001982Y016910D01*
X002072Y016820D02*
X002027Y016775D01*
X001937Y016775D01*
X001892Y016820D01*
X001892Y017000D01*
X001937Y017045D01*
X002027Y017045D01*
X002072Y017000D01*
X002027Y017775D02*
X001937Y017775D01*
X001892Y017820D01*
X001982Y017910D02*
X002027Y017910D01*
X002072Y017865D01*
X002072Y017820D01*
X002027Y017775D01*
X002027Y017910D02*
X002072Y017955D01*
X002072Y018000D01*
X002027Y018045D01*
X001937Y018045D01*
X001892Y018000D01*
X002186Y018045D02*
X002186Y017865D01*
X002276Y017775D01*
X002366Y017865D01*
X002366Y018045D01*
X002481Y018000D02*
X002526Y018045D01*
X002616Y018045D01*
X002661Y018000D01*
X002661Y017955D01*
X002616Y017910D01*
X002661Y017865D01*
X002661Y017820D01*
X002616Y017775D01*
X002526Y017775D01*
X002481Y017820D01*
X002571Y017910D02*
X002616Y017910D01*
X003383Y017930D02*
X003383Y017885D01*
X003428Y017840D01*
X003518Y017840D01*
X003563Y017795D01*
X003563Y017750D01*
X003518Y017705D01*
X003428Y017705D01*
X003383Y017750D01*
X003383Y017930D02*
X003428Y017975D01*
X003518Y017975D01*
X003563Y017930D01*
X003677Y017975D02*
X003677Y017705D01*
X003677Y017795D02*
X003812Y017885D01*
X003923Y017885D02*
X003923Y017750D01*
X003968Y017705D01*
X004013Y017750D01*
X004058Y017705D01*
X004103Y017750D01*
X004103Y017885D01*
X004218Y017840D02*
X004263Y017885D01*
X004353Y017885D01*
X004398Y017840D01*
X004398Y017795D01*
X004218Y017795D01*
X004218Y017750D02*
X004218Y017840D01*
X004218Y017750D02*
X004263Y017705D01*
X004353Y017705D01*
X004512Y017705D02*
X004512Y017885D01*
X004512Y017795D02*
X004602Y017885D01*
X004647Y017885D01*
X004758Y017975D02*
X004803Y017975D01*
X004803Y017705D01*
X004758Y017705D02*
X004848Y017705D01*
X004954Y017885D02*
X004999Y017930D01*
X004999Y018020D01*
X005147Y017885D02*
X005101Y017840D01*
X005147Y017795D01*
X005237Y017795D01*
X005282Y017750D01*
X005237Y017705D01*
X005101Y017705D01*
X005147Y017885D02*
X005282Y017885D01*
X005310Y017405D02*
X005220Y017405D01*
X005175Y017360D01*
X005175Y017270D01*
X005220Y017225D01*
X005310Y017225D01*
X005355Y017270D01*
X005355Y017360D01*
X005310Y017405D01*
X005470Y017405D02*
X005560Y017405D01*
X005515Y017450D02*
X005515Y017270D01*
X005560Y017225D01*
X005666Y017270D02*
X005666Y017405D01*
X005666Y017270D02*
X005711Y017225D01*
X005846Y017225D01*
X005846Y017180D02*
X005801Y017135D01*
X005756Y017135D01*
X005846Y017180D02*
X005846Y017405D01*
X005961Y017405D02*
X006096Y017405D01*
X006141Y017360D01*
X006141Y017270D01*
X006096Y017225D01*
X005961Y017225D01*
X005961Y017135D02*
X005961Y017405D01*
X006256Y017360D02*
X006256Y017270D01*
X006301Y017225D01*
X006391Y017225D01*
X006436Y017315D02*
X006256Y017315D01*
X006256Y017360D02*
X006301Y017405D01*
X006391Y017405D01*
X006436Y017360D01*
X006436Y017315D01*
X006522Y017705D02*
X006477Y017750D01*
X006522Y017705D02*
X006612Y017705D01*
X006657Y017750D01*
X006657Y017795D01*
X006612Y017840D01*
X006522Y017840D01*
X006477Y017885D01*
X006477Y017930D01*
X006522Y017975D01*
X006612Y017975D01*
X006657Y017930D01*
X006816Y017885D02*
X006906Y017885D01*
X006951Y017840D01*
X006951Y017705D01*
X006816Y017705D01*
X006771Y017750D01*
X006816Y017795D01*
X006951Y017795D01*
X007066Y017705D02*
X007066Y017975D01*
X007066Y017885D02*
X007201Y017885D01*
X007246Y017840D01*
X007246Y017750D01*
X007201Y017705D01*
X007066Y017705D01*
X006935Y017495D02*
X006845Y017405D01*
X006845Y017225D01*
X006845Y017360D02*
X007025Y017360D01*
X007025Y017405D02*
X007025Y017225D01*
X006987Y017080D02*
X006987Y016770D01*
X006847Y016930D02*
X007137Y016930D01*
X007025Y017405D02*
X006935Y017495D01*
X007360Y017750D02*
X007360Y017840D01*
X007406Y017885D01*
X007496Y017885D01*
X007541Y017840D01*
X007541Y017795D01*
X007360Y017795D01*
X007360Y017750D02*
X007406Y017705D01*
X007496Y017705D01*
X007655Y017705D02*
X007655Y017885D01*
X007655Y017795D02*
X007745Y017885D01*
X007790Y017885D01*
X008303Y017045D02*
X008213Y016955D01*
X008213Y016775D01*
X008213Y016910D02*
X008393Y016910D01*
X008393Y016955D02*
X008393Y016775D01*
X008508Y016775D02*
X008508Y017045D01*
X008643Y017045D01*
X008688Y017000D01*
X008688Y016910D01*
X008643Y016865D01*
X008508Y016865D01*
X008598Y016865D02*
X008688Y016775D01*
X008802Y016775D02*
X008802Y017045D01*
X008983Y017045D01*
X009097Y017045D02*
X009097Y016775D01*
X008983Y016775D02*
X008802Y016775D01*
X008802Y016910D02*
X008892Y016910D01*
X009097Y016910D02*
X009187Y016910D01*
X009097Y017045D02*
X009277Y017045D01*
X009232Y017775D02*
X009097Y017775D01*
X009097Y018045D01*
X009232Y018045D01*
X009277Y018000D01*
X009277Y017820D01*
X009232Y017775D01*
X008983Y017775D02*
X008983Y018045D01*
X008802Y018045D02*
X008983Y017775D01*
X008802Y017775D02*
X008802Y018045D01*
X008688Y018000D02*
X008643Y018045D01*
X008553Y018045D01*
X008508Y018000D01*
X008508Y017820D01*
X008553Y017775D01*
X008643Y017775D01*
X008688Y017820D01*
X008688Y017910D01*
X008598Y017910D01*
X008303Y017045D02*
X008393Y016955D01*
X008553Y016045D02*
X008643Y016045D01*
X008688Y016000D01*
X008688Y015955D01*
X008643Y015910D01*
X008688Y015865D01*
X008688Y015820D01*
X008643Y015775D01*
X008553Y015775D01*
X008508Y015820D01*
X008598Y015910D02*
X008643Y015910D01*
X008508Y016000D02*
X008553Y016045D01*
X008802Y016045D02*
X008802Y015865D01*
X008892Y015775D01*
X008983Y015865D01*
X008983Y016045D01*
X009097Y016000D02*
X009142Y016045D01*
X009232Y016045D01*
X009277Y016000D01*
X009277Y015955D01*
X009232Y015910D01*
X009277Y015865D01*
X009277Y015820D01*
X009232Y015775D01*
X009142Y015775D01*
X009097Y015820D01*
X009187Y015910D02*
X009232Y015910D01*
X009240Y015045D02*
X009240Y014775D01*
X009195Y014775D02*
X009285Y014775D01*
X009285Y015045D02*
X009195Y015045D01*
X009081Y015045D02*
X008901Y014775D01*
X008786Y014775D02*
X008696Y014865D01*
X008741Y014865D02*
X008606Y014865D01*
X008606Y014775D02*
X008606Y015045D01*
X008741Y015045D01*
X008786Y015000D01*
X008786Y014910D01*
X008741Y014865D01*
X008901Y015045D02*
X009081Y014775D01*
X009142Y014045D02*
X009097Y014000D01*
X009097Y013820D01*
X009142Y013775D01*
X009232Y013775D01*
X009277Y013820D01*
X009277Y014000D01*
X009232Y014045D01*
X009142Y014045D01*
X008983Y014045D02*
X008802Y013775D01*
X008983Y013775D02*
X008802Y014045D01*
X008688Y014045D02*
X008508Y014045D01*
X008598Y014045D02*
X008598Y013775D01*
X008643Y013045D02*
X008508Y013045D01*
X008508Y012775D01*
X008508Y012865D02*
X008643Y012865D01*
X008688Y012910D01*
X008688Y013000D01*
X008643Y013045D01*
X008802Y013000D02*
X008802Y012955D01*
X008847Y012910D01*
X008937Y012910D01*
X008983Y012865D01*
X008983Y012820D01*
X008937Y012775D01*
X008847Y012775D01*
X008802Y012820D01*
X008688Y012775D02*
X008598Y012865D01*
X008802Y013000D02*
X008847Y013045D01*
X008937Y013045D01*
X008983Y013000D01*
X009097Y013045D02*
X009277Y013045D01*
X009187Y013045D02*
X009187Y012775D01*
X009097Y012045D02*
X009097Y011910D01*
X009187Y011955D01*
X009232Y011955D01*
X009277Y011910D01*
X009277Y011820D01*
X009232Y011775D01*
X009142Y011775D01*
X009097Y011820D01*
X008983Y011775D02*
X008983Y011955D01*
X008892Y012045D01*
X008802Y011955D01*
X008802Y011775D01*
X008802Y011910D02*
X008983Y011910D01*
X009097Y012045D02*
X009277Y012045D01*
X009232Y011045D02*
X009097Y010910D01*
X009277Y010910D01*
X009232Y010775D02*
X009232Y011045D01*
X008983Y010955D02*
X008983Y010775D01*
X008983Y010910D02*
X008802Y010910D01*
X008802Y010955D02*
X008802Y010775D01*
X008802Y010955D02*
X008892Y011045D01*
X008983Y010955D01*
X008892Y010045D02*
X008983Y009955D01*
X008983Y009775D01*
X009097Y009820D02*
X009142Y009775D01*
X009232Y009775D01*
X009277Y009820D01*
X009277Y009865D01*
X009232Y009910D01*
X009187Y009910D01*
X009232Y009910D02*
X009277Y009955D01*
X009277Y010000D01*
X009232Y010045D01*
X009142Y010045D01*
X009097Y010000D01*
X008983Y009910D02*
X008802Y009910D01*
X008802Y009955D02*
X008892Y010045D01*
X008802Y009955D02*
X008802Y009775D01*
X008892Y009045D02*
X008983Y008955D01*
X008983Y008775D01*
X009097Y008775D02*
X009277Y008955D01*
X009277Y009000D01*
X009232Y009045D01*
X009142Y009045D01*
X009097Y009000D01*
X008983Y008910D02*
X008802Y008910D01*
X008802Y008955D02*
X008892Y009045D01*
X008802Y008955D02*
X008802Y008775D01*
X009097Y008775D02*
X009277Y008775D01*
X009187Y008045D02*
X009097Y007955D01*
X008983Y007955D02*
X008983Y007775D01*
X009097Y007775D02*
X009277Y007775D01*
X009187Y007775D02*
X009187Y008045D01*
X008983Y007955D02*
X008892Y008045D01*
X008802Y007955D01*
X008802Y007775D01*
X008802Y007910D02*
X008983Y007910D01*
X008892Y007045D02*
X008983Y006955D01*
X008983Y006775D01*
X009097Y006820D02*
X009277Y007000D01*
X009277Y006820D01*
X009232Y006775D01*
X009142Y006775D01*
X009097Y006820D01*
X009097Y007000D01*
X009142Y007045D01*
X009232Y007045D01*
X009277Y007000D01*
X008983Y006910D02*
X008802Y006910D01*
X008802Y006955D02*
X008892Y007045D01*
X008802Y006955D02*
X008802Y006775D01*
X008892Y006045D02*
X008892Y005775D01*
X008802Y005775D02*
X008983Y005775D01*
X009097Y005775D02*
X009097Y005820D01*
X009277Y006000D01*
X009277Y006045D01*
X009097Y006045D01*
X008892Y006045D02*
X008802Y005955D01*
X008688Y006000D02*
X008688Y005820D01*
X008643Y005775D01*
X008508Y005775D01*
X008508Y006045D01*
X008643Y006045D01*
X008688Y006000D01*
X008643Y005045D02*
X008508Y005045D01*
X008508Y004775D01*
X008643Y004775D01*
X008688Y004820D01*
X008688Y005000D01*
X008643Y005045D01*
X008802Y004955D02*
X008892Y005045D01*
X008892Y004775D01*
X008802Y004775D02*
X008983Y004775D01*
X009097Y004820D02*
X009097Y004910D01*
X009232Y004910D01*
X009277Y004865D01*
X009277Y004820D01*
X009232Y004775D01*
X009142Y004775D01*
X009097Y004820D01*
X009097Y004910D02*
X009187Y005000D01*
X009277Y005045D01*
X009241Y002635D02*
X009061Y002365D01*
X009241Y002365D02*
X009061Y002635D01*
X008947Y002635D02*
X008767Y002635D01*
X008857Y002635D02*
X008857Y002365D01*
X008902Y001635D02*
X008767Y001635D01*
X008767Y001365D01*
X008767Y001455D02*
X008902Y001455D01*
X008947Y001500D01*
X008947Y001590D01*
X008902Y001635D01*
X008857Y001455D02*
X008947Y001365D01*
X009061Y001365D02*
X009241Y001635D01*
X009061Y001635D02*
X009241Y001365D01*
X006567Y004208D02*
X006612Y004253D01*
X006612Y004343D01*
X006567Y004388D01*
X006522Y004388D01*
X006477Y004343D01*
X006477Y004253D01*
X006432Y004208D01*
X006386Y004208D01*
X006341Y004253D01*
X006341Y004343D01*
X006386Y004388D01*
X006386Y004503D02*
X006567Y004503D01*
X006612Y004548D01*
X006612Y004638D01*
X006567Y004683D01*
X006612Y004797D02*
X006612Y004977D01*
X006612Y004797D02*
X006341Y004797D01*
X006386Y004683D02*
X006341Y004638D01*
X006341Y004548D01*
X006386Y004503D01*
X006386Y005208D02*
X006341Y005253D01*
X006341Y005343D01*
X006386Y005388D01*
X006477Y005343D02*
X006522Y005388D01*
X006567Y005388D01*
X006612Y005343D01*
X006612Y005253D01*
X006567Y005208D01*
X006477Y005253D02*
X006477Y005343D01*
X006477Y005253D02*
X006432Y005208D01*
X006386Y005208D01*
X006341Y005503D02*
X006341Y005638D01*
X006386Y005683D01*
X006567Y005683D01*
X006612Y005638D01*
X006612Y005503D01*
X006341Y005503D01*
X006432Y005797D02*
X006341Y005887D01*
X006432Y005977D01*
X006612Y005977D01*
X006477Y005977D02*
X006477Y005797D01*
X006432Y005797D02*
X006612Y005797D01*
X006612Y006208D02*
X006341Y006208D01*
X006341Y006343D01*
X006386Y006388D01*
X006477Y006388D01*
X006522Y006343D01*
X006522Y006208D01*
X006612Y006503D02*
X006341Y006503D01*
X006341Y006683D02*
X006612Y006683D01*
X006522Y006593D01*
X006612Y006503D01*
X006612Y006797D02*
X006341Y006797D01*
X006341Y006932D01*
X006386Y006977D01*
X006477Y006977D01*
X006522Y006932D01*
X006522Y006797D01*
X006522Y006887D02*
X006612Y006977D01*
X006567Y007208D02*
X006386Y007208D01*
X006341Y007253D01*
X006341Y007343D01*
X006386Y007388D01*
X006477Y007388D02*
X006477Y007298D01*
X006477Y007388D02*
X006567Y007388D01*
X006612Y007343D01*
X006612Y007253D01*
X006567Y007208D01*
X006612Y007503D02*
X006341Y007503D01*
X006612Y007683D01*
X006341Y007683D01*
X006341Y007797D02*
X006341Y007932D01*
X006386Y007977D01*
X006567Y007977D01*
X006612Y007932D01*
X006612Y007797D01*
X006341Y007797D01*
X006267Y008925D02*
X006267Y010575D01*
X005667Y010303D02*
X005667Y010197D01*
X005667Y009303D02*
X005667Y009197D01*
X006987Y011520D02*
X006987Y011830D01*
X006847Y011680D02*
X007137Y011680D01*
X006987Y013270D02*
X006987Y013580D01*
X006847Y013430D02*
X007137Y013430D01*
X006987Y015020D02*
X006987Y015330D01*
X006847Y015180D02*
X007137Y015180D01*
X006317Y017705D02*
X006227Y017705D01*
X006182Y017750D01*
X006182Y017840D01*
X006227Y017885D01*
X006317Y017885D01*
X006362Y017840D01*
X006362Y017750D01*
X006317Y017705D01*
X006076Y017705D02*
X005985Y017705D01*
X006030Y017705D02*
X006030Y017885D01*
X005985Y017885D01*
X006030Y017975D02*
X006030Y018020D01*
X005871Y017975D02*
X005691Y017975D01*
X005691Y017705D01*
X005691Y017840D02*
X005781Y017840D01*
X005069Y017405D02*
X004979Y017405D01*
X005024Y017450D02*
X005024Y017270D01*
X005069Y017225D01*
X004864Y017270D02*
X004864Y017360D01*
X004819Y017405D01*
X004729Y017405D01*
X004684Y017360D01*
X004684Y017270D01*
X004729Y017225D01*
X004819Y017225D01*
X004864Y017270D01*
X004574Y017405D02*
X004529Y017405D01*
X004439Y017315D01*
X004439Y017225D02*
X004439Y017405D01*
X004324Y017360D02*
X004279Y017315D01*
X004144Y017315D01*
X004144Y017225D02*
X004144Y017495D01*
X004279Y017495D01*
X004324Y017450D01*
X004324Y017360D01*
X003812Y017705D02*
X003677Y017795D01*
D11*
X000867Y002850D02*
X000867Y001150D01*
X000869Y001133D01*
X000873Y001116D01*
X000880Y001100D01*
X000890Y001086D01*
X000903Y001073D01*
X000917Y001063D01*
X000933Y001056D01*
X000950Y001052D01*
X000967Y001050D01*
X001767Y001050D01*
X001784Y001052D01*
X001801Y001056D01*
X001817Y001063D01*
X001831Y001073D01*
X001844Y001086D01*
X001854Y001100D01*
X001861Y001116D01*
X001865Y001133D01*
X001867Y001150D01*
X001867Y002850D01*
X001865Y002867D01*
X001861Y002884D01*
X001854Y002900D01*
X001844Y002914D01*
X001831Y002927D01*
X001817Y002937D01*
X001801Y002944D01*
X001784Y002948D01*
X001767Y002950D01*
X000967Y002950D01*
X000950Y002948D01*
X000933Y002944D01*
X000917Y002937D01*
X000903Y002927D01*
X000890Y002914D01*
X000880Y002900D01*
X000873Y002884D01*
X000869Y002867D01*
X000867Y002850D01*
X001367Y002150D02*
X001367Y002100D01*
X001367Y001900D02*
X001367Y001850D01*
X002517Y007750D02*
X003217Y007750D01*
X003234Y007752D01*
X003251Y007756D01*
X003267Y007763D01*
X003281Y007773D01*
X003294Y007786D01*
X003304Y007800D01*
X003311Y007816D01*
X003315Y007833D01*
X003317Y007850D01*
X003317Y008000D01*
X003267Y008050D01*
X003267Y009950D01*
X003317Y010000D01*
X003317Y010150D01*
X003417Y010150D02*
X003417Y010000D01*
X003467Y009950D01*
X003467Y008050D01*
X003417Y008000D01*
X003417Y007850D01*
X003419Y007833D01*
X003423Y007816D01*
X003430Y007800D01*
X003440Y007786D01*
X003453Y007773D01*
X003467Y007763D01*
X003483Y007756D01*
X003500Y007752D01*
X003517Y007750D01*
X004217Y007750D01*
X004234Y007752D01*
X004251Y007756D01*
X004267Y007763D01*
X004281Y007773D01*
X004294Y007786D01*
X004304Y007800D01*
X004311Y007816D01*
X004315Y007833D01*
X004317Y007850D01*
X004317Y008000D01*
X004267Y008050D01*
X004267Y009950D01*
X004317Y010000D01*
X004317Y010150D01*
X004315Y010167D01*
X004311Y010184D01*
X004304Y010200D01*
X004294Y010214D01*
X004281Y010227D01*
X004267Y010237D01*
X004251Y010244D01*
X004234Y010248D01*
X004217Y010250D01*
X003517Y010250D01*
X003500Y010248D01*
X003483Y010244D01*
X003467Y010237D01*
X003453Y010227D01*
X003440Y010214D01*
X003430Y010200D01*
X003423Y010184D01*
X003419Y010167D01*
X003417Y010150D01*
X003317Y010150D02*
X003315Y010167D01*
X003311Y010184D01*
X003304Y010200D01*
X003294Y010214D01*
X003281Y010227D01*
X003267Y010237D01*
X003251Y010244D01*
X003234Y010248D01*
X003217Y010250D01*
X002517Y010250D01*
X002500Y010248D01*
X002483Y010244D01*
X002467Y010237D01*
X002453Y010227D01*
X002440Y010214D01*
X002430Y010200D01*
X002423Y010184D01*
X002419Y010167D01*
X002417Y010150D01*
X002417Y010000D01*
X002467Y009950D01*
X002467Y008050D01*
X002417Y008000D01*
X002417Y007850D01*
X002419Y007833D01*
X002423Y007816D01*
X002430Y007800D01*
X002440Y007786D01*
X002453Y007773D01*
X002467Y007763D01*
X002483Y007756D01*
X002500Y007752D01*
X002517Y007750D01*
X002517Y012750D02*
X003217Y012750D01*
X003234Y012752D01*
X003251Y012756D01*
X003267Y012763D01*
X003281Y012773D01*
X003294Y012786D01*
X003304Y012800D01*
X003311Y012816D01*
X003315Y012833D01*
X003317Y012850D01*
X003317Y013000D01*
X003267Y013050D01*
X003267Y014950D01*
X003317Y015000D01*
X003317Y015150D01*
X003417Y015150D02*
X003417Y015000D01*
X003467Y014950D01*
X003467Y013050D01*
X003417Y013000D01*
X003417Y012850D01*
X003419Y012833D01*
X003423Y012816D01*
X003430Y012800D01*
X003440Y012786D01*
X003453Y012773D01*
X003467Y012763D01*
X003483Y012756D01*
X003500Y012752D01*
X003517Y012750D01*
X004217Y012750D01*
X004234Y012752D01*
X004251Y012756D01*
X004267Y012763D01*
X004281Y012773D01*
X004294Y012786D01*
X004304Y012800D01*
X004311Y012816D01*
X004315Y012833D01*
X004317Y012850D01*
X004317Y013000D01*
X004267Y013050D01*
X004267Y014950D01*
X004317Y015000D01*
X004317Y015150D01*
X004417Y015150D02*
X004417Y015000D01*
X004467Y014950D01*
X004467Y013050D01*
X004417Y013000D01*
X004417Y012850D01*
X004419Y012833D01*
X004423Y012816D01*
X004430Y012800D01*
X004440Y012786D01*
X004453Y012773D01*
X004467Y012763D01*
X004483Y012756D01*
X004500Y012752D01*
X004517Y012750D01*
X005217Y012750D01*
X005234Y012752D01*
X005251Y012756D01*
X005267Y012763D01*
X005281Y012773D01*
X005294Y012786D01*
X005304Y012800D01*
X005311Y012816D01*
X005315Y012833D01*
X005317Y012850D01*
X005317Y013000D01*
X005267Y013050D01*
X005267Y014950D01*
X005317Y015000D01*
X005317Y015150D01*
X005417Y015150D02*
X005417Y015000D01*
X005467Y014950D01*
X005467Y013050D01*
X005417Y013000D01*
X005417Y012850D01*
X005419Y012833D01*
X005423Y012816D01*
X005430Y012800D01*
X005440Y012786D01*
X005453Y012773D01*
X005467Y012763D01*
X005483Y012756D01*
X005500Y012752D01*
X005517Y012750D01*
X006217Y012750D01*
X006234Y012752D01*
X006251Y012756D01*
X006267Y012763D01*
X006281Y012773D01*
X006294Y012786D01*
X006304Y012800D01*
X006311Y012816D01*
X006315Y012833D01*
X006317Y012850D01*
X006317Y013000D01*
X006267Y013050D01*
X006267Y014950D01*
X006317Y015000D01*
X006317Y015150D01*
X006315Y015167D01*
X006311Y015184D01*
X006304Y015200D01*
X006294Y015214D01*
X006281Y015227D01*
X006267Y015237D01*
X006251Y015244D01*
X006234Y015248D01*
X006217Y015250D01*
X005517Y015250D01*
X005500Y015248D01*
X005483Y015244D01*
X005467Y015237D01*
X005453Y015227D01*
X005440Y015214D01*
X005430Y015200D01*
X005423Y015184D01*
X005419Y015167D01*
X005417Y015150D01*
X005317Y015150D02*
X005315Y015167D01*
X005311Y015184D01*
X005304Y015200D01*
X005294Y015214D01*
X005281Y015227D01*
X005267Y015237D01*
X005251Y015244D01*
X005234Y015248D01*
X005217Y015250D01*
X004517Y015250D01*
X004500Y015248D01*
X004483Y015244D01*
X004467Y015237D01*
X004453Y015227D01*
X004440Y015214D01*
X004430Y015200D01*
X004423Y015184D01*
X004419Y015167D01*
X004417Y015150D01*
X004317Y015150D02*
X004315Y015167D01*
X004311Y015184D01*
X004304Y015200D01*
X004294Y015214D01*
X004281Y015227D01*
X004267Y015237D01*
X004251Y015244D01*
X004234Y015248D01*
X004217Y015250D01*
X003517Y015250D01*
X003500Y015248D01*
X003483Y015244D01*
X003467Y015237D01*
X003453Y015227D01*
X003440Y015214D01*
X003430Y015200D01*
X003423Y015184D01*
X003419Y015167D01*
X003417Y015150D01*
X003317Y015150D02*
X003315Y015167D01*
X003311Y015184D01*
X003304Y015200D01*
X003294Y015214D01*
X003281Y015227D01*
X003267Y015237D01*
X003251Y015244D01*
X003234Y015248D01*
X003217Y015250D01*
X002517Y015250D01*
X002500Y015248D01*
X002483Y015244D01*
X002467Y015237D01*
X002453Y015227D01*
X002440Y015214D01*
X002430Y015200D01*
X002423Y015184D01*
X002419Y015167D01*
X002417Y015150D01*
X002417Y015000D01*
X002467Y014950D01*
X002467Y013050D01*
X002417Y013000D01*
X002417Y012850D01*
X002419Y012833D01*
X002423Y012816D01*
X002430Y012800D01*
X002440Y012786D01*
X002453Y012773D01*
X002467Y012763D01*
X002483Y012756D01*
X002500Y012752D01*
X002517Y012750D01*
X006528Y012637D02*
X006585Y012580D01*
X006698Y012580D01*
X006755Y012637D01*
X006755Y012864D02*
X006698Y012920D01*
X006585Y012920D01*
X006528Y012864D01*
X006528Y012637D01*
X006528Y011170D02*
X006698Y011170D01*
X006755Y011114D01*
X006755Y010887D01*
X006698Y010830D01*
X006528Y010830D01*
X006528Y011170D01*
X007617Y008300D02*
X007617Y006700D01*
X008617Y006700D01*
X008617Y008300D01*
X007617Y008300D01*
X007867Y007900D02*
X008117Y007500D01*
X008367Y007500D01*
X008117Y007500D02*
X008367Y007900D01*
X007867Y007900D01*
X008117Y008100D02*
X008117Y007500D01*
X007867Y007500D01*
X008117Y007500D02*
X008117Y007250D01*
X006698Y014330D02*
X006528Y014330D01*
X006528Y014670D01*
X006698Y014670D01*
X006755Y014614D01*
X006755Y014557D01*
X006698Y014500D01*
X006528Y014500D01*
X006698Y014500D02*
X006755Y014443D01*
X006755Y014387D01*
X006698Y014330D01*
X006755Y016080D02*
X006755Y016307D01*
X006642Y016420D01*
X006528Y016307D01*
X006528Y016080D01*
X006528Y016250D02*
X006755Y016250D01*
D12*
X004020Y009100D02*
X003953Y009067D01*
X003887Y009000D01*
X003987Y009000D01*
X004020Y008967D01*
X004020Y008933D01*
X003987Y008900D01*
X003920Y008900D01*
X003887Y008933D01*
X003887Y009000D01*
X003799Y009000D02*
X003799Y009067D01*
X003766Y009100D01*
X003666Y009100D01*
X003666Y008900D01*
X003666Y008967D02*
X003766Y008967D01*
X003799Y009000D01*
X003732Y008967D02*
X003799Y008900D01*
X003020Y008933D02*
X002987Y008900D01*
X002920Y008900D01*
X002887Y008933D01*
X002887Y009000D02*
X002953Y009033D01*
X002987Y009033D01*
X003020Y009000D01*
X003020Y008933D01*
X003020Y009100D02*
X002887Y009100D01*
X002887Y009000D01*
X002799Y009000D02*
X002766Y008967D01*
X002666Y008967D01*
X002732Y008967D02*
X002799Y008900D01*
X002799Y009000D02*
X002799Y009067D01*
X002766Y009100D01*
X002666Y009100D01*
X002666Y008900D01*
X003175Y005460D02*
X003175Y005327D01*
X003242Y005260D01*
X003308Y005327D01*
X003308Y005460D01*
X003396Y005460D02*
X003463Y005460D01*
X003429Y005460D02*
X003429Y005260D01*
X003396Y005260D02*
X003463Y005260D01*
X003543Y005260D02*
X003543Y005460D01*
X003643Y005460D01*
X003677Y005427D01*
X003677Y005393D01*
X003643Y005360D01*
X003543Y005360D01*
X003543Y005260D02*
X003643Y005260D01*
X003677Y005293D01*
X003677Y005327D01*
X003643Y005360D01*
X003764Y005327D02*
X003864Y005327D01*
X003898Y005360D01*
X003898Y005427D01*
X003864Y005460D01*
X003764Y005460D01*
X003764Y005260D01*
X003831Y005327D02*
X003898Y005260D01*
X003985Y005260D02*
X003985Y005393D01*
X004052Y005460D01*
X004119Y005393D01*
X004119Y005260D01*
X004119Y005360D02*
X003985Y005360D01*
X004206Y005460D02*
X004340Y005460D01*
X004273Y005460D02*
X004273Y005260D01*
X004427Y005260D02*
X004561Y005260D01*
X004494Y005360D02*
X004427Y005360D01*
X004427Y005460D02*
X004427Y005260D01*
X004427Y005460D02*
X004561Y005460D01*
D13*
X004617Y005125D02*
X004867Y004875D01*
X004867Y004375D01*
X004617Y004125D01*
X004117Y004125D01*
X003867Y004375D01*
X003617Y004125D01*
X003117Y004125D01*
X002867Y004375D01*
X002867Y004875D01*
X003117Y005125D01*
X003617Y005125D01*
X003867Y004875D01*
X004117Y005125D01*
X004617Y005125D01*
X005117Y004875D02*
X005117Y004375D01*
X005367Y004125D01*
X005867Y004125D01*
X006117Y004375D01*
X006117Y004875D01*
X005867Y005125D01*
X006117Y005375D01*
X006117Y005875D01*
X005867Y006125D01*
X006117Y006375D01*
X006117Y006875D01*
X005867Y007125D01*
X006117Y007375D01*
X006117Y007875D01*
X005867Y008125D01*
X005367Y008125D01*
X005117Y007875D01*
X005117Y007375D01*
X005367Y007125D01*
X005117Y006875D01*
X005117Y006375D01*
X005367Y006125D01*
X005117Y005875D01*
X005117Y005375D01*
X005367Y005125D01*
X005117Y004875D01*
X001617Y004750D02*
X001367Y004500D01*
X000867Y004500D01*
X000617Y004750D01*
X000617Y005250D01*
X000867Y005500D01*
X000617Y005750D01*
X000617Y006250D01*
X000867Y006500D01*
X000617Y006750D01*
X000617Y007250D01*
X000867Y007500D01*
X000617Y007750D01*
X000617Y008250D01*
X000867Y008500D01*
X000617Y008750D01*
X000617Y009250D01*
X000867Y009500D01*
X000617Y009750D01*
X000617Y010250D01*
X000867Y010500D01*
X000617Y010750D01*
X000617Y011250D01*
X000867Y011500D01*
X000617Y011750D01*
X000617Y012250D01*
X000867Y012500D01*
X000617Y012750D01*
X000617Y013250D01*
X000867Y013500D01*
X000617Y013750D01*
X000617Y014250D01*
X000867Y014500D01*
X000617Y014750D01*
X000617Y015250D01*
X000867Y015500D01*
X000617Y015750D01*
X000617Y016250D01*
X000867Y016500D01*
X000617Y016750D01*
X000617Y017250D01*
X000867Y017500D01*
X000617Y017750D01*
X000617Y018250D01*
X000867Y018500D01*
X001367Y018500D01*
X001617Y018250D01*
X001617Y017750D01*
X001367Y017500D01*
X001617Y017250D01*
X001617Y016750D01*
X001367Y016500D01*
X001617Y016250D01*
X001617Y015750D01*
X001367Y015500D01*
X001617Y015250D01*
X001617Y014750D01*
X001367Y014500D01*
X001617Y014250D01*
X001617Y013750D01*
X001367Y013500D01*
X001617Y013250D01*
X001617Y012750D01*
X001367Y012500D01*
X001617Y012250D01*
X001617Y011750D01*
X001367Y011500D01*
X001617Y011250D01*
X001617Y010750D01*
X001367Y010500D01*
X001617Y010250D01*
X001617Y009750D01*
X001367Y009500D01*
X001617Y009250D01*
X001617Y008750D01*
X001367Y008500D01*
X001617Y008250D01*
X001617Y007750D01*
X001367Y007500D01*
X001617Y007250D01*
X001617Y006750D01*
X001367Y006500D01*
X001617Y006250D01*
X001617Y005750D01*
X001367Y005500D01*
X001617Y005250D01*
X001617Y004750D01*
X009367Y002750D02*
X009367Y002250D01*
X009617Y002000D01*
X009367Y001750D01*
X009367Y001250D01*
X009617Y001000D01*
X010117Y001000D01*
X010367Y001250D01*
X010367Y001750D01*
X010117Y002000D01*
X010367Y002250D01*
X010367Y002750D01*
X010117Y003000D01*
X009617Y003000D01*
X009367Y002750D01*
X009867Y004500D02*
X010367Y004500D01*
X010617Y004750D01*
X010617Y005250D01*
X010367Y005500D01*
X010617Y005750D01*
X010617Y006250D01*
X010367Y006500D01*
X010617Y006750D01*
X010617Y007250D01*
X010367Y007500D01*
X010617Y007750D01*
X010617Y008250D01*
X010367Y008500D01*
X010617Y008750D01*
X010617Y009250D01*
X010367Y009500D01*
X010617Y009750D01*
X010617Y010250D01*
X010367Y010500D01*
X010617Y010750D01*
X010617Y011250D01*
X010367Y011500D01*
X010617Y011750D01*
X010617Y012250D01*
X010367Y012500D01*
X010617Y012750D01*
X010617Y013250D01*
X010367Y013500D01*
X010617Y013750D01*
X010617Y014250D01*
X010367Y014500D01*
X010617Y014750D01*
X010617Y015250D01*
X010367Y015500D01*
X010617Y015750D01*
X010617Y016250D01*
X010367Y016500D01*
X010617Y016750D01*
X010617Y017250D01*
X010367Y017500D01*
X010617Y017750D01*
X010617Y018250D01*
X010367Y018500D01*
X009867Y018500D01*
X009617Y018250D01*
X009617Y017750D01*
X009867Y017500D01*
X009617Y017250D01*
X009617Y016750D01*
X009867Y016500D01*
X009617Y016250D01*
X009617Y015750D01*
X009867Y015500D01*
X009617Y015250D01*
X009617Y014750D01*
X009867Y014500D01*
X009617Y014250D01*
X009617Y013750D01*
X009867Y013500D01*
X009617Y013250D01*
X009617Y012750D01*
X009867Y012500D01*
X009617Y012250D01*
X009617Y011750D01*
X009867Y011500D01*
X009617Y011250D01*
X009617Y010750D01*
X009867Y010500D01*
X009617Y010250D01*
X009617Y009750D01*
X009867Y009500D01*
X009617Y009250D01*
X009617Y008750D01*
X009867Y008500D01*
X009617Y008250D01*
X009617Y007750D01*
X009867Y007500D01*
X009617Y007250D01*
X009617Y006750D01*
X009867Y006500D01*
X009617Y006250D01*
X009617Y005750D01*
X009867Y005500D01*
X009617Y005250D01*
X009617Y004750D01*
X009867Y004500D01*
D14*
X007865Y011626D02*
X007865Y011572D01*
X007864Y011573D02*
X007820Y011571D01*
X007777Y011566D01*
X007734Y011557D01*
X007692Y011546D01*
X007651Y011531D01*
X007611Y011513D01*
X007572Y011491D01*
X007536Y011468D01*
X007501Y011441D01*
X007468Y011412D01*
X007438Y011380D01*
X007410Y011346D01*
X007368Y011378D01*
X007367Y011379D01*
X007398Y011416D01*
X007431Y011450D01*
X007466Y011482D01*
X007504Y011512D01*
X007545Y011538D01*
X007587Y011561D01*
X007630Y011581D01*
X007675Y011597D01*
X007721Y011610D01*
X007769Y011619D01*
X007816Y011625D01*
X007864Y011627D01*
X007864Y011622D01*
X007816Y011620D01*
X007769Y011614D01*
X007723Y011605D01*
X007677Y011592D01*
X007632Y011576D01*
X007589Y011556D01*
X007547Y011533D01*
X007507Y011507D01*
X007470Y011479D01*
X007434Y011447D01*
X007401Y011412D01*
X007371Y011376D01*
X007375Y011373D01*
X007405Y011409D01*
X007438Y011443D01*
X007473Y011475D01*
X007510Y011503D01*
X007550Y011529D01*
X007591Y011552D01*
X007634Y011571D01*
X007678Y011587D01*
X007724Y011600D01*
X007770Y011609D01*
X007817Y011615D01*
X007864Y011617D01*
X007864Y011612D01*
X007817Y011610D01*
X007771Y011604D01*
X007725Y011595D01*
X007680Y011583D01*
X007636Y011567D01*
X007593Y011547D01*
X007552Y011525D01*
X007513Y011499D01*
X007476Y011471D01*
X007441Y011440D01*
X007409Y011406D01*
X007379Y011370D01*
X007383Y011367D01*
X007413Y011402D01*
X007445Y011436D01*
X007479Y011467D01*
X007516Y011495D01*
X007555Y011521D01*
X007596Y011543D01*
X007638Y011562D01*
X007681Y011578D01*
X007726Y011590D01*
X007772Y011599D01*
X007818Y011605D01*
X007864Y011607D01*
X007864Y011602D01*
X007818Y011600D01*
X007772Y011595D01*
X007727Y011586D01*
X007683Y011573D01*
X007640Y011557D01*
X007598Y011538D01*
X007557Y011516D01*
X007519Y011491D01*
X007482Y011463D01*
X007448Y011432D01*
X007416Y011399D01*
X007387Y011364D01*
X007391Y011361D01*
X007420Y011396D01*
X007452Y011429D01*
X007486Y011459D01*
X007522Y011487D01*
X007560Y011512D01*
X007600Y011534D01*
X007642Y011553D01*
X007684Y011568D01*
X007728Y011581D01*
X007773Y011590D01*
X007818Y011595D01*
X007864Y011597D01*
X007864Y011592D01*
X007819Y011590D01*
X007774Y011585D01*
X007730Y011576D01*
X007686Y011564D01*
X007643Y011548D01*
X007602Y011530D01*
X007563Y011508D01*
X007525Y011483D01*
X007489Y011455D01*
X007455Y011425D01*
X007424Y011393D01*
X007395Y011358D01*
X007399Y011355D01*
X007428Y011389D01*
X007459Y011422D01*
X007492Y011452D01*
X007528Y011479D01*
X007565Y011503D01*
X007604Y011525D01*
X007645Y011544D01*
X007687Y011559D01*
X007731Y011571D01*
X007775Y011580D01*
X007819Y011585D01*
X007864Y011587D01*
X007864Y011582D01*
X007820Y011580D01*
X007775Y011575D01*
X007732Y011566D01*
X007689Y011554D01*
X007647Y011539D01*
X007607Y011521D01*
X007568Y011499D01*
X007531Y011475D01*
X007495Y011448D01*
X007462Y011418D01*
X007431Y011386D01*
X007403Y011352D01*
X007407Y011349D01*
X007435Y011383D01*
X007466Y011415D01*
X007498Y011444D01*
X007533Y011471D01*
X007570Y011495D01*
X007609Y011516D01*
X007649Y011534D01*
X007691Y011549D01*
X007733Y011561D01*
X007776Y011570D01*
X007820Y011575D01*
X007864Y011577D01*
X007870Y010374D02*
X007870Y010428D01*
X007870Y010427D02*
X007917Y010429D01*
X007963Y010435D01*
X008009Y010445D01*
X008054Y010458D01*
X008098Y010475D01*
X008140Y010496D01*
X008180Y010520D01*
X008218Y010547D01*
X008254Y010577D01*
X008287Y010610D01*
X008317Y010646D01*
X008360Y010613D01*
X008330Y010577D01*
X008297Y010543D01*
X008261Y010512D01*
X008224Y010484D01*
X008184Y010459D01*
X008142Y010437D01*
X008099Y010418D01*
X008055Y010402D01*
X008010Y010389D01*
X007964Y010380D01*
X007917Y010375D01*
X007870Y010373D01*
X007870Y010378D01*
X007917Y010380D01*
X007963Y010385D01*
X008009Y010394D01*
X008054Y010407D01*
X008098Y010422D01*
X008140Y010441D01*
X008181Y010463D01*
X008221Y010488D01*
X008258Y010516D01*
X008293Y010547D01*
X008326Y010580D01*
X008356Y010616D01*
X008352Y010619D01*
X008322Y010584D01*
X008290Y010551D01*
X008255Y010520D01*
X008218Y010492D01*
X008179Y010468D01*
X008138Y010446D01*
X008096Y010427D01*
X008052Y010411D01*
X008008Y010399D01*
X007962Y010390D01*
X007916Y010385D01*
X007870Y010383D01*
X007870Y010388D01*
X007916Y010390D01*
X007961Y010395D01*
X008006Y010404D01*
X008051Y010416D01*
X008094Y010432D01*
X008136Y010450D01*
X008176Y010472D01*
X008215Y010497D01*
X008252Y010524D01*
X008286Y010554D01*
X008319Y010587D01*
X008348Y010622D01*
X008344Y010625D01*
X008315Y010590D01*
X008283Y010558D01*
X008249Y010528D01*
X008212Y010501D01*
X008174Y010476D01*
X008134Y010455D01*
X008092Y010436D01*
X008049Y010421D01*
X008005Y010409D01*
X007961Y010400D01*
X007915Y010395D01*
X007870Y010393D01*
X007870Y010398D01*
X007915Y010400D01*
X007960Y010405D01*
X008004Y010414D01*
X008048Y010426D01*
X008090Y010441D01*
X008132Y010459D01*
X008171Y010481D01*
X008209Y010505D01*
X008245Y010532D01*
X008279Y010562D01*
X008311Y010594D01*
X008340Y010628D01*
X008336Y010631D01*
X008307Y010597D01*
X008276Y010565D01*
X008242Y010536D01*
X008206Y010509D01*
X008169Y010485D01*
X008129Y010464D01*
X008088Y010446D01*
X008046Y010431D01*
X008003Y010419D01*
X007959Y010410D01*
X007915Y010405D01*
X007870Y010403D01*
X007870Y010408D01*
X007914Y010410D01*
X007958Y010415D01*
X008002Y010424D01*
X008045Y010435D01*
X008087Y010450D01*
X008127Y010468D01*
X008166Y010489D01*
X008204Y010513D01*
X008239Y010540D01*
X008273Y010569D01*
X008304Y010600D01*
X008332Y010634D01*
X008329Y010637D01*
X008300Y010604D01*
X008269Y010572D01*
X008236Y010543D01*
X008201Y010517D01*
X008164Y010493D01*
X008125Y010473D01*
X008085Y010455D01*
X008043Y010440D01*
X008001Y010428D01*
X007958Y010420D01*
X007914Y010415D01*
X007870Y010413D01*
X007870Y010418D01*
X007918Y010420D01*
X007965Y010426D01*
X008011Y010436D01*
X008057Y010450D01*
X008101Y010467D01*
X008144Y010488D01*
X008185Y010512D01*
X008224Y010540D01*
X008260Y010571D01*
X008294Y010604D01*
X008325Y010640D01*
X008321Y010643D01*
X008290Y010608D01*
X008257Y010574D01*
X008220Y010544D01*
X008182Y010517D01*
X008141Y010492D01*
X008099Y010472D01*
X008055Y010455D01*
X008010Y010441D01*
X007964Y010431D01*
X007917Y010425D01*
X007870Y010423D01*
X008375Y011366D02*
X008331Y011335D01*
X008332Y011335D02*
X008304Y011371D01*
X008273Y011404D01*
X008241Y011434D01*
X008205Y011462D01*
X008168Y011487D01*
X008129Y011509D01*
X008089Y011528D01*
X008046Y011544D01*
X008003Y011557D01*
X007959Y011566D01*
X007915Y011571D01*
X007870Y011573D01*
X007870Y011626D01*
X007870Y011627D01*
X007919Y011625D01*
X007968Y011619D01*
X008016Y011609D01*
X008063Y011595D01*
X008109Y011578D01*
X008154Y011558D01*
X008197Y011533D01*
X008237Y011506D01*
X008276Y011475D01*
X008312Y011442D01*
X008345Y011406D01*
X008375Y011367D01*
X008371Y011364D01*
X008341Y011402D01*
X008308Y011438D01*
X008273Y011471D01*
X008235Y011502D01*
X008194Y011529D01*
X008152Y011553D01*
X008107Y011574D01*
X008062Y011591D01*
X008015Y011604D01*
X007967Y011614D01*
X007919Y011620D01*
X007870Y011622D01*
X007870Y011617D01*
X007918Y011615D01*
X007966Y011609D01*
X008014Y011599D01*
X008060Y011586D01*
X008106Y011569D01*
X008149Y011549D01*
X008191Y011525D01*
X008232Y011498D01*
X008269Y011468D01*
X008305Y011435D01*
X008338Y011399D01*
X008367Y011361D01*
X008363Y011358D01*
X008334Y011396D01*
X008301Y011431D01*
X008266Y011464D01*
X008229Y011494D01*
X008189Y011521D01*
X008147Y011544D01*
X008104Y011564D01*
X008059Y011581D01*
X008013Y011594D01*
X007966Y011604D01*
X007918Y011610D01*
X007870Y011612D01*
X007870Y011607D01*
X007918Y011605D01*
X007965Y011599D01*
X008011Y011590D01*
X008057Y011576D01*
X008102Y011560D01*
X008145Y011540D01*
X008186Y011516D01*
X008226Y011490D01*
X008263Y011460D01*
X008298Y011428D01*
X008330Y011393D01*
X008359Y011355D01*
X008355Y011352D01*
X008326Y011389D01*
X008294Y011424D01*
X008260Y011456D01*
X008223Y011486D01*
X008184Y011512D01*
X008142Y011535D01*
X008100Y011555D01*
X008056Y011572D01*
X008010Y011585D01*
X007964Y011594D01*
X007917Y011600D01*
X007870Y011602D01*
X007870Y011597D01*
X007917Y011595D01*
X007963Y011589D01*
X008009Y011580D01*
X008054Y011567D01*
X008098Y011551D01*
X008140Y011531D01*
X008181Y011508D01*
X008220Y011482D01*
X008256Y011453D01*
X008291Y011421D01*
X008322Y011386D01*
X008351Y011349D01*
X008347Y011347D01*
X008318Y011383D01*
X008287Y011417D01*
X008253Y011449D01*
X008217Y011478D01*
X008178Y011504D01*
X008138Y011526D01*
X008096Y011546D01*
X008052Y011562D01*
X008008Y011575D01*
X007962Y011584D01*
X007916Y011590D01*
X007870Y011592D01*
X007870Y011587D01*
X007916Y011585D01*
X007962Y011579D01*
X008007Y011570D01*
X008051Y011557D01*
X008094Y011541D01*
X008136Y011522D01*
X008176Y011499D01*
X008214Y011474D01*
X008250Y011445D01*
X008283Y011414D01*
X008315Y011380D01*
X008343Y011344D01*
X008339Y011341D01*
X008311Y011377D01*
X008280Y011410D01*
X008247Y011441D01*
X008211Y011470D01*
X008173Y011495D01*
X008133Y011517D01*
X008092Y011537D01*
X008049Y011553D01*
X008005Y011565D01*
X007961Y011574D01*
X007916Y011580D01*
X007870Y011582D01*
X007870Y011577D01*
X007915Y011575D01*
X007960Y011569D01*
X008004Y011560D01*
X008048Y011548D01*
X008090Y011532D01*
X008131Y011513D01*
X008170Y011491D01*
X008208Y011466D01*
X008243Y011437D01*
X008276Y011407D01*
X008307Y011373D01*
X008335Y011338D01*
X007374Y010613D02*
X007417Y010646D01*
X007447Y010610D01*
X007480Y010577D01*
X007516Y010547D01*
X007554Y010520D01*
X007594Y010496D01*
X007636Y010475D01*
X007680Y010458D01*
X007725Y010445D01*
X007771Y010435D01*
X007817Y010429D01*
X007864Y010427D01*
X007864Y010374D01*
X007864Y010373D01*
X007817Y010375D01*
X007770Y010380D01*
X007724Y010389D01*
X007679Y010402D01*
X007635Y010418D01*
X007592Y010437D01*
X007550Y010459D01*
X007510Y010484D01*
X007473Y010512D01*
X007437Y010543D01*
X007404Y010577D01*
X007374Y010613D01*
X007378Y010616D01*
X007408Y010580D01*
X007441Y010547D01*
X007476Y010516D01*
X007513Y010488D01*
X007553Y010463D01*
X007594Y010441D01*
X007636Y010422D01*
X007680Y010407D01*
X007725Y010394D01*
X007771Y010385D01*
X007817Y010380D01*
X007864Y010378D01*
X007864Y010383D01*
X007818Y010385D01*
X007772Y010390D01*
X007726Y010399D01*
X007682Y010411D01*
X007638Y010427D01*
X007596Y010446D01*
X007555Y010468D01*
X007516Y010492D01*
X007479Y010520D01*
X007444Y010551D01*
X007412Y010584D01*
X007382Y010619D01*
X007386Y010622D01*
X007415Y010587D01*
X007448Y010554D01*
X007482Y010524D01*
X007519Y010497D01*
X007558Y010472D01*
X007598Y010450D01*
X007640Y010432D01*
X007683Y010416D01*
X007728Y010404D01*
X007773Y010395D01*
X007818Y010390D01*
X007864Y010388D01*
X007864Y010393D01*
X007819Y010395D01*
X007773Y010400D01*
X007729Y010409D01*
X007685Y010421D01*
X007642Y010436D01*
X007600Y010455D01*
X007560Y010476D01*
X007522Y010501D01*
X007485Y010528D01*
X007451Y010558D01*
X007419Y010590D01*
X007390Y010625D01*
X007394Y010628D01*
X007423Y010594D01*
X007455Y010562D01*
X007489Y010532D01*
X007525Y010505D01*
X007563Y010481D01*
X007602Y010459D01*
X007644Y010441D01*
X007686Y010426D01*
X007730Y010414D01*
X007774Y010405D01*
X007819Y010400D01*
X007864Y010398D01*
X007864Y010403D01*
X007819Y010405D01*
X007775Y010410D01*
X007731Y010419D01*
X007688Y010431D01*
X007646Y010446D01*
X007605Y010464D01*
X007565Y010485D01*
X007528Y010509D01*
X007492Y010536D01*
X007458Y010565D01*
X007427Y010597D01*
X007398Y010631D01*
X007402Y010634D01*
X007430Y010600D01*
X007461Y010569D01*
X007495Y010540D01*
X007530Y010513D01*
X007568Y010489D01*
X007607Y010468D01*
X007647Y010450D01*
X007689Y010435D01*
X007732Y010424D01*
X007776Y010415D01*
X007820Y010410D01*
X007864Y010408D01*
X007864Y010413D01*
X007820Y010415D01*
X007776Y010420D01*
X007733Y010428D01*
X007691Y010440D01*
X007649Y010455D01*
X007609Y010473D01*
X007570Y010493D01*
X007533Y010517D01*
X007498Y010543D01*
X007465Y010572D01*
X007434Y010604D01*
X007405Y010637D01*
X007409Y010640D01*
X007440Y010604D01*
X007474Y010571D01*
X007510Y010540D01*
X007549Y010512D01*
X007590Y010488D01*
X007633Y010467D01*
X007677Y010450D01*
X007723Y010436D01*
X007769Y010426D01*
X007816Y010420D01*
X007864Y010418D01*
X007864Y010423D01*
X007817Y010425D01*
X007770Y010431D01*
X007724Y010441D01*
X007679Y010455D01*
X007635Y010472D01*
X007593Y010492D01*
X007552Y010517D01*
X007514Y010544D01*
X007477Y010574D01*
X007444Y010608D01*
X007413Y010643D01*
X008375Y013116D02*
X008331Y013085D01*
X008332Y013085D02*
X008304Y013121D01*
X008273Y013154D01*
X008241Y013184D01*
X008205Y013212D01*
X008168Y013237D01*
X008129Y013259D01*
X008089Y013278D01*
X008046Y013294D01*
X008003Y013307D01*
X007959Y013316D01*
X007915Y013321D01*
X007870Y013323D01*
X007870Y013376D01*
X007870Y013377D01*
X007919Y013375D01*
X007968Y013369D01*
X008016Y013359D01*
X008063Y013345D01*
X008109Y013328D01*
X008154Y013308D01*
X008197Y013283D01*
X008237Y013256D01*
X008276Y013225D01*
X008312Y013192D01*
X008345Y013156D01*
X008375Y013117D01*
X008371Y013114D01*
X008341Y013152D01*
X008308Y013188D01*
X008273Y013221D01*
X008235Y013252D01*
X008194Y013279D01*
X008152Y013303D01*
X008107Y013324D01*
X008062Y013341D01*
X008015Y013354D01*
X007967Y013364D01*
X007919Y013370D01*
X007870Y013372D01*
X007870Y013367D01*
X007918Y013365D01*
X007966Y013359D01*
X008014Y013349D01*
X008060Y013336D01*
X008106Y013319D01*
X008149Y013299D01*
X008191Y013275D01*
X008232Y013248D01*
X008269Y013218D01*
X008305Y013185D01*
X008338Y013149D01*
X008367Y013111D01*
X008363Y013108D01*
X008334Y013146D01*
X008301Y013181D01*
X008266Y013214D01*
X008229Y013244D01*
X008189Y013271D01*
X008147Y013294D01*
X008104Y013314D01*
X008059Y013331D01*
X008013Y013344D01*
X007966Y013354D01*
X007918Y013360D01*
X007870Y013362D01*
X007870Y013357D01*
X007918Y013355D01*
X007965Y013349D01*
X008011Y013340D01*
X008057Y013326D01*
X008102Y013310D01*
X008145Y013290D01*
X008186Y013266D01*
X008226Y013240D01*
X008263Y013210D01*
X008298Y013178D01*
X008330Y013143D01*
X008359Y013105D01*
X008355Y013102D01*
X008326Y013139D01*
X008294Y013174D01*
X008260Y013206D01*
X008223Y013236D01*
X008184Y013262D01*
X008142Y013285D01*
X008100Y013305D01*
X008056Y013322D01*
X008010Y013335D01*
X007964Y013344D01*
X007917Y013350D01*
X007870Y013352D01*
X007870Y013347D01*
X007917Y013345D01*
X007963Y013339D01*
X008009Y013330D01*
X008054Y013317D01*
X008098Y013301D01*
X008140Y013281D01*
X008181Y013258D01*
X008220Y013232D01*
X008256Y013203D01*
X008291Y013171D01*
X008322Y013136D01*
X008351Y013099D01*
X008347Y013097D01*
X008318Y013133D01*
X008287Y013167D01*
X008253Y013199D01*
X008217Y013228D01*
X008178Y013254D01*
X008138Y013276D01*
X008096Y013296D01*
X008052Y013312D01*
X008008Y013325D01*
X007962Y013334D01*
X007916Y013340D01*
X007870Y013342D01*
X007870Y013337D01*
X007916Y013335D01*
X007962Y013329D01*
X008007Y013320D01*
X008051Y013307D01*
X008094Y013291D01*
X008136Y013272D01*
X008176Y013249D01*
X008214Y013224D01*
X008250Y013195D01*
X008283Y013164D01*
X008315Y013130D01*
X008343Y013094D01*
X008339Y013091D01*
X008311Y013127D01*
X008280Y013160D01*
X008247Y013191D01*
X008211Y013220D01*
X008173Y013245D01*
X008133Y013267D01*
X008092Y013287D01*
X008049Y013303D01*
X008005Y013315D01*
X007961Y013324D01*
X007916Y013330D01*
X007870Y013332D01*
X007870Y013327D01*
X007915Y013325D01*
X007960Y013319D01*
X008004Y013310D01*
X008048Y013298D01*
X008090Y013282D01*
X008131Y013263D01*
X008170Y013241D01*
X008208Y013216D01*
X008243Y013187D01*
X008276Y013157D01*
X008307Y013123D01*
X008335Y013088D01*
X007374Y012363D02*
X007417Y012396D01*
X007447Y012360D01*
X007480Y012327D01*
X007516Y012297D01*
X007554Y012270D01*
X007594Y012246D01*
X007636Y012225D01*
X007680Y012208D01*
X007725Y012195D01*
X007771Y012185D01*
X007817Y012179D01*
X007864Y012177D01*
X007864Y012124D01*
X007864Y012123D01*
X007817Y012125D01*
X007770Y012130D01*
X007724Y012139D01*
X007679Y012152D01*
X007635Y012168D01*
X007592Y012187D01*
X007550Y012209D01*
X007510Y012234D01*
X007473Y012262D01*
X007437Y012293D01*
X007404Y012327D01*
X007374Y012363D01*
X007378Y012366D01*
X007408Y012330D01*
X007441Y012297D01*
X007476Y012266D01*
X007513Y012238D01*
X007553Y012213D01*
X007594Y012191D01*
X007636Y012172D01*
X007680Y012157D01*
X007725Y012144D01*
X007771Y012135D01*
X007817Y012130D01*
X007864Y012128D01*
X007864Y012133D01*
X007818Y012135D01*
X007772Y012140D01*
X007726Y012149D01*
X007682Y012161D01*
X007638Y012177D01*
X007596Y012196D01*
X007555Y012218D01*
X007516Y012242D01*
X007479Y012270D01*
X007444Y012301D01*
X007412Y012334D01*
X007382Y012369D01*
X007386Y012372D01*
X007415Y012337D01*
X007448Y012304D01*
X007482Y012274D01*
X007519Y012247D01*
X007558Y012222D01*
X007598Y012200D01*
X007640Y012182D01*
X007683Y012166D01*
X007728Y012154D01*
X007773Y012145D01*
X007818Y012140D01*
X007864Y012138D01*
X007864Y012143D01*
X007819Y012145D01*
X007773Y012150D01*
X007729Y012159D01*
X007685Y012171D01*
X007642Y012186D01*
X007600Y012205D01*
X007560Y012226D01*
X007522Y012251D01*
X007485Y012278D01*
X007451Y012308D01*
X007419Y012340D01*
X007390Y012375D01*
X007394Y012378D01*
X007423Y012344D01*
X007455Y012312D01*
X007489Y012282D01*
X007525Y012255D01*
X007563Y012231D01*
X007602Y012209D01*
X007644Y012191D01*
X007686Y012176D01*
X007730Y012164D01*
X007774Y012155D01*
X007819Y012150D01*
X007864Y012148D01*
X007864Y012153D01*
X007819Y012155D01*
X007775Y012160D01*
X007731Y012169D01*
X007688Y012181D01*
X007646Y012196D01*
X007605Y012214D01*
X007565Y012235D01*
X007528Y012259D01*
X007492Y012286D01*
X007458Y012315D01*
X007427Y012347D01*
X007398Y012381D01*
X007402Y012384D01*
X007430Y012350D01*
X007461Y012319D01*
X007495Y012290D01*
X007530Y012263D01*
X007568Y012239D01*
X007607Y012218D01*
X007647Y012200D01*
X007689Y012185D01*
X007732Y012174D01*
X007776Y012165D01*
X007820Y012160D01*
X007864Y012158D01*
X007864Y012163D01*
X007820Y012165D01*
X007776Y012170D01*
X007733Y012178D01*
X007691Y012190D01*
X007649Y012205D01*
X007609Y012223D01*
X007570Y012243D01*
X007533Y012267D01*
X007498Y012293D01*
X007465Y012322D01*
X007434Y012354D01*
X007405Y012387D01*
X007409Y012390D01*
X007440Y012354D01*
X007474Y012321D01*
X007510Y012290D01*
X007549Y012262D01*
X007590Y012238D01*
X007633Y012217D01*
X007677Y012200D01*
X007723Y012186D01*
X007769Y012176D01*
X007816Y012170D01*
X007864Y012168D01*
X007864Y012173D01*
X007817Y012175D01*
X007770Y012181D01*
X007724Y012191D01*
X007679Y012205D01*
X007635Y012222D01*
X007593Y012242D01*
X007552Y012267D01*
X007514Y012294D01*
X007477Y012324D01*
X007444Y012358D01*
X007413Y012393D01*
X007870Y012124D02*
X007870Y012178D01*
X007870Y012177D02*
X007917Y012179D01*
X007963Y012185D01*
X008009Y012195D01*
X008054Y012208D01*
X008098Y012225D01*
X008140Y012246D01*
X008180Y012270D01*
X008218Y012297D01*
X008254Y012327D01*
X008287Y012360D01*
X008317Y012396D01*
X008360Y012363D01*
X008330Y012327D01*
X008297Y012293D01*
X008261Y012262D01*
X008224Y012234D01*
X008184Y012209D01*
X008142Y012187D01*
X008099Y012168D01*
X008055Y012152D01*
X008010Y012139D01*
X007964Y012130D01*
X007917Y012125D01*
X007870Y012123D01*
X007870Y012128D01*
X007917Y012130D01*
X007963Y012135D01*
X008009Y012144D01*
X008054Y012157D01*
X008098Y012172D01*
X008140Y012191D01*
X008181Y012213D01*
X008221Y012238D01*
X008258Y012266D01*
X008293Y012297D01*
X008326Y012330D01*
X008356Y012366D01*
X008352Y012369D01*
X008322Y012334D01*
X008290Y012301D01*
X008255Y012270D01*
X008218Y012242D01*
X008179Y012218D01*
X008138Y012196D01*
X008096Y012177D01*
X008052Y012161D01*
X008008Y012149D01*
X007962Y012140D01*
X007916Y012135D01*
X007870Y012133D01*
X007870Y012138D01*
X007916Y012140D01*
X007961Y012145D01*
X008006Y012154D01*
X008051Y012166D01*
X008094Y012182D01*
X008136Y012200D01*
X008176Y012222D01*
X008215Y012247D01*
X008252Y012274D01*
X008286Y012304D01*
X008319Y012337D01*
X008348Y012372D01*
X008344Y012375D01*
X008315Y012340D01*
X008283Y012308D01*
X008249Y012278D01*
X008212Y012251D01*
X008174Y012226D01*
X008134Y012205D01*
X008092Y012186D01*
X008049Y012171D01*
X008005Y012159D01*
X007961Y012150D01*
X007915Y012145D01*
X007870Y012143D01*
X007870Y012148D01*
X007915Y012150D01*
X007960Y012155D01*
X008004Y012164D01*
X008048Y012176D01*
X008090Y012191D01*
X008132Y012209D01*
X008171Y012231D01*
X008209Y012255D01*
X008245Y012282D01*
X008279Y012312D01*
X008311Y012344D01*
X008340Y012378D01*
X008336Y012381D01*
X008307Y012347D01*
X008276Y012315D01*
X008242Y012286D01*
X008206Y012259D01*
X008169Y012235D01*
X008129Y012214D01*
X008088Y012196D01*
X008046Y012181D01*
X008003Y012169D01*
X007959Y012160D01*
X007915Y012155D01*
X007870Y012153D01*
X007870Y012158D01*
X007914Y012160D01*
X007958Y012165D01*
X008002Y012174D01*
X008045Y012185D01*
X008087Y012200D01*
X008127Y012218D01*
X008166Y012239D01*
X008204Y012263D01*
X008239Y012290D01*
X008273Y012319D01*
X008304Y012350D01*
X008332Y012384D01*
X008329Y012387D01*
X008300Y012354D01*
X008269Y012322D01*
X008236Y012293D01*
X008201Y012267D01*
X008164Y012243D01*
X008125Y012223D01*
X008085Y012205D01*
X008043Y012190D01*
X008001Y012178D01*
X007958Y012170D01*
X007914Y012165D01*
X007870Y012163D01*
X007870Y012168D01*
X007918Y012170D01*
X007965Y012176D01*
X008011Y012186D01*
X008057Y012200D01*
X008101Y012217D01*
X008144Y012238D01*
X008185Y012262D01*
X008224Y012290D01*
X008260Y012321D01*
X008294Y012354D01*
X008325Y012390D01*
X008321Y012393D01*
X008290Y012358D01*
X008257Y012324D01*
X008220Y012294D01*
X008182Y012267D01*
X008141Y012242D01*
X008099Y012222D01*
X008055Y012205D01*
X008010Y012191D01*
X007964Y012181D01*
X007917Y012175D01*
X007870Y012173D01*
X007865Y013376D02*
X007865Y013322D01*
X007864Y013323D02*
X007820Y013321D01*
X007777Y013316D01*
X007734Y013307D01*
X007692Y013296D01*
X007651Y013281D01*
X007611Y013263D01*
X007572Y013241D01*
X007536Y013218D01*
X007501Y013191D01*
X007468Y013162D01*
X007438Y013130D01*
X007410Y013096D01*
X007368Y013128D01*
X007367Y013129D01*
X007398Y013166D01*
X007431Y013200D01*
X007466Y013232D01*
X007504Y013262D01*
X007545Y013288D01*
X007587Y013311D01*
X007630Y013331D01*
X007675Y013347D01*
X007721Y013360D01*
X007769Y013369D01*
X007816Y013375D01*
X007864Y013377D01*
X007864Y013372D01*
X007816Y013370D01*
X007769Y013364D01*
X007723Y013355D01*
X007677Y013342D01*
X007632Y013326D01*
X007589Y013306D01*
X007547Y013283D01*
X007507Y013257D01*
X007470Y013229D01*
X007434Y013197D01*
X007401Y013162D01*
X007371Y013126D01*
X007375Y013123D01*
X007405Y013159D01*
X007438Y013193D01*
X007473Y013225D01*
X007510Y013253D01*
X007550Y013279D01*
X007591Y013302D01*
X007634Y013321D01*
X007678Y013337D01*
X007724Y013350D01*
X007770Y013359D01*
X007817Y013365D01*
X007864Y013367D01*
X007864Y013362D01*
X007817Y013360D01*
X007771Y013354D01*
X007725Y013345D01*
X007680Y013333D01*
X007636Y013317D01*
X007593Y013297D01*
X007552Y013275D01*
X007513Y013249D01*
X007476Y013221D01*
X007441Y013190D01*
X007409Y013156D01*
X007379Y013120D01*
X007383Y013117D01*
X007413Y013152D01*
X007445Y013186D01*
X007479Y013217D01*
X007516Y013245D01*
X007555Y013271D01*
X007596Y013293D01*
X007638Y013312D01*
X007681Y013328D01*
X007726Y013340D01*
X007772Y013349D01*
X007818Y013355D01*
X007864Y013357D01*
X007864Y013352D01*
X007818Y013350D01*
X007772Y013345D01*
X007727Y013336D01*
X007683Y013323D01*
X007640Y013307D01*
X007598Y013288D01*
X007557Y013266D01*
X007519Y013241D01*
X007482Y013213D01*
X007448Y013182D01*
X007416Y013149D01*
X007387Y013114D01*
X007391Y013111D01*
X007420Y013146D01*
X007452Y013179D01*
X007486Y013209D01*
X007522Y013237D01*
X007560Y013262D01*
X007600Y013284D01*
X007642Y013303D01*
X007684Y013318D01*
X007728Y013331D01*
X007773Y013340D01*
X007818Y013345D01*
X007864Y013347D01*
X007864Y013342D01*
X007819Y013340D01*
X007774Y013335D01*
X007730Y013326D01*
X007686Y013314D01*
X007643Y013298D01*
X007602Y013280D01*
X007563Y013258D01*
X007525Y013233D01*
X007489Y013205D01*
X007455Y013175D01*
X007424Y013143D01*
X007395Y013108D01*
X007399Y013105D01*
X007428Y013139D01*
X007459Y013172D01*
X007492Y013202D01*
X007528Y013229D01*
X007565Y013253D01*
X007604Y013275D01*
X007645Y013294D01*
X007687Y013309D01*
X007731Y013321D01*
X007775Y013330D01*
X007819Y013335D01*
X007864Y013337D01*
X007864Y013332D01*
X007820Y013330D01*
X007775Y013325D01*
X007732Y013316D01*
X007689Y013304D01*
X007647Y013289D01*
X007607Y013271D01*
X007568Y013249D01*
X007531Y013225D01*
X007495Y013198D01*
X007462Y013168D01*
X007431Y013136D01*
X007403Y013102D01*
X007407Y013099D01*
X007435Y013133D01*
X007466Y013165D01*
X007498Y013194D01*
X007533Y013221D01*
X007570Y013245D01*
X007609Y013266D01*
X007649Y013284D01*
X007691Y013299D01*
X007733Y013311D01*
X007776Y013320D01*
X007820Y013325D01*
X007864Y013327D01*
X007865Y015126D02*
X007865Y015072D01*
X007864Y015073D02*
X007820Y015071D01*
X007777Y015066D01*
X007734Y015057D01*
X007692Y015046D01*
X007651Y015031D01*
X007611Y015013D01*
X007572Y014991D01*
X007536Y014968D01*
X007501Y014941D01*
X007468Y014912D01*
X007438Y014880D01*
X007410Y014846D01*
X007368Y014878D01*
X007367Y014879D01*
X007398Y014916D01*
X007431Y014950D01*
X007466Y014982D01*
X007504Y015012D01*
X007545Y015038D01*
X007587Y015061D01*
X007630Y015081D01*
X007675Y015097D01*
X007721Y015110D01*
X007769Y015119D01*
X007816Y015125D01*
X007864Y015127D01*
X007864Y015122D01*
X007816Y015120D01*
X007769Y015114D01*
X007723Y015105D01*
X007677Y015092D01*
X007632Y015076D01*
X007589Y015056D01*
X007547Y015033D01*
X007507Y015007D01*
X007470Y014979D01*
X007434Y014947D01*
X007401Y014912D01*
X007371Y014876D01*
X007375Y014873D01*
X007405Y014909D01*
X007438Y014943D01*
X007473Y014975D01*
X007510Y015003D01*
X007550Y015029D01*
X007591Y015052D01*
X007634Y015071D01*
X007678Y015087D01*
X007724Y015100D01*
X007770Y015109D01*
X007817Y015115D01*
X007864Y015117D01*
X007864Y015112D01*
X007817Y015110D01*
X007771Y015104D01*
X007725Y015095D01*
X007680Y015083D01*
X007636Y015067D01*
X007593Y015047D01*
X007552Y015025D01*
X007513Y014999D01*
X007476Y014971D01*
X007441Y014940D01*
X007409Y014906D01*
X007379Y014870D01*
X007383Y014867D01*
X007413Y014902D01*
X007445Y014936D01*
X007479Y014967D01*
X007516Y014995D01*
X007555Y015021D01*
X007596Y015043D01*
X007638Y015062D01*
X007681Y015078D01*
X007726Y015090D01*
X007772Y015099D01*
X007818Y015105D01*
X007864Y015107D01*
X007864Y015102D01*
X007818Y015100D01*
X007772Y015095D01*
X007727Y015086D01*
X007683Y015073D01*
X007640Y015057D01*
X007598Y015038D01*
X007557Y015016D01*
X007519Y014991D01*
X007482Y014963D01*
X007448Y014932D01*
X007416Y014899D01*
X007387Y014864D01*
X007391Y014861D01*
X007420Y014896D01*
X007452Y014929D01*
X007486Y014959D01*
X007522Y014987D01*
X007560Y015012D01*
X007600Y015034D01*
X007642Y015053D01*
X007684Y015068D01*
X007728Y015081D01*
X007773Y015090D01*
X007818Y015095D01*
X007864Y015097D01*
X007864Y015092D01*
X007819Y015090D01*
X007774Y015085D01*
X007730Y015076D01*
X007686Y015064D01*
X007643Y015048D01*
X007602Y015030D01*
X007563Y015008D01*
X007525Y014983D01*
X007489Y014955D01*
X007455Y014925D01*
X007424Y014893D01*
X007395Y014858D01*
X007399Y014855D01*
X007428Y014889D01*
X007459Y014922D01*
X007492Y014952D01*
X007528Y014979D01*
X007565Y015003D01*
X007604Y015025D01*
X007645Y015044D01*
X007687Y015059D01*
X007731Y015071D01*
X007775Y015080D01*
X007819Y015085D01*
X007864Y015087D01*
X007864Y015082D01*
X007820Y015080D01*
X007775Y015075D01*
X007732Y015066D01*
X007689Y015054D01*
X007647Y015039D01*
X007607Y015021D01*
X007568Y014999D01*
X007531Y014975D01*
X007495Y014948D01*
X007462Y014918D01*
X007431Y014886D01*
X007403Y014852D01*
X007407Y014849D01*
X007435Y014883D01*
X007466Y014915D01*
X007498Y014944D01*
X007533Y014971D01*
X007570Y014995D01*
X007609Y015016D01*
X007649Y015034D01*
X007691Y015049D01*
X007733Y015061D01*
X007776Y015070D01*
X007820Y015075D01*
X007864Y015077D01*
X007870Y013874D02*
X007870Y013928D01*
X007870Y013927D02*
X007917Y013929D01*
X007963Y013935D01*
X008009Y013945D01*
X008054Y013958D01*
X008098Y013975D01*
X008140Y013996D01*
X008180Y014020D01*
X008218Y014047D01*
X008254Y014077D01*
X008287Y014110D01*
X008317Y014146D01*
X008360Y014113D01*
X008330Y014077D01*
X008297Y014043D01*
X008261Y014012D01*
X008224Y013984D01*
X008184Y013959D01*
X008142Y013937D01*
X008099Y013918D01*
X008055Y013902D01*
X008010Y013889D01*
X007964Y013880D01*
X007917Y013875D01*
X007870Y013873D01*
X007870Y013878D01*
X007917Y013880D01*
X007963Y013885D01*
X008009Y013894D01*
X008054Y013907D01*
X008098Y013922D01*
X008140Y013941D01*
X008181Y013963D01*
X008221Y013988D01*
X008258Y014016D01*
X008293Y014047D01*
X008326Y014080D01*
X008356Y014116D01*
X008352Y014119D01*
X008322Y014084D01*
X008290Y014051D01*
X008255Y014020D01*
X008218Y013992D01*
X008179Y013968D01*
X008138Y013946D01*
X008096Y013927D01*
X008052Y013911D01*
X008008Y013899D01*
X007962Y013890D01*
X007916Y013885D01*
X007870Y013883D01*
X007870Y013888D01*
X007916Y013890D01*
X007961Y013895D01*
X008006Y013904D01*
X008051Y013916D01*
X008094Y013932D01*
X008136Y013950D01*
X008176Y013972D01*
X008215Y013997D01*
X008252Y014024D01*
X008286Y014054D01*
X008319Y014087D01*
X008348Y014122D01*
X008344Y014125D01*
X008315Y014090D01*
X008283Y014058D01*
X008249Y014028D01*
X008212Y014001D01*
X008174Y013976D01*
X008134Y013955D01*
X008092Y013936D01*
X008049Y013921D01*
X008005Y013909D01*
X007961Y013900D01*
X007915Y013895D01*
X007870Y013893D01*
X007870Y013898D01*
X007915Y013900D01*
X007960Y013905D01*
X008004Y013914D01*
X008048Y013926D01*
X008090Y013941D01*
X008132Y013959D01*
X008171Y013981D01*
X008209Y014005D01*
X008245Y014032D01*
X008279Y014062D01*
X008311Y014094D01*
X008340Y014128D01*
X008336Y014131D01*
X008307Y014097D01*
X008276Y014065D01*
X008242Y014036D01*
X008206Y014009D01*
X008169Y013985D01*
X008129Y013964D01*
X008088Y013946D01*
X008046Y013931D01*
X008003Y013919D01*
X007959Y013910D01*
X007915Y013905D01*
X007870Y013903D01*
X007870Y013908D01*
X007914Y013910D01*
X007958Y013915D01*
X008002Y013924D01*
X008045Y013935D01*
X008087Y013950D01*
X008127Y013968D01*
X008166Y013989D01*
X008204Y014013D01*
X008239Y014040D01*
X008273Y014069D01*
X008304Y014100D01*
X008332Y014134D01*
X008329Y014137D01*
X008300Y014104D01*
X008269Y014072D01*
X008236Y014043D01*
X008201Y014017D01*
X008164Y013993D01*
X008125Y013973D01*
X008085Y013955D01*
X008043Y013940D01*
X008001Y013928D01*
X007958Y013920D01*
X007914Y013915D01*
X007870Y013913D01*
X007870Y013918D01*
X007918Y013920D01*
X007965Y013926D01*
X008011Y013936D01*
X008057Y013950D01*
X008101Y013967D01*
X008144Y013988D01*
X008185Y014012D01*
X008224Y014040D01*
X008260Y014071D01*
X008294Y014104D01*
X008325Y014140D01*
X008321Y014143D01*
X008290Y014108D01*
X008257Y014074D01*
X008220Y014044D01*
X008182Y014017D01*
X008141Y013992D01*
X008099Y013972D01*
X008055Y013955D01*
X008010Y013941D01*
X007964Y013931D01*
X007917Y013925D01*
X007870Y013923D01*
X008375Y014866D02*
X008331Y014835D01*
X008332Y014835D02*
X008304Y014871D01*
X008273Y014904D01*
X008241Y014934D01*
X008205Y014962D01*
X008168Y014987D01*
X008129Y015009D01*
X008089Y015028D01*
X008046Y015044D01*
X008003Y015057D01*
X007959Y015066D01*
X007915Y015071D01*
X007870Y015073D01*
X007870Y015126D01*
X007870Y015127D01*
X007919Y015125D01*
X007968Y015119D01*
X008016Y015109D01*
X008063Y015095D01*
X008109Y015078D01*
X008154Y015058D01*
X008197Y015033D01*
X008237Y015006D01*
X008276Y014975D01*
X008312Y014942D01*
X008345Y014906D01*
X008375Y014867D01*
X008371Y014864D01*
X008341Y014902D01*
X008308Y014938D01*
X008273Y014971D01*
X008235Y015002D01*
X008194Y015029D01*
X008152Y015053D01*
X008107Y015074D01*
X008062Y015091D01*
X008015Y015104D01*
X007967Y015114D01*
X007919Y015120D01*
X007870Y015122D01*
X007870Y015117D01*
X007918Y015115D01*
X007966Y015109D01*
X008014Y015099D01*
X008060Y015086D01*
X008106Y015069D01*
X008149Y015049D01*
X008191Y015025D01*
X008232Y014998D01*
X008269Y014968D01*
X008305Y014935D01*
X008338Y014899D01*
X008367Y014861D01*
X008363Y014858D01*
X008334Y014896D01*
X008301Y014931D01*
X008266Y014964D01*
X008229Y014994D01*
X008189Y015021D01*
X008147Y015044D01*
X008104Y015064D01*
X008059Y015081D01*
X008013Y015094D01*
X007966Y015104D01*
X007918Y015110D01*
X007870Y015112D01*
X007870Y015107D01*
X007918Y015105D01*
X007965Y015099D01*
X008011Y015090D01*
X008057Y015076D01*
X008102Y015060D01*
X008145Y015040D01*
X008186Y015016D01*
X008226Y014990D01*
X008263Y014960D01*
X008298Y014928D01*
X008330Y014893D01*
X008359Y014855D01*
X008355Y014852D01*
X008326Y014889D01*
X008294Y014924D01*
X008260Y014956D01*
X008223Y014986D01*
X008184Y015012D01*
X008142Y015035D01*
X008100Y015055D01*
X008056Y015072D01*
X008010Y015085D01*
X007964Y015094D01*
X007917Y015100D01*
X007870Y015102D01*
X007870Y015097D01*
X007917Y015095D01*
X007963Y015089D01*
X008009Y015080D01*
X008054Y015067D01*
X008098Y015051D01*
X008140Y015031D01*
X008181Y015008D01*
X008220Y014982D01*
X008256Y014953D01*
X008291Y014921D01*
X008322Y014886D01*
X008351Y014849D01*
X008347Y014847D01*
X008318Y014883D01*
X008287Y014917D01*
X008253Y014949D01*
X008217Y014978D01*
X008178Y015004D01*
X008138Y015026D01*
X008096Y015046D01*
X008052Y015062D01*
X008008Y015075D01*
X007962Y015084D01*
X007916Y015090D01*
X007870Y015092D01*
X007870Y015087D01*
X007916Y015085D01*
X007962Y015079D01*
X008007Y015070D01*
X008051Y015057D01*
X008094Y015041D01*
X008136Y015022D01*
X008176Y014999D01*
X008214Y014974D01*
X008250Y014945D01*
X008283Y014914D01*
X008315Y014880D01*
X008343Y014844D01*
X008339Y014841D01*
X008311Y014877D01*
X008280Y014910D01*
X008247Y014941D01*
X008211Y014970D01*
X008173Y014995D01*
X008133Y015017D01*
X008092Y015037D01*
X008049Y015053D01*
X008005Y015065D01*
X007961Y015074D01*
X007916Y015080D01*
X007870Y015082D01*
X007870Y015077D01*
X007915Y015075D01*
X007960Y015069D01*
X008004Y015060D01*
X008048Y015048D01*
X008090Y015032D01*
X008131Y015013D01*
X008170Y014991D01*
X008208Y014966D01*
X008243Y014937D01*
X008276Y014907D01*
X008307Y014873D01*
X008335Y014838D01*
X007374Y014113D02*
X007417Y014146D01*
X007447Y014110D01*
X007480Y014077D01*
X007516Y014047D01*
X007554Y014020D01*
X007594Y013996D01*
X007636Y013975D01*
X007680Y013958D01*
X007725Y013945D01*
X007771Y013935D01*
X007817Y013929D01*
X007864Y013927D01*
X007864Y013874D01*
X007864Y013873D01*
X007817Y013875D01*
X007770Y013880D01*
X007724Y013889D01*
X007679Y013902D01*
X007635Y013918D01*
X007592Y013937D01*
X007550Y013959D01*
X007510Y013984D01*
X007473Y014012D01*
X007437Y014043D01*
X007404Y014077D01*
X007374Y014113D01*
X007378Y014116D01*
X007408Y014080D01*
X007441Y014047D01*
X007476Y014016D01*
X007513Y013988D01*
X007553Y013963D01*
X007594Y013941D01*
X007636Y013922D01*
X007680Y013907D01*
X007725Y013894D01*
X007771Y013885D01*
X007817Y013880D01*
X007864Y013878D01*
X007864Y013883D01*
X007818Y013885D01*
X007772Y013890D01*
X007726Y013899D01*
X007682Y013911D01*
X007638Y013927D01*
X007596Y013946D01*
X007555Y013968D01*
X007516Y013992D01*
X007479Y014020D01*
X007444Y014051D01*
X007412Y014084D01*
X007382Y014119D01*
X007386Y014122D01*
X007415Y014087D01*
X007448Y014054D01*
X007482Y014024D01*
X007519Y013997D01*
X007558Y013972D01*
X007598Y013950D01*
X007640Y013932D01*
X007683Y013916D01*
X007728Y013904D01*
X007773Y013895D01*
X007818Y013890D01*
X007864Y013888D01*
X007864Y013893D01*
X007819Y013895D01*
X007773Y013900D01*
X007729Y013909D01*
X007685Y013921D01*
X007642Y013936D01*
X007600Y013955D01*
X007560Y013976D01*
X007522Y014001D01*
X007485Y014028D01*
X007451Y014058D01*
X007419Y014090D01*
X007390Y014125D01*
X007394Y014128D01*
X007423Y014094D01*
X007455Y014062D01*
X007489Y014032D01*
X007525Y014005D01*
X007563Y013981D01*
X007602Y013959D01*
X007644Y013941D01*
X007686Y013926D01*
X007730Y013914D01*
X007774Y013905D01*
X007819Y013900D01*
X007864Y013898D01*
X007864Y013903D01*
X007819Y013905D01*
X007775Y013910D01*
X007731Y013919D01*
X007688Y013931D01*
X007646Y013946D01*
X007605Y013964D01*
X007565Y013985D01*
X007528Y014009D01*
X007492Y014036D01*
X007458Y014065D01*
X007427Y014097D01*
X007398Y014131D01*
X007402Y014134D01*
X007430Y014100D01*
X007461Y014069D01*
X007495Y014040D01*
X007530Y014013D01*
X007568Y013989D01*
X007607Y013968D01*
X007647Y013950D01*
X007689Y013935D01*
X007732Y013924D01*
X007776Y013915D01*
X007820Y013910D01*
X007864Y013908D01*
X007864Y013913D01*
X007820Y013915D01*
X007776Y013920D01*
X007733Y013928D01*
X007691Y013940D01*
X007649Y013955D01*
X007609Y013973D01*
X007570Y013993D01*
X007533Y014017D01*
X007498Y014043D01*
X007465Y014072D01*
X007434Y014104D01*
X007405Y014137D01*
X007409Y014140D01*
X007440Y014104D01*
X007474Y014071D01*
X007510Y014040D01*
X007549Y014012D01*
X007590Y013988D01*
X007633Y013967D01*
X007677Y013950D01*
X007723Y013936D01*
X007769Y013926D01*
X007816Y013920D01*
X007864Y013918D01*
X007864Y013923D01*
X007817Y013925D01*
X007770Y013931D01*
X007724Y013941D01*
X007679Y013955D01*
X007635Y013972D01*
X007593Y013992D01*
X007552Y014017D01*
X007514Y014044D01*
X007477Y014074D01*
X007444Y014108D01*
X007413Y014143D01*
X008375Y016616D02*
X008331Y016585D01*
X008332Y016585D02*
X008304Y016621D01*
X008273Y016654D01*
X008241Y016684D01*
X008205Y016712D01*
X008168Y016737D01*
X008129Y016759D01*
X008089Y016778D01*
X008046Y016794D01*
X008003Y016807D01*
X007959Y016816D01*
X007915Y016821D01*
X007870Y016823D01*
X007870Y016876D01*
X007870Y016877D01*
X007919Y016875D01*
X007968Y016869D01*
X008016Y016859D01*
X008063Y016845D01*
X008109Y016828D01*
X008154Y016808D01*
X008197Y016783D01*
X008237Y016756D01*
X008276Y016725D01*
X008312Y016692D01*
X008345Y016656D01*
X008375Y016617D01*
X008371Y016614D01*
X008341Y016652D01*
X008308Y016688D01*
X008273Y016721D01*
X008235Y016752D01*
X008194Y016779D01*
X008152Y016803D01*
X008107Y016824D01*
X008062Y016841D01*
X008015Y016854D01*
X007967Y016864D01*
X007919Y016870D01*
X007870Y016872D01*
X007870Y016867D01*
X007918Y016865D01*
X007966Y016859D01*
X008014Y016849D01*
X008060Y016836D01*
X008106Y016819D01*
X008149Y016799D01*
X008191Y016775D01*
X008232Y016748D01*
X008269Y016718D01*
X008305Y016685D01*
X008338Y016649D01*
X008367Y016611D01*
X008363Y016608D01*
X008334Y016646D01*
X008301Y016681D01*
X008266Y016714D01*
X008229Y016744D01*
X008189Y016771D01*
X008147Y016794D01*
X008104Y016814D01*
X008059Y016831D01*
X008013Y016844D01*
X007966Y016854D01*
X007918Y016860D01*
X007870Y016862D01*
X007870Y016857D01*
X007918Y016855D01*
X007965Y016849D01*
X008011Y016840D01*
X008057Y016826D01*
X008102Y016810D01*
X008145Y016790D01*
X008186Y016766D01*
X008226Y016740D01*
X008263Y016710D01*
X008298Y016678D01*
X008330Y016643D01*
X008359Y016605D01*
X008355Y016602D01*
X008326Y016639D01*
X008294Y016674D01*
X008260Y016706D01*
X008223Y016736D01*
X008184Y016762D01*
X008142Y016785D01*
X008100Y016805D01*
X008056Y016822D01*
X008010Y016835D01*
X007964Y016844D01*
X007917Y016850D01*
X007870Y016852D01*
X007870Y016847D01*
X007917Y016845D01*
X007963Y016839D01*
X008009Y016830D01*
X008054Y016817D01*
X008098Y016801D01*
X008140Y016781D01*
X008181Y016758D01*
X008220Y016732D01*
X008256Y016703D01*
X008291Y016671D01*
X008322Y016636D01*
X008351Y016599D01*
X008347Y016597D01*
X008318Y016633D01*
X008287Y016667D01*
X008253Y016699D01*
X008217Y016728D01*
X008178Y016754D01*
X008138Y016776D01*
X008096Y016796D01*
X008052Y016812D01*
X008008Y016825D01*
X007962Y016834D01*
X007916Y016840D01*
X007870Y016842D01*
X007870Y016837D01*
X007916Y016835D01*
X007962Y016829D01*
X008007Y016820D01*
X008051Y016807D01*
X008094Y016791D01*
X008136Y016772D01*
X008176Y016749D01*
X008214Y016724D01*
X008250Y016695D01*
X008283Y016664D01*
X008315Y016630D01*
X008343Y016594D01*
X008339Y016591D01*
X008311Y016627D01*
X008280Y016660D01*
X008247Y016691D01*
X008211Y016720D01*
X008173Y016745D01*
X008133Y016767D01*
X008092Y016787D01*
X008049Y016803D01*
X008005Y016815D01*
X007961Y016824D01*
X007916Y016830D01*
X007870Y016832D01*
X007870Y016827D01*
X007915Y016825D01*
X007960Y016819D01*
X008004Y016810D01*
X008048Y016798D01*
X008090Y016782D01*
X008131Y016763D01*
X008170Y016741D01*
X008208Y016716D01*
X008243Y016687D01*
X008276Y016657D01*
X008307Y016623D01*
X008335Y016588D01*
X007374Y015863D02*
X007417Y015896D01*
X007447Y015860D01*
X007480Y015827D01*
X007516Y015797D01*
X007554Y015770D01*
X007594Y015746D01*
X007636Y015725D01*
X007680Y015708D01*
X007725Y015695D01*
X007771Y015685D01*
X007817Y015679D01*
X007864Y015677D01*
X007864Y015624D01*
X007864Y015623D01*
X007817Y015625D01*
X007770Y015630D01*
X007724Y015639D01*
X007679Y015652D01*
X007635Y015668D01*
X007592Y015687D01*
X007550Y015709D01*
X007510Y015734D01*
X007473Y015762D01*
X007437Y015793D01*
X007404Y015827D01*
X007374Y015863D01*
X007378Y015866D01*
X007408Y015830D01*
X007441Y015797D01*
X007476Y015766D01*
X007513Y015738D01*
X007553Y015713D01*
X007594Y015691D01*
X007636Y015672D01*
X007680Y015657D01*
X007725Y015644D01*
X007771Y015635D01*
X007817Y015630D01*
X007864Y015628D01*
X007864Y015633D01*
X007818Y015635D01*
X007772Y015640D01*
X007726Y015649D01*
X007682Y015661D01*
X007638Y015677D01*
X007596Y015696D01*
X007555Y015718D01*
X007516Y015742D01*
X007479Y015770D01*
X007444Y015801D01*
X007412Y015834D01*
X007382Y015869D01*
X007386Y015872D01*
X007415Y015837D01*
X007448Y015804D01*
X007482Y015774D01*
X007519Y015747D01*
X007558Y015722D01*
X007598Y015700D01*
X007640Y015682D01*
X007683Y015666D01*
X007728Y015654D01*
X007773Y015645D01*
X007818Y015640D01*
X007864Y015638D01*
X007864Y015643D01*
X007819Y015645D01*
X007773Y015650D01*
X007729Y015659D01*
X007685Y015671D01*
X007642Y015686D01*
X007600Y015705D01*
X007560Y015726D01*
X007522Y015751D01*
X007485Y015778D01*
X007451Y015808D01*
X007419Y015840D01*
X007390Y015875D01*
X007394Y015878D01*
X007423Y015844D01*
X007455Y015812D01*
X007489Y015782D01*
X007525Y015755D01*
X007563Y015731D01*
X007602Y015709D01*
X007644Y015691D01*
X007686Y015676D01*
X007730Y015664D01*
X007774Y015655D01*
X007819Y015650D01*
X007864Y015648D01*
X007864Y015653D01*
X007819Y015655D01*
X007775Y015660D01*
X007731Y015669D01*
X007688Y015681D01*
X007646Y015696D01*
X007605Y015714D01*
X007565Y015735D01*
X007528Y015759D01*
X007492Y015786D01*
X007458Y015815D01*
X007427Y015847D01*
X007398Y015881D01*
X007402Y015884D01*
X007430Y015850D01*
X007461Y015819D01*
X007495Y015790D01*
X007530Y015763D01*
X007568Y015739D01*
X007607Y015718D01*
X007647Y015700D01*
X007689Y015685D01*
X007732Y015674D01*
X007776Y015665D01*
X007820Y015660D01*
X007864Y015658D01*
X007864Y015663D01*
X007820Y015665D01*
X007776Y015670D01*
X007733Y015678D01*
X007691Y015690D01*
X007649Y015705D01*
X007609Y015723D01*
X007570Y015743D01*
X007533Y015767D01*
X007498Y015793D01*
X007465Y015822D01*
X007434Y015854D01*
X007405Y015887D01*
X007409Y015890D01*
X007440Y015854D01*
X007474Y015821D01*
X007510Y015790D01*
X007549Y015762D01*
X007590Y015738D01*
X007633Y015717D01*
X007677Y015700D01*
X007723Y015686D01*
X007769Y015676D01*
X007816Y015670D01*
X007864Y015668D01*
X007864Y015673D01*
X007817Y015675D01*
X007770Y015681D01*
X007724Y015691D01*
X007679Y015705D01*
X007635Y015722D01*
X007593Y015742D01*
X007552Y015767D01*
X007514Y015794D01*
X007477Y015824D01*
X007444Y015858D01*
X007413Y015893D01*
X007870Y015624D02*
X007870Y015678D01*
X007870Y015677D02*
X007917Y015679D01*
X007963Y015685D01*
X008009Y015695D01*
X008054Y015708D01*
X008098Y015725D01*
X008140Y015746D01*
X008180Y015770D01*
X008218Y015797D01*
X008254Y015827D01*
X008287Y015860D01*
X008317Y015896D01*
X008360Y015863D01*
X008330Y015827D01*
X008297Y015793D01*
X008261Y015762D01*
X008224Y015734D01*
X008184Y015709D01*
X008142Y015687D01*
X008099Y015668D01*
X008055Y015652D01*
X008010Y015639D01*
X007964Y015630D01*
X007917Y015625D01*
X007870Y015623D01*
X007870Y015628D01*
X007917Y015630D01*
X007963Y015635D01*
X008009Y015644D01*
X008054Y015657D01*
X008098Y015672D01*
X008140Y015691D01*
X008181Y015713D01*
X008221Y015738D01*
X008258Y015766D01*
X008293Y015797D01*
X008326Y015830D01*
X008356Y015866D01*
X008352Y015869D01*
X008322Y015834D01*
X008290Y015801D01*
X008255Y015770D01*
X008218Y015742D01*
X008179Y015718D01*
X008138Y015696D01*
X008096Y015677D01*
X008052Y015661D01*
X008008Y015649D01*
X007962Y015640D01*
X007916Y015635D01*
X007870Y015633D01*
X007870Y015638D01*
X007916Y015640D01*
X007961Y015645D01*
X008006Y015654D01*
X008051Y015666D01*
X008094Y015682D01*
X008136Y015700D01*
X008176Y015722D01*
X008215Y015747D01*
X008252Y015774D01*
X008286Y015804D01*
X008319Y015837D01*
X008348Y015872D01*
X008344Y015875D01*
X008315Y015840D01*
X008283Y015808D01*
X008249Y015778D01*
X008212Y015751D01*
X008174Y015726D01*
X008134Y015705D01*
X008092Y015686D01*
X008049Y015671D01*
X008005Y015659D01*
X007961Y015650D01*
X007915Y015645D01*
X007870Y015643D01*
X007870Y015648D01*
X007915Y015650D01*
X007960Y015655D01*
X008004Y015664D01*
X008048Y015676D01*
X008090Y015691D01*
X008132Y015709D01*
X008171Y015731D01*
X008209Y015755D01*
X008245Y015782D01*
X008279Y015812D01*
X008311Y015844D01*
X008340Y015878D01*
X008336Y015881D01*
X008307Y015847D01*
X008276Y015815D01*
X008242Y015786D01*
X008206Y015759D01*
X008169Y015735D01*
X008129Y015714D01*
X008088Y015696D01*
X008046Y015681D01*
X008003Y015669D01*
X007959Y015660D01*
X007915Y015655D01*
X007870Y015653D01*
X007870Y015658D01*
X007914Y015660D01*
X007958Y015665D01*
X008002Y015674D01*
X008045Y015685D01*
X008087Y015700D01*
X008127Y015718D01*
X008166Y015739D01*
X008204Y015763D01*
X008239Y015790D01*
X008273Y015819D01*
X008304Y015850D01*
X008332Y015884D01*
X008329Y015887D01*
X008300Y015854D01*
X008269Y015822D01*
X008236Y015793D01*
X008201Y015767D01*
X008164Y015743D01*
X008125Y015723D01*
X008085Y015705D01*
X008043Y015690D01*
X008001Y015678D01*
X007958Y015670D01*
X007914Y015665D01*
X007870Y015663D01*
X007870Y015668D01*
X007918Y015670D01*
X007965Y015676D01*
X008011Y015686D01*
X008057Y015700D01*
X008101Y015717D01*
X008144Y015738D01*
X008185Y015762D01*
X008224Y015790D01*
X008260Y015821D01*
X008294Y015854D01*
X008325Y015890D01*
X008321Y015893D01*
X008290Y015858D01*
X008257Y015824D01*
X008220Y015794D01*
X008182Y015767D01*
X008141Y015742D01*
X008099Y015722D01*
X008055Y015705D01*
X008010Y015691D01*
X007964Y015681D01*
X007917Y015675D01*
X007870Y015673D01*
X007865Y016876D02*
X007865Y016822D01*
X007864Y016823D02*
X007820Y016821D01*
X007777Y016816D01*
X007734Y016807D01*
X007692Y016796D01*
X007651Y016781D01*
X007611Y016763D01*
X007572Y016741D01*
X007536Y016718D01*
X007501Y016691D01*
X007468Y016662D01*
X007438Y016630D01*
X007410Y016596D01*
X007368Y016628D01*
X007367Y016629D01*
X007398Y016666D01*
X007431Y016700D01*
X007466Y016732D01*
X007504Y016762D01*
X007545Y016788D01*
X007587Y016811D01*
X007630Y016831D01*
X007675Y016847D01*
X007721Y016860D01*
X007769Y016869D01*
X007816Y016875D01*
X007864Y016877D01*
X007864Y016872D01*
X007816Y016870D01*
X007769Y016864D01*
X007723Y016855D01*
X007677Y016842D01*
X007632Y016826D01*
X007589Y016806D01*
X007547Y016783D01*
X007507Y016757D01*
X007470Y016729D01*
X007434Y016697D01*
X007401Y016662D01*
X007371Y016626D01*
X007375Y016623D01*
X007405Y016659D01*
X007438Y016693D01*
X007473Y016725D01*
X007510Y016753D01*
X007550Y016779D01*
X007591Y016802D01*
X007634Y016821D01*
X007678Y016837D01*
X007724Y016850D01*
X007770Y016859D01*
X007817Y016865D01*
X007864Y016867D01*
X007864Y016862D01*
X007817Y016860D01*
X007771Y016854D01*
X007725Y016845D01*
X007680Y016833D01*
X007636Y016817D01*
X007593Y016797D01*
X007552Y016775D01*
X007513Y016749D01*
X007476Y016721D01*
X007441Y016690D01*
X007409Y016656D01*
X007379Y016620D01*
X007383Y016617D01*
X007413Y016652D01*
X007445Y016686D01*
X007479Y016717D01*
X007516Y016745D01*
X007555Y016771D01*
X007596Y016793D01*
X007638Y016812D01*
X007681Y016828D01*
X007726Y016840D01*
X007772Y016849D01*
X007818Y016855D01*
X007864Y016857D01*
X007864Y016852D01*
X007818Y016850D01*
X007772Y016845D01*
X007727Y016836D01*
X007683Y016823D01*
X007640Y016807D01*
X007598Y016788D01*
X007557Y016766D01*
X007519Y016741D01*
X007482Y016713D01*
X007448Y016682D01*
X007416Y016649D01*
X007387Y016614D01*
X007391Y016611D01*
X007420Y016646D01*
X007452Y016679D01*
X007486Y016709D01*
X007522Y016737D01*
X007560Y016762D01*
X007600Y016784D01*
X007642Y016803D01*
X007684Y016818D01*
X007728Y016831D01*
X007773Y016840D01*
X007818Y016845D01*
X007864Y016847D01*
X007864Y016842D01*
X007819Y016840D01*
X007774Y016835D01*
X007730Y016826D01*
X007686Y016814D01*
X007643Y016798D01*
X007602Y016780D01*
X007563Y016758D01*
X007525Y016733D01*
X007489Y016705D01*
X007455Y016675D01*
X007424Y016643D01*
X007395Y016608D01*
X007399Y016605D01*
X007428Y016639D01*
X007459Y016672D01*
X007492Y016702D01*
X007528Y016729D01*
X007565Y016753D01*
X007604Y016775D01*
X007645Y016794D01*
X007687Y016809D01*
X007731Y016821D01*
X007775Y016830D01*
X007819Y016835D01*
X007864Y016837D01*
X007864Y016832D01*
X007820Y016830D01*
X007775Y016825D01*
X007732Y016816D01*
X007689Y016804D01*
X007647Y016789D01*
X007607Y016771D01*
X007568Y016749D01*
X007531Y016725D01*
X007495Y016698D01*
X007462Y016668D01*
X007431Y016636D01*
X007403Y016602D01*
X007407Y016599D01*
X007435Y016633D01*
X007466Y016665D01*
X007498Y016694D01*
X007533Y016721D01*
X007570Y016745D01*
X007609Y016766D01*
X007649Y016784D01*
X007691Y016799D01*
X007733Y016811D01*
X007776Y016820D01*
X007820Y016825D01*
X007864Y016827D01*
D15*
X007136Y015827D02*
X007214Y015872D01*
X007214Y015871D02*
X007242Y015827D01*
X007273Y015785D01*
X007306Y015745D01*
X007342Y015707D01*
X007381Y015672D01*
X007422Y015640D01*
X007466Y015610D01*
X007511Y015584D01*
X007558Y015561D01*
X007606Y015541D01*
X007656Y015525D01*
X007706Y015512D01*
X007758Y015503D01*
X007810Y015497D01*
X007862Y015495D01*
X007863Y015406D01*
X007862Y015405D01*
X007807Y015407D01*
X007753Y015413D01*
X007698Y015422D01*
X007645Y015435D01*
X007593Y015451D01*
X007541Y015470D01*
X007491Y015493D01*
X007443Y015519D01*
X007396Y015548D01*
X007352Y015580D01*
X007309Y015615D01*
X007269Y015653D01*
X007232Y015693D01*
X007197Y015735D01*
X007165Y015780D01*
X007136Y015826D01*
X007144Y015831D01*
X007172Y015785D01*
X007204Y015741D01*
X007239Y015699D01*
X007276Y015659D01*
X007315Y015622D01*
X007357Y015587D01*
X007401Y015556D01*
X007447Y015527D01*
X007495Y015501D01*
X007545Y015479D01*
X007595Y015459D01*
X007647Y015443D01*
X007700Y015431D01*
X007754Y015422D01*
X007808Y015416D01*
X007862Y015414D01*
X007862Y015423D01*
X007808Y015425D01*
X007755Y015431D01*
X007702Y015440D01*
X007650Y015452D01*
X007598Y015468D01*
X007548Y015487D01*
X007499Y015509D01*
X007452Y015535D01*
X007406Y015563D01*
X007363Y015595D01*
X007321Y015629D01*
X007282Y015665D01*
X007245Y015705D01*
X007211Y015746D01*
X007180Y015790D01*
X007151Y015835D01*
X007159Y015840D01*
X007189Y015792D01*
X007223Y015746D01*
X007259Y015703D01*
X007299Y015662D01*
X007341Y015624D01*
X007385Y015589D01*
X007432Y015557D01*
X007481Y015529D01*
X007532Y015504D01*
X007585Y015482D01*
X007638Y015465D01*
X007693Y015451D01*
X007749Y015441D01*
X007805Y015434D01*
X007862Y015432D01*
X007862Y015441D01*
X007806Y015443D01*
X007750Y015449D01*
X007695Y015459D01*
X007641Y015473D01*
X007588Y015491D01*
X007536Y015512D01*
X007485Y015537D01*
X007437Y015565D01*
X007391Y015596D01*
X007346Y015631D01*
X007305Y015668D01*
X007266Y015709D01*
X007230Y015751D01*
X007197Y015797D01*
X007167Y015844D01*
X007175Y015849D01*
X007204Y015802D01*
X007237Y015757D01*
X007273Y015715D01*
X007311Y015675D01*
X007352Y015638D01*
X007396Y015603D01*
X007442Y015572D01*
X007490Y015545D01*
X007539Y015520D01*
X007591Y015499D01*
X007643Y015482D01*
X007697Y015468D01*
X007752Y015458D01*
X007807Y015452D01*
X007862Y015450D01*
X007862Y015459D01*
X007807Y015461D01*
X007753Y015467D01*
X007699Y015477D01*
X007646Y015491D01*
X007594Y015508D01*
X007543Y015528D01*
X007494Y015553D01*
X007447Y015580D01*
X007401Y015611D01*
X007358Y015644D01*
X007317Y015681D01*
X007279Y015721D01*
X007244Y015763D01*
X007212Y015807D01*
X007183Y015853D01*
X007191Y015858D01*
X007219Y015812D01*
X007251Y015768D01*
X007286Y015727D01*
X007324Y015688D01*
X007364Y015651D01*
X007406Y015618D01*
X007451Y015588D01*
X007498Y015560D01*
X007547Y015537D01*
X007597Y015516D01*
X007648Y015499D01*
X007701Y015486D01*
X007754Y015476D01*
X007808Y015470D01*
X007862Y015468D01*
X007862Y015477D01*
X007809Y015479D01*
X007755Y015485D01*
X007703Y015495D01*
X007651Y015508D01*
X007600Y015525D01*
X007550Y015545D01*
X007502Y015568D01*
X007456Y015595D01*
X007412Y015625D01*
X007370Y015658D01*
X007330Y015694D01*
X007293Y015733D01*
X007258Y015774D01*
X007227Y015817D01*
X007198Y015862D01*
X007206Y015867D01*
X007234Y015822D01*
X007265Y015779D01*
X007299Y015739D01*
X007336Y015701D01*
X007375Y015665D01*
X007417Y015633D01*
X007461Y015603D01*
X007507Y015576D01*
X007554Y015553D01*
X007603Y015533D01*
X007653Y015516D01*
X007705Y015503D01*
X007757Y015494D01*
X007809Y015488D01*
X007862Y015486D01*
X007862Y017094D02*
X007862Y017004D01*
X007862Y017005D02*
X007808Y017003D01*
X007755Y016997D01*
X007702Y016987D01*
X007650Y016973D01*
X007599Y016956D01*
X007550Y016935D01*
X007502Y016911D01*
X007456Y016883D01*
X007412Y016852D01*
X007370Y016818D01*
X007331Y016782D01*
X007294Y016742D01*
X007261Y016700D01*
X007230Y016656D01*
X007203Y016610D01*
X007124Y016652D01*
X007152Y016701D01*
X007184Y016747D01*
X007219Y016792D01*
X007256Y016834D01*
X007297Y016874D01*
X007340Y016910D01*
X007385Y016944D01*
X007432Y016975D01*
X007482Y017002D01*
X007533Y017026D01*
X007585Y017047D01*
X007639Y017064D01*
X007694Y017077D01*
X007749Y017087D01*
X007806Y017093D01*
X007862Y017095D01*
X007862Y017086D01*
X007806Y017084D01*
X007751Y017078D01*
X007696Y017068D01*
X007641Y017055D01*
X007588Y017038D01*
X007536Y017018D01*
X007486Y016994D01*
X007437Y016967D01*
X007390Y016937D01*
X007345Y016903D01*
X007303Y016867D01*
X007263Y016828D01*
X007226Y016786D01*
X007191Y016742D01*
X007160Y016696D01*
X007132Y016648D01*
X007140Y016644D01*
X007168Y016691D01*
X007199Y016737D01*
X007233Y016780D01*
X007269Y016822D01*
X007309Y016860D01*
X007351Y016896D01*
X007395Y016929D01*
X007441Y016959D01*
X007490Y016986D01*
X007540Y017009D01*
X007591Y017030D01*
X007644Y017046D01*
X007697Y017059D01*
X007752Y017069D01*
X007807Y017075D01*
X007862Y017077D01*
X007862Y017068D01*
X007807Y017066D01*
X007753Y017060D01*
X007699Y017051D01*
X007646Y017038D01*
X007594Y017021D01*
X007543Y017001D01*
X007494Y016978D01*
X007446Y016951D01*
X007400Y016922D01*
X007356Y016889D01*
X007315Y016854D01*
X007276Y016815D01*
X007239Y016775D01*
X007206Y016732D01*
X007175Y016686D01*
X007148Y016639D01*
X007156Y016635D01*
X007183Y016682D01*
X007213Y016726D01*
X007246Y016769D01*
X007282Y016809D01*
X007321Y016847D01*
X007362Y016882D01*
X007405Y016914D01*
X007451Y016944D01*
X007498Y016970D01*
X007547Y016993D01*
X007597Y017013D01*
X007649Y017029D01*
X007701Y017042D01*
X007754Y017051D01*
X007808Y017057D01*
X007862Y017059D01*
X007862Y017050D01*
X007809Y017048D01*
X007756Y017042D01*
X007703Y017033D01*
X007651Y017020D01*
X007600Y017004D01*
X007550Y016985D01*
X007502Y016962D01*
X007455Y016936D01*
X007411Y016907D01*
X007368Y016875D01*
X007327Y016840D01*
X007289Y016803D01*
X007253Y016763D01*
X007220Y016721D01*
X007190Y016677D01*
X007163Y016631D01*
X007171Y016627D01*
X007198Y016672D01*
X007228Y016716D01*
X007260Y016757D01*
X007295Y016797D01*
X007333Y016834D01*
X007373Y016868D01*
X007416Y016900D01*
X007460Y016928D01*
X007506Y016954D01*
X007554Y016976D01*
X007603Y016996D01*
X007653Y017012D01*
X007705Y017024D01*
X007757Y017033D01*
X007809Y017039D01*
X007862Y017041D01*
X007862Y017032D01*
X007806Y017030D01*
X007751Y017023D01*
X007696Y017013D01*
X007642Y016999D01*
X007590Y016981D01*
X007538Y016960D01*
X007489Y016934D01*
X007441Y016906D01*
X007395Y016874D01*
X007352Y016839D01*
X007312Y016801D01*
X007274Y016760D01*
X007239Y016716D01*
X007208Y016670D01*
X007179Y016622D01*
X007187Y016618D01*
X007215Y016666D01*
X007246Y016711D01*
X007281Y016754D01*
X007318Y016794D01*
X007358Y016832D01*
X007401Y016867D01*
X007446Y016898D01*
X007493Y016927D01*
X007542Y016951D01*
X007593Y016973D01*
X007645Y016990D01*
X007698Y017004D01*
X007752Y017014D01*
X007807Y017021D01*
X007862Y017023D01*
X007862Y017014D01*
X007808Y017012D01*
X007754Y017006D01*
X007700Y016996D01*
X007648Y016982D01*
X007596Y016964D01*
X007546Y016943D01*
X007497Y016919D01*
X007451Y016891D01*
X007406Y016859D01*
X007364Y016825D01*
X007325Y016788D01*
X007288Y016748D01*
X007254Y016706D01*
X007223Y016661D01*
X007195Y016614D01*
X008512Y016794D02*
X008443Y016737D01*
X008444Y016737D02*
X008407Y016777D01*
X008368Y016815D01*
X008326Y016849D01*
X008282Y016881D01*
X008236Y016909D01*
X008187Y016934D01*
X008137Y016955D01*
X008086Y016973D01*
X008033Y016986D01*
X007980Y016996D01*
X007926Y017003D01*
X007872Y017005D01*
X007871Y017094D01*
X007872Y017095D01*
X007928Y017093D01*
X007984Y017087D01*
X008039Y017077D01*
X008094Y017064D01*
X008147Y017047D01*
X008200Y017027D01*
X008251Y017003D01*
X008300Y016976D01*
X008347Y016945D01*
X008392Y016912D01*
X008435Y016876D01*
X008475Y016837D01*
X008513Y016795D01*
X008506Y016789D01*
X008469Y016830D01*
X008429Y016869D01*
X008387Y016905D01*
X008342Y016938D01*
X008295Y016968D01*
X008247Y016995D01*
X008196Y017018D01*
X008144Y017039D01*
X008091Y017055D01*
X008037Y017068D01*
X007983Y017078D01*
X007928Y017084D01*
X007872Y017086D01*
X007872Y017077D01*
X007927Y017075D01*
X007982Y017069D01*
X008036Y017060D01*
X008089Y017047D01*
X008141Y017030D01*
X008193Y017010D01*
X008242Y016987D01*
X008291Y016960D01*
X008337Y016931D01*
X008381Y016898D01*
X008423Y016862D01*
X008462Y016824D01*
X008499Y016783D01*
X008492Y016778D01*
X008456Y016818D01*
X008417Y016856D01*
X008375Y016891D01*
X008332Y016923D01*
X008286Y016953D01*
X008238Y016979D01*
X008189Y017002D01*
X008139Y017022D01*
X008087Y017038D01*
X008034Y017051D01*
X007980Y017060D01*
X007926Y017066D01*
X007872Y017068D01*
X007872Y017059D01*
X007926Y017057D01*
X007979Y017051D01*
X008032Y017042D01*
X008084Y017029D01*
X008136Y017013D01*
X008186Y016994D01*
X008234Y016971D01*
X008281Y016945D01*
X008327Y016916D01*
X008370Y016884D01*
X008411Y016849D01*
X008449Y016812D01*
X008485Y016772D01*
X008478Y016766D01*
X008443Y016805D01*
X008405Y016842D01*
X008364Y016877D01*
X008321Y016908D01*
X008277Y016937D01*
X008230Y016963D01*
X008182Y016985D01*
X008133Y017005D01*
X008082Y017021D01*
X008030Y017033D01*
X007978Y017042D01*
X007925Y017048D01*
X007872Y017050D01*
X007872Y017041D01*
X007924Y017039D01*
X007977Y017033D01*
X008028Y017024D01*
X008079Y017012D01*
X008130Y016996D01*
X008179Y016977D01*
X008226Y016955D01*
X008272Y016929D01*
X008316Y016901D01*
X008358Y016870D01*
X008399Y016836D01*
X008436Y016799D01*
X008471Y016760D01*
X008465Y016754D01*
X008430Y016793D01*
X008392Y016829D01*
X008353Y016863D01*
X008311Y016894D01*
X008267Y016922D01*
X008222Y016947D01*
X008175Y016969D01*
X008127Y016988D01*
X008077Y017003D01*
X008027Y017016D01*
X007975Y017024D01*
X007924Y017030D01*
X007872Y017032D01*
X007872Y017023D01*
X007923Y017021D01*
X007974Y017016D01*
X008025Y017007D01*
X008075Y016995D01*
X008124Y016979D01*
X008171Y016961D01*
X008218Y016939D01*
X008263Y016914D01*
X008306Y016886D01*
X008347Y016856D01*
X008386Y016823D01*
X008423Y016787D01*
X008458Y016749D01*
X008451Y016743D01*
X008414Y016784D01*
X008374Y016822D01*
X008332Y016856D01*
X008287Y016888D01*
X008240Y016917D01*
X008191Y016942D01*
X008140Y016963D01*
X008089Y016981D01*
X008035Y016995D01*
X007981Y017005D01*
X007927Y017012D01*
X007872Y017014D01*
X007871Y015406D02*
X007871Y015496D01*
X007872Y015495D02*
X007926Y015497D01*
X007979Y015503D01*
X008032Y015513D01*
X008084Y015527D01*
X008135Y015544D01*
X008185Y015565D01*
X008233Y015589D01*
X008279Y015617D01*
X008323Y015648D01*
X008364Y015682D01*
X008404Y015719D01*
X008440Y015758D01*
X008508Y015701D01*
X008509Y015700D01*
X008471Y015659D01*
X008431Y015621D01*
X008388Y015585D01*
X008343Y015552D01*
X008296Y015522D01*
X008248Y015496D01*
X008197Y015472D01*
X008145Y015452D01*
X008092Y015436D01*
X008038Y015422D01*
X007983Y015413D01*
X007928Y015407D01*
X007872Y015405D01*
X007872Y015414D01*
X007927Y015416D01*
X007982Y015422D01*
X008036Y015431D01*
X008090Y015444D01*
X008142Y015461D01*
X008194Y015480D01*
X008244Y015504D01*
X008292Y015530D01*
X008338Y015560D01*
X008383Y015592D01*
X008425Y015627D01*
X008465Y015666D01*
X008502Y015706D01*
X008495Y015712D01*
X008458Y015672D01*
X008419Y015634D01*
X008377Y015599D01*
X008333Y015567D01*
X008287Y015538D01*
X008239Y015512D01*
X008190Y015489D01*
X008139Y015469D01*
X008087Y015453D01*
X008034Y015440D01*
X007981Y015431D01*
X007926Y015425D01*
X007872Y015423D01*
X007872Y015432D01*
X007926Y015434D01*
X007979Y015440D01*
X008032Y015449D01*
X008085Y015462D01*
X008136Y015478D01*
X008187Y015497D01*
X008235Y015520D01*
X008283Y015545D01*
X008328Y015574D01*
X008372Y015606D01*
X008413Y015641D01*
X008452Y015678D01*
X008488Y015718D01*
X008481Y015724D01*
X008445Y015684D01*
X008407Y015647D01*
X008366Y015613D01*
X008323Y015582D01*
X008278Y015553D01*
X008231Y015528D01*
X008183Y015505D01*
X008133Y015486D01*
X008082Y015470D01*
X008031Y015458D01*
X007978Y015449D01*
X007925Y015443D01*
X007872Y015441D01*
X007872Y015450D01*
X007925Y015452D01*
X007977Y015458D01*
X008029Y015467D01*
X008080Y015479D01*
X008130Y015495D01*
X008180Y015514D01*
X008227Y015536D01*
X008274Y015561D01*
X008318Y015589D01*
X008360Y015620D01*
X008401Y015654D01*
X008439Y015691D01*
X008474Y015729D01*
X008468Y015735D01*
X008432Y015697D01*
X008395Y015661D01*
X008355Y015627D01*
X008313Y015597D01*
X008269Y015569D01*
X008223Y015544D01*
X008176Y015522D01*
X008127Y015503D01*
X008078Y015488D01*
X008027Y015475D01*
X007976Y015467D01*
X007924Y015461D01*
X007872Y015459D01*
X007872Y015468D01*
X007928Y015470D01*
X007983Y015477D01*
X008038Y015487D01*
X008092Y015501D01*
X008145Y015519D01*
X008196Y015541D01*
X008246Y015566D01*
X008294Y015595D01*
X008339Y015627D01*
X008382Y015662D01*
X008423Y015700D01*
X008461Y015741D01*
X008454Y015747D01*
X008417Y015706D01*
X008376Y015669D01*
X008334Y015634D01*
X008289Y015602D01*
X008241Y015574D01*
X008192Y015549D01*
X008141Y015527D01*
X008089Y015510D01*
X008036Y015496D01*
X007982Y015486D01*
X007927Y015479D01*
X007872Y015477D01*
X007872Y015486D01*
X007926Y015488D01*
X007980Y015494D01*
X008034Y015504D01*
X008087Y015518D01*
X008138Y015536D01*
X008188Y015557D01*
X008237Y015582D01*
X008284Y015610D01*
X008328Y015641D01*
X008370Y015675D01*
X008410Y015713D01*
X008447Y015753D01*
X007862Y015344D02*
X007862Y015254D01*
X007862Y015255D02*
X007808Y015253D01*
X007755Y015247D01*
X007702Y015237D01*
X007650Y015223D01*
X007599Y015206D01*
X007550Y015185D01*
X007502Y015161D01*
X007456Y015133D01*
X007412Y015102D01*
X007370Y015068D01*
X007331Y015032D01*
X007294Y014992D01*
X007261Y014950D01*
X007230Y014906D01*
X007203Y014860D01*
X007124Y014902D01*
X007152Y014951D01*
X007184Y014997D01*
X007219Y015042D01*
X007256Y015084D01*
X007297Y015124D01*
X007340Y015160D01*
X007385Y015194D01*
X007432Y015225D01*
X007482Y015252D01*
X007533Y015276D01*
X007585Y015297D01*
X007639Y015314D01*
X007694Y015327D01*
X007749Y015337D01*
X007806Y015343D01*
X007862Y015345D01*
X007862Y015336D01*
X007806Y015334D01*
X007751Y015328D01*
X007696Y015318D01*
X007641Y015305D01*
X007588Y015288D01*
X007536Y015268D01*
X007486Y015244D01*
X007437Y015217D01*
X007390Y015187D01*
X007345Y015153D01*
X007303Y015117D01*
X007263Y015078D01*
X007226Y015036D01*
X007191Y014992D01*
X007160Y014946D01*
X007132Y014898D01*
X007140Y014894D01*
X007168Y014941D01*
X007199Y014987D01*
X007233Y015030D01*
X007269Y015072D01*
X007309Y015110D01*
X007351Y015146D01*
X007395Y015179D01*
X007441Y015209D01*
X007490Y015236D01*
X007540Y015259D01*
X007591Y015280D01*
X007644Y015296D01*
X007697Y015309D01*
X007752Y015319D01*
X007807Y015325D01*
X007862Y015327D01*
X007862Y015318D01*
X007807Y015316D01*
X007753Y015310D01*
X007699Y015301D01*
X007646Y015288D01*
X007594Y015271D01*
X007543Y015251D01*
X007494Y015228D01*
X007446Y015201D01*
X007400Y015172D01*
X007356Y015139D01*
X007315Y015104D01*
X007276Y015065D01*
X007239Y015025D01*
X007206Y014982D01*
X007175Y014936D01*
X007148Y014889D01*
X007156Y014885D01*
X007183Y014932D01*
X007213Y014976D01*
X007246Y015019D01*
X007282Y015059D01*
X007321Y015097D01*
X007362Y015132D01*
X007405Y015164D01*
X007451Y015194D01*
X007498Y015220D01*
X007547Y015243D01*
X007597Y015263D01*
X007649Y015279D01*
X007701Y015292D01*
X007754Y015301D01*
X007808Y015307D01*
X007862Y015309D01*
X007862Y015300D01*
X007809Y015298D01*
X007756Y015292D01*
X007703Y015283D01*
X007651Y015270D01*
X007600Y015254D01*
X007550Y015235D01*
X007502Y015212D01*
X007455Y015186D01*
X007411Y015157D01*
X007368Y015125D01*
X007327Y015090D01*
X007289Y015053D01*
X007253Y015013D01*
X007220Y014971D01*
X007190Y014927D01*
X007163Y014881D01*
X007171Y014877D01*
X007198Y014922D01*
X007228Y014966D01*
X007260Y015007D01*
X007295Y015047D01*
X007333Y015084D01*
X007373Y015118D01*
X007416Y015150D01*
X007460Y015178D01*
X007506Y015204D01*
X007554Y015226D01*
X007603Y015246D01*
X007653Y015262D01*
X007705Y015274D01*
X007757Y015283D01*
X007809Y015289D01*
X007862Y015291D01*
X007862Y015282D01*
X007806Y015280D01*
X007751Y015273D01*
X007696Y015263D01*
X007642Y015249D01*
X007590Y015231D01*
X007538Y015210D01*
X007489Y015184D01*
X007441Y015156D01*
X007395Y015124D01*
X007352Y015089D01*
X007312Y015051D01*
X007274Y015010D01*
X007239Y014966D01*
X007208Y014920D01*
X007179Y014872D01*
X007187Y014868D01*
X007215Y014916D01*
X007246Y014961D01*
X007281Y015004D01*
X007318Y015044D01*
X007358Y015082D01*
X007401Y015117D01*
X007446Y015148D01*
X007493Y015177D01*
X007542Y015201D01*
X007593Y015223D01*
X007645Y015240D01*
X007698Y015254D01*
X007752Y015264D01*
X007807Y015271D01*
X007862Y015273D01*
X007862Y015264D01*
X007808Y015262D01*
X007754Y015256D01*
X007700Y015246D01*
X007648Y015232D01*
X007596Y015214D01*
X007546Y015193D01*
X007497Y015169D01*
X007451Y015141D01*
X007406Y015109D01*
X007364Y015075D01*
X007325Y015038D01*
X007288Y014998D01*
X007254Y014956D01*
X007223Y014911D01*
X007195Y014864D01*
X007136Y014077D02*
X007214Y014122D01*
X007214Y014121D02*
X007242Y014077D01*
X007273Y014035D01*
X007306Y013995D01*
X007342Y013957D01*
X007381Y013922D01*
X007422Y013890D01*
X007466Y013860D01*
X007511Y013834D01*
X007558Y013811D01*
X007606Y013791D01*
X007656Y013775D01*
X007706Y013762D01*
X007758Y013753D01*
X007810Y013747D01*
X007862Y013745D01*
X007863Y013656D01*
X007862Y013655D01*
X007807Y013657D01*
X007753Y013663D01*
X007698Y013672D01*
X007645Y013685D01*
X007593Y013701D01*
X007541Y013720D01*
X007491Y013743D01*
X007443Y013769D01*
X007396Y013798D01*
X007352Y013830D01*
X007309Y013865D01*
X007269Y013903D01*
X007232Y013943D01*
X007197Y013985D01*
X007165Y014030D01*
X007136Y014076D01*
X007144Y014081D01*
X007172Y014035D01*
X007204Y013991D01*
X007239Y013949D01*
X007276Y013909D01*
X007315Y013872D01*
X007357Y013837D01*
X007401Y013806D01*
X007447Y013777D01*
X007495Y013751D01*
X007545Y013729D01*
X007595Y013709D01*
X007647Y013693D01*
X007700Y013681D01*
X007754Y013672D01*
X007808Y013666D01*
X007862Y013664D01*
X007862Y013673D01*
X007808Y013675D01*
X007755Y013681D01*
X007702Y013690D01*
X007650Y013702D01*
X007598Y013718D01*
X007548Y013737D01*
X007499Y013759D01*
X007452Y013785D01*
X007406Y013813D01*
X007363Y013845D01*
X007321Y013879D01*
X007282Y013915D01*
X007245Y013955D01*
X007211Y013996D01*
X007180Y014040D01*
X007151Y014085D01*
X007159Y014090D01*
X007189Y014042D01*
X007223Y013996D01*
X007259Y013953D01*
X007299Y013912D01*
X007341Y013874D01*
X007385Y013839D01*
X007432Y013807D01*
X007481Y013779D01*
X007532Y013754D01*
X007585Y013732D01*
X007638Y013715D01*
X007693Y013701D01*
X007749Y013691D01*
X007805Y013684D01*
X007862Y013682D01*
X007862Y013691D01*
X007806Y013693D01*
X007750Y013699D01*
X007695Y013709D01*
X007641Y013723D01*
X007588Y013741D01*
X007536Y013762D01*
X007485Y013787D01*
X007437Y013815D01*
X007391Y013846D01*
X007346Y013881D01*
X007305Y013918D01*
X007266Y013959D01*
X007230Y014001D01*
X007197Y014047D01*
X007167Y014094D01*
X007175Y014099D01*
X007204Y014052D01*
X007237Y014007D01*
X007273Y013965D01*
X007311Y013925D01*
X007352Y013888D01*
X007396Y013853D01*
X007442Y013822D01*
X007490Y013795D01*
X007539Y013770D01*
X007591Y013749D01*
X007643Y013732D01*
X007697Y013718D01*
X007752Y013708D01*
X007807Y013702D01*
X007862Y013700D01*
X007862Y013709D01*
X007807Y013711D01*
X007753Y013717D01*
X007699Y013727D01*
X007646Y013741D01*
X007594Y013758D01*
X007543Y013778D01*
X007494Y013803D01*
X007447Y013830D01*
X007401Y013861D01*
X007358Y013894D01*
X007317Y013931D01*
X007279Y013971D01*
X007244Y014013D01*
X007212Y014057D01*
X007183Y014103D01*
X007191Y014108D01*
X007219Y014062D01*
X007251Y014018D01*
X007286Y013977D01*
X007324Y013938D01*
X007364Y013901D01*
X007406Y013868D01*
X007451Y013838D01*
X007498Y013810D01*
X007547Y013787D01*
X007597Y013766D01*
X007648Y013749D01*
X007701Y013736D01*
X007754Y013726D01*
X007808Y013720D01*
X007862Y013718D01*
X007862Y013727D01*
X007809Y013729D01*
X007755Y013735D01*
X007703Y013745D01*
X007651Y013758D01*
X007600Y013775D01*
X007550Y013795D01*
X007502Y013818D01*
X007456Y013845D01*
X007412Y013875D01*
X007370Y013908D01*
X007330Y013944D01*
X007293Y013983D01*
X007258Y014024D01*
X007227Y014067D01*
X007198Y014112D01*
X007206Y014117D01*
X007234Y014072D01*
X007265Y014029D01*
X007299Y013989D01*
X007336Y013951D01*
X007375Y013915D01*
X007417Y013883D01*
X007461Y013853D01*
X007507Y013826D01*
X007554Y013803D01*
X007603Y013783D01*
X007653Y013766D01*
X007705Y013753D01*
X007757Y013744D01*
X007809Y013738D01*
X007862Y013736D01*
X007871Y013656D02*
X007871Y013746D01*
X007872Y013745D02*
X007926Y013747D01*
X007979Y013753D01*
X008032Y013763D01*
X008084Y013777D01*
X008135Y013794D01*
X008185Y013815D01*
X008233Y013839D01*
X008279Y013867D01*
X008323Y013898D01*
X008364Y013932D01*
X008404Y013969D01*
X008440Y014008D01*
X008508Y013951D01*
X008509Y013950D01*
X008471Y013909D01*
X008431Y013871D01*
X008388Y013835D01*
X008343Y013802D01*
X008296Y013772D01*
X008248Y013746D01*
X008197Y013722D01*
X008145Y013702D01*
X008092Y013686D01*
X008038Y013672D01*
X007983Y013663D01*
X007928Y013657D01*
X007872Y013655D01*
X007872Y013664D01*
X007927Y013666D01*
X007982Y013672D01*
X008036Y013681D01*
X008090Y013694D01*
X008142Y013711D01*
X008194Y013730D01*
X008244Y013754D01*
X008292Y013780D01*
X008338Y013810D01*
X008383Y013842D01*
X008425Y013877D01*
X008465Y013916D01*
X008502Y013956D01*
X008495Y013962D01*
X008458Y013922D01*
X008419Y013884D01*
X008377Y013849D01*
X008333Y013817D01*
X008287Y013788D01*
X008239Y013762D01*
X008190Y013739D01*
X008139Y013719D01*
X008087Y013703D01*
X008034Y013690D01*
X007981Y013681D01*
X007926Y013675D01*
X007872Y013673D01*
X007872Y013682D01*
X007926Y013684D01*
X007979Y013690D01*
X008032Y013699D01*
X008085Y013712D01*
X008136Y013728D01*
X008187Y013747D01*
X008235Y013770D01*
X008283Y013795D01*
X008328Y013824D01*
X008372Y013856D01*
X008413Y013891D01*
X008452Y013928D01*
X008488Y013968D01*
X008481Y013974D01*
X008445Y013934D01*
X008407Y013897D01*
X008366Y013863D01*
X008323Y013832D01*
X008278Y013803D01*
X008231Y013778D01*
X008183Y013755D01*
X008133Y013736D01*
X008082Y013720D01*
X008031Y013708D01*
X007978Y013699D01*
X007925Y013693D01*
X007872Y013691D01*
X007872Y013700D01*
X007925Y013702D01*
X007977Y013708D01*
X008029Y013717D01*
X008080Y013729D01*
X008130Y013745D01*
X008180Y013764D01*
X008227Y013786D01*
X008274Y013811D01*
X008318Y013839D01*
X008360Y013870D01*
X008401Y013904D01*
X008439Y013941D01*
X008474Y013979D01*
X008468Y013985D01*
X008432Y013947D01*
X008395Y013911D01*
X008355Y013877D01*
X008313Y013847D01*
X008269Y013819D01*
X008223Y013794D01*
X008176Y013772D01*
X008127Y013753D01*
X008078Y013738D01*
X008027Y013725D01*
X007976Y013717D01*
X007924Y013711D01*
X007872Y013709D01*
X007872Y013718D01*
X007928Y013720D01*
X007983Y013727D01*
X008038Y013737D01*
X008092Y013751D01*
X008145Y013769D01*
X008196Y013791D01*
X008246Y013816D01*
X008294Y013845D01*
X008339Y013877D01*
X008382Y013912D01*
X008423Y013950D01*
X008461Y013991D01*
X008454Y013997D01*
X008417Y013956D01*
X008376Y013919D01*
X008334Y013884D01*
X008289Y013852D01*
X008241Y013824D01*
X008192Y013799D01*
X008141Y013777D01*
X008089Y013760D01*
X008036Y013746D01*
X007982Y013736D01*
X007927Y013729D01*
X007872Y013727D01*
X007872Y013736D01*
X007926Y013738D01*
X007980Y013744D01*
X008034Y013754D01*
X008087Y013768D01*
X008138Y013786D01*
X008188Y013807D01*
X008237Y013832D01*
X008284Y013860D01*
X008328Y013891D01*
X008370Y013925D01*
X008410Y013963D01*
X008447Y014003D01*
X008512Y015044D02*
X008443Y014987D01*
X008444Y014987D02*
X008407Y015027D01*
X008368Y015065D01*
X008326Y015099D01*
X008282Y015131D01*
X008236Y015159D01*
X008187Y015184D01*
X008137Y015205D01*
X008086Y015223D01*
X008033Y015236D01*
X007980Y015246D01*
X007926Y015253D01*
X007872Y015255D01*
X007871Y015344D01*
X007872Y015345D01*
X007928Y015343D01*
X007984Y015337D01*
X008039Y015327D01*
X008094Y015314D01*
X008147Y015297D01*
X008200Y015277D01*
X008251Y015253D01*
X008300Y015226D01*
X008347Y015195D01*
X008392Y015162D01*
X008435Y015126D01*
X008475Y015087D01*
X008513Y015045D01*
X008506Y015039D01*
X008469Y015080D01*
X008429Y015119D01*
X008387Y015155D01*
X008342Y015188D01*
X008295Y015218D01*
X008247Y015245D01*
X008196Y015268D01*
X008144Y015289D01*
X008091Y015305D01*
X008037Y015318D01*
X007983Y015328D01*
X007928Y015334D01*
X007872Y015336D01*
X007872Y015327D01*
X007927Y015325D01*
X007982Y015319D01*
X008036Y015310D01*
X008089Y015297D01*
X008141Y015280D01*
X008193Y015260D01*
X008242Y015237D01*
X008291Y015210D01*
X008337Y015181D01*
X008381Y015148D01*
X008423Y015112D01*
X008462Y015074D01*
X008499Y015033D01*
X008492Y015028D01*
X008456Y015068D01*
X008417Y015106D01*
X008375Y015141D01*
X008332Y015173D01*
X008286Y015203D01*
X008238Y015229D01*
X008189Y015252D01*
X008139Y015272D01*
X008087Y015288D01*
X008034Y015301D01*
X007980Y015310D01*
X007926Y015316D01*
X007872Y015318D01*
X007872Y015309D01*
X007926Y015307D01*
X007979Y015301D01*
X008032Y015292D01*
X008084Y015279D01*
X008136Y015263D01*
X008186Y015244D01*
X008234Y015221D01*
X008281Y015195D01*
X008327Y015166D01*
X008370Y015134D01*
X008411Y015099D01*
X008449Y015062D01*
X008485Y015022D01*
X008478Y015016D01*
X008443Y015055D01*
X008405Y015092D01*
X008364Y015127D01*
X008321Y015158D01*
X008277Y015187D01*
X008230Y015213D01*
X008182Y015235D01*
X008133Y015255D01*
X008082Y015271D01*
X008030Y015283D01*
X007978Y015292D01*
X007925Y015298D01*
X007872Y015300D01*
X007872Y015291D01*
X007924Y015289D01*
X007977Y015283D01*
X008028Y015274D01*
X008079Y015262D01*
X008130Y015246D01*
X008179Y015227D01*
X008226Y015205D01*
X008272Y015179D01*
X008316Y015151D01*
X008358Y015120D01*
X008399Y015086D01*
X008436Y015049D01*
X008471Y015010D01*
X008465Y015004D01*
X008430Y015043D01*
X008392Y015079D01*
X008353Y015113D01*
X008311Y015144D01*
X008267Y015172D01*
X008222Y015197D01*
X008175Y015219D01*
X008127Y015238D01*
X008077Y015253D01*
X008027Y015266D01*
X007975Y015274D01*
X007924Y015280D01*
X007872Y015282D01*
X007872Y015273D01*
X007923Y015271D01*
X007974Y015266D01*
X008025Y015257D01*
X008075Y015245D01*
X008124Y015229D01*
X008171Y015211D01*
X008218Y015189D01*
X008263Y015164D01*
X008306Y015136D01*
X008347Y015106D01*
X008386Y015073D01*
X008423Y015037D01*
X008458Y014999D01*
X008451Y014993D01*
X008414Y015034D01*
X008374Y015072D01*
X008332Y015106D01*
X008287Y015138D01*
X008240Y015167D01*
X008191Y015192D01*
X008140Y015213D01*
X008089Y015231D01*
X008035Y015245D01*
X007981Y015255D01*
X007927Y015262D01*
X007872Y015264D01*
X007136Y012327D02*
X007214Y012372D01*
X007214Y012371D02*
X007242Y012327D01*
X007273Y012285D01*
X007306Y012245D01*
X007342Y012207D01*
X007381Y012172D01*
X007422Y012140D01*
X007466Y012110D01*
X007511Y012084D01*
X007558Y012061D01*
X007606Y012041D01*
X007656Y012025D01*
X007706Y012012D01*
X007758Y012003D01*
X007810Y011997D01*
X007862Y011995D01*
X007863Y011906D01*
X007862Y011905D01*
X007807Y011907D01*
X007753Y011913D01*
X007698Y011922D01*
X007645Y011935D01*
X007593Y011951D01*
X007541Y011970D01*
X007491Y011993D01*
X007443Y012019D01*
X007396Y012048D01*
X007352Y012080D01*
X007309Y012115D01*
X007269Y012153D01*
X007232Y012193D01*
X007197Y012235D01*
X007165Y012280D01*
X007136Y012326D01*
X007144Y012331D01*
X007172Y012285D01*
X007204Y012241D01*
X007239Y012199D01*
X007276Y012159D01*
X007315Y012122D01*
X007357Y012087D01*
X007401Y012056D01*
X007447Y012027D01*
X007495Y012001D01*
X007545Y011979D01*
X007595Y011959D01*
X007647Y011943D01*
X007700Y011931D01*
X007754Y011922D01*
X007808Y011916D01*
X007862Y011914D01*
X007862Y011923D01*
X007808Y011925D01*
X007755Y011931D01*
X007702Y011940D01*
X007650Y011952D01*
X007598Y011968D01*
X007548Y011987D01*
X007499Y012009D01*
X007452Y012035D01*
X007406Y012063D01*
X007363Y012095D01*
X007321Y012129D01*
X007282Y012165D01*
X007245Y012205D01*
X007211Y012246D01*
X007180Y012290D01*
X007151Y012335D01*
X007159Y012340D01*
X007189Y012292D01*
X007223Y012246D01*
X007259Y012203D01*
X007299Y012162D01*
X007341Y012124D01*
X007385Y012089D01*
X007432Y012057D01*
X007481Y012029D01*
X007532Y012004D01*
X007585Y011982D01*
X007638Y011965D01*
X007693Y011951D01*
X007749Y011941D01*
X007805Y011934D01*
X007862Y011932D01*
X007862Y011941D01*
X007806Y011943D01*
X007750Y011949D01*
X007695Y011959D01*
X007641Y011973D01*
X007588Y011991D01*
X007536Y012012D01*
X007485Y012037D01*
X007437Y012065D01*
X007391Y012096D01*
X007346Y012131D01*
X007305Y012168D01*
X007266Y012209D01*
X007230Y012251D01*
X007197Y012297D01*
X007167Y012344D01*
X007175Y012349D01*
X007204Y012302D01*
X007237Y012257D01*
X007273Y012215D01*
X007311Y012175D01*
X007352Y012138D01*
X007396Y012103D01*
X007442Y012072D01*
X007490Y012045D01*
X007539Y012020D01*
X007591Y011999D01*
X007643Y011982D01*
X007697Y011968D01*
X007752Y011958D01*
X007807Y011952D01*
X007862Y011950D01*
X007862Y011959D01*
X007807Y011961D01*
X007753Y011967D01*
X007699Y011977D01*
X007646Y011991D01*
X007594Y012008D01*
X007543Y012028D01*
X007494Y012053D01*
X007447Y012080D01*
X007401Y012111D01*
X007358Y012144D01*
X007317Y012181D01*
X007279Y012221D01*
X007244Y012263D01*
X007212Y012307D01*
X007183Y012353D01*
X007191Y012358D01*
X007219Y012312D01*
X007251Y012268D01*
X007286Y012227D01*
X007324Y012188D01*
X007364Y012151D01*
X007406Y012118D01*
X007451Y012088D01*
X007498Y012060D01*
X007547Y012037D01*
X007597Y012016D01*
X007648Y011999D01*
X007701Y011986D01*
X007754Y011976D01*
X007808Y011970D01*
X007862Y011968D01*
X007862Y011977D01*
X007809Y011979D01*
X007755Y011985D01*
X007703Y011995D01*
X007651Y012008D01*
X007600Y012025D01*
X007550Y012045D01*
X007502Y012068D01*
X007456Y012095D01*
X007412Y012125D01*
X007370Y012158D01*
X007330Y012194D01*
X007293Y012233D01*
X007258Y012274D01*
X007227Y012317D01*
X007198Y012362D01*
X007206Y012367D01*
X007234Y012322D01*
X007265Y012279D01*
X007299Y012239D01*
X007336Y012201D01*
X007375Y012165D01*
X007417Y012133D01*
X007461Y012103D01*
X007507Y012076D01*
X007554Y012053D01*
X007603Y012033D01*
X007653Y012016D01*
X007705Y012003D01*
X007757Y011994D01*
X007809Y011988D01*
X007862Y011986D01*
X007862Y013594D02*
X007862Y013504D01*
X007862Y013505D02*
X007808Y013503D01*
X007755Y013497D01*
X007702Y013487D01*
X007650Y013473D01*
X007599Y013456D01*
X007550Y013435D01*
X007502Y013411D01*
X007456Y013383D01*
X007412Y013352D01*
X007370Y013318D01*
X007331Y013282D01*
X007294Y013242D01*
X007261Y013200D01*
X007230Y013156D01*
X007203Y013110D01*
X007124Y013152D01*
X007152Y013201D01*
X007184Y013247D01*
X007219Y013292D01*
X007256Y013334D01*
X007297Y013374D01*
X007340Y013410D01*
X007385Y013444D01*
X007432Y013475D01*
X007482Y013502D01*
X007533Y013526D01*
X007585Y013547D01*
X007639Y013564D01*
X007694Y013577D01*
X007749Y013587D01*
X007806Y013593D01*
X007862Y013595D01*
X007862Y013586D01*
X007806Y013584D01*
X007751Y013578D01*
X007696Y013568D01*
X007641Y013555D01*
X007588Y013538D01*
X007536Y013518D01*
X007486Y013494D01*
X007437Y013467D01*
X007390Y013437D01*
X007345Y013403D01*
X007303Y013367D01*
X007263Y013328D01*
X007226Y013286D01*
X007191Y013242D01*
X007160Y013196D01*
X007132Y013148D01*
X007140Y013144D01*
X007168Y013191D01*
X007199Y013237D01*
X007233Y013280D01*
X007269Y013322D01*
X007309Y013360D01*
X007351Y013396D01*
X007395Y013429D01*
X007441Y013459D01*
X007490Y013486D01*
X007540Y013509D01*
X007591Y013530D01*
X007644Y013546D01*
X007697Y013559D01*
X007752Y013569D01*
X007807Y013575D01*
X007862Y013577D01*
X007862Y013568D01*
X007807Y013566D01*
X007753Y013560D01*
X007699Y013551D01*
X007646Y013538D01*
X007594Y013521D01*
X007543Y013501D01*
X007494Y013478D01*
X007446Y013451D01*
X007400Y013422D01*
X007356Y013389D01*
X007315Y013354D01*
X007276Y013315D01*
X007239Y013275D01*
X007206Y013232D01*
X007175Y013186D01*
X007148Y013139D01*
X007156Y013135D01*
X007183Y013182D01*
X007213Y013226D01*
X007246Y013269D01*
X007282Y013309D01*
X007321Y013347D01*
X007362Y013382D01*
X007405Y013414D01*
X007451Y013444D01*
X007498Y013470D01*
X007547Y013493D01*
X007597Y013513D01*
X007649Y013529D01*
X007701Y013542D01*
X007754Y013551D01*
X007808Y013557D01*
X007862Y013559D01*
X007862Y013550D01*
X007809Y013548D01*
X007756Y013542D01*
X007703Y013533D01*
X007651Y013520D01*
X007600Y013504D01*
X007550Y013485D01*
X007502Y013462D01*
X007455Y013436D01*
X007411Y013407D01*
X007368Y013375D01*
X007327Y013340D01*
X007289Y013303D01*
X007253Y013263D01*
X007220Y013221D01*
X007190Y013177D01*
X007163Y013131D01*
X007171Y013127D01*
X007198Y013172D01*
X007228Y013216D01*
X007260Y013257D01*
X007295Y013297D01*
X007333Y013334D01*
X007373Y013368D01*
X007416Y013400D01*
X007460Y013428D01*
X007506Y013454D01*
X007554Y013476D01*
X007603Y013496D01*
X007653Y013512D01*
X007705Y013524D01*
X007757Y013533D01*
X007809Y013539D01*
X007862Y013541D01*
X007862Y013532D01*
X007806Y013530D01*
X007751Y013523D01*
X007696Y013513D01*
X007642Y013499D01*
X007590Y013481D01*
X007538Y013460D01*
X007489Y013434D01*
X007441Y013406D01*
X007395Y013374D01*
X007352Y013339D01*
X007312Y013301D01*
X007274Y013260D01*
X007239Y013216D01*
X007208Y013170D01*
X007179Y013122D01*
X007187Y013118D01*
X007215Y013166D01*
X007246Y013211D01*
X007281Y013254D01*
X007318Y013294D01*
X007358Y013332D01*
X007401Y013367D01*
X007446Y013398D01*
X007493Y013427D01*
X007542Y013451D01*
X007593Y013473D01*
X007645Y013490D01*
X007698Y013504D01*
X007752Y013514D01*
X007807Y013521D01*
X007862Y013523D01*
X007862Y013514D01*
X007808Y013512D01*
X007754Y013506D01*
X007700Y013496D01*
X007648Y013482D01*
X007596Y013464D01*
X007546Y013443D01*
X007497Y013419D01*
X007451Y013391D01*
X007406Y013359D01*
X007364Y013325D01*
X007325Y013288D01*
X007288Y013248D01*
X007254Y013206D01*
X007223Y013161D01*
X007195Y013114D01*
X008512Y013294D02*
X008443Y013237D01*
X008444Y013237D02*
X008407Y013277D01*
X008368Y013315D01*
X008326Y013349D01*
X008282Y013381D01*
X008236Y013409D01*
X008187Y013434D01*
X008137Y013455D01*
X008086Y013473D01*
X008033Y013486D01*
X007980Y013496D01*
X007926Y013503D01*
X007872Y013505D01*
X007871Y013594D01*
X007872Y013595D01*
X007928Y013593D01*
X007984Y013587D01*
X008039Y013577D01*
X008094Y013564D01*
X008147Y013547D01*
X008200Y013527D01*
X008251Y013503D01*
X008300Y013476D01*
X008347Y013445D01*
X008392Y013412D01*
X008435Y013376D01*
X008475Y013337D01*
X008513Y013295D01*
X008506Y013289D01*
X008469Y013330D01*
X008429Y013369D01*
X008387Y013405D01*
X008342Y013438D01*
X008295Y013468D01*
X008247Y013495D01*
X008196Y013518D01*
X008144Y013539D01*
X008091Y013555D01*
X008037Y013568D01*
X007983Y013578D01*
X007928Y013584D01*
X007872Y013586D01*
X007872Y013577D01*
X007927Y013575D01*
X007982Y013569D01*
X008036Y013560D01*
X008089Y013547D01*
X008141Y013530D01*
X008193Y013510D01*
X008242Y013487D01*
X008291Y013460D01*
X008337Y013431D01*
X008381Y013398D01*
X008423Y013362D01*
X008462Y013324D01*
X008499Y013283D01*
X008492Y013278D01*
X008456Y013318D01*
X008417Y013356D01*
X008375Y013391D01*
X008332Y013423D01*
X008286Y013453D01*
X008238Y013479D01*
X008189Y013502D01*
X008139Y013522D01*
X008087Y013538D01*
X008034Y013551D01*
X007980Y013560D01*
X007926Y013566D01*
X007872Y013568D01*
X007872Y013559D01*
X007926Y013557D01*
X007979Y013551D01*
X008032Y013542D01*
X008084Y013529D01*
X008136Y013513D01*
X008186Y013494D01*
X008234Y013471D01*
X008281Y013445D01*
X008327Y013416D01*
X008370Y013384D01*
X008411Y013349D01*
X008449Y013312D01*
X008485Y013272D01*
X008478Y013266D01*
X008443Y013305D01*
X008405Y013342D01*
X008364Y013377D01*
X008321Y013408D01*
X008277Y013437D01*
X008230Y013463D01*
X008182Y013485D01*
X008133Y013505D01*
X008082Y013521D01*
X008030Y013533D01*
X007978Y013542D01*
X007925Y013548D01*
X007872Y013550D01*
X007872Y013541D01*
X007924Y013539D01*
X007977Y013533D01*
X008028Y013524D01*
X008079Y013512D01*
X008130Y013496D01*
X008179Y013477D01*
X008226Y013455D01*
X008272Y013429D01*
X008316Y013401D01*
X008358Y013370D01*
X008399Y013336D01*
X008436Y013299D01*
X008471Y013260D01*
X008465Y013254D01*
X008430Y013293D01*
X008392Y013329D01*
X008353Y013363D01*
X008311Y013394D01*
X008267Y013422D01*
X008222Y013447D01*
X008175Y013469D01*
X008127Y013488D01*
X008077Y013503D01*
X008027Y013516D01*
X007975Y013524D01*
X007924Y013530D01*
X007872Y013532D01*
X007872Y013523D01*
X007923Y013521D01*
X007974Y013516D01*
X008025Y013507D01*
X008075Y013495D01*
X008124Y013479D01*
X008171Y013461D01*
X008218Y013439D01*
X008263Y013414D01*
X008306Y013386D01*
X008347Y013356D01*
X008386Y013323D01*
X008423Y013287D01*
X008458Y013249D01*
X008451Y013243D01*
X008414Y013284D01*
X008374Y013322D01*
X008332Y013356D01*
X008287Y013388D01*
X008240Y013417D01*
X008191Y013442D01*
X008140Y013463D01*
X008089Y013481D01*
X008035Y013495D01*
X007981Y013505D01*
X007927Y013512D01*
X007872Y013514D01*
X007871Y011906D02*
X007871Y011996D01*
X007872Y011995D02*
X007926Y011997D01*
X007979Y012003D01*
X008032Y012013D01*
X008084Y012027D01*
X008135Y012044D01*
X008185Y012065D01*
X008233Y012089D01*
X008279Y012117D01*
X008323Y012148D01*
X008364Y012182D01*
X008404Y012219D01*
X008440Y012258D01*
X008508Y012201D01*
X008509Y012200D01*
X008471Y012159D01*
X008431Y012121D01*
X008388Y012085D01*
X008343Y012052D01*
X008296Y012022D01*
X008248Y011996D01*
X008197Y011972D01*
X008145Y011952D01*
X008092Y011936D01*
X008038Y011922D01*
X007983Y011913D01*
X007928Y011907D01*
X007872Y011905D01*
X007872Y011914D01*
X007927Y011916D01*
X007982Y011922D01*
X008036Y011931D01*
X008090Y011944D01*
X008142Y011961D01*
X008194Y011980D01*
X008244Y012004D01*
X008292Y012030D01*
X008338Y012060D01*
X008383Y012092D01*
X008425Y012127D01*
X008465Y012166D01*
X008502Y012206D01*
X008495Y012212D01*
X008458Y012172D01*
X008419Y012134D01*
X008377Y012099D01*
X008333Y012067D01*
X008287Y012038D01*
X008239Y012012D01*
X008190Y011989D01*
X008139Y011969D01*
X008087Y011953D01*
X008034Y011940D01*
X007981Y011931D01*
X007926Y011925D01*
X007872Y011923D01*
X007872Y011932D01*
X007926Y011934D01*
X007979Y011940D01*
X008032Y011949D01*
X008085Y011962D01*
X008136Y011978D01*
X008187Y011997D01*
X008235Y012020D01*
X008283Y012045D01*
X008328Y012074D01*
X008372Y012106D01*
X008413Y012141D01*
X008452Y012178D01*
X008488Y012218D01*
X008481Y012224D01*
X008445Y012184D01*
X008407Y012147D01*
X008366Y012113D01*
X008323Y012082D01*
X008278Y012053D01*
X008231Y012028D01*
X008183Y012005D01*
X008133Y011986D01*
X008082Y011970D01*
X008031Y011958D01*
X007978Y011949D01*
X007925Y011943D01*
X007872Y011941D01*
X007872Y011950D01*
X007925Y011952D01*
X007977Y011958D01*
X008029Y011967D01*
X008080Y011979D01*
X008130Y011995D01*
X008180Y012014D01*
X008227Y012036D01*
X008274Y012061D01*
X008318Y012089D01*
X008360Y012120D01*
X008401Y012154D01*
X008439Y012191D01*
X008474Y012229D01*
X008468Y012235D01*
X008432Y012197D01*
X008395Y012161D01*
X008355Y012127D01*
X008313Y012097D01*
X008269Y012069D01*
X008223Y012044D01*
X008176Y012022D01*
X008127Y012003D01*
X008078Y011988D01*
X008027Y011975D01*
X007976Y011967D01*
X007924Y011961D01*
X007872Y011959D01*
X007872Y011968D01*
X007928Y011970D01*
X007983Y011977D01*
X008038Y011987D01*
X008092Y012001D01*
X008145Y012019D01*
X008196Y012041D01*
X008246Y012066D01*
X008294Y012095D01*
X008339Y012127D01*
X008382Y012162D01*
X008423Y012200D01*
X008461Y012241D01*
X008454Y012247D01*
X008417Y012206D01*
X008376Y012169D01*
X008334Y012134D01*
X008289Y012102D01*
X008241Y012074D01*
X008192Y012049D01*
X008141Y012027D01*
X008089Y012010D01*
X008036Y011996D01*
X007982Y011986D01*
X007927Y011979D01*
X007872Y011977D01*
X007872Y011986D01*
X007926Y011988D01*
X007980Y011994D01*
X008034Y012004D01*
X008087Y012018D01*
X008138Y012036D01*
X008188Y012057D01*
X008237Y012082D01*
X008284Y012110D01*
X008328Y012141D01*
X008370Y012175D01*
X008410Y012213D01*
X008447Y012253D01*
X007862Y011844D02*
X007862Y011754D01*
X007862Y011755D02*
X007808Y011753D01*
X007755Y011747D01*
X007702Y011737D01*
X007650Y011723D01*
X007599Y011706D01*
X007550Y011685D01*
X007502Y011661D01*
X007456Y011633D01*
X007412Y011602D01*
X007370Y011568D01*
X007331Y011532D01*
X007294Y011492D01*
X007261Y011450D01*
X007230Y011406D01*
X007203Y011360D01*
X007124Y011402D01*
X007152Y011451D01*
X007184Y011497D01*
X007219Y011542D01*
X007256Y011584D01*
X007297Y011624D01*
X007340Y011660D01*
X007385Y011694D01*
X007432Y011725D01*
X007482Y011752D01*
X007533Y011776D01*
X007585Y011797D01*
X007639Y011814D01*
X007694Y011827D01*
X007749Y011837D01*
X007806Y011843D01*
X007862Y011845D01*
X007862Y011836D01*
X007806Y011834D01*
X007751Y011828D01*
X007696Y011818D01*
X007641Y011805D01*
X007588Y011788D01*
X007536Y011768D01*
X007486Y011744D01*
X007437Y011717D01*
X007390Y011687D01*
X007345Y011653D01*
X007303Y011617D01*
X007263Y011578D01*
X007226Y011536D01*
X007191Y011492D01*
X007160Y011446D01*
X007132Y011398D01*
X007140Y011394D01*
X007168Y011441D01*
X007199Y011487D01*
X007233Y011530D01*
X007269Y011572D01*
X007309Y011610D01*
X007351Y011646D01*
X007395Y011679D01*
X007441Y011709D01*
X007490Y011736D01*
X007540Y011759D01*
X007591Y011780D01*
X007644Y011796D01*
X007697Y011809D01*
X007752Y011819D01*
X007807Y011825D01*
X007862Y011827D01*
X007862Y011818D01*
X007807Y011816D01*
X007753Y011810D01*
X007699Y011801D01*
X007646Y011788D01*
X007594Y011771D01*
X007543Y011751D01*
X007494Y011728D01*
X007446Y011701D01*
X007400Y011672D01*
X007356Y011639D01*
X007315Y011604D01*
X007276Y011565D01*
X007239Y011525D01*
X007206Y011482D01*
X007175Y011436D01*
X007148Y011389D01*
X007156Y011385D01*
X007183Y011432D01*
X007213Y011476D01*
X007246Y011519D01*
X007282Y011559D01*
X007321Y011597D01*
X007362Y011632D01*
X007405Y011664D01*
X007451Y011694D01*
X007498Y011720D01*
X007547Y011743D01*
X007597Y011763D01*
X007649Y011779D01*
X007701Y011792D01*
X007754Y011801D01*
X007808Y011807D01*
X007862Y011809D01*
X007862Y011800D01*
X007809Y011798D01*
X007756Y011792D01*
X007703Y011783D01*
X007651Y011770D01*
X007600Y011754D01*
X007550Y011735D01*
X007502Y011712D01*
X007455Y011686D01*
X007411Y011657D01*
X007368Y011625D01*
X007327Y011590D01*
X007289Y011553D01*
X007253Y011513D01*
X007220Y011471D01*
X007190Y011427D01*
X007163Y011381D01*
X007171Y011377D01*
X007198Y011422D01*
X007228Y011466D01*
X007260Y011507D01*
X007295Y011547D01*
X007333Y011584D01*
X007373Y011618D01*
X007416Y011650D01*
X007460Y011678D01*
X007506Y011704D01*
X007554Y011726D01*
X007603Y011746D01*
X007653Y011762D01*
X007705Y011774D01*
X007757Y011783D01*
X007809Y011789D01*
X007862Y011791D01*
X007862Y011782D01*
X007806Y011780D01*
X007751Y011773D01*
X007696Y011763D01*
X007642Y011749D01*
X007590Y011731D01*
X007538Y011710D01*
X007489Y011684D01*
X007441Y011656D01*
X007395Y011624D01*
X007352Y011589D01*
X007312Y011551D01*
X007274Y011510D01*
X007239Y011466D01*
X007208Y011420D01*
X007179Y011372D01*
X007187Y011368D01*
X007215Y011416D01*
X007246Y011461D01*
X007281Y011504D01*
X007318Y011544D01*
X007358Y011582D01*
X007401Y011617D01*
X007446Y011648D01*
X007493Y011677D01*
X007542Y011701D01*
X007593Y011723D01*
X007645Y011740D01*
X007698Y011754D01*
X007752Y011764D01*
X007807Y011771D01*
X007862Y011773D01*
X007862Y011764D01*
X007808Y011762D01*
X007754Y011756D01*
X007700Y011746D01*
X007648Y011732D01*
X007596Y011714D01*
X007546Y011693D01*
X007497Y011669D01*
X007451Y011641D01*
X007406Y011609D01*
X007364Y011575D01*
X007325Y011538D01*
X007288Y011498D01*
X007254Y011456D01*
X007223Y011411D01*
X007195Y011364D01*
X007136Y010577D02*
X007214Y010622D01*
X007214Y010621D02*
X007242Y010577D01*
X007273Y010535D01*
X007306Y010495D01*
X007342Y010457D01*
X007381Y010422D01*
X007422Y010390D01*
X007466Y010360D01*
X007511Y010334D01*
X007558Y010311D01*
X007606Y010291D01*
X007656Y010275D01*
X007706Y010262D01*
X007758Y010253D01*
X007810Y010247D01*
X007862Y010245D01*
X007863Y010156D01*
X007862Y010155D01*
X007807Y010157D01*
X007753Y010163D01*
X007698Y010172D01*
X007645Y010185D01*
X007593Y010201D01*
X007541Y010220D01*
X007491Y010243D01*
X007443Y010269D01*
X007396Y010298D01*
X007352Y010330D01*
X007309Y010365D01*
X007269Y010403D01*
X007232Y010443D01*
X007197Y010485D01*
X007165Y010530D01*
X007136Y010576D01*
X007144Y010581D01*
X007172Y010535D01*
X007204Y010491D01*
X007239Y010449D01*
X007276Y010409D01*
X007315Y010372D01*
X007357Y010337D01*
X007401Y010306D01*
X007447Y010277D01*
X007495Y010251D01*
X007545Y010229D01*
X007595Y010209D01*
X007647Y010193D01*
X007700Y010181D01*
X007754Y010172D01*
X007808Y010166D01*
X007862Y010164D01*
X007862Y010173D01*
X007808Y010175D01*
X007755Y010181D01*
X007702Y010190D01*
X007650Y010202D01*
X007598Y010218D01*
X007548Y010237D01*
X007499Y010259D01*
X007452Y010285D01*
X007406Y010313D01*
X007363Y010345D01*
X007321Y010379D01*
X007282Y010415D01*
X007245Y010455D01*
X007211Y010496D01*
X007180Y010540D01*
X007151Y010585D01*
X007159Y010590D01*
X007189Y010542D01*
X007223Y010496D01*
X007259Y010453D01*
X007299Y010412D01*
X007341Y010374D01*
X007385Y010339D01*
X007432Y010307D01*
X007481Y010279D01*
X007532Y010254D01*
X007585Y010232D01*
X007638Y010215D01*
X007693Y010201D01*
X007749Y010191D01*
X007805Y010184D01*
X007862Y010182D01*
X007862Y010191D01*
X007806Y010193D01*
X007750Y010199D01*
X007695Y010209D01*
X007641Y010223D01*
X007588Y010241D01*
X007536Y010262D01*
X007485Y010287D01*
X007437Y010315D01*
X007391Y010346D01*
X007346Y010381D01*
X007305Y010418D01*
X007266Y010459D01*
X007230Y010501D01*
X007197Y010547D01*
X007167Y010594D01*
X007175Y010599D01*
X007204Y010552D01*
X007237Y010507D01*
X007273Y010465D01*
X007311Y010425D01*
X007352Y010388D01*
X007396Y010353D01*
X007442Y010322D01*
X007490Y010295D01*
X007539Y010270D01*
X007591Y010249D01*
X007643Y010232D01*
X007697Y010218D01*
X007752Y010208D01*
X007807Y010202D01*
X007862Y010200D01*
X007862Y010209D01*
X007807Y010211D01*
X007753Y010217D01*
X007699Y010227D01*
X007646Y010241D01*
X007594Y010258D01*
X007543Y010278D01*
X007494Y010303D01*
X007447Y010330D01*
X007401Y010361D01*
X007358Y010394D01*
X007317Y010431D01*
X007279Y010471D01*
X007244Y010513D01*
X007212Y010557D01*
X007183Y010603D01*
X007191Y010608D01*
X007219Y010562D01*
X007251Y010518D01*
X007286Y010477D01*
X007324Y010438D01*
X007364Y010401D01*
X007406Y010368D01*
X007451Y010338D01*
X007498Y010310D01*
X007547Y010287D01*
X007597Y010266D01*
X007648Y010249D01*
X007701Y010236D01*
X007754Y010226D01*
X007808Y010220D01*
X007862Y010218D01*
X007862Y010227D01*
X007809Y010229D01*
X007755Y010235D01*
X007703Y010245D01*
X007651Y010258D01*
X007600Y010275D01*
X007550Y010295D01*
X007502Y010318D01*
X007456Y010345D01*
X007412Y010375D01*
X007370Y010408D01*
X007330Y010444D01*
X007293Y010483D01*
X007258Y010524D01*
X007227Y010567D01*
X007198Y010612D01*
X007206Y010617D01*
X007234Y010572D01*
X007265Y010529D01*
X007299Y010489D01*
X007336Y010451D01*
X007375Y010415D01*
X007417Y010383D01*
X007461Y010353D01*
X007507Y010326D01*
X007554Y010303D01*
X007603Y010283D01*
X007653Y010266D01*
X007705Y010253D01*
X007757Y010244D01*
X007809Y010238D01*
X007862Y010236D01*
X007871Y010156D02*
X007871Y010246D01*
X007872Y010245D02*
X007926Y010247D01*
X007979Y010253D01*
X008032Y010263D01*
X008084Y010277D01*
X008135Y010294D01*
X008185Y010315D01*
X008233Y010339D01*
X008279Y010367D01*
X008323Y010398D01*
X008364Y010432D01*
X008404Y010469D01*
X008440Y010508D01*
X008508Y010451D01*
X008509Y010450D01*
X008471Y010409D01*
X008431Y010371D01*
X008388Y010335D01*
X008343Y010302D01*
X008296Y010272D01*
X008248Y010246D01*
X008197Y010222D01*
X008145Y010202D01*
X008092Y010186D01*
X008038Y010172D01*
X007983Y010163D01*
X007928Y010157D01*
X007872Y010155D01*
X007872Y010164D01*
X007927Y010166D01*
X007982Y010172D01*
X008036Y010181D01*
X008090Y010194D01*
X008142Y010211D01*
X008194Y010230D01*
X008244Y010254D01*
X008292Y010280D01*
X008338Y010310D01*
X008383Y010342D01*
X008425Y010377D01*
X008465Y010416D01*
X008502Y010456D01*
X008495Y010462D01*
X008458Y010422D01*
X008419Y010384D01*
X008377Y010349D01*
X008333Y010317D01*
X008287Y010288D01*
X008239Y010262D01*
X008190Y010239D01*
X008139Y010219D01*
X008087Y010203D01*
X008034Y010190D01*
X007981Y010181D01*
X007926Y010175D01*
X007872Y010173D01*
X007872Y010182D01*
X007926Y010184D01*
X007979Y010190D01*
X008032Y010199D01*
X008085Y010212D01*
X008136Y010228D01*
X008187Y010247D01*
X008235Y010270D01*
X008283Y010295D01*
X008328Y010324D01*
X008372Y010356D01*
X008413Y010391D01*
X008452Y010428D01*
X008488Y010468D01*
X008481Y010474D01*
X008445Y010434D01*
X008407Y010397D01*
X008366Y010363D01*
X008323Y010332D01*
X008278Y010303D01*
X008231Y010278D01*
X008183Y010255D01*
X008133Y010236D01*
X008082Y010220D01*
X008031Y010208D01*
X007978Y010199D01*
X007925Y010193D01*
X007872Y010191D01*
X007872Y010200D01*
X007925Y010202D01*
X007977Y010208D01*
X008029Y010217D01*
X008080Y010229D01*
X008130Y010245D01*
X008180Y010264D01*
X008227Y010286D01*
X008274Y010311D01*
X008318Y010339D01*
X008360Y010370D01*
X008401Y010404D01*
X008439Y010441D01*
X008474Y010479D01*
X008468Y010485D01*
X008432Y010447D01*
X008395Y010411D01*
X008355Y010377D01*
X008313Y010347D01*
X008269Y010319D01*
X008223Y010294D01*
X008176Y010272D01*
X008127Y010253D01*
X008078Y010238D01*
X008027Y010225D01*
X007976Y010217D01*
X007924Y010211D01*
X007872Y010209D01*
X007872Y010218D01*
X007928Y010220D01*
X007983Y010227D01*
X008038Y010237D01*
X008092Y010251D01*
X008145Y010269D01*
X008196Y010291D01*
X008246Y010316D01*
X008294Y010345D01*
X008339Y010377D01*
X008382Y010412D01*
X008423Y010450D01*
X008461Y010491D01*
X008454Y010497D01*
X008417Y010456D01*
X008376Y010419D01*
X008334Y010384D01*
X008289Y010352D01*
X008241Y010324D01*
X008192Y010299D01*
X008141Y010277D01*
X008089Y010260D01*
X008036Y010246D01*
X007982Y010236D01*
X007927Y010229D01*
X007872Y010227D01*
X007872Y010236D01*
X007926Y010238D01*
X007980Y010244D01*
X008034Y010254D01*
X008087Y010268D01*
X008138Y010286D01*
X008188Y010307D01*
X008237Y010332D01*
X008284Y010360D01*
X008328Y010391D01*
X008370Y010425D01*
X008410Y010463D01*
X008447Y010503D01*
X008512Y011544D02*
X008443Y011487D01*
X008444Y011487D02*
X008407Y011527D01*
X008368Y011565D01*
X008326Y011599D01*
X008282Y011631D01*
X008236Y011659D01*
X008187Y011684D01*
X008137Y011705D01*
X008086Y011723D01*
X008033Y011736D01*
X007980Y011746D01*
X007926Y011753D01*
X007872Y011755D01*
X007871Y011844D01*
X007872Y011845D01*
X007928Y011843D01*
X007984Y011837D01*
X008039Y011827D01*
X008094Y011814D01*
X008147Y011797D01*
X008200Y011777D01*
X008251Y011753D01*
X008300Y011726D01*
X008347Y011695D01*
X008392Y011662D01*
X008435Y011626D01*
X008475Y011587D01*
X008513Y011545D01*
X008506Y011539D01*
X008469Y011580D01*
X008429Y011619D01*
X008387Y011655D01*
X008342Y011688D01*
X008295Y011718D01*
X008247Y011745D01*
X008196Y011768D01*
X008144Y011789D01*
X008091Y011805D01*
X008037Y011818D01*
X007983Y011828D01*
X007928Y011834D01*
X007872Y011836D01*
X007872Y011827D01*
X007927Y011825D01*
X007982Y011819D01*
X008036Y011810D01*
X008089Y011797D01*
X008141Y011780D01*
X008193Y011760D01*
X008242Y011737D01*
X008291Y011710D01*
X008337Y011681D01*
X008381Y011648D01*
X008423Y011612D01*
X008462Y011574D01*
X008499Y011533D01*
X008492Y011528D01*
X008456Y011568D01*
X008417Y011606D01*
X008375Y011641D01*
X008332Y011673D01*
X008286Y011703D01*
X008238Y011729D01*
X008189Y011752D01*
X008139Y011772D01*
X008087Y011788D01*
X008034Y011801D01*
X007980Y011810D01*
X007926Y011816D01*
X007872Y011818D01*
X007872Y011809D01*
X007926Y011807D01*
X007979Y011801D01*
X008032Y011792D01*
X008084Y011779D01*
X008136Y011763D01*
X008186Y011744D01*
X008234Y011721D01*
X008281Y011695D01*
X008327Y011666D01*
X008370Y011634D01*
X008411Y011599D01*
X008449Y011562D01*
X008485Y011522D01*
X008478Y011516D01*
X008443Y011555D01*
X008405Y011592D01*
X008364Y011627D01*
X008321Y011658D01*
X008277Y011687D01*
X008230Y011713D01*
X008182Y011735D01*
X008133Y011755D01*
X008082Y011771D01*
X008030Y011783D01*
X007978Y011792D01*
X007925Y011798D01*
X007872Y011800D01*
X007872Y011791D01*
X007924Y011789D01*
X007977Y011783D01*
X008028Y011774D01*
X008079Y011762D01*
X008130Y011746D01*
X008179Y011727D01*
X008226Y011705D01*
X008272Y011679D01*
X008316Y011651D01*
X008358Y011620D01*
X008399Y011586D01*
X008436Y011549D01*
X008471Y011510D01*
X008465Y011504D01*
X008430Y011543D01*
X008392Y011579D01*
X008353Y011613D01*
X008311Y011644D01*
X008267Y011672D01*
X008222Y011697D01*
X008175Y011719D01*
X008127Y011738D01*
X008077Y011753D01*
X008027Y011766D01*
X007975Y011774D01*
X007924Y011780D01*
X007872Y011782D01*
X007872Y011773D01*
X007923Y011771D01*
X007974Y011766D01*
X008025Y011757D01*
X008075Y011745D01*
X008124Y011729D01*
X008171Y011711D01*
X008218Y011689D01*
X008263Y011664D01*
X008306Y011636D01*
X008347Y011606D01*
X008386Y011573D01*
X008423Y011537D01*
X008458Y011499D01*
X008451Y011493D01*
X008414Y011534D01*
X008374Y011572D01*
X008332Y011606D01*
X008287Y011638D01*
X008240Y011667D01*
X008191Y011692D01*
X008140Y011713D01*
X008089Y011731D01*
X008035Y011745D01*
X007981Y011755D01*
X007927Y011762D01*
X007872Y011764D01*
D16*
X005867Y012580D03*
X004867Y012580D03*
X003867Y012580D03*
X002867Y012580D03*
X002867Y010420D03*
X003867Y010420D03*
X003867Y007580D03*
X002867Y007580D03*
X002867Y015420D03*
X003867Y015420D03*
X004867Y015420D03*
X005867Y015420D03*
D17*
X004367Y004625D03*
X003367Y004625D03*
X009867Y002500D03*
X009867Y001500D03*
D18*
X006076Y008781D02*
X006057Y008821D01*
X006108Y008847D01*
X006158Y008876D01*
X006205Y008907D01*
X006251Y008941D01*
X006279Y008906D01*
X006231Y008870D01*
X006181Y008837D01*
X006130Y008807D01*
X006076Y008780D01*
X006075Y008784D01*
X006128Y008811D01*
X006179Y008841D01*
X006229Y008873D01*
X006277Y008909D01*
X006274Y008912D01*
X006227Y008877D01*
X006177Y008844D01*
X006126Y008814D01*
X006073Y008788D01*
X006071Y008791D01*
X006124Y008818D01*
X006175Y008848D01*
X006224Y008880D01*
X006272Y008915D01*
X006269Y008918D01*
X006222Y008883D01*
X006173Y008851D01*
X006122Y008821D01*
X006069Y008795D01*
X006068Y008798D01*
X006120Y008825D01*
X006171Y008854D01*
X006220Y008887D01*
X006267Y008922D01*
X006264Y008925D01*
X006217Y008890D01*
X006169Y008858D01*
X006118Y008828D01*
X006066Y008802D01*
X006064Y008806D01*
X006116Y008832D01*
X006167Y008861D01*
X006215Y008893D01*
X006262Y008928D01*
X006259Y008931D01*
X006213Y008896D01*
X006164Y008865D01*
X006114Y008835D01*
X006063Y008809D01*
X006061Y008813D01*
X006112Y008839D01*
X006162Y008868D01*
X006211Y008900D01*
X006257Y008934D01*
X006255Y008937D01*
X006208Y008903D01*
X006160Y008871D01*
X006111Y008843D01*
X006059Y008816D01*
X006058Y008820D01*
X006109Y008846D01*
X006158Y008875D01*
X006206Y008906D01*
X006252Y008940D01*
X005158Y010719D02*
X005177Y010679D01*
X005121Y010650D01*
X005067Y010619D01*
X005015Y010583D01*
X004966Y010545D01*
X004918Y010504D01*
X004874Y010460D01*
X004832Y010413D01*
X004793Y010364D01*
X004757Y010313D01*
X004724Y010259D01*
X004695Y010204D01*
X004669Y010147D01*
X004646Y010088D01*
X004627Y010029D01*
X004612Y009968D01*
X004601Y009906D01*
X004593Y009844D01*
X004589Y009781D01*
X004589Y009719D01*
X004593Y009656D01*
X004601Y009594D01*
X004612Y009532D01*
X004627Y009471D01*
X004646Y009412D01*
X004669Y009353D01*
X004695Y009296D01*
X004724Y009241D01*
X004757Y009187D01*
X004793Y009136D01*
X004832Y009087D01*
X004874Y009040D01*
X004918Y008996D01*
X004966Y008955D01*
X005015Y008917D01*
X005067Y008881D01*
X005121Y008850D01*
X005177Y008821D01*
X005158Y008781D01*
X005158Y008780D01*
X005099Y008810D01*
X005043Y008843D01*
X004989Y008880D01*
X004937Y008920D01*
X004888Y008963D01*
X004841Y009009D01*
X004797Y009058D01*
X004757Y009109D01*
X004719Y009162D01*
X004685Y009218D01*
X004654Y009276D01*
X004627Y009336D01*
X004604Y009397D01*
X004584Y009459D01*
X004568Y009523D01*
X004556Y009587D01*
X004548Y009652D01*
X004544Y009717D01*
X004544Y009783D01*
X004548Y009848D01*
X004556Y009913D01*
X004568Y009977D01*
X004584Y010041D01*
X004604Y010103D01*
X004627Y010164D01*
X004654Y010224D01*
X004685Y010282D01*
X004719Y010338D01*
X004757Y010391D01*
X004797Y010442D01*
X004841Y010491D01*
X004888Y010537D01*
X004937Y010580D01*
X004989Y010620D01*
X005043Y010657D01*
X005099Y010690D01*
X005158Y010720D01*
X005159Y010716D01*
X005101Y010686D01*
X005045Y010653D01*
X004991Y010617D01*
X004940Y010577D01*
X004890Y010534D01*
X004844Y010488D01*
X004800Y010440D01*
X004760Y010389D01*
X004723Y010335D01*
X004689Y010280D01*
X004658Y010222D01*
X004631Y010163D01*
X004608Y010102D01*
X004588Y010040D01*
X004572Y009976D01*
X004560Y009912D01*
X004552Y009848D01*
X004548Y009783D01*
X004548Y009717D01*
X004552Y009652D01*
X004560Y009588D01*
X004572Y009524D01*
X004588Y009460D01*
X004608Y009398D01*
X004631Y009337D01*
X004658Y009278D01*
X004689Y009220D01*
X004723Y009165D01*
X004760Y009111D01*
X004800Y009060D01*
X004844Y009012D01*
X004890Y008966D01*
X004940Y008923D01*
X004991Y008883D01*
X005045Y008847D01*
X005101Y008814D01*
X005159Y008784D01*
X005161Y008787D01*
X005103Y008817D01*
X005047Y008850D01*
X004994Y008887D01*
X004942Y008926D01*
X004893Y008969D01*
X004847Y009014D01*
X004803Y009063D01*
X004763Y009114D01*
X004726Y009167D01*
X004692Y009222D01*
X004662Y009280D01*
X004635Y009339D01*
X004611Y009399D01*
X004592Y009461D01*
X004576Y009524D01*
X004564Y009588D01*
X004556Y009653D01*
X004552Y009718D01*
X004552Y009782D01*
X004556Y009847D01*
X004564Y009912D01*
X004576Y009976D01*
X004592Y010039D01*
X004611Y010101D01*
X004635Y010161D01*
X004662Y010220D01*
X004692Y010278D01*
X004726Y010333D01*
X004763Y010386D01*
X004803Y010437D01*
X004847Y010486D01*
X004893Y010531D01*
X004942Y010574D01*
X004994Y010613D01*
X005047Y010650D01*
X005103Y010683D01*
X005161Y010713D01*
X005163Y010709D01*
X005105Y010679D01*
X005050Y010646D01*
X004996Y010610D01*
X004945Y010571D01*
X004896Y010528D01*
X004850Y010483D01*
X004807Y010435D01*
X004766Y010384D01*
X004729Y010331D01*
X004695Y010276D01*
X004665Y010219D01*
X004638Y010160D01*
X004615Y010099D01*
X004596Y010038D01*
X004580Y009975D01*
X004568Y009911D01*
X004560Y009847D01*
X004556Y009782D01*
X004556Y009718D01*
X004560Y009653D01*
X004568Y009589D01*
X004580Y009525D01*
X004596Y009462D01*
X004615Y009401D01*
X004638Y009340D01*
X004665Y009281D01*
X004695Y009224D01*
X004729Y009169D01*
X004766Y009116D01*
X004807Y009065D01*
X004850Y009017D01*
X004896Y008972D01*
X004945Y008929D01*
X004996Y008890D01*
X005050Y008854D01*
X005105Y008821D01*
X005163Y008791D01*
X005165Y008795D01*
X005107Y008824D01*
X005052Y008857D01*
X004998Y008893D01*
X004947Y008932D01*
X004899Y008975D01*
X004853Y009020D01*
X004810Y009068D01*
X004769Y009118D01*
X004733Y009171D01*
X004699Y009226D01*
X004669Y009283D01*
X004642Y009342D01*
X004619Y009402D01*
X004600Y009463D01*
X004584Y009526D01*
X004572Y009589D01*
X004564Y009653D01*
X004560Y009718D01*
X004560Y009782D01*
X004564Y009847D01*
X004572Y009911D01*
X004584Y009974D01*
X004600Y010037D01*
X004619Y010098D01*
X004642Y010158D01*
X004669Y010217D01*
X004699Y010274D01*
X004733Y010329D01*
X004769Y010382D01*
X004810Y010432D01*
X004853Y010480D01*
X004899Y010525D01*
X004947Y010568D01*
X004998Y010607D01*
X005052Y010643D01*
X005107Y010676D01*
X005165Y010705D01*
X005166Y010702D01*
X005109Y010672D01*
X005054Y010640D01*
X005001Y010604D01*
X004950Y010565D01*
X004901Y010522D01*
X004856Y010477D01*
X004813Y010430D01*
X004773Y010379D01*
X004736Y010327D01*
X004702Y010272D01*
X004672Y010215D01*
X004646Y010157D01*
X004623Y010097D01*
X004603Y010035D01*
X004588Y009973D01*
X004576Y009910D01*
X004568Y009846D01*
X004564Y009782D01*
X004564Y009718D01*
X004568Y009654D01*
X004576Y009590D01*
X004588Y009527D01*
X004603Y009465D01*
X004623Y009403D01*
X004646Y009343D01*
X004672Y009285D01*
X004702Y009228D01*
X004736Y009173D01*
X004773Y009121D01*
X004813Y009070D01*
X004856Y009023D01*
X004901Y008978D01*
X004950Y008935D01*
X005001Y008896D01*
X005054Y008860D01*
X005109Y008828D01*
X005166Y008798D01*
X005168Y008802D01*
X005111Y008831D01*
X005056Y008864D01*
X005003Y008900D01*
X004952Y008939D01*
X004904Y008981D01*
X004858Y009025D01*
X004816Y009073D01*
X004776Y009123D01*
X004739Y009176D01*
X004706Y009230D01*
X004676Y009287D01*
X004649Y009345D01*
X004626Y009405D01*
X004607Y009466D01*
X004592Y009528D01*
X004580Y009591D01*
X004572Y009654D01*
X004568Y009718D01*
X004568Y009782D01*
X004572Y009846D01*
X004580Y009909D01*
X004592Y009972D01*
X004607Y010034D01*
X004626Y010095D01*
X004649Y010155D01*
X004676Y010213D01*
X004706Y010270D01*
X004739Y010324D01*
X004776Y010377D01*
X004816Y010427D01*
X004858Y010475D01*
X004904Y010519D01*
X004952Y010561D01*
X005003Y010600D01*
X005056Y010636D01*
X005111Y010669D01*
X005168Y010698D01*
X005170Y010694D01*
X005113Y010665D01*
X005058Y010633D01*
X005005Y010597D01*
X004955Y010558D01*
X004907Y010517D01*
X004861Y010472D01*
X004819Y010424D01*
X004779Y010374D01*
X004743Y010322D01*
X004709Y010268D01*
X004679Y010212D01*
X004653Y010154D01*
X004630Y010094D01*
X004611Y010033D01*
X004596Y009971D01*
X004584Y009909D01*
X004576Y009845D01*
X004572Y009782D01*
X004572Y009718D01*
X004576Y009655D01*
X004584Y009591D01*
X004596Y009529D01*
X004611Y009467D01*
X004630Y009406D01*
X004653Y009346D01*
X004679Y009288D01*
X004709Y009232D01*
X004743Y009178D01*
X004779Y009126D01*
X004819Y009076D01*
X004861Y009028D01*
X004907Y008983D01*
X004955Y008942D01*
X005005Y008903D01*
X005058Y008867D01*
X005113Y008835D01*
X005170Y008806D01*
X005171Y008809D01*
X005115Y008838D01*
X005060Y008870D01*
X005008Y008906D01*
X004957Y008945D01*
X004909Y008986D01*
X004864Y009031D01*
X004822Y009078D01*
X004782Y009128D01*
X004746Y009180D01*
X004713Y009234D01*
X004683Y009290D01*
X004657Y009348D01*
X004634Y009407D01*
X004615Y009468D01*
X004600Y009529D01*
X004588Y009592D01*
X004580Y009655D01*
X004576Y009718D01*
X004576Y009782D01*
X004580Y009845D01*
X004588Y009908D01*
X004600Y009971D01*
X004615Y010032D01*
X004634Y010093D01*
X004657Y010152D01*
X004683Y010210D01*
X004713Y010266D01*
X004746Y010320D01*
X004782Y010372D01*
X004822Y010422D01*
X004864Y010469D01*
X004909Y010514D01*
X004957Y010555D01*
X005008Y010594D01*
X005060Y010630D01*
X005115Y010662D01*
X005171Y010691D01*
X005173Y010687D01*
X005117Y010658D01*
X005062Y010626D01*
X005010Y010591D01*
X004960Y010552D01*
X004912Y010511D01*
X004867Y010466D01*
X004825Y010419D01*
X004786Y010370D01*
X004749Y010318D01*
X004716Y010264D01*
X004687Y010208D01*
X004660Y010150D01*
X004638Y010091D01*
X004619Y010031D01*
X004604Y009970D01*
X004592Y009908D01*
X004584Y009845D01*
X004580Y009782D01*
X004580Y009718D01*
X004584Y009655D01*
X004592Y009592D01*
X004604Y009530D01*
X004619Y009469D01*
X004638Y009409D01*
X004660Y009350D01*
X004687Y009292D01*
X004716Y009236D01*
X004749Y009182D01*
X004786Y009130D01*
X004825Y009081D01*
X004867Y009034D01*
X004912Y008989D01*
X004960Y008948D01*
X005010Y008909D01*
X005062Y008874D01*
X005117Y008842D01*
X005173Y008813D01*
X005175Y008816D01*
X005119Y008845D01*
X005064Y008877D01*
X005012Y008913D01*
X004962Y008951D01*
X004915Y008992D01*
X004870Y009037D01*
X004828Y009083D01*
X004789Y009133D01*
X004753Y009184D01*
X004720Y009238D01*
X004690Y009294D01*
X004664Y009351D01*
X004642Y009410D01*
X004623Y009470D01*
X004607Y009531D01*
X004596Y009593D01*
X004588Y009656D01*
X004584Y009719D01*
X004584Y009781D01*
X004588Y009844D01*
X004596Y009907D01*
X004607Y009969D01*
X004623Y010030D01*
X004642Y010090D01*
X004664Y010149D01*
X004690Y010206D01*
X004720Y010262D01*
X004753Y010316D01*
X004789Y010367D01*
X004828Y010417D01*
X004870Y010463D01*
X004915Y010508D01*
X004962Y010549D01*
X005012Y010587D01*
X005064Y010623D01*
X005119Y010655D01*
X005175Y010684D01*
X005176Y010680D01*
X005121Y010651D01*
X005067Y010619D01*
X005015Y010584D01*
X004965Y010546D01*
X004918Y010505D01*
X004873Y010461D01*
X004831Y010414D01*
X004792Y010365D01*
X004756Y010313D01*
X004723Y010260D01*
X004694Y010204D01*
X004668Y010147D01*
X004645Y010089D01*
X004627Y010029D01*
X004611Y009968D01*
X004600Y009906D01*
X004592Y009844D01*
X004588Y009781D01*
X004588Y009719D01*
X004592Y009656D01*
X004600Y009594D01*
X004611Y009532D01*
X004627Y009471D01*
X004645Y009411D01*
X004668Y009353D01*
X004694Y009296D01*
X004723Y009240D01*
X004756Y009187D01*
X004792Y009135D01*
X004831Y009086D01*
X004873Y009039D01*
X004918Y008995D01*
X004965Y008954D01*
X005015Y008916D01*
X005067Y008881D01*
X005121Y008849D01*
X005176Y008820D01*
X006279Y010594D02*
X006251Y010558D01*
X006251Y010559D02*
X006203Y010594D01*
X006153Y010627D01*
X006101Y010657D01*
X006048Y010683D01*
X006066Y010724D01*
X006067Y010724D01*
X006123Y010696D01*
X006177Y010665D01*
X006229Y010631D01*
X006279Y010594D01*
X006277Y010591D01*
X006227Y010628D01*
X006175Y010662D01*
X006121Y010693D01*
X006065Y010721D01*
X006063Y010717D01*
X006119Y010689D01*
X006173Y010659D01*
X006224Y010625D01*
X006274Y010588D01*
X006272Y010585D01*
X006222Y010621D01*
X006170Y010655D01*
X006117Y010686D01*
X006062Y010713D01*
X006060Y010710D01*
X006115Y010682D01*
X006168Y010652D01*
X006220Y010618D01*
X006269Y010582D01*
X006267Y010578D01*
X006218Y010615D01*
X006166Y010648D01*
X006113Y010679D01*
X006058Y010706D01*
X006057Y010702D01*
X006111Y010675D01*
X006164Y010645D01*
X006215Y010612D01*
X006264Y010575D01*
X006262Y010572D01*
X006213Y010608D01*
X006162Y010642D01*
X006109Y010672D01*
X006055Y010699D01*
X006053Y010695D01*
X006107Y010668D01*
X006160Y010638D01*
X006211Y010605D01*
X006259Y010569D01*
X006257Y010566D01*
X006208Y010602D01*
X006158Y010635D01*
X006106Y010665D01*
X006052Y010692D01*
X006050Y010688D01*
X006104Y010661D01*
X006156Y010631D01*
X006206Y010598D01*
X006255Y010563D01*
X006252Y010560D01*
X006204Y010595D01*
X006154Y010628D01*
X006102Y010658D01*
X006048Y010684D01*
D19*
X008117Y006950D03*
D20*
X008117Y006325D03*
X008117Y008675D03*
D21*
X001667Y002100D02*
X001367Y002100D01*
X001067Y002100D01*
X001067Y001900D02*
X001367Y001900D01*
X001667Y001900D01*
M02*
