%
M48
M72
T01C0.0100
T02C0.0315
T03C0.0320
T04C0.0354
T05C0.0400
T06C0.0440
%
T01
X2630Y4200
X2930Y5000
X2430Y6100
X2230Y6500
X3730Y9900
X4130Y11500
X3230Y12400
X2630Y12500
X2930Y14000
X2430Y14500
X2130Y15500
X1830Y17500
X2730Y17600
X3230Y18500
X3930Y16500
X4930Y16200
X5430Y14800
X6030Y14500
X5430Y13300
X5930Y9900
X6730Y7700
X6130Y7400
X5730Y6100
X5530Y5000
X5230Y5800
X4930Y6400
X4730Y7100
X4630Y4200
X5230Y4200
X5830Y4200
X6230Y4400
X7430Y4400
X8130Y5400
X8230Y6500
X8530Y7100
X8930Y5800
X8830Y5400
X9230Y9100
X7830Y9500
X7530Y11500
X7130Y13300
X8030Y15100
X8230Y14500
X7630Y15500
X6930Y16500
X5930Y17600
X4930Y19300
X7630Y20000
X7930Y19300
X8530Y22100
X8930Y16500
X9230Y14800
X8530Y1300
X1530Y22100
T02
X6080Y9131
X6680Y8369
X7280Y9131
X7780Y8369
T03
X7430Y5750
X6430Y5750
X9430Y3250
X9430Y2250
X9430Y1250
X6930Y15500
X5930Y15500
X4930Y15500
X3930Y15500
X3930Y18500
X4930Y18500
X5930Y18500
X6930Y18500
X5930Y21500
X4930Y21500
T04
X4430Y14000
X5430Y14000
X6430Y14000
T05
X930Y4500
X930Y5500
X930Y6500
X930Y7500
X930Y8500
X930Y9500
X930Y10500
X930Y11500
X930Y12500
X930Y13500
X930Y14500
X930Y15500
X930Y16500
X930Y17500
X4150Y12390
X4150Y10610
X6710Y10610
X6710Y12390
X9930Y12500
X9930Y13500
X9930Y14500
X9930Y15500
X9930Y16500
X9930Y17500
X9930Y11500
X9930Y10500
X9930Y9500
X9930Y8500
X9930Y7500
X9930Y6500
X9930Y5500
X9930Y4500
X5930Y20000
X4930Y20000
T06
X4680Y9000
X3680Y9000
X3680Y5000
X4680Y5000
M30
