%
M48
M72
T01C0.0100
T02C0.0315
T03C0.0320
T04C0.0354
T05C0.0400
T06C0.0440
%
T01
X2470Y5400
X1990Y5760
X2590Y7800
X3550Y5760
X3910Y6600
X3670Y7440
X4390Y10080
X5350Y11880
X5710Y12600
X6190Y12240
X6190Y11520
X6670Y11880
X7030Y10080
X6670Y8880
X6190Y9720
X5950Y7800
X5350Y7440
X5950Y5880
X6670Y6840
X7030Y6000
X6310Y4320
X4870Y4320
X7390Y8160
X8350Y9360
X8950Y9720
X8950Y10560
X9310Y7560
X8590Y6840
X8230Y6000
X8590Y4800
X8230Y4080
X8950Y3240
X8590Y1200
X4750Y12240
X4390Y12600
X4630Y13320
X4990Y13680
X5590Y14520
X6190Y15480
X7870Y17040
X8230Y18480
X8950Y17520
X9310Y16560
X8590Y15000
X7630Y19560
X6430Y20280
X5230Y19560
X4870Y20280
X2710Y18480
X1990Y17520
X1630Y16560
X1990Y15480
X2230Y15120
X1990Y14520
X2950Y14160
X1990Y12480
X1870Y21000
X9790Y21360
T02
X9824Y19250
X9036Y19250
X1824Y19250
X1036Y19250
T03
X3930Y19500
X3930Y18500
X3930Y17500
X3930Y16500
X3930Y15500
X3930Y14500
X3805Y10750
X4805Y10750
X6930Y14500
X6930Y15500
X6930Y16500
X6930Y17500
X6930Y18500
X6930Y19500
X5930Y5125
X4930Y5125
X9805Y3250
X9805Y2250
X9805Y1250
T04
X7930Y6875
X7930Y8875
X5930Y8875
X5930Y6875
X5430Y21000
X4430Y21000
X6430Y21000
T05
X930Y4500
X930Y5500
X930Y6500
X930Y7500
X930Y8500
X930Y9500
X930Y10500
X930Y11500
X930Y12500
X930Y13500
X930Y14500
X930Y15500
X930Y16500
X930Y17500
X2915Y9155
X2915Y6595
X4695Y6595
X4695Y9155
X6180Y10750
X7180Y10750
X9930Y10500
X9930Y9500
X9930Y8500
X9930Y7500
X9930Y6500
X9930Y5500
X9930Y4500
X9930Y11500
X9930Y12500
X9930Y13500
X9930Y14500
X9930Y15500
X9930Y16500
X9930Y17500
T06
X7430Y13375
X7430Y12250
X3430Y12250
X3430Y13375
M30
