G75*
%MOIN*%
%OFA0B0*%
%FSLAX24Y24*%
%IPPOS*%
%LPD*%
%AMOC8*
5,1,8,0,0,1.08239X$1,22.5*
%
%ADD10C,0.0050*%
%ADD11C,0.0060*%
%ADD12C,0.0040*%
%ADD13C,0.0080*%
%ADD14C,0.0020*%
%ADD15R,0.0060X0.0010*%
%ADD16R,0.0090X0.0010*%
%ADD17R,0.0100X0.0010*%
%ADD18R,0.0110X0.0010*%
%ADD19R,0.0160X0.0010*%
%ADD20R,0.0170X0.0010*%
%ADD21R,0.0180X0.0010*%
%ADD22R,0.0080X0.0010*%
%ADD23R,0.0070X0.0010*%
%ADD24R,0.0120X0.0010*%
%ADD25R,0.0130X0.0010*%
%ADD26R,0.0050X0.0010*%
%ADD27R,0.0140X0.0010*%
%ADD28R,0.0200X0.0010*%
%ADD29R,0.0020X0.0010*%
%ADD30R,0.0010X0.0010*%
%ADD31R,0.0150X0.0010*%
%ADD32R,0.0190X0.0010*%
%ADD33R,0.0210X0.0010*%
%ADD34R,0.0040X0.0010*%
%ADD35R,0.0030X0.0010*%
%ADD36R,0.0230X0.0010*%
%ADD37R,0.0390X0.0010*%
%ADD38R,0.0380X0.0010*%
%ADD39R,0.0370X0.0010*%
%ADD40R,0.0250X0.0010*%
%ADD41R,0.0220X0.0010*%
%ADD42R,0.0240X0.0010*%
%ADD43R,0.0270X0.0010*%
%ADD44R,0.0260X0.0010*%
%ADD45R,0.0560X0.0010*%
%ADD46R,0.0570X0.0010*%
%ADD47R,0.0540X0.0010*%
%ADD48R,0.0530X0.0010*%
%ADD49R,0.0510X0.0010*%
%ADD50R,0.0500X0.0010*%
%ADD51R,0.0480X0.0010*%
%ADD52R,0.0280X0.0010*%
%ADD53R,0.0470X0.0010*%
%ADD54R,0.0430X0.0010*%
%ADD55R,0.0300X0.0010*%
%ADD56R,0.0320X0.0010*%
%ADD57R,0.0420X0.0010*%
%ADD58R,0.0340X0.0010*%
%ADD59C,0.0005*%
%ADD60C,0.0100*%
%ADD61C,0.0006*%
%ADD62R,0.0250X0.0250*%
%ADD63R,0.0200X0.1000*%
%ADD64R,0.0750X0.0300*%
%ADD65C,0.0070*%
%ADD66C,0.0010*%
D10*
X000455Y001275D02*
X000455Y001545D01*
X000635Y001545D01*
X000750Y001455D02*
X000795Y001455D01*
X000795Y001275D01*
X000750Y001275D02*
X000840Y001275D01*
X000946Y001320D02*
X000991Y001275D01*
X001081Y001275D01*
X001126Y001320D01*
X001126Y001410D01*
X001081Y001455D01*
X000991Y001455D01*
X000946Y001410D01*
X000946Y001320D01*
X000795Y001545D02*
X000795Y001590D01*
X000545Y001410D02*
X000455Y001410D01*
X001241Y001455D02*
X001286Y001410D01*
X001376Y001410D01*
X001421Y001365D01*
X001421Y001320D01*
X001376Y001275D01*
X001286Y001275D01*
X001241Y001320D01*
X001241Y001455D02*
X001241Y001500D01*
X001286Y001545D01*
X001376Y001545D01*
X001421Y001500D01*
X001580Y001455D02*
X001671Y001455D01*
X001716Y001410D01*
X001716Y001275D01*
X001580Y001275D01*
X001535Y001320D01*
X001580Y001365D01*
X001716Y001365D01*
X001830Y001275D02*
X001965Y001275D01*
X002010Y001320D01*
X002010Y001410D01*
X001965Y001455D01*
X001830Y001455D01*
X001830Y001545D02*
X001830Y001275D01*
X002125Y001320D02*
X002125Y001410D01*
X002170Y001455D01*
X002260Y001455D01*
X002305Y001410D01*
X002305Y001365D01*
X002125Y001365D01*
X002125Y001320D02*
X002170Y001275D01*
X002260Y001275D01*
X002419Y001275D02*
X002419Y001455D01*
X002419Y001365D02*
X002509Y001455D01*
X002554Y001455D01*
X002429Y004275D02*
X002339Y004275D01*
X002294Y004320D01*
X002294Y004410D02*
X002384Y004455D01*
X002429Y004455D01*
X002474Y004410D01*
X002474Y004320D01*
X002429Y004275D01*
X002294Y004410D02*
X002294Y004545D01*
X002474Y004545D01*
X002180Y004275D02*
X002000Y004275D01*
X002090Y004275D02*
X002090Y004545D01*
X002000Y004455D01*
X001885Y004500D02*
X001885Y004320D01*
X001840Y004275D01*
X001705Y004275D01*
X001705Y004545D01*
X001840Y004545D01*
X001885Y004500D01*
X001840Y005275D02*
X001705Y005275D01*
X001705Y005545D01*
X001840Y005545D01*
X001885Y005500D01*
X001885Y005320D01*
X001840Y005275D01*
X002000Y005275D02*
X002180Y005275D01*
X002090Y005275D02*
X002090Y005545D01*
X002000Y005455D01*
X002294Y005410D02*
X002474Y005410D01*
X002429Y005275D02*
X002429Y005545D01*
X002294Y005410D01*
X002294Y006275D02*
X002474Y006275D01*
X002384Y006275D02*
X002384Y006545D01*
X002294Y006455D01*
X002180Y006275D02*
X002000Y006275D01*
X002090Y006275D02*
X002090Y006545D01*
X002000Y006455D01*
X001885Y006500D02*
X001885Y006320D01*
X001840Y006275D01*
X001705Y006275D01*
X001705Y006545D01*
X001840Y006545D01*
X001885Y006500D01*
X001840Y007275D02*
X001705Y007275D01*
X001705Y007545D01*
X001840Y007545D01*
X001885Y007500D01*
X001885Y007320D01*
X001840Y007275D01*
X002000Y007275D02*
X002180Y007275D01*
X002090Y007275D02*
X002090Y007545D01*
X002000Y007455D01*
X002294Y007500D02*
X002294Y007320D01*
X002474Y007500D01*
X002474Y007320D01*
X002429Y007275D01*
X002339Y007275D01*
X002294Y007320D01*
X002294Y007500D02*
X002339Y007545D01*
X002429Y007545D01*
X002474Y007500D01*
X002135Y008275D02*
X002180Y008320D01*
X002180Y008500D01*
X002135Y008545D01*
X002045Y008545D01*
X002000Y008500D01*
X002000Y008455D01*
X002045Y008410D01*
X002180Y008410D01*
X002135Y008275D02*
X002045Y008275D01*
X002000Y008320D01*
X001885Y008320D02*
X001885Y008500D01*
X001840Y008545D01*
X001705Y008545D01*
X001705Y008275D01*
X001840Y008275D01*
X001885Y008320D01*
X001840Y009275D02*
X001705Y009275D01*
X001705Y009545D01*
X001840Y009545D01*
X001885Y009500D01*
X001885Y009320D01*
X001840Y009275D01*
X002000Y009320D02*
X002000Y009365D01*
X002045Y009410D01*
X002135Y009410D01*
X002180Y009365D01*
X002180Y009320D01*
X002135Y009275D01*
X002045Y009275D01*
X002000Y009320D01*
X002045Y009410D02*
X002000Y009455D01*
X002000Y009500D01*
X002045Y009545D01*
X002135Y009545D01*
X002180Y009500D01*
X002180Y009455D01*
X002135Y009410D01*
X002000Y010275D02*
X002000Y010320D01*
X002180Y010500D01*
X002180Y010545D01*
X002000Y010545D01*
X001885Y010500D02*
X001840Y010545D01*
X001705Y010545D01*
X001705Y010275D01*
X001840Y010275D01*
X001885Y010320D01*
X001885Y010500D01*
X001840Y011275D02*
X001705Y011275D01*
X001705Y011545D01*
X001840Y011545D01*
X001885Y011500D01*
X001885Y011320D01*
X001840Y011275D01*
X002000Y011320D02*
X002000Y011410D01*
X002135Y011410D01*
X002180Y011365D01*
X002180Y011320D01*
X002135Y011275D01*
X002045Y011275D01*
X002000Y011320D01*
X002000Y011410D02*
X002090Y011500D01*
X002180Y011545D01*
X002135Y012275D02*
X002045Y012275D01*
X002000Y012320D01*
X002000Y012410D02*
X002090Y012455D01*
X002135Y012455D01*
X002180Y012410D01*
X002180Y012320D01*
X002135Y012275D01*
X002000Y012410D02*
X002000Y012545D01*
X002180Y012545D01*
X001885Y012500D02*
X001885Y012320D01*
X001840Y012275D01*
X001705Y012275D01*
X001705Y012545D01*
X001840Y012545D01*
X001885Y012500D01*
X001840Y013275D02*
X001705Y013275D01*
X001705Y013545D01*
X001840Y013545D01*
X001885Y013500D01*
X001885Y013320D01*
X001840Y013275D01*
X002000Y013410D02*
X002180Y013410D01*
X002135Y013275D02*
X002135Y013545D01*
X002000Y013410D01*
X002045Y014275D02*
X002000Y014320D01*
X002045Y014275D02*
X002135Y014275D01*
X002180Y014320D01*
X002180Y014365D01*
X002135Y014410D01*
X002090Y014410D01*
X002135Y014410D02*
X002180Y014455D01*
X002180Y014500D01*
X002135Y014545D01*
X002045Y014545D01*
X002000Y014500D01*
X001885Y014500D02*
X001885Y014320D01*
X001840Y014275D01*
X001705Y014275D01*
X001705Y014545D01*
X001840Y014545D01*
X001885Y014500D01*
X001840Y015275D02*
X001705Y015275D01*
X001705Y015545D01*
X001840Y015545D01*
X001885Y015500D01*
X001885Y015320D01*
X001840Y015275D01*
X002000Y015275D02*
X002180Y015455D01*
X002180Y015500D01*
X002135Y015545D01*
X002045Y015545D01*
X002000Y015500D01*
X002000Y015275D02*
X002180Y015275D01*
X002180Y016275D02*
X002180Y016545D01*
X002294Y016545D02*
X002294Y016275D01*
X002429Y016275D01*
X002474Y016320D01*
X002474Y016500D01*
X002429Y016545D01*
X002294Y016545D01*
X002180Y016275D02*
X002000Y016545D01*
X002000Y016275D01*
X001885Y016320D02*
X001885Y016410D01*
X001795Y016410D01*
X001705Y016320D02*
X001750Y016275D01*
X001840Y016275D01*
X001885Y016320D01*
X001885Y016500D02*
X001840Y016545D01*
X001750Y016545D01*
X001705Y016500D01*
X001705Y016320D01*
X001750Y017275D02*
X001705Y017320D01*
X001750Y017275D02*
X001840Y017275D01*
X001885Y017320D01*
X001885Y017365D01*
X001840Y017410D01*
X001795Y017410D01*
X001840Y017410D02*
X001885Y017455D01*
X001885Y017500D01*
X001840Y017545D01*
X001750Y017545D01*
X001705Y017500D01*
X002000Y017545D02*
X002000Y017365D01*
X002090Y017275D01*
X002180Y017365D01*
X002180Y017545D01*
X002294Y017500D02*
X002339Y017545D01*
X002429Y017545D01*
X002474Y017500D01*
X002474Y017455D01*
X002429Y017410D01*
X002474Y017365D01*
X002474Y017320D01*
X002429Y017275D01*
X002339Y017275D01*
X002294Y017320D01*
X002384Y017410D02*
X002429Y017410D01*
X002296Y018699D02*
X002257Y018699D01*
X002257Y019132D01*
X000564Y019132D01*
X000564Y018699D01*
X000546Y019955D02*
X000682Y019955D01*
X000727Y020000D01*
X000727Y020045D01*
X000682Y020090D01*
X000546Y020090D01*
X000546Y019955D02*
X000546Y020225D01*
X000682Y020225D01*
X000727Y020180D01*
X000727Y020135D01*
X000682Y020090D01*
X000841Y020000D02*
X000886Y019955D01*
X001021Y019955D01*
X001021Y020090D01*
X000976Y020135D01*
X000886Y020135D01*
X000886Y020045D02*
X001021Y020045D01*
X000886Y020045D02*
X000841Y020000D01*
X001136Y020135D02*
X001226Y020135D01*
X001181Y020180D02*
X001181Y020000D01*
X001226Y019955D01*
X001332Y020135D02*
X001422Y020135D01*
X001377Y020180D02*
X001377Y020000D01*
X001422Y019955D01*
X001529Y020000D02*
X001529Y020090D01*
X001574Y020135D01*
X001664Y020135D01*
X001709Y020090D01*
X001709Y020045D01*
X001529Y020045D01*
X001529Y020000D02*
X001574Y019955D01*
X001664Y019955D01*
X001823Y019955D02*
X001823Y020135D01*
X001823Y020045D02*
X001913Y020135D01*
X001958Y020135D01*
X002069Y020135D02*
X002069Y020000D01*
X002114Y019955D01*
X002249Y019955D01*
X002249Y019910D02*
X002204Y019865D01*
X002159Y019865D01*
X002249Y019910D02*
X002249Y020135D01*
X001548Y020589D02*
X001548Y021730D01*
X001312Y021730D02*
X001312Y020589D01*
X001548Y020589D01*
X003130Y020400D02*
X003130Y020200D01*
X005330Y020200D01*
X005430Y020300D01*
X005530Y020200D01*
X007730Y020200D01*
X007730Y020400D01*
X007530Y020400D01*
X007530Y021600D01*
X007730Y021600D01*
X007730Y021800D01*
X005530Y021800D01*
X005430Y021700D01*
X005330Y021800D01*
X003130Y021800D01*
X003130Y021600D01*
X003330Y021600D01*
X003330Y020400D01*
X003130Y020400D01*
X005630Y020600D02*
X005630Y021400D01*
X005730Y021400D02*
X005730Y020600D01*
X005830Y020600D02*
X005830Y021400D01*
X005930Y021400D02*
X005930Y020600D01*
X006030Y020600D02*
X006030Y021400D01*
X006130Y021400D02*
X006130Y020600D01*
X006230Y020600D02*
X006230Y021400D01*
X008366Y017545D02*
X008321Y017500D01*
X008321Y017320D01*
X008366Y017275D01*
X008456Y017275D01*
X008501Y017320D01*
X008501Y017410D01*
X008411Y017410D01*
X008501Y017500D02*
X008456Y017545D01*
X008366Y017545D01*
X008616Y017545D02*
X008616Y017275D01*
X008796Y017275D02*
X008616Y017545D01*
X008796Y017545D02*
X008796Y017275D01*
X008910Y017275D02*
X009045Y017275D01*
X009091Y017320D01*
X009091Y017500D01*
X009045Y017545D01*
X008910Y017545D01*
X008910Y017275D01*
X008910Y016545D02*
X009091Y016545D01*
X009000Y016410D02*
X008910Y016410D01*
X008910Y016275D02*
X008910Y016545D01*
X008796Y016545D02*
X008616Y016545D01*
X008616Y016275D01*
X008796Y016275D01*
X008706Y016410D02*
X008616Y016410D01*
X008501Y016410D02*
X008501Y016500D01*
X008456Y016545D01*
X008321Y016545D01*
X008321Y016275D01*
X008321Y016365D02*
X008456Y016365D01*
X008501Y016410D01*
X008411Y016365D02*
X008501Y016275D01*
X008207Y016275D02*
X008207Y016455D01*
X008116Y016545D01*
X008026Y016455D01*
X008026Y016275D01*
X008026Y016410D02*
X008207Y016410D01*
X008366Y015545D02*
X008321Y015500D01*
X008366Y015545D02*
X008456Y015545D01*
X008501Y015500D01*
X008501Y015455D01*
X008456Y015410D01*
X008501Y015365D01*
X008501Y015320D01*
X008456Y015275D01*
X008366Y015275D01*
X008321Y015320D01*
X008411Y015410D02*
X008456Y015410D01*
X008616Y015365D02*
X008706Y015275D01*
X008796Y015365D01*
X008796Y015545D01*
X008910Y015500D02*
X008955Y015545D01*
X009045Y015545D01*
X009091Y015500D01*
X009091Y015455D01*
X009045Y015410D01*
X009091Y015365D01*
X009091Y015320D01*
X009045Y015275D01*
X008955Y015275D01*
X008910Y015320D01*
X009000Y015410D02*
X009045Y015410D01*
X008616Y015365D02*
X008616Y015545D01*
X008554Y014545D02*
X008419Y014545D01*
X008419Y014275D01*
X008419Y014365D02*
X008554Y014365D01*
X008599Y014410D01*
X008599Y014500D01*
X008554Y014545D01*
X008509Y014365D02*
X008599Y014275D01*
X008714Y014275D02*
X008894Y014545D01*
X009009Y014545D02*
X009099Y014545D01*
X009054Y014545D02*
X009054Y014275D01*
X009009Y014275D02*
X009099Y014275D01*
X008894Y014275D02*
X008714Y014545D01*
X008796Y013545D02*
X008616Y013275D01*
X008796Y013275D02*
X008616Y013545D01*
X008501Y013545D02*
X008321Y013545D01*
X008411Y013545D02*
X008411Y013275D01*
X008456Y012545D02*
X008321Y012545D01*
X008321Y012275D01*
X008321Y012365D02*
X008456Y012365D01*
X008501Y012410D01*
X008501Y012500D01*
X008456Y012545D01*
X008616Y012500D02*
X008616Y012455D01*
X008661Y012410D01*
X008751Y012410D01*
X008796Y012365D01*
X008796Y012320D01*
X008751Y012275D01*
X008661Y012275D01*
X008616Y012320D01*
X008501Y012275D02*
X008411Y012365D01*
X008616Y012500D02*
X008661Y012545D01*
X008751Y012545D01*
X008796Y012500D01*
X008910Y012545D02*
X009091Y012545D01*
X009000Y012545D02*
X009000Y012275D01*
X008910Y011545D02*
X008910Y011410D01*
X009000Y011455D01*
X009045Y011455D01*
X009091Y011410D01*
X009091Y011320D01*
X009045Y011275D01*
X008955Y011275D01*
X008910Y011320D01*
X008796Y011275D02*
X008796Y011455D01*
X008706Y011545D01*
X008616Y011455D01*
X008616Y011275D01*
X008616Y011410D02*
X008796Y011410D01*
X008910Y011545D02*
X009091Y011545D01*
X009045Y010545D02*
X008910Y010410D01*
X009091Y010410D01*
X009045Y010275D02*
X009045Y010545D01*
X008796Y010455D02*
X008796Y010275D01*
X008796Y010410D02*
X008616Y010410D01*
X008616Y010455D02*
X008706Y010545D01*
X008796Y010455D01*
X008616Y010455D02*
X008616Y010275D01*
X008706Y009545D02*
X008616Y009455D01*
X008616Y009275D01*
X008616Y009410D02*
X008796Y009410D01*
X008796Y009455D02*
X008796Y009275D01*
X008910Y009320D02*
X008955Y009275D01*
X009045Y009275D01*
X009091Y009320D01*
X009091Y009365D01*
X009045Y009410D01*
X009000Y009410D01*
X009045Y009410D02*
X009091Y009455D01*
X009091Y009500D01*
X009045Y009545D01*
X008955Y009545D01*
X008910Y009500D01*
X008796Y009455D02*
X008706Y009545D01*
X008430Y008975D02*
X008030Y009375D01*
X005430Y009375D01*
X005430Y006375D01*
X008430Y006375D01*
X008430Y008975D01*
X008706Y008545D02*
X008616Y008455D01*
X008616Y008275D01*
X008616Y008410D02*
X008796Y008410D01*
X008796Y008455D02*
X008796Y008275D01*
X008910Y008275D02*
X009091Y008455D01*
X009091Y008500D01*
X009045Y008545D01*
X008955Y008545D01*
X008910Y008500D01*
X008796Y008455D02*
X008706Y008545D01*
X008910Y008275D02*
X009091Y008275D01*
X009000Y007545D02*
X009000Y007275D01*
X008910Y007275D02*
X009091Y007275D01*
X008910Y007455D02*
X009000Y007545D01*
X008796Y007455D02*
X008796Y007275D01*
X008796Y007410D02*
X008616Y007410D01*
X008616Y007455D02*
X008706Y007545D01*
X008796Y007455D01*
X008616Y007455D02*
X008616Y007275D01*
X008706Y006545D02*
X008616Y006455D01*
X008616Y006275D01*
X008616Y006410D02*
X008796Y006410D01*
X008796Y006455D02*
X008796Y006275D01*
X008910Y006320D02*
X008910Y006500D01*
X008955Y006545D01*
X009045Y006545D01*
X009091Y006500D01*
X008910Y006320D01*
X008955Y006275D01*
X009045Y006275D01*
X009091Y006320D01*
X009091Y006500D01*
X008796Y006455D02*
X008706Y006545D01*
X008706Y005545D02*
X008706Y005275D01*
X008616Y005275D02*
X008796Y005275D01*
X008910Y005275D02*
X008910Y005320D01*
X009091Y005500D01*
X009091Y005545D01*
X008910Y005545D01*
X008706Y005545D02*
X008616Y005455D01*
X008501Y005500D02*
X008456Y005545D01*
X008321Y005545D01*
X008321Y005275D01*
X008456Y005275D01*
X008501Y005320D01*
X008501Y005500D01*
X008456Y004545D02*
X008321Y004545D01*
X008321Y004275D01*
X008456Y004275D01*
X008501Y004320D01*
X008501Y004500D01*
X008456Y004545D01*
X008616Y004455D02*
X008706Y004545D01*
X008706Y004275D01*
X008616Y004275D02*
X008796Y004275D01*
X008910Y004320D02*
X008910Y004410D01*
X009045Y004410D01*
X009091Y004365D01*
X009091Y004320D01*
X009045Y004275D01*
X008955Y004275D01*
X008910Y004320D01*
X008910Y004410D02*
X009000Y004500D01*
X009091Y004545D01*
X009855Y002803D02*
X009855Y002697D01*
X009855Y001803D02*
X009855Y001697D01*
X010455Y001425D02*
X010455Y003075D01*
X005930Y007875D02*
X005932Y007938D01*
X005938Y008000D01*
X005948Y008062D01*
X005961Y008124D01*
X005979Y008184D01*
X006000Y008243D01*
X006025Y008301D01*
X006054Y008357D01*
X006086Y008411D01*
X006121Y008463D01*
X006159Y008512D01*
X006201Y008560D01*
X006245Y008604D01*
X006293Y008646D01*
X006342Y008684D01*
X006394Y008719D01*
X006448Y008751D01*
X006504Y008780D01*
X006562Y008805D01*
X006621Y008826D01*
X006681Y008844D01*
X006743Y008857D01*
X006805Y008867D01*
X006867Y008873D01*
X006930Y008875D01*
X006993Y008873D01*
X007055Y008867D01*
X007117Y008857D01*
X007179Y008844D01*
X007239Y008826D01*
X007298Y008805D01*
X007356Y008780D01*
X007412Y008751D01*
X007466Y008719D01*
X007518Y008684D01*
X007567Y008646D01*
X007615Y008604D01*
X007659Y008560D01*
X007701Y008512D01*
X007739Y008463D01*
X007774Y008411D01*
X007806Y008357D01*
X007835Y008301D01*
X007860Y008243D01*
X007881Y008184D01*
X007899Y008124D01*
X007912Y008062D01*
X007922Y008000D01*
X007928Y007938D01*
X007930Y007875D01*
X007928Y007812D01*
X007922Y007750D01*
X007912Y007688D01*
X007899Y007626D01*
X007881Y007566D01*
X007860Y007507D01*
X007835Y007449D01*
X007806Y007393D01*
X007774Y007339D01*
X007739Y007287D01*
X007701Y007238D01*
X007659Y007190D01*
X007615Y007146D01*
X007567Y007104D01*
X007518Y007066D01*
X007466Y007031D01*
X007412Y006999D01*
X007356Y006970D01*
X007298Y006945D01*
X007239Y006924D01*
X007179Y006906D01*
X007117Y006893D01*
X007055Y006883D01*
X006993Y006877D01*
X006930Y006875D01*
X006867Y006877D01*
X006805Y006883D01*
X006743Y006893D01*
X006681Y006906D01*
X006621Y006924D01*
X006562Y006945D01*
X006504Y006970D01*
X006448Y006999D01*
X006394Y007031D01*
X006342Y007066D01*
X006293Y007104D01*
X006245Y007146D01*
X006201Y007190D01*
X006159Y007238D01*
X006121Y007287D01*
X006086Y007339D01*
X006054Y007393D01*
X006025Y007449D01*
X006000Y007507D01*
X005979Y007566D01*
X005961Y007626D01*
X005948Y007688D01*
X005938Y007750D01*
X005932Y007812D01*
X005930Y007875D01*
X004700Y005805D02*
X004410Y005805D01*
X004550Y005955D02*
X004550Y005645D01*
X008955Y013275D02*
X009045Y013275D01*
X009091Y013320D01*
X009091Y013500D01*
X009045Y013545D01*
X008955Y013545D01*
X008910Y013500D01*
X008910Y013320D01*
X008955Y013275D01*
X008564Y018699D02*
X008564Y019132D01*
X010257Y019132D01*
X010257Y018699D01*
X010296Y018699D01*
X010253Y019955D02*
X010298Y020000D01*
X010298Y020090D01*
X010253Y020135D01*
X010163Y020135D01*
X010118Y020090D01*
X010118Y020000D01*
X010163Y019955D01*
X010253Y019955D01*
X010003Y019955D02*
X010003Y020090D01*
X009958Y020135D01*
X009823Y020135D01*
X009823Y019955D01*
X009717Y019955D02*
X009627Y019955D01*
X009672Y019955D02*
X009672Y020135D01*
X009627Y020135D01*
X009672Y020225D02*
X009672Y020270D01*
X009512Y020135D02*
X009512Y019955D01*
X009377Y019955D01*
X009332Y020000D01*
X009332Y020135D01*
X009218Y020135D02*
X009083Y020135D01*
X009038Y020090D01*
X009038Y020000D01*
X009083Y019955D01*
X009218Y019955D01*
X009218Y020225D01*
X009312Y020589D02*
X009548Y020589D01*
X009548Y021730D01*
X009312Y021730D02*
X009312Y020589D01*
X008927Y020135D02*
X008882Y020135D01*
X008792Y020045D01*
X008792Y019955D02*
X008792Y020135D01*
X008678Y020135D02*
X008678Y019955D01*
X008678Y020090D02*
X008497Y020090D01*
X008497Y020135D02*
X008587Y020225D01*
X008678Y020135D01*
X008497Y020135D02*
X008497Y019955D01*
D11*
X006580Y019950D02*
X006430Y019950D01*
X006380Y019900D01*
X004480Y019900D01*
X004430Y019950D01*
X004280Y019950D01*
X004480Y019100D02*
X006380Y019100D01*
X006430Y019050D01*
X006580Y019050D01*
X006580Y018950D02*
X006430Y018950D01*
X006380Y018900D01*
X004480Y018900D01*
X004430Y018950D01*
X004280Y018950D01*
X004280Y019050D02*
X004430Y019050D01*
X004480Y019100D01*
X004480Y018100D02*
X004430Y018050D01*
X004280Y018050D01*
X004280Y017950D02*
X004430Y017950D01*
X004480Y017900D01*
X006380Y017900D01*
X006430Y017950D01*
X006580Y017950D01*
X006580Y018050D02*
X006430Y018050D01*
X006380Y018100D01*
X004480Y018100D01*
X004480Y017100D02*
X004430Y017050D01*
X004280Y017050D01*
X004280Y016950D02*
X004430Y016950D01*
X004480Y016900D01*
X006380Y016900D01*
X006430Y016950D01*
X006580Y016950D01*
X006580Y017050D02*
X006430Y017050D01*
X006380Y017100D01*
X004480Y017100D01*
X004480Y016100D02*
X004430Y016050D01*
X004280Y016050D01*
X004280Y015950D02*
X004430Y015950D01*
X004480Y015900D01*
X006380Y015900D01*
X006430Y015950D01*
X006580Y015950D01*
X006580Y016050D02*
X006430Y016050D01*
X006380Y016100D01*
X004480Y016100D01*
X004480Y015100D02*
X004430Y015050D01*
X004280Y015050D01*
X004280Y014950D02*
X004430Y014950D01*
X004480Y014900D01*
X006380Y014900D01*
X006430Y014950D01*
X006580Y014950D01*
X006580Y015050D02*
X006430Y015050D01*
X006380Y015100D01*
X004480Y015100D01*
X004480Y014100D02*
X004430Y014050D01*
X004280Y014050D01*
X004480Y014100D02*
X006380Y014100D01*
X006430Y014050D01*
X006580Y014050D01*
X006230Y013875D02*
X006230Y012875D01*
X004630Y012875D01*
X004630Y013875D01*
X006230Y013875D01*
X005680Y013375D02*
X005430Y013375D01*
X005430Y013625D01*
X005430Y013375D02*
X005430Y013125D01*
X005430Y013375D02*
X005030Y013125D01*
X005030Y013625D01*
X005430Y013375D01*
X004830Y013375D01*
X004630Y012750D02*
X004630Y011750D01*
X006230Y011750D01*
X006230Y012750D01*
X004630Y012750D01*
X004830Y012250D02*
X005430Y012250D01*
X005430Y012500D01*
X005430Y012250D02*
X005430Y012000D01*
X005430Y012250D02*
X005030Y012000D01*
X005030Y012500D01*
X005430Y012250D01*
X005680Y012250D01*
X005155Y011250D02*
X003455Y011250D01*
X003438Y011248D01*
X003421Y011244D01*
X003405Y011237D01*
X003391Y011227D01*
X003378Y011214D01*
X003368Y011200D01*
X003361Y011184D01*
X003357Y011167D01*
X003355Y011150D01*
X003355Y010350D01*
X003357Y010333D01*
X003361Y010316D01*
X003368Y010300D01*
X003378Y010286D01*
X003391Y010273D01*
X003405Y010263D01*
X003421Y010256D01*
X003438Y010252D01*
X003455Y010250D01*
X005155Y010250D01*
X005172Y010252D01*
X005189Y010256D01*
X005205Y010263D01*
X005219Y010273D01*
X005232Y010286D01*
X005242Y010300D01*
X005249Y010316D01*
X005253Y010333D01*
X005255Y010350D01*
X005255Y011150D01*
X005253Y011167D01*
X005249Y011184D01*
X005242Y011200D01*
X005232Y011214D01*
X005219Y011227D01*
X005205Y011237D01*
X005189Y011244D01*
X005172Y011248D01*
X005155Y011250D01*
X004455Y010750D02*
X004405Y010750D01*
X004205Y010750D02*
X004155Y010750D01*
X004105Y009175D02*
X003505Y009175D01*
X003505Y009075D01*
X003405Y009075D01*
X004105Y009075D02*
X004205Y009075D01*
X004105Y009075D02*
X004105Y009175D01*
X003705Y007875D02*
X003707Y007895D01*
X003713Y007913D01*
X003722Y007931D01*
X003734Y007946D01*
X003749Y007958D01*
X003767Y007967D01*
X003785Y007973D01*
X003805Y007975D01*
X003825Y007973D01*
X003843Y007967D01*
X003861Y007958D01*
X003876Y007946D01*
X003888Y007931D01*
X003897Y007913D01*
X003903Y007895D01*
X003905Y007875D01*
X003903Y007855D01*
X003897Y007837D01*
X003888Y007819D01*
X003876Y007804D01*
X003861Y007792D01*
X003843Y007783D01*
X003825Y007777D01*
X003805Y007775D01*
X003785Y007777D01*
X003767Y007783D01*
X003749Y007792D01*
X003734Y007804D01*
X003722Y007819D01*
X003713Y007837D01*
X003707Y007855D01*
X003705Y007875D01*
X003105Y007875D02*
X003107Y007927D01*
X003113Y007979D01*
X003123Y008031D01*
X003136Y008081D01*
X003153Y008131D01*
X003174Y008179D01*
X003199Y008225D01*
X003227Y008269D01*
X003258Y008311D01*
X003292Y008351D01*
X003329Y008388D01*
X003369Y008422D01*
X003411Y008453D01*
X003455Y008481D01*
X003501Y008506D01*
X003549Y008527D01*
X003599Y008544D01*
X003649Y008557D01*
X003701Y008567D01*
X003753Y008573D01*
X003805Y008575D01*
X003857Y008573D01*
X003909Y008567D01*
X003961Y008557D01*
X004011Y008544D01*
X004061Y008527D01*
X004109Y008506D01*
X004155Y008481D01*
X004199Y008453D01*
X004241Y008422D01*
X004281Y008388D01*
X004318Y008351D01*
X004352Y008311D01*
X004383Y008269D01*
X004411Y008225D01*
X004436Y008179D01*
X004457Y008131D01*
X004474Y008081D01*
X004487Y008031D01*
X004497Y007979D01*
X004503Y007927D01*
X004505Y007875D01*
X004503Y007823D01*
X004497Y007771D01*
X004487Y007719D01*
X004474Y007669D01*
X004457Y007619D01*
X004436Y007571D01*
X004411Y007525D01*
X004383Y007481D01*
X004352Y007439D01*
X004318Y007399D01*
X004281Y007362D01*
X004241Y007328D01*
X004199Y007297D01*
X004155Y007269D01*
X004109Y007244D01*
X004061Y007223D01*
X004011Y007206D01*
X003961Y007193D01*
X003909Y007183D01*
X003857Y007177D01*
X003805Y007175D01*
X003753Y007177D01*
X003701Y007183D01*
X003649Y007193D01*
X003599Y007206D01*
X003549Y007223D01*
X003501Y007244D01*
X003455Y007269D01*
X003411Y007297D01*
X003369Y007328D01*
X003329Y007362D01*
X003292Y007399D01*
X003258Y007439D01*
X003227Y007481D01*
X003199Y007525D01*
X003174Y007571D01*
X003153Y007619D01*
X003136Y007669D01*
X003123Y007719D01*
X003113Y007771D01*
X003107Y007823D01*
X003105Y007875D01*
X002605Y007425D02*
X002605Y007025D01*
X002605Y007425D02*
X002605Y008375D01*
X002605Y008725D01*
X003405Y006675D02*
X003505Y006675D01*
X003505Y006575D01*
X004105Y006575D01*
X004105Y006675D01*
X004205Y006675D01*
X005005Y007025D02*
X005005Y007375D01*
X005005Y008375D01*
X005005Y008725D01*
X006371Y006165D02*
X006457Y006078D01*
X006544Y006165D01*
X006544Y005905D01*
X006665Y005948D02*
X006709Y005905D01*
X006795Y005905D01*
X006839Y005948D01*
X006839Y006122D01*
X006795Y006165D01*
X006709Y006165D01*
X006665Y006122D01*
X006665Y005948D01*
X006960Y005905D02*
X007090Y005905D01*
X007133Y005948D01*
X007133Y006122D01*
X007090Y006165D01*
X006960Y006165D01*
X006960Y005905D01*
X007255Y005905D02*
X007428Y005905D01*
X007341Y006035D02*
X007255Y006035D01*
X007255Y006165D02*
X007255Y005905D01*
X007255Y006165D02*
X007428Y006165D01*
X006371Y006165D02*
X006371Y005905D01*
D12*
X006457Y009885D02*
X006357Y009885D01*
X006357Y010085D01*
X006457Y010085D01*
X006490Y010052D01*
X006490Y010018D01*
X006457Y009985D01*
X006357Y009985D01*
X006457Y009985D02*
X006490Y009952D01*
X006490Y009918D01*
X006457Y009885D01*
X006578Y009885D02*
X006578Y010085D01*
X006678Y010085D01*
X006711Y010052D01*
X006711Y009985D01*
X006678Y009952D01*
X006578Y009952D01*
X006644Y009952D02*
X006711Y009885D01*
X006799Y009885D02*
X006799Y010018D01*
X006865Y010085D01*
X006932Y010018D01*
X006932Y009885D01*
X006932Y009985D02*
X006799Y009985D01*
X007020Y010085D02*
X007153Y010085D01*
X007086Y010085D02*
X007086Y009885D01*
X007241Y009885D02*
X007374Y009885D01*
X007307Y009985D02*
X007241Y009985D01*
X007241Y010085D02*
X007241Y009885D01*
X007241Y010085D02*
X007374Y010085D01*
X006276Y010085D02*
X006209Y010085D01*
X006243Y010085D02*
X006243Y009885D01*
X006276Y009885D02*
X006209Y009885D01*
X006122Y009952D02*
X006122Y010085D01*
X006122Y009952D02*
X006055Y009885D01*
X005988Y009952D01*
X005988Y010085D01*
X005987Y014400D02*
X005921Y014467D01*
X005954Y014467D02*
X005854Y014467D01*
X005854Y014400D02*
X005854Y014600D01*
X005954Y014600D01*
X005987Y014567D01*
X005987Y014500D01*
X005954Y014467D01*
X006075Y014500D02*
X006175Y014500D01*
X006208Y014467D01*
X006208Y014433D01*
X006175Y014400D01*
X006108Y014400D01*
X006075Y014433D01*
X006075Y014500D01*
X006142Y014567D01*
X006208Y014600D01*
X006175Y015400D02*
X006108Y015400D01*
X006075Y015433D01*
X006075Y015500D02*
X006142Y015533D01*
X006175Y015533D01*
X006208Y015500D01*
X006208Y015433D01*
X006175Y015400D01*
X006075Y015500D02*
X006075Y015600D01*
X006208Y015600D01*
X005987Y015567D02*
X005987Y015500D01*
X005954Y015467D01*
X005854Y015467D01*
X005921Y015467D02*
X005987Y015400D01*
X005854Y015400D02*
X005854Y015600D01*
X005954Y015600D01*
X005987Y015567D01*
X005987Y016400D02*
X005921Y016467D01*
X005954Y016467D02*
X005854Y016467D01*
X005854Y016400D02*
X005854Y016600D01*
X005954Y016600D01*
X005987Y016567D01*
X005987Y016500D01*
X005954Y016467D01*
X006075Y016500D02*
X006208Y016500D01*
X006175Y016400D02*
X006175Y016600D01*
X006075Y016500D01*
X006108Y017400D02*
X006075Y017433D01*
X006108Y017400D02*
X006175Y017400D01*
X006208Y017433D01*
X006208Y017467D01*
X006175Y017500D01*
X006142Y017500D01*
X006175Y017500D02*
X006208Y017533D01*
X006208Y017567D01*
X006175Y017600D01*
X006108Y017600D01*
X006075Y017567D01*
X005987Y017567D02*
X005987Y017500D01*
X005954Y017467D01*
X005854Y017467D01*
X005921Y017467D02*
X005987Y017400D01*
X005854Y017400D02*
X005854Y017600D01*
X005954Y017600D01*
X005987Y017567D01*
X005987Y018400D02*
X005921Y018467D01*
X005954Y018467D02*
X005854Y018467D01*
X005854Y018400D02*
X005854Y018600D01*
X005954Y018600D01*
X005987Y018567D01*
X005987Y018500D01*
X005954Y018467D01*
X006075Y018400D02*
X006208Y018533D01*
X006208Y018567D01*
X006175Y018600D01*
X006108Y018600D01*
X006075Y018567D01*
X006075Y018400D02*
X006208Y018400D01*
X006208Y019400D02*
X006075Y019400D01*
X006142Y019400D02*
X006142Y019600D01*
X006075Y019533D01*
X005987Y019500D02*
X005954Y019467D01*
X005854Y019467D01*
X005921Y019467D02*
X005987Y019400D01*
X005987Y019500D02*
X005987Y019567D01*
X005954Y019600D01*
X005854Y019600D01*
X005854Y019400D01*
D13*
X009430Y017750D02*
X009430Y017250D01*
X009680Y017000D01*
X009430Y016750D01*
X009430Y016250D01*
X009680Y016000D01*
X009430Y015750D01*
X009430Y015250D01*
X009680Y015000D01*
X009430Y014750D01*
X009430Y014250D01*
X009680Y014000D01*
X009430Y013750D01*
X009430Y013250D01*
X009680Y013000D01*
X009430Y012750D01*
X009430Y012250D01*
X009680Y012000D01*
X009430Y011750D01*
X009430Y011250D01*
X009680Y011000D01*
X009430Y010750D01*
X009430Y010250D01*
X009680Y010000D01*
X009430Y009750D01*
X009430Y009250D01*
X009680Y009000D01*
X009430Y008750D01*
X009430Y008250D01*
X009680Y008000D01*
X009430Y007750D01*
X009430Y007250D01*
X009680Y007000D01*
X009430Y006750D01*
X009430Y006250D01*
X009680Y006000D01*
X009430Y005750D01*
X009430Y005250D01*
X009680Y005000D01*
X009430Y004750D01*
X009430Y004250D01*
X009680Y004000D01*
X010180Y004000D01*
X010430Y004250D01*
X010430Y004750D01*
X010180Y005000D01*
X010430Y005250D01*
X010430Y005750D01*
X010180Y006000D01*
X010430Y006250D01*
X010430Y006750D01*
X010180Y007000D01*
X010430Y007250D01*
X010430Y007750D01*
X010180Y008000D01*
X010430Y008250D01*
X010430Y008750D01*
X010180Y009000D01*
X010430Y009250D01*
X010430Y009750D01*
X010180Y010000D01*
X010430Y010250D01*
X010430Y010750D01*
X010180Y011000D01*
X010430Y011250D01*
X010430Y011750D01*
X010180Y012000D01*
X010430Y012250D01*
X010430Y012750D01*
X010180Y013000D01*
X010430Y013250D01*
X010430Y013750D01*
X010180Y014000D01*
X010430Y014250D01*
X010430Y014750D01*
X010180Y015000D01*
X010430Y015250D01*
X010430Y015750D01*
X010180Y016000D01*
X010430Y016250D01*
X010430Y016750D01*
X010180Y017000D01*
X010430Y017250D01*
X010430Y017750D01*
X010180Y018000D01*
X009680Y018000D01*
X009430Y017750D01*
X007430Y011250D02*
X006930Y011250D01*
X006680Y011000D01*
X006430Y011250D01*
X005930Y011250D01*
X005680Y011000D01*
X005680Y010500D01*
X005930Y010250D01*
X006430Y010250D01*
X006680Y010500D01*
X006930Y010250D01*
X007430Y010250D01*
X007680Y010500D01*
X007680Y011000D01*
X007430Y011250D01*
X001430Y011250D02*
X001180Y011000D01*
X001430Y010750D01*
X001430Y010250D01*
X001180Y010000D01*
X001430Y009750D01*
X001430Y009250D01*
X001180Y009000D01*
X001430Y008750D01*
X001430Y008250D01*
X001180Y008000D01*
X001430Y007750D01*
X001430Y007250D01*
X001180Y007000D01*
X001430Y006750D01*
X001430Y006250D01*
X001180Y006000D01*
X001430Y005750D01*
X001430Y005250D01*
X001180Y005000D01*
X001430Y004750D01*
X001430Y004250D01*
X001180Y004000D01*
X000680Y004000D01*
X000430Y004250D01*
X000430Y004750D01*
X000680Y005000D01*
X000430Y005250D01*
X000430Y005750D01*
X000680Y006000D01*
X000430Y006250D01*
X000430Y006750D01*
X000680Y007000D01*
X000430Y007250D01*
X000430Y007750D01*
X000680Y008000D01*
X000430Y008250D01*
X000430Y008750D01*
X000680Y009000D01*
X000430Y009250D01*
X000430Y009750D01*
X000680Y010000D01*
X000430Y010250D01*
X000430Y010750D01*
X000680Y011000D01*
X000430Y011250D01*
X000430Y011750D01*
X000680Y012000D01*
X000430Y012250D01*
X000430Y012750D01*
X000680Y013000D01*
X000430Y013250D01*
X000430Y013750D01*
X000680Y014000D01*
X000430Y014250D01*
X000430Y014750D01*
X000680Y015000D01*
X000430Y015250D01*
X000430Y015750D01*
X000680Y016000D01*
X000430Y016250D01*
X000430Y016750D01*
X000680Y017000D01*
X000430Y017250D01*
X000430Y017750D01*
X000680Y018000D01*
X001180Y018000D01*
X001430Y017750D01*
X001430Y017250D01*
X001180Y017000D01*
X001430Y016750D01*
X001430Y016250D01*
X001180Y016000D01*
X001430Y015750D01*
X001430Y015250D01*
X001180Y015000D01*
X001430Y014750D01*
X001430Y014250D01*
X001180Y014000D01*
X001430Y013750D01*
X001430Y013250D01*
X001180Y013000D01*
X001430Y012750D01*
X001430Y012250D01*
X001180Y012000D01*
X001430Y011750D01*
X001430Y011250D01*
D14*
X000440Y001150D02*
X000440Y001010D01*
X000440Y001057D02*
X000510Y001057D01*
X000533Y001080D01*
X000533Y001127D01*
X000510Y001150D01*
X000440Y001150D01*
X000587Y001103D02*
X000587Y001010D01*
X000587Y001057D02*
X000634Y001103D01*
X000657Y001103D01*
X000710Y001080D02*
X000710Y001033D01*
X000733Y001010D01*
X000780Y001010D01*
X000804Y001033D01*
X000804Y001080D01*
X000780Y001103D01*
X000733Y001103D01*
X000710Y001080D01*
X000857Y001103D02*
X000904Y001103D01*
X000881Y001127D02*
X000881Y001033D01*
X000904Y001010D01*
X000956Y001033D02*
X000979Y001010D01*
X001026Y001010D01*
X001049Y001033D01*
X001049Y001080D01*
X001026Y001103D01*
X000979Y001103D01*
X000956Y001080D01*
X000956Y001033D01*
X001103Y001103D02*
X001150Y001103D01*
X001126Y001127D02*
X001126Y001033D01*
X001150Y001010D01*
X001201Y001033D02*
X001225Y001010D01*
X001295Y001010D01*
X001295Y000987D02*
X001271Y000963D01*
X001248Y000963D01*
X001295Y000987D02*
X001295Y001103D01*
X001349Y001103D02*
X001419Y001103D01*
X001442Y001080D01*
X001442Y001033D01*
X001419Y001010D01*
X001349Y001010D01*
X001349Y000963D02*
X001349Y001103D01*
X001201Y001103D02*
X001201Y001033D01*
X001496Y001033D02*
X001496Y001080D01*
X001519Y001103D01*
X001566Y001103D01*
X001589Y001080D01*
X001589Y001057D01*
X001496Y001057D01*
X001496Y001033D02*
X001519Y001010D01*
X001566Y001010D01*
X001790Y001033D02*
X001814Y001010D01*
X001861Y001010D01*
X001884Y001033D01*
X001790Y001033D02*
X001790Y001127D01*
X001814Y001150D01*
X001861Y001150D01*
X001884Y001127D01*
X002605Y007425D02*
X002705Y007425D01*
X002705Y008375D01*
X002605Y008375D01*
X004905Y008375D02*
X004905Y007375D01*
X005005Y007375D01*
X005005Y008375D02*
X004905Y008375D01*
D15*
X002695Y003480D03*
X002695Y003470D03*
X002455Y003280D03*
X002295Y003390D03*
X001855Y003000D03*
X001845Y002980D03*
X001645Y003090D03*
X001645Y003110D03*
X001645Y003130D03*
X001645Y003140D03*
X001645Y003150D03*
X001645Y003160D03*
X001655Y003170D03*
X001655Y003190D03*
X001655Y003200D03*
X001655Y003210D03*
X001655Y003230D03*
X001675Y003310D03*
X001675Y003320D03*
X001685Y003370D03*
X001685Y003390D03*
X001685Y003400D03*
X001655Y002810D03*
X001165Y002990D03*
X001175Y002470D03*
X000985Y001950D03*
X000975Y001930D03*
X000985Y001890D03*
X000985Y001880D03*
X001015Y001760D03*
D16*
X001020Y001770D03*
X001010Y001990D03*
X001020Y002000D03*
X001010Y002430D03*
X001020Y002550D03*
X001020Y002560D03*
X001030Y002590D03*
X001040Y002600D03*
X001140Y002710D03*
X001120Y002810D03*
X001110Y003010D03*
X000840Y003010D03*
X000600Y003200D03*
X000570Y003240D03*
X000530Y003270D03*
X000520Y003280D03*
X000510Y003300D03*
X000510Y003310D03*
X000930Y003450D03*
X001040Y003540D03*
X001500Y003130D03*
X001500Y003120D03*
X001510Y003110D03*
X001520Y003100D03*
X001530Y003090D03*
X001530Y003080D03*
X001540Y003040D03*
X001550Y003030D03*
X001640Y002890D03*
X001640Y002880D03*
X001650Y002870D03*
X001650Y002850D03*
X001640Y002830D03*
X001820Y002500D03*
X001810Y002450D03*
X001810Y002440D03*
X001800Y002410D03*
X001790Y002400D03*
X001790Y002390D03*
X001780Y002370D03*
X001780Y002360D03*
X001770Y002350D03*
X001830Y002610D03*
X001830Y002620D03*
X001830Y002630D03*
X001830Y002650D03*
X001830Y002660D03*
X001830Y002670D03*
X001860Y003050D03*
X001870Y003080D03*
X001950Y003210D03*
X001720Y003530D03*
X001720Y003540D03*
X001730Y003550D03*
X001740Y003560D03*
X001750Y003580D03*
X001770Y003600D03*
X001780Y003610D03*
X001780Y003620D03*
X001700Y003490D03*
X001700Y003480D03*
X001700Y003470D03*
X001700Y003460D03*
X001690Y003440D03*
X001690Y003430D03*
X001190Y002480D03*
X002415Y003870D03*
X002640Y003650D03*
X002640Y003640D03*
X002680Y003570D03*
X002680Y003430D03*
X002670Y003420D03*
D17*
X002645Y003410D03*
X002635Y003400D03*
X002665Y003590D03*
X002655Y003600D03*
X002655Y003610D03*
X002645Y003630D03*
X002635Y003660D03*
X002625Y003670D03*
X002605Y003680D03*
X002595Y003700D03*
X002585Y003710D03*
X002575Y003720D03*
X002555Y003750D03*
X002545Y003760D03*
X001945Y003200D03*
X001885Y003130D03*
X001875Y003120D03*
X001635Y002900D03*
X001485Y003140D03*
X001455Y003170D03*
X001445Y003180D03*
X001435Y003190D03*
X001415Y003210D03*
X001405Y003220D03*
X001395Y003230D03*
X001705Y003500D03*
X001705Y003510D03*
X001715Y003520D03*
X001745Y003570D03*
X001785Y003630D03*
X001805Y002430D03*
X001805Y002420D03*
X001765Y002340D03*
X001755Y002320D03*
X001745Y002310D03*
X001725Y002290D03*
X001705Y002260D03*
X001695Y002250D03*
X001295Y002520D03*
X000965Y002810D03*
X000955Y002800D03*
X000825Y002830D03*
X000815Y002840D03*
X000875Y003220D03*
X000775Y003350D03*
X000775Y003380D03*
X000595Y003210D03*
X000585Y003220D03*
X000575Y003230D03*
X000545Y003250D03*
X000535Y003260D03*
X001115Y003430D03*
X001025Y002010D03*
X001025Y001780D03*
X001185Y001910D03*
D18*
X001180Y001900D03*
X001170Y001890D03*
X001200Y001920D03*
X001110Y001840D03*
X001030Y001790D03*
X001030Y002020D03*
X001130Y002110D03*
X001160Y002150D03*
X001160Y002160D03*
X001170Y002140D03*
X001140Y002170D03*
X001120Y002180D03*
X001120Y002190D03*
X001110Y002200D03*
X001100Y002210D03*
X001000Y002440D03*
X001130Y002700D03*
X000820Y002850D03*
X000820Y002860D03*
X000860Y003020D03*
X000610Y003190D03*
X000780Y003340D03*
X000780Y003360D03*
X000780Y003390D03*
X000690Y002470D03*
X001360Y003250D03*
X001350Y003260D03*
X001380Y003240D03*
X001420Y003200D03*
X001460Y003160D03*
X001480Y003150D03*
X001890Y003150D03*
X001930Y003190D03*
X001760Y002330D03*
X001730Y002300D03*
X001720Y002280D03*
X001710Y002270D03*
X001690Y002240D03*
X001680Y002230D03*
X001670Y002220D03*
X002600Y003690D03*
X002570Y003730D03*
X002560Y003740D03*
X002650Y003620D03*
X002670Y003580D03*
D19*
X002415Y003290D03*
X002055Y003280D03*
X002005Y003240D03*
X001995Y003230D03*
X001835Y003680D03*
X001845Y003690D03*
X001905Y003720D03*
X001925Y003740D03*
X001595Y003000D03*
X001155Y003390D03*
X001155Y003400D03*
X001025Y003520D03*
X000895Y003320D03*
X000775Y003090D03*
X000785Y003080D03*
X000735Y003110D03*
X000905Y002770D03*
X000725Y002440D03*
X000725Y002430D03*
X000895Y002340D03*
X001125Y002660D03*
X001045Y001800D03*
D20*
X001050Y001810D03*
X000980Y002290D03*
X000980Y002300D03*
X000950Y002310D03*
X000930Y002320D03*
X000880Y002350D03*
X000850Y002370D03*
X000840Y002380D03*
X000810Y002390D03*
X000790Y002400D03*
X000770Y002410D03*
X000910Y002780D03*
X000980Y002900D03*
X000810Y003400D03*
X001590Y003020D03*
X001910Y003730D03*
X002080Y003300D03*
X002070Y003290D03*
X002480Y003790D03*
X001570Y002160D03*
X001460Y002100D03*
X001440Y002090D03*
X001390Y002060D03*
D21*
X001405Y002070D03*
X001475Y002110D03*
X001055Y001830D03*
X001055Y001820D03*
X000915Y002330D03*
X000865Y002360D03*
X000745Y002420D03*
X000805Y002550D03*
X000955Y002480D03*
X001115Y002640D03*
X001115Y002650D03*
X000845Y002880D03*
X000825Y003070D03*
X000545Y003430D03*
X000525Y003420D03*
X001015Y003510D03*
X001945Y003750D03*
X002455Y003800D03*
D22*
X002320Y003870D03*
X002685Y003560D03*
X002685Y003550D03*
X002685Y003540D03*
X002685Y003530D03*
X002685Y003440D03*
X001875Y003110D03*
X001875Y003100D03*
X001875Y003090D03*
X001865Y003070D03*
X001855Y003040D03*
X001855Y003030D03*
X001835Y002960D03*
X001835Y002950D03*
X001835Y002940D03*
X001825Y002880D03*
X001835Y002850D03*
X001835Y002840D03*
X001835Y002830D03*
X001835Y002800D03*
X001835Y002790D03*
X001835Y002780D03*
X001835Y002770D03*
X001835Y002750D03*
X001825Y002730D03*
X001825Y002720D03*
X001825Y002710D03*
X001825Y002700D03*
X001825Y002690D03*
X001825Y002680D03*
X001835Y002640D03*
X001825Y002600D03*
X001825Y002590D03*
X001825Y002580D03*
X001825Y002570D03*
X001825Y002560D03*
X001825Y002530D03*
X001825Y002520D03*
X001815Y002470D03*
X001815Y002460D03*
X001785Y002380D03*
X001645Y002820D03*
X001645Y002840D03*
X001645Y002860D03*
X001645Y003030D03*
X001645Y003040D03*
X001645Y003050D03*
X001645Y003060D03*
X001645Y003070D03*
X001545Y003050D03*
X001535Y003060D03*
X001535Y003070D03*
X001665Y003260D03*
X001665Y003270D03*
X001675Y003330D03*
X001685Y003420D03*
X001695Y003450D03*
X001765Y003590D03*
X001145Y002750D03*
X001145Y002730D03*
X001145Y002720D03*
X001135Y002770D03*
X001135Y002780D03*
X001125Y002800D03*
X001185Y002610D03*
X001025Y002580D03*
X001025Y002570D03*
X001015Y002540D03*
X001015Y002530D03*
X001015Y002420D03*
X000855Y002800D03*
X000845Y002810D03*
X000825Y002820D03*
X000795Y002890D03*
X000785Y002920D03*
X000795Y002950D03*
X000765Y003320D03*
X000765Y003330D03*
X000515Y003290D03*
X000505Y003320D03*
X000505Y003330D03*
X000495Y003340D03*
X000485Y003360D03*
X000475Y003380D03*
X000475Y003390D03*
X000475Y003400D03*
X001085Y003490D03*
X001105Y003440D03*
X001005Y001980D03*
X000995Y001970D03*
X000995Y001840D03*
D23*
X000990Y001850D03*
X000990Y001860D03*
X000990Y001870D03*
X000980Y001910D03*
X000980Y001920D03*
X000980Y001940D03*
X000990Y001960D03*
X001020Y002410D03*
X001140Y002740D03*
X001140Y002760D03*
X001130Y002790D03*
X001140Y003000D03*
X000830Y003000D03*
X000820Y002990D03*
X000810Y002980D03*
X000800Y002970D03*
X000800Y002960D03*
X000790Y002940D03*
X000790Y002930D03*
X000790Y002910D03*
X000790Y002900D03*
X000930Y003330D03*
X001090Y003460D03*
X001090Y003470D03*
X001090Y003480D03*
X001100Y003450D03*
X001040Y003550D03*
X000490Y003350D03*
X000480Y003370D03*
X001650Y003180D03*
X001660Y003220D03*
X001660Y003240D03*
X001660Y003250D03*
X001670Y003280D03*
X001670Y003290D03*
X001670Y003300D03*
X001680Y003340D03*
X001680Y003350D03*
X001680Y003360D03*
X001680Y003380D03*
X001680Y003410D03*
X001650Y003120D03*
X001650Y003100D03*
X001650Y003080D03*
X001860Y003060D03*
X001860Y003020D03*
X001860Y003010D03*
X001850Y002990D03*
X001840Y002970D03*
X001830Y002930D03*
X001830Y002920D03*
X001830Y002910D03*
X001830Y002900D03*
X001830Y002890D03*
X001830Y002870D03*
X001830Y002860D03*
X001840Y002820D03*
X001840Y002810D03*
X001840Y002760D03*
X001830Y002740D03*
X001820Y002550D03*
X001820Y002540D03*
X001820Y002510D03*
X001820Y002490D03*
X001820Y002480D03*
X002690Y003450D03*
X002690Y003460D03*
D24*
X001895Y003160D03*
X001885Y003140D03*
X001625Y002950D03*
X001625Y002940D03*
X001635Y002930D03*
X001635Y002920D03*
X001635Y002910D03*
X001285Y003310D03*
X001125Y003420D03*
X001035Y003530D03*
X000815Y003510D03*
X000785Y003370D03*
X000675Y003150D03*
X000625Y003180D03*
X000495Y003410D03*
X000905Y002740D03*
X000705Y002480D03*
X001055Y002040D03*
X001045Y002030D03*
X001125Y002100D03*
X001155Y002120D03*
X001285Y001990D03*
X001275Y001980D03*
X001215Y001940D03*
X001205Y001930D03*
X001155Y001880D03*
X001125Y001850D03*
X001795Y003640D03*
X001795Y003650D03*
D25*
X001910Y003180D03*
X001900Y003170D03*
X001610Y002980D03*
X001610Y002970D03*
X001620Y002960D03*
X001340Y003270D03*
X001330Y003280D03*
X001310Y003290D03*
X001300Y003300D03*
X001270Y003320D03*
X001250Y003330D03*
X001190Y003380D03*
X001080Y003020D03*
X001130Y002690D03*
X001060Y002610D03*
X000990Y002450D03*
X001080Y002220D03*
X001170Y002130D03*
X001120Y002090D03*
X001090Y002060D03*
X001080Y002050D03*
X001230Y001950D03*
X001240Y001960D03*
X001260Y001970D03*
X001300Y002000D03*
X001340Y002040D03*
X001140Y001870D03*
X001130Y001860D03*
X000700Y002460D03*
X000830Y002870D03*
X000700Y003140D03*
X000640Y003170D03*
X000870Y003230D03*
X000810Y003410D03*
X001610Y002190D03*
X001630Y002200D03*
X001640Y002210D03*
X002530Y003770D03*
X002520Y003780D03*
D26*
X002700Y003520D03*
X002700Y003510D03*
X002700Y003500D03*
X002700Y003490D03*
X001650Y002800D03*
X001180Y002600D03*
X001170Y002460D03*
X001030Y002400D03*
X000980Y001900D03*
X000940Y003340D03*
D27*
X001145Y003410D03*
X001195Y003370D03*
X001235Y003340D03*
X001135Y002680D03*
X000975Y002460D03*
X001075Y002230D03*
X001125Y002080D03*
X001105Y002070D03*
X001305Y002010D03*
X001315Y002020D03*
X001335Y002030D03*
X001355Y002050D03*
X001505Y002120D03*
X001515Y002130D03*
X001595Y002180D03*
X001305Y002510D03*
X000905Y002750D03*
X000715Y002450D03*
X000755Y003100D03*
X000705Y003130D03*
X000655Y003160D03*
X001805Y003660D03*
X001815Y003670D03*
D28*
X002405Y003300D03*
X001415Y002080D03*
X001035Y002260D03*
X001055Y002870D03*
D29*
X001215Y002820D03*
X001195Y002970D03*
X001085Y003380D03*
X000735Y003510D03*
X001155Y002440D03*
X001145Y002430D03*
X001135Y002420D03*
X001135Y002410D03*
X001205Y002090D03*
X001685Y002650D03*
X001675Y002680D03*
X001675Y002690D03*
X001675Y002700D03*
X001665Y002750D03*
X002245Y003300D03*
X002435Y003860D03*
X002480Y003870D03*
X002655Y003520D03*
D30*
X002640Y003510D03*
X002440Y003780D03*
X002290Y003790D03*
X002160Y003760D03*
X001680Y002670D03*
X001680Y002660D03*
X001400Y002120D03*
X001230Y002120D03*
X000750Y002370D03*
X001110Y003030D03*
X001200Y002960D03*
X000940Y003430D03*
X000860Y003390D03*
X000850Y003380D03*
X000880Y003210D03*
X000710Y003510D03*
X000570Y003410D03*
X001050Y003560D03*
D31*
X001210Y003360D03*
X001220Y003350D03*
X000870Y003240D03*
X000720Y003120D03*
X000900Y002760D03*
X000800Y002560D03*
X000730Y002490D03*
X000970Y002470D03*
X001070Y002240D03*
X001130Y002670D03*
X001580Y002170D03*
X001560Y002150D03*
X001550Y002140D03*
X001600Y002990D03*
X001990Y003220D03*
X002020Y003250D03*
X002030Y003260D03*
X002040Y003270D03*
X001870Y003700D03*
X001890Y003710D03*
X002610Y003390D03*
D32*
X001590Y003010D03*
X001050Y002880D03*
X000910Y002790D03*
X000850Y003060D03*
X000860Y003250D03*
X001110Y002630D03*
X001050Y002250D03*
D33*
X001030Y002270D03*
X001020Y002280D03*
X000950Y002490D03*
X001110Y002620D03*
X001050Y002830D03*
X000860Y003260D03*
D34*
X000835Y003330D03*
X000895Y003390D03*
X000915Y003370D03*
X000925Y003360D03*
X000935Y003350D03*
X000935Y003440D03*
X000815Y003420D03*
X000895Y002730D03*
X001045Y002390D03*
X001105Y002300D03*
X001105Y002290D03*
X001175Y002510D03*
X001165Y002520D03*
X001175Y002530D03*
X001175Y002540D03*
X001175Y002550D03*
X001175Y002560D03*
X001175Y002570D03*
X001175Y002580D03*
X001175Y002590D03*
X001665Y002760D03*
X001665Y002770D03*
X001665Y002780D03*
X001655Y002790D03*
X002385Y003390D03*
D35*
X001670Y002740D03*
X001670Y002730D03*
X001670Y002720D03*
X001670Y002710D03*
X001360Y002480D03*
X001160Y002450D03*
X001130Y002400D03*
X001130Y002390D03*
X001120Y002380D03*
X001120Y002370D03*
X001110Y002360D03*
X001110Y002350D03*
X001110Y002340D03*
X001110Y002330D03*
X001110Y002320D03*
X001110Y002310D03*
X001200Y002830D03*
X001180Y002980D03*
X000910Y003380D03*
D36*
X000850Y003280D03*
X000890Y003050D03*
X001270Y002500D03*
X001270Y002490D03*
D37*
X000860Y002500D03*
D38*
X000865Y002510D03*
D39*
X000870Y002520D03*
D40*
X000820Y002530D03*
X001070Y002840D03*
X000850Y003300D03*
X000850Y003310D03*
D41*
X000855Y003270D03*
X000575Y003440D03*
X001065Y002860D03*
X001045Y002820D03*
X000805Y002540D03*
D42*
X000995Y002890D03*
X001075Y002850D03*
X000855Y003290D03*
X002015Y003760D03*
D43*
X002080Y003790D03*
X000940Y003030D03*
D44*
X000925Y003040D03*
X002265Y003860D03*
D45*
X002275Y003310D03*
D46*
X002300Y003320D03*
X002310Y003330D03*
D47*
X002355Y003340D03*
X002265Y003810D03*
D48*
X002370Y003350D03*
D49*
X002400Y003360D03*
X002270Y003820D03*
D50*
X002415Y003370D03*
D51*
X002435Y003380D03*
X000875Y003500D03*
X000775Y003470D03*
X000735Y003460D03*
D52*
X000615Y003450D03*
D53*
X000790Y003480D03*
X002280Y003830D03*
D54*
X000810Y003490D03*
D55*
X002065Y003770D03*
X002075Y003780D03*
D56*
X002135Y003800D03*
D57*
X002295Y003840D03*
D58*
X002285Y003850D03*
D59*
X010467Y003094D02*
X010439Y003058D01*
X010439Y003059D02*
X010391Y003094D01*
X010341Y003127D01*
X010289Y003157D01*
X010236Y003183D01*
X010254Y003224D01*
X010255Y003224D01*
X010311Y003196D01*
X010365Y003165D01*
X010417Y003131D01*
X010467Y003094D01*
X010465Y003091D01*
X010415Y003128D01*
X010363Y003162D01*
X010309Y003193D01*
X010253Y003221D01*
X010251Y003217D01*
X010307Y003189D01*
X010361Y003159D01*
X010412Y003125D01*
X010462Y003088D01*
X010460Y003085D01*
X010410Y003121D01*
X010358Y003155D01*
X010305Y003186D01*
X010250Y003213D01*
X010248Y003210D01*
X010303Y003182D01*
X010356Y003152D01*
X010408Y003118D01*
X010457Y003082D01*
X010455Y003078D01*
X010406Y003115D01*
X010354Y003148D01*
X010301Y003179D01*
X010246Y003206D01*
X010245Y003202D01*
X010299Y003175D01*
X010352Y003145D01*
X010403Y003112D01*
X010452Y003075D01*
X010450Y003072D01*
X010401Y003108D01*
X010350Y003142D01*
X010297Y003172D01*
X010243Y003199D01*
X010241Y003195D01*
X010295Y003168D01*
X010348Y003138D01*
X010399Y003105D01*
X010447Y003069D01*
X010445Y003066D01*
X010396Y003102D01*
X010346Y003135D01*
X010294Y003165D01*
X010240Y003192D01*
X010238Y003188D01*
X010292Y003161D01*
X010344Y003131D01*
X010394Y003098D01*
X010443Y003063D01*
X010440Y003060D01*
X010392Y003095D01*
X010342Y003128D01*
X010290Y003158D01*
X010236Y003184D01*
X009346Y003219D02*
X009365Y003179D01*
X009309Y003150D01*
X009255Y003119D01*
X009203Y003083D01*
X009154Y003045D01*
X009106Y003004D01*
X009062Y002960D01*
X009020Y002913D01*
X008981Y002864D01*
X008945Y002813D01*
X008912Y002759D01*
X008883Y002704D01*
X008857Y002647D01*
X008834Y002588D01*
X008815Y002529D01*
X008800Y002468D01*
X008789Y002406D01*
X008781Y002344D01*
X008777Y002281D01*
X008777Y002219D01*
X008781Y002156D01*
X008789Y002094D01*
X008800Y002032D01*
X008815Y001971D01*
X008834Y001912D01*
X008857Y001853D01*
X008883Y001796D01*
X008912Y001741D01*
X008945Y001687D01*
X008981Y001636D01*
X009020Y001587D01*
X009062Y001540D01*
X009106Y001496D01*
X009154Y001455D01*
X009203Y001417D01*
X009255Y001381D01*
X009309Y001350D01*
X009365Y001321D01*
X009346Y001281D01*
X009346Y001280D01*
X009287Y001310D01*
X009231Y001343D01*
X009177Y001380D01*
X009125Y001420D01*
X009076Y001463D01*
X009029Y001509D01*
X008985Y001558D01*
X008945Y001609D01*
X008907Y001662D01*
X008873Y001718D01*
X008842Y001776D01*
X008815Y001836D01*
X008792Y001897D01*
X008772Y001959D01*
X008756Y002023D01*
X008744Y002087D01*
X008736Y002152D01*
X008732Y002217D01*
X008732Y002283D01*
X008736Y002348D01*
X008744Y002413D01*
X008756Y002477D01*
X008772Y002541D01*
X008792Y002603D01*
X008815Y002664D01*
X008842Y002724D01*
X008873Y002782D01*
X008907Y002838D01*
X008945Y002891D01*
X008985Y002942D01*
X009029Y002991D01*
X009076Y003037D01*
X009125Y003080D01*
X009177Y003120D01*
X009231Y003157D01*
X009287Y003190D01*
X009346Y003220D01*
X009347Y003216D01*
X009289Y003186D01*
X009233Y003153D01*
X009179Y003117D01*
X009128Y003077D01*
X009078Y003034D01*
X009032Y002988D01*
X008988Y002940D01*
X008948Y002889D01*
X008911Y002835D01*
X008877Y002780D01*
X008846Y002722D01*
X008819Y002663D01*
X008796Y002602D01*
X008776Y002540D01*
X008760Y002476D01*
X008748Y002412D01*
X008740Y002348D01*
X008736Y002283D01*
X008736Y002217D01*
X008740Y002152D01*
X008748Y002088D01*
X008760Y002024D01*
X008776Y001960D01*
X008796Y001898D01*
X008819Y001837D01*
X008846Y001778D01*
X008877Y001720D01*
X008911Y001665D01*
X008948Y001611D01*
X008988Y001560D01*
X009032Y001512D01*
X009078Y001466D01*
X009128Y001423D01*
X009179Y001383D01*
X009233Y001347D01*
X009289Y001314D01*
X009347Y001284D01*
X009349Y001287D01*
X009291Y001317D01*
X009235Y001350D01*
X009182Y001387D01*
X009130Y001426D01*
X009081Y001469D01*
X009035Y001514D01*
X008991Y001563D01*
X008951Y001614D01*
X008914Y001667D01*
X008880Y001722D01*
X008850Y001780D01*
X008823Y001839D01*
X008799Y001899D01*
X008780Y001961D01*
X008764Y002024D01*
X008752Y002088D01*
X008744Y002153D01*
X008740Y002218D01*
X008740Y002282D01*
X008744Y002347D01*
X008752Y002412D01*
X008764Y002476D01*
X008780Y002539D01*
X008799Y002601D01*
X008823Y002661D01*
X008850Y002720D01*
X008880Y002778D01*
X008914Y002833D01*
X008951Y002886D01*
X008991Y002937D01*
X009035Y002986D01*
X009081Y003031D01*
X009130Y003074D01*
X009182Y003113D01*
X009235Y003150D01*
X009291Y003183D01*
X009349Y003213D01*
X009351Y003209D01*
X009293Y003179D01*
X009238Y003146D01*
X009184Y003110D01*
X009133Y003071D01*
X009084Y003028D01*
X009038Y002983D01*
X008995Y002935D01*
X008954Y002884D01*
X008917Y002831D01*
X008883Y002776D01*
X008853Y002719D01*
X008826Y002660D01*
X008803Y002599D01*
X008784Y002538D01*
X008768Y002475D01*
X008756Y002411D01*
X008748Y002347D01*
X008744Y002282D01*
X008744Y002218D01*
X008748Y002153D01*
X008756Y002089D01*
X008768Y002025D01*
X008784Y001962D01*
X008803Y001901D01*
X008826Y001840D01*
X008853Y001781D01*
X008883Y001724D01*
X008917Y001669D01*
X008954Y001616D01*
X008995Y001565D01*
X009038Y001517D01*
X009084Y001472D01*
X009133Y001429D01*
X009184Y001390D01*
X009238Y001354D01*
X009293Y001321D01*
X009351Y001291D01*
X009353Y001295D01*
X009295Y001324D01*
X009240Y001357D01*
X009186Y001393D01*
X009135Y001432D01*
X009087Y001475D01*
X009041Y001520D01*
X008998Y001568D01*
X008957Y001618D01*
X008921Y001671D01*
X008887Y001726D01*
X008857Y001783D01*
X008830Y001842D01*
X008807Y001902D01*
X008788Y001963D01*
X008772Y002026D01*
X008760Y002089D01*
X008752Y002153D01*
X008748Y002218D01*
X008748Y002282D01*
X008752Y002347D01*
X008760Y002411D01*
X008772Y002474D01*
X008788Y002537D01*
X008807Y002598D01*
X008830Y002658D01*
X008857Y002717D01*
X008887Y002774D01*
X008921Y002829D01*
X008957Y002882D01*
X008998Y002932D01*
X009041Y002980D01*
X009087Y003025D01*
X009135Y003068D01*
X009186Y003107D01*
X009240Y003143D01*
X009295Y003176D01*
X009353Y003205D01*
X009354Y003202D01*
X009297Y003172D01*
X009242Y003140D01*
X009189Y003104D01*
X009138Y003065D01*
X009089Y003022D01*
X009044Y002977D01*
X009001Y002930D01*
X008961Y002879D01*
X008924Y002827D01*
X008890Y002772D01*
X008860Y002715D01*
X008834Y002657D01*
X008811Y002597D01*
X008791Y002535D01*
X008776Y002473D01*
X008764Y002410D01*
X008756Y002346D01*
X008752Y002282D01*
X008752Y002218D01*
X008756Y002154D01*
X008764Y002090D01*
X008776Y002027D01*
X008791Y001965D01*
X008811Y001903D01*
X008834Y001843D01*
X008860Y001785D01*
X008890Y001728D01*
X008924Y001673D01*
X008961Y001621D01*
X009001Y001570D01*
X009044Y001523D01*
X009089Y001478D01*
X009138Y001435D01*
X009189Y001396D01*
X009242Y001360D01*
X009297Y001328D01*
X009354Y001298D01*
X009356Y001302D01*
X009299Y001331D01*
X009244Y001364D01*
X009191Y001400D01*
X009140Y001439D01*
X009092Y001481D01*
X009046Y001525D01*
X009004Y001573D01*
X008964Y001623D01*
X008927Y001676D01*
X008894Y001730D01*
X008864Y001787D01*
X008837Y001845D01*
X008814Y001905D01*
X008795Y001966D01*
X008780Y002028D01*
X008768Y002091D01*
X008760Y002154D01*
X008756Y002218D01*
X008756Y002282D01*
X008760Y002346D01*
X008768Y002409D01*
X008780Y002472D01*
X008795Y002534D01*
X008814Y002595D01*
X008837Y002655D01*
X008864Y002713D01*
X008894Y002770D01*
X008927Y002824D01*
X008964Y002877D01*
X009004Y002927D01*
X009046Y002975D01*
X009092Y003019D01*
X009140Y003061D01*
X009191Y003100D01*
X009244Y003136D01*
X009299Y003169D01*
X009356Y003198D01*
X009358Y003194D01*
X009301Y003165D01*
X009246Y003133D01*
X009193Y003097D01*
X009143Y003058D01*
X009095Y003017D01*
X009049Y002972D01*
X009007Y002924D01*
X008967Y002874D01*
X008931Y002822D01*
X008897Y002768D01*
X008867Y002712D01*
X008841Y002654D01*
X008818Y002594D01*
X008799Y002533D01*
X008784Y002471D01*
X008772Y002409D01*
X008764Y002345D01*
X008760Y002282D01*
X008760Y002218D01*
X008764Y002155D01*
X008772Y002091D01*
X008784Y002029D01*
X008799Y001967D01*
X008818Y001906D01*
X008841Y001846D01*
X008867Y001788D01*
X008897Y001732D01*
X008931Y001678D01*
X008967Y001626D01*
X009007Y001576D01*
X009049Y001528D01*
X009095Y001483D01*
X009143Y001442D01*
X009193Y001403D01*
X009246Y001367D01*
X009301Y001335D01*
X009358Y001306D01*
X009359Y001309D01*
X009303Y001338D01*
X009248Y001370D01*
X009196Y001406D01*
X009145Y001445D01*
X009097Y001486D01*
X009052Y001531D01*
X009010Y001578D01*
X008970Y001628D01*
X008934Y001680D01*
X008901Y001734D01*
X008871Y001790D01*
X008845Y001848D01*
X008822Y001907D01*
X008803Y001968D01*
X008788Y002029D01*
X008776Y002092D01*
X008768Y002155D01*
X008764Y002218D01*
X008764Y002282D01*
X008768Y002345D01*
X008776Y002408D01*
X008788Y002471D01*
X008803Y002532D01*
X008822Y002593D01*
X008845Y002652D01*
X008871Y002710D01*
X008901Y002766D01*
X008934Y002820D01*
X008970Y002872D01*
X009010Y002922D01*
X009052Y002969D01*
X009097Y003014D01*
X009145Y003055D01*
X009196Y003094D01*
X009248Y003130D01*
X009303Y003162D01*
X009359Y003191D01*
X009361Y003187D01*
X009305Y003158D01*
X009250Y003126D01*
X009198Y003091D01*
X009148Y003052D01*
X009100Y003011D01*
X009055Y002966D01*
X009013Y002919D01*
X008974Y002870D01*
X008937Y002818D01*
X008904Y002764D01*
X008875Y002708D01*
X008848Y002650D01*
X008826Y002591D01*
X008807Y002531D01*
X008792Y002470D01*
X008780Y002408D01*
X008772Y002345D01*
X008768Y002282D01*
X008768Y002218D01*
X008772Y002155D01*
X008780Y002092D01*
X008792Y002030D01*
X008807Y001969D01*
X008826Y001909D01*
X008848Y001850D01*
X008875Y001792D01*
X008904Y001736D01*
X008937Y001682D01*
X008974Y001630D01*
X009013Y001581D01*
X009055Y001534D01*
X009100Y001489D01*
X009148Y001448D01*
X009198Y001409D01*
X009250Y001374D01*
X009305Y001342D01*
X009361Y001313D01*
X009363Y001316D01*
X009307Y001345D01*
X009252Y001377D01*
X009200Y001413D01*
X009150Y001451D01*
X009103Y001492D01*
X009058Y001537D01*
X009016Y001583D01*
X008977Y001633D01*
X008941Y001684D01*
X008908Y001738D01*
X008878Y001794D01*
X008852Y001851D01*
X008830Y001910D01*
X008811Y001970D01*
X008795Y002031D01*
X008784Y002093D01*
X008776Y002156D01*
X008772Y002219D01*
X008772Y002281D01*
X008776Y002344D01*
X008784Y002407D01*
X008795Y002469D01*
X008811Y002530D01*
X008830Y002590D01*
X008852Y002649D01*
X008878Y002706D01*
X008908Y002762D01*
X008941Y002816D01*
X008977Y002867D01*
X009016Y002917D01*
X009058Y002963D01*
X009103Y003008D01*
X009150Y003049D01*
X009200Y003087D01*
X009252Y003123D01*
X009307Y003155D01*
X009363Y003184D01*
X009364Y003180D01*
X009309Y003151D01*
X009255Y003119D01*
X009203Y003084D01*
X009153Y003046D01*
X009106Y003005D01*
X009061Y002961D01*
X009019Y002914D01*
X008980Y002865D01*
X008944Y002813D01*
X008911Y002760D01*
X008882Y002704D01*
X008856Y002647D01*
X008833Y002589D01*
X008815Y002529D01*
X008799Y002468D01*
X008788Y002406D01*
X008780Y002344D01*
X008776Y002281D01*
X008776Y002219D01*
X008780Y002156D01*
X008788Y002094D01*
X008799Y002032D01*
X008815Y001971D01*
X008833Y001911D01*
X008856Y001853D01*
X008882Y001796D01*
X008911Y001740D01*
X008944Y001687D01*
X008980Y001635D01*
X009019Y001586D01*
X009061Y001539D01*
X009106Y001495D01*
X009153Y001454D01*
X009203Y001416D01*
X009255Y001381D01*
X009309Y001349D01*
X009364Y001320D01*
X010264Y001281D02*
X010245Y001321D01*
X010296Y001347D01*
X010346Y001376D01*
X010393Y001407D01*
X010439Y001441D01*
X010467Y001406D01*
X010419Y001370D01*
X010369Y001337D01*
X010318Y001307D01*
X010264Y001280D01*
X010263Y001284D01*
X010316Y001311D01*
X010367Y001341D01*
X010417Y001373D01*
X010465Y001409D01*
X010462Y001412D01*
X010415Y001377D01*
X010365Y001344D01*
X010314Y001314D01*
X010261Y001288D01*
X010259Y001291D01*
X010312Y001318D01*
X010363Y001348D01*
X010412Y001380D01*
X010460Y001415D01*
X010457Y001418D01*
X010410Y001383D01*
X010361Y001351D01*
X010310Y001321D01*
X010257Y001295D01*
X010256Y001298D01*
X010308Y001325D01*
X010359Y001354D01*
X010408Y001387D01*
X010455Y001422D01*
X010452Y001425D01*
X010405Y001390D01*
X010357Y001358D01*
X010306Y001328D01*
X010254Y001302D01*
X010252Y001306D01*
X010304Y001332D01*
X010355Y001361D01*
X010403Y001393D01*
X010450Y001428D01*
X010447Y001431D01*
X010401Y001396D01*
X010352Y001365D01*
X010302Y001335D01*
X010251Y001309D01*
X010249Y001313D01*
X010300Y001339D01*
X010350Y001368D01*
X010399Y001400D01*
X010445Y001434D01*
X010443Y001437D01*
X010396Y001403D01*
X010348Y001371D01*
X010299Y001343D01*
X010247Y001316D01*
X010246Y001320D01*
X010297Y001346D01*
X010346Y001375D01*
X010394Y001406D01*
X010440Y001440D01*
D60*
X004405Y010450D02*
X004405Y010750D01*
X004405Y011050D01*
X004205Y011050D02*
X004205Y010750D01*
X004205Y010450D01*
D61*
X004154Y014148D02*
X004208Y014148D01*
X004207Y014147D02*
X004209Y014132D01*
X004215Y014117D01*
X004223Y014104D01*
X004234Y014093D01*
X004247Y014085D01*
X004262Y014079D01*
X004277Y014077D01*
X004278Y014024D01*
X004277Y014023D01*
X004256Y014025D01*
X004235Y014031D01*
X004216Y014041D01*
X004198Y014053D01*
X004183Y014068D01*
X004171Y014086D01*
X004161Y014105D01*
X004155Y014126D01*
X004153Y014147D01*
X004158Y014147D01*
X004160Y014127D01*
X004166Y014107D01*
X004175Y014088D01*
X004187Y014071D01*
X004201Y014057D01*
X004218Y014045D01*
X004237Y014036D01*
X004257Y014030D01*
X004277Y014028D01*
X004277Y014033D01*
X004257Y014035D01*
X004238Y014041D01*
X004221Y014049D01*
X004205Y014061D01*
X004191Y014075D01*
X004179Y014091D01*
X004171Y014108D01*
X004165Y014127D01*
X004163Y014147D01*
X004168Y014147D01*
X004170Y014128D01*
X004175Y014110D01*
X004184Y014093D01*
X004194Y014078D01*
X004208Y014064D01*
X004223Y014054D01*
X004240Y014045D01*
X004258Y014040D01*
X004277Y014038D01*
X004277Y014043D01*
X004257Y014046D01*
X004238Y014052D01*
X004220Y014061D01*
X004204Y014074D01*
X004191Y014090D01*
X004182Y014108D01*
X004176Y014127D01*
X004173Y014147D01*
X004178Y014147D01*
X004180Y014128D01*
X004186Y014110D01*
X004196Y014093D01*
X004208Y014078D01*
X004223Y014066D01*
X004240Y014056D01*
X004258Y014050D01*
X004277Y014048D01*
X004277Y014053D01*
X004259Y014055D01*
X004241Y014061D01*
X004225Y014070D01*
X004211Y014081D01*
X004200Y014095D01*
X004191Y014111D01*
X004185Y014129D01*
X004183Y014147D01*
X004188Y014147D01*
X004190Y014130D01*
X004196Y014113D01*
X004204Y014098D01*
X004215Y014085D01*
X004228Y014074D01*
X004243Y014066D01*
X004260Y014060D01*
X004277Y014058D01*
X004277Y014063D01*
X004261Y014065D01*
X004245Y014070D01*
X004231Y014078D01*
X004218Y014088D01*
X004208Y014101D01*
X004200Y014115D01*
X004195Y014131D01*
X004193Y014147D01*
X004198Y014147D01*
X004201Y014130D01*
X004207Y014113D01*
X004216Y014099D01*
X004229Y014086D01*
X004243Y014077D01*
X004260Y014071D01*
X004277Y014068D01*
X004277Y014073D01*
X004261Y014075D01*
X004245Y014081D01*
X004232Y014090D01*
X004220Y014102D01*
X004211Y014115D01*
X004205Y014131D01*
X004203Y014147D01*
X004278Y014976D02*
X004278Y014922D01*
X004277Y014923D02*
X004262Y014921D01*
X004247Y014915D01*
X004234Y014907D01*
X004223Y014896D01*
X004215Y014883D01*
X004209Y014868D01*
X004207Y014853D01*
X004154Y014852D01*
X004153Y014853D01*
X004155Y014874D01*
X004161Y014895D01*
X004171Y014914D01*
X004183Y014932D01*
X004198Y014947D01*
X004216Y014959D01*
X004235Y014969D01*
X004256Y014975D01*
X004277Y014977D01*
X004277Y014972D01*
X004257Y014970D01*
X004237Y014964D01*
X004218Y014955D01*
X004201Y014943D01*
X004187Y014929D01*
X004175Y014912D01*
X004166Y014893D01*
X004160Y014873D01*
X004158Y014853D01*
X004163Y014853D01*
X004165Y014873D01*
X004171Y014892D01*
X004179Y014909D01*
X004191Y014925D01*
X004205Y014939D01*
X004221Y014951D01*
X004238Y014959D01*
X004257Y014965D01*
X004277Y014967D01*
X004277Y014962D01*
X004258Y014960D01*
X004240Y014955D01*
X004223Y014946D01*
X004208Y014936D01*
X004194Y014922D01*
X004184Y014907D01*
X004175Y014890D01*
X004170Y014872D01*
X004168Y014853D01*
X004173Y014853D01*
X004176Y014873D01*
X004182Y014892D01*
X004191Y014910D01*
X004204Y014926D01*
X004220Y014939D01*
X004238Y014948D01*
X004257Y014954D01*
X004277Y014957D01*
X004277Y014952D01*
X004258Y014950D01*
X004240Y014944D01*
X004223Y014934D01*
X004208Y014922D01*
X004196Y014907D01*
X004186Y014890D01*
X004180Y014872D01*
X004178Y014853D01*
X004183Y014853D01*
X004185Y014871D01*
X004191Y014889D01*
X004200Y014905D01*
X004211Y014919D01*
X004225Y014930D01*
X004241Y014939D01*
X004259Y014945D01*
X004277Y014947D01*
X004277Y014942D01*
X004260Y014940D01*
X004243Y014934D01*
X004228Y014926D01*
X004215Y014915D01*
X004204Y014902D01*
X004196Y014887D01*
X004190Y014870D01*
X004188Y014853D01*
X004193Y014853D01*
X004195Y014869D01*
X004200Y014885D01*
X004208Y014899D01*
X004218Y014912D01*
X004231Y014922D01*
X004245Y014930D01*
X004261Y014935D01*
X004277Y014937D01*
X004277Y014932D01*
X004260Y014929D01*
X004243Y014923D01*
X004229Y014914D01*
X004216Y014901D01*
X004207Y014887D01*
X004201Y014870D01*
X004198Y014853D01*
X004203Y014853D01*
X004205Y014869D01*
X004211Y014885D01*
X004220Y014898D01*
X004232Y014910D01*
X004245Y014919D01*
X004261Y014925D01*
X004277Y014927D01*
X004154Y015148D02*
X004208Y015148D01*
X004207Y015147D02*
X004209Y015132D01*
X004215Y015117D01*
X004223Y015104D01*
X004234Y015093D01*
X004247Y015085D01*
X004262Y015079D01*
X004277Y015077D01*
X004278Y015024D01*
X004277Y015023D01*
X004256Y015025D01*
X004235Y015031D01*
X004216Y015041D01*
X004198Y015053D01*
X004183Y015068D01*
X004171Y015086D01*
X004161Y015105D01*
X004155Y015126D01*
X004153Y015147D01*
X004158Y015147D01*
X004160Y015127D01*
X004166Y015107D01*
X004175Y015088D01*
X004187Y015071D01*
X004201Y015057D01*
X004218Y015045D01*
X004237Y015036D01*
X004257Y015030D01*
X004277Y015028D01*
X004277Y015033D01*
X004257Y015035D01*
X004238Y015041D01*
X004221Y015049D01*
X004205Y015061D01*
X004191Y015075D01*
X004179Y015091D01*
X004171Y015108D01*
X004165Y015127D01*
X004163Y015147D01*
X004168Y015147D01*
X004170Y015128D01*
X004175Y015110D01*
X004184Y015093D01*
X004194Y015078D01*
X004208Y015064D01*
X004223Y015054D01*
X004240Y015045D01*
X004258Y015040D01*
X004277Y015038D01*
X004277Y015043D01*
X004257Y015046D01*
X004238Y015052D01*
X004220Y015061D01*
X004204Y015074D01*
X004191Y015090D01*
X004182Y015108D01*
X004176Y015127D01*
X004173Y015147D01*
X004178Y015147D01*
X004180Y015128D01*
X004186Y015110D01*
X004196Y015093D01*
X004208Y015078D01*
X004223Y015066D01*
X004240Y015056D01*
X004258Y015050D01*
X004277Y015048D01*
X004277Y015053D01*
X004259Y015055D01*
X004241Y015061D01*
X004225Y015070D01*
X004211Y015081D01*
X004200Y015095D01*
X004191Y015111D01*
X004185Y015129D01*
X004183Y015147D01*
X004188Y015147D01*
X004190Y015130D01*
X004196Y015113D01*
X004204Y015098D01*
X004215Y015085D01*
X004228Y015074D01*
X004243Y015066D01*
X004260Y015060D01*
X004277Y015058D01*
X004277Y015063D01*
X004261Y015065D01*
X004245Y015070D01*
X004231Y015078D01*
X004218Y015088D01*
X004208Y015101D01*
X004200Y015115D01*
X004195Y015131D01*
X004193Y015147D01*
X004198Y015147D01*
X004201Y015130D01*
X004207Y015113D01*
X004216Y015099D01*
X004229Y015086D01*
X004243Y015077D01*
X004260Y015071D01*
X004277Y015068D01*
X004277Y015073D01*
X004261Y015075D01*
X004245Y015081D01*
X004232Y015090D01*
X004220Y015102D01*
X004211Y015115D01*
X004205Y015131D01*
X004203Y015147D01*
X004278Y015976D02*
X004278Y015922D01*
X004277Y015923D02*
X004262Y015921D01*
X004247Y015915D01*
X004234Y015907D01*
X004223Y015896D01*
X004215Y015883D01*
X004209Y015868D01*
X004207Y015853D01*
X004154Y015852D01*
X004153Y015853D01*
X004155Y015874D01*
X004161Y015895D01*
X004171Y015914D01*
X004183Y015932D01*
X004198Y015947D01*
X004216Y015959D01*
X004235Y015969D01*
X004256Y015975D01*
X004277Y015977D01*
X004277Y015972D01*
X004257Y015970D01*
X004237Y015964D01*
X004218Y015955D01*
X004201Y015943D01*
X004187Y015929D01*
X004175Y015912D01*
X004166Y015893D01*
X004160Y015873D01*
X004158Y015853D01*
X004163Y015853D01*
X004165Y015873D01*
X004171Y015892D01*
X004179Y015909D01*
X004191Y015925D01*
X004205Y015939D01*
X004221Y015951D01*
X004238Y015959D01*
X004257Y015965D01*
X004277Y015967D01*
X004277Y015962D01*
X004258Y015960D01*
X004240Y015955D01*
X004223Y015946D01*
X004208Y015936D01*
X004194Y015922D01*
X004184Y015907D01*
X004175Y015890D01*
X004170Y015872D01*
X004168Y015853D01*
X004173Y015853D01*
X004176Y015873D01*
X004182Y015892D01*
X004191Y015910D01*
X004204Y015926D01*
X004220Y015939D01*
X004238Y015948D01*
X004257Y015954D01*
X004277Y015957D01*
X004277Y015952D01*
X004258Y015950D01*
X004240Y015944D01*
X004223Y015934D01*
X004208Y015922D01*
X004196Y015907D01*
X004186Y015890D01*
X004180Y015872D01*
X004178Y015853D01*
X004183Y015853D01*
X004185Y015871D01*
X004191Y015889D01*
X004200Y015905D01*
X004211Y015919D01*
X004225Y015930D01*
X004241Y015939D01*
X004259Y015945D01*
X004277Y015947D01*
X004277Y015942D01*
X004260Y015940D01*
X004243Y015934D01*
X004228Y015926D01*
X004215Y015915D01*
X004204Y015902D01*
X004196Y015887D01*
X004190Y015870D01*
X004188Y015853D01*
X004193Y015853D01*
X004195Y015869D01*
X004200Y015885D01*
X004208Y015899D01*
X004218Y015912D01*
X004231Y015922D01*
X004245Y015930D01*
X004261Y015935D01*
X004277Y015937D01*
X004277Y015932D01*
X004260Y015929D01*
X004243Y015923D01*
X004229Y015914D01*
X004216Y015901D01*
X004207Y015887D01*
X004201Y015870D01*
X004198Y015853D01*
X004203Y015853D01*
X004205Y015869D01*
X004211Y015885D01*
X004220Y015898D01*
X004232Y015910D01*
X004245Y015919D01*
X004261Y015925D01*
X004277Y015927D01*
X004154Y016148D02*
X004208Y016148D01*
X004207Y016147D02*
X004209Y016132D01*
X004215Y016117D01*
X004223Y016104D01*
X004234Y016093D01*
X004247Y016085D01*
X004262Y016079D01*
X004277Y016077D01*
X004278Y016024D01*
X004277Y016023D01*
X004256Y016025D01*
X004235Y016031D01*
X004216Y016041D01*
X004198Y016053D01*
X004183Y016068D01*
X004171Y016086D01*
X004161Y016105D01*
X004155Y016126D01*
X004153Y016147D01*
X004158Y016147D01*
X004160Y016127D01*
X004166Y016107D01*
X004175Y016088D01*
X004187Y016071D01*
X004201Y016057D01*
X004218Y016045D01*
X004237Y016036D01*
X004257Y016030D01*
X004277Y016028D01*
X004277Y016033D01*
X004257Y016035D01*
X004238Y016041D01*
X004221Y016049D01*
X004205Y016061D01*
X004191Y016075D01*
X004179Y016091D01*
X004171Y016108D01*
X004165Y016127D01*
X004163Y016147D01*
X004168Y016147D01*
X004170Y016128D01*
X004175Y016110D01*
X004184Y016093D01*
X004194Y016078D01*
X004208Y016064D01*
X004223Y016054D01*
X004240Y016045D01*
X004258Y016040D01*
X004277Y016038D01*
X004277Y016043D01*
X004257Y016046D01*
X004238Y016052D01*
X004220Y016061D01*
X004204Y016074D01*
X004191Y016090D01*
X004182Y016108D01*
X004176Y016127D01*
X004173Y016147D01*
X004178Y016147D01*
X004180Y016128D01*
X004186Y016110D01*
X004196Y016093D01*
X004208Y016078D01*
X004223Y016066D01*
X004240Y016056D01*
X004258Y016050D01*
X004277Y016048D01*
X004277Y016053D01*
X004259Y016055D01*
X004241Y016061D01*
X004225Y016070D01*
X004211Y016081D01*
X004200Y016095D01*
X004191Y016111D01*
X004185Y016129D01*
X004183Y016147D01*
X004188Y016147D01*
X004190Y016130D01*
X004196Y016113D01*
X004204Y016098D01*
X004215Y016085D01*
X004228Y016074D01*
X004243Y016066D01*
X004260Y016060D01*
X004277Y016058D01*
X004277Y016063D01*
X004261Y016065D01*
X004245Y016070D01*
X004231Y016078D01*
X004218Y016088D01*
X004208Y016101D01*
X004200Y016115D01*
X004195Y016131D01*
X004193Y016147D01*
X004198Y016147D01*
X004201Y016130D01*
X004207Y016113D01*
X004216Y016099D01*
X004229Y016086D01*
X004243Y016077D01*
X004260Y016071D01*
X004277Y016068D01*
X004277Y016073D01*
X004261Y016075D01*
X004245Y016081D01*
X004232Y016090D01*
X004220Y016102D01*
X004211Y016115D01*
X004205Y016131D01*
X004203Y016147D01*
X004278Y016976D02*
X004278Y016922D01*
X004277Y016923D02*
X004262Y016921D01*
X004247Y016915D01*
X004234Y016907D01*
X004223Y016896D01*
X004215Y016883D01*
X004209Y016868D01*
X004207Y016853D01*
X004154Y016852D01*
X004153Y016853D01*
X004155Y016874D01*
X004161Y016895D01*
X004171Y016914D01*
X004183Y016932D01*
X004198Y016947D01*
X004216Y016959D01*
X004235Y016969D01*
X004256Y016975D01*
X004277Y016977D01*
X004277Y016972D01*
X004257Y016970D01*
X004237Y016964D01*
X004218Y016955D01*
X004201Y016943D01*
X004187Y016929D01*
X004175Y016912D01*
X004166Y016893D01*
X004160Y016873D01*
X004158Y016853D01*
X004163Y016853D01*
X004165Y016873D01*
X004171Y016892D01*
X004179Y016909D01*
X004191Y016925D01*
X004205Y016939D01*
X004221Y016951D01*
X004238Y016959D01*
X004257Y016965D01*
X004277Y016967D01*
X004277Y016962D01*
X004258Y016960D01*
X004240Y016955D01*
X004223Y016946D01*
X004208Y016936D01*
X004194Y016922D01*
X004184Y016907D01*
X004175Y016890D01*
X004170Y016872D01*
X004168Y016853D01*
X004173Y016853D01*
X004176Y016873D01*
X004182Y016892D01*
X004191Y016910D01*
X004204Y016926D01*
X004220Y016939D01*
X004238Y016948D01*
X004257Y016954D01*
X004277Y016957D01*
X004277Y016952D01*
X004258Y016950D01*
X004240Y016944D01*
X004223Y016934D01*
X004208Y016922D01*
X004196Y016907D01*
X004186Y016890D01*
X004180Y016872D01*
X004178Y016853D01*
X004183Y016853D01*
X004185Y016871D01*
X004191Y016889D01*
X004200Y016905D01*
X004211Y016919D01*
X004225Y016930D01*
X004241Y016939D01*
X004259Y016945D01*
X004277Y016947D01*
X004277Y016942D01*
X004260Y016940D01*
X004243Y016934D01*
X004228Y016926D01*
X004215Y016915D01*
X004204Y016902D01*
X004196Y016887D01*
X004190Y016870D01*
X004188Y016853D01*
X004193Y016853D01*
X004195Y016869D01*
X004200Y016885D01*
X004208Y016899D01*
X004218Y016912D01*
X004231Y016922D01*
X004245Y016930D01*
X004261Y016935D01*
X004277Y016937D01*
X004277Y016932D01*
X004260Y016929D01*
X004243Y016923D01*
X004229Y016914D01*
X004216Y016901D01*
X004207Y016887D01*
X004201Y016870D01*
X004198Y016853D01*
X004203Y016853D01*
X004205Y016869D01*
X004211Y016885D01*
X004220Y016898D01*
X004232Y016910D01*
X004245Y016919D01*
X004261Y016925D01*
X004277Y016927D01*
X004154Y017148D02*
X004208Y017148D01*
X004207Y017147D02*
X004209Y017132D01*
X004215Y017117D01*
X004223Y017104D01*
X004234Y017093D01*
X004247Y017085D01*
X004262Y017079D01*
X004277Y017077D01*
X004278Y017024D01*
X004277Y017023D01*
X004256Y017025D01*
X004235Y017031D01*
X004216Y017041D01*
X004198Y017053D01*
X004183Y017068D01*
X004171Y017086D01*
X004161Y017105D01*
X004155Y017126D01*
X004153Y017147D01*
X004158Y017147D01*
X004160Y017127D01*
X004166Y017107D01*
X004175Y017088D01*
X004187Y017071D01*
X004201Y017057D01*
X004218Y017045D01*
X004237Y017036D01*
X004257Y017030D01*
X004277Y017028D01*
X004277Y017033D01*
X004257Y017035D01*
X004238Y017041D01*
X004221Y017049D01*
X004205Y017061D01*
X004191Y017075D01*
X004179Y017091D01*
X004171Y017108D01*
X004165Y017127D01*
X004163Y017147D01*
X004168Y017147D01*
X004170Y017128D01*
X004175Y017110D01*
X004184Y017093D01*
X004194Y017078D01*
X004208Y017064D01*
X004223Y017054D01*
X004240Y017045D01*
X004258Y017040D01*
X004277Y017038D01*
X004277Y017043D01*
X004257Y017046D01*
X004238Y017052D01*
X004220Y017061D01*
X004204Y017074D01*
X004191Y017090D01*
X004182Y017108D01*
X004176Y017127D01*
X004173Y017147D01*
X004178Y017147D01*
X004180Y017128D01*
X004186Y017110D01*
X004196Y017093D01*
X004208Y017078D01*
X004223Y017066D01*
X004240Y017056D01*
X004258Y017050D01*
X004277Y017048D01*
X004277Y017053D01*
X004259Y017055D01*
X004241Y017061D01*
X004225Y017070D01*
X004211Y017081D01*
X004200Y017095D01*
X004191Y017111D01*
X004185Y017129D01*
X004183Y017147D01*
X004188Y017147D01*
X004190Y017130D01*
X004196Y017113D01*
X004204Y017098D01*
X004215Y017085D01*
X004228Y017074D01*
X004243Y017066D01*
X004260Y017060D01*
X004277Y017058D01*
X004277Y017063D01*
X004261Y017065D01*
X004245Y017070D01*
X004231Y017078D01*
X004218Y017088D01*
X004208Y017101D01*
X004200Y017115D01*
X004195Y017131D01*
X004193Y017147D01*
X004198Y017147D01*
X004201Y017130D01*
X004207Y017113D01*
X004216Y017099D01*
X004229Y017086D01*
X004243Y017077D01*
X004260Y017071D01*
X004277Y017068D01*
X004277Y017073D01*
X004261Y017075D01*
X004245Y017081D01*
X004232Y017090D01*
X004220Y017102D01*
X004211Y017115D01*
X004205Y017131D01*
X004203Y017147D01*
X004278Y017976D02*
X004278Y017922D01*
X004277Y017923D02*
X004262Y017921D01*
X004247Y017915D01*
X004234Y017907D01*
X004223Y017896D01*
X004215Y017883D01*
X004209Y017868D01*
X004207Y017853D01*
X004154Y017852D01*
X004153Y017853D01*
X004155Y017874D01*
X004161Y017895D01*
X004171Y017914D01*
X004183Y017932D01*
X004198Y017947D01*
X004216Y017959D01*
X004235Y017969D01*
X004256Y017975D01*
X004277Y017977D01*
X004277Y017972D01*
X004257Y017970D01*
X004237Y017964D01*
X004218Y017955D01*
X004201Y017943D01*
X004187Y017929D01*
X004175Y017912D01*
X004166Y017893D01*
X004160Y017873D01*
X004158Y017853D01*
X004163Y017853D01*
X004165Y017873D01*
X004171Y017892D01*
X004179Y017909D01*
X004191Y017925D01*
X004205Y017939D01*
X004221Y017951D01*
X004238Y017959D01*
X004257Y017965D01*
X004277Y017967D01*
X004277Y017962D01*
X004258Y017960D01*
X004240Y017955D01*
X004223Y017946D01*
X004208Y017936D01*
X004194Y017922D01*
X004184Y017907D01*
X004175Y017890D01*
X004170Y017872D01*
X004168Y017853D01*
X004173Y017853D01*
X004176Y017873D01*
X004182Y017892D01*
X004191Y017910D01*
X004204Y017926D01*
X004220Y017939D01*
X004238Y017948D01*
X004257Y017954D01*
X004277Y017957D01*
X004277Y017952D01*
X004258Y017950D01*
X004240Y017944D01*
X004223Y017934D01*
X004208Y017922D01*
X004196Y017907D01*
X004186Y017890D01*
X004180Y017872D01*
X004178Y017853D01*
X004183Y017853D01*
X004185Y017871D01*
X004191Y017889D01*
X004200Y017905D01*
X004211Y017919D01*
X004225Y017930D01*
X004241Y017939D01*
X004259Y017945D01*
X004277Y017947D01*
X004277Y017942D01*
X004260Y017940D01*
X004243Y017934D01*
X004228Y017926D01*
X004215Y017915D01*
X004204Y017902D01*
X004196Y017887D01*
X004190Y017870D01*
X004188Y017853D01*
X004193Y017853D01*
X004195Y017869D01*
X004200Y017885D01*
X004208Y017899D01*
X004218Y017912D01*
X004231Y017922D01*
X004245Y017930D01*
X004261Y017935D01*
X004277Y017937D01*
X004277Y017932D01*
X004260Y017929D01*
X004243Y017923D01*
X004229Y017914D01*
X004216Y017901D01*
X004207Y017887D01*
X004201Y017870D01*
X004198Y017853D01*
X004203Y017853D01*
X004205Y017869D01*
X004211Y017885D01*
X004220Y017898D01*
X004232Y017910D01*
X004245Y017919D01*
X004261Y017925D01*
X004277Y017927D01*
X004154Y018148D02*
X004208Y018148D01*
X004207Y018147D02*
X004209Y018132D01*
X004215Y018117D01*
X004223Y018104D01*
X004234Y018093D01*
X004247Y018085D01*
X004262Y018079D01*
X004277Y018077D01*
X004278Y018024D01*
X004277Y018023D01*
X004256Y018025D01*
X004235Y018031D01*
X004216Y018041D01*
X004198Y018053D01*
X004183Y018068D01*
X004171Y018086D01*
X004161Y018105D01*
X004155Y018126D01*
X004153Y018147D01*
X004158Y018147D01*
X004160Y018127D01*
X004166Y018107D01*
X004175Y018088D01*
X004187Y018071D01*
X004201Y018057D01*
X004218Y018045D01*
X004237Y018036D01*
X004257Y018030D01*
X004277Y018028D01*
X004277Y018033D01*
X004257Y018035D01*
X004238Y018041D01*
X004221Y018049D01*
X004205Y018061D01*
X004191Y018075D01*
X004179Y018091D01*
X004171Y018108D01*
X004165Y018127D01*
X004163Y018147D01*
X004168Y018147D01*
X004170Y018128D01*
X004175Y018110D01*
X004184Y018093D01*
X004194Y018078D01*
X004208Y018064D01*
X004223Y018054D01*
X004240Y018045D01*
X004258Y018040D01*
X004277Y018038D01*
X004277Y018043D01*
X004257Y018046D01*
X004238Y018052D01*
X004220Y018061D01*
X004204Y018074D01*
X004191Y018090D01*
X004182Y018108D01*
X004176Y018127D01*
X004173Y018147D01*
X004178Y018147D01*
X004180Y018128D01*
X004186Y018110D01*
X004196Y018093D01*
X004208Y018078D01*
X004223Y018066D01*
X004240Y018056D01*
X004258Y018050D01*
X004277Y018048D01*
X004277Y018053D01*
X004259Y018055D01*
X004241Y018061D01*
X004225Y018070D01*
X004211Y018081D01*
X004200Y018095D01*
X004191Y018111D01*
X004185Y018129D01*
X004183Y018147D01*
X004188Y018147D01*
X004190Y018130D01*
X004196Y018113D01*
X004204Y018098D01*
X004215Y018085D01*
X004228Y018074D01*
X004243Y018066D01*
X004260Y018060D01*
X004277Y018058D01*
X004277Y018063D01*
X004261Y018065D01*
X004245Y018070D01*
X004231Y018078D01*
X004218Y018088D01*
X004208Y018101D01*
X004200Y018115D01*
X004195Y018131D01*
X004193Y018147D01*
X004198Y018147D01*
X004201Y018130D01*
X004207Y018113D01*
X004216Y018099D01*
X004229Y018086D01*
X004243Y018077D01*
X004260Y018071D01*
X004277Y018068D01*
X004277Y018073D01*
X004261Y018075D01*
X004245Y018081D01*
X004232Y018090D01*
X004220Y018102D01*
X004211Y018115D01*
X004205Y018131D01*
X004203Y018147D01*
X004278Y018976D02*
X004278Y018922D01*
X004277Y018923D02*
X004262Y018921D01*
X004247Y018915D01*
X004234Y018907D01*
X004223Y018896D01*
X004215Y018883D01*
X004209Y018868D01*
X004207Y018853D01*
X004154Y018852D01*
X004153Y018853D01*
X004155Y018874D01*
X004161Y018895D01*
X004171Y018914D01*
X004183Y018932D01*
X004198Y018947D01*
X004216Y018959D01*
X004235Y018969D01*
X004256Y018975D01*
X004277Y018977D01*
X004277Y018972D01*
X004257Y018970D01*
X004237Y018964D01*
X004218Y018955D01*
X004201Y018943D01*
X004187Y018929D01*
X004175Y018912D01*
X004166Y018893D01*
X004160Y018873D01*
X004158Y018853D01*
X004163Y018853D01*
X004165Y018873D01*
X004171Y018892D01*
X004179Y018909D01*
X004191Y018925D01*
X004205Y018939D01*
X004221Y018951D01*
X004238Y018959D01*
X004257Y018965D01*
X004277Y018967D01*
X004277Y018962D01*
X004258Y018960D01*
X004240Y018955D01*
X004223Y018946D01*
X004208Y018936D01*
X004194Y018922D01*
X004184Y018907D01*
X004175Y018890D01*
X004170Y018872D01*
X004168Y018853D01*
X004173Y018853D01*
X004176Y018873D01*
X004182Y018892D01*
X004191Y018910D01*
X004204Y018926D01*
X004220Y018939D01*
X004238Y018948D01*
X004257Y018954D01*
X004277Y018957D01*
X004277Y018952D01*
X004258Y018950D01*
X004240Y018944D01*
X004223Y018934D01*
X004208Y018922D01*
X004196Y018907D01*
X004186Y018890D01*
X004180Y018872D01*
X004178Y018853D01*
X004183Y018853D01*
X004185Y018871D01*
X004191Y018889D01*
X004200Y018905D01*
X004211Y018919D01*
X004225Y018930D01*
X004241Y018939D01*
X004259Y018945D01*
X004277Y018947D01*
X004277Y018942D01*
X004260Y018940D01*
X004243Y018934D01*
X004228Y018926D01*
X004215Y018915D01*
X004204Y018902D01*
X004196Y018887D01*
X004190Y018870D01*
X004188Y018853D01*
X004193Y018853D01*
X004195Y018869D01*
X004200Y018885D01*
X004208Y018899D01*
X004218Y018912D01*
X004231Y018922D01*
X004245Y018930D01*
X004261Y018935D01*
X004277Y018937D01*
X004277Y018932D01*
X004260Y018929D01*
X004243Y018923D01*
X004229Y018914D01*
X004216Y018901D01*
X004207Y018887D01*
X004201Y018870D01*
X004198Y018853D01*
X004203Y018853D01*
X004205Y018869D01*
X004211Y018885D01*
X004220Y018898D01*
X004232Y018910D01*
X004245Y018919D01*
X004261Y018925D01*
X004277Y018927D01*
X004154Y019148D02*
X004208Y019148D01*
X004207Y019147D02*
X004209Y019132D01*
X004215Y019117D01*
X004223Y019104D01*
X004234Y019093D01*
X004247Y019085D01*
X004262Y019079D01*
X004277Y019077D01*
X004278Y019024D01*
X004277Y019023D01*
X004256Y019025D01*
X004235Y019031D01*
X004216Y019041D01*
X004198Y019053D01*
X004183Y019068D01*
X004171Y019086D01*
X004161Y019105D01*
X004155Y019126D01*
X004153Y019147D01*
X004158Y019147D01*
X004160Y019127D01*
X004166Y019107D01*
X004175Y019088D01*
X004187Y019071D01*
X004201Y019057D01*
X004218Y019045D01*
X004237Y019036D01*
X004257Y019030D01*
X004277Y019028D01*
X004277Y019033D01*
X004257Y019035D01*
X004238Y019041D01*
X004221Y019049D01*
X004205Y019061D01*
X004191Y019075D01*
X004179Y019091D01*
X004171Y019108D01*
X004165Y019127D01*
X004163Y019147D01*
X004168Y019147D01*
X004170Y019128D01*
X004175Y019110D01*
X004184Y019093D01*
X004194Y019078D01*
X004208Y019064D01*
X004223Y019054D01*
X004240Y019045D01*
X004258Y019040D01*
X004277Y019038D01*
X004277Y019043D01*
X004257Y019046D01*
X004238Y019052D01*
X004220Y019061D01*
X004204Y019074D01*
X004191Y019090D01*
X004182Y019108D01*
X004176Y019127D01*
X004173Y019147D01*
X004178Y019147D01*
X004180Y019128D01*
X004186Y019110D01*
X004196Y019093D01*
X004208Y019078D01*
X004223Y019066D01*
X004240Y019056D01*
X004258Y019050D01*
X004277Y019048D01*
X004277Y019053D01*
X004259Y019055D01*
X004241Y019061D01*
X004225Y019070D01*
X004211Y019081D01*
X004200Y019095D01*
X004191Y019111D01*
X004185Y019129D01*
X004183Y019147D01*
X004188Y019147D01*
X004190Y019130D01*
X004196Y019113D01*
X004204Y019098D01*
X004215Y019085D01*
X004228Y019074D01*
X004243Y019066D01*
X004260Y019060D01*
X004277Y019058D01*
X004277Y019063D01*
X004261Y019065D01*
X004245Y019070D01*
X004231Y019078D01*
X004218Y019088D01*
X004208Y019101D01*
X004200Y019115D01*
X004195Y019131D01*
X004193Y019147D01*
X004198Y019147D01*
X004201Y019130D01*
X004207Y019113D01*
X004216Y019099D01*
X004229Y019086D01*
X004243Y019077D01*
X004260Y019071D01*
X004277Y019068D01*
X004277Y019073D01*
X004261Y019075D01*
X004245Y019081D01*
X004232Y019090D01*
X004220Y019102D01*
X004211Y019115D01*
X004205Y019131D01*
X004203Y019147D01*
X004278Y019976D02*
X004278Y019922D01*
X004277Y019923D02*
X004262Y019921D01*
X004247Y019915D01*
X004234Y019907D01*
X004223Y019896D01*
X004215Y019883D01*
X004209Y019868D01*
X004207Y019853D01*
X004154Y019852D01*
X004153Y019853D01*
X004155Y019874D01*
X004161Y019895D01*
X004171Y019914D01*
X004183Y019932D01*
X004198Y019947D01*
X004216Y019959D01*
X004235Y019969D01*
X004256Y019975D01*
X004277Y019977D01*
X004277Y019972D01*
X004257Y019970D01*
X004237Y019964D01*
X004218Y019955D01*
X004201Y019943D01*
X004187Y019929D01*
X004175Y019912D01*
X004166Y019893D01*
X004160Y019873D01*
X004158Y019853D01*
X004163Y019853D01*
X004165Y019873D01*
X004171Y019892D01*
X004179Y019909D01*
X004191Y019925D01*
X004205Y019939D01*
X004221Y019951D01*
X004238Y019959D01*
X004257Y019965D01*
X004277Y019967D01*
X004277Y019962D01*
X004258Y019960D01*
X004240Y019955D01*
X004223Y019946D01*
X004208Y019936D01*
X004194Y019922D01*
X004184Y019907D01*
X004175Y019890D01*
X004170Y019872D01*
X004168Y019853D01*
X004173Y019853D01*
X004176Y019873D01*
X004182Y019892D01*
X004191Y019910D01*
X004204Y019926D01*
X004220Y019939D01*
X004238Y019948D01*
X004257Y019954D01*
X004277Y019957D01*
X004277Y019952D01*
X004258Y019950D01*
X004240Y019944D01*
X004223Y019934D01*
X004208Y019922D01*
X004196Y019907D01*
X004186Y019890D01*
X004180Y019872D01*
X004178Y019853D01*
X004183Y019853D01*
X004185Y019871D01*
X004191Y019889D01*
X004200Y019905D01*
X004211Y019919D01*
X004225Y019930D01*
X004241Y019939D01*
X004259Y019945D01*
X004277Y019947D01*
X004277Y019942D01*
X004260Y019940D01*
X004243Y019934D01*
X004228Y019926D01*
X004215Y019915D01*
X004204Y019902D01*
X004196Y019887D01*
X004190Y019870D01*
X004188Y019853D01*
X004193Y019853D01*
X004195Y019869D01*
X004200Y019885D01*
X004208Y019899D01*
X004218Y019912D01*
X004231Y019922D01*
X004245Y019930D01*
X004261Y019935D01*
X004277Y019937D01*
X004277Y019932D01*
X004260Y019929D01*
X004243Y019923D01*
X004229Y019914D01*
X004216Y019901D01*
X004207Y019887D01*
X004201Y019870D01*
X004198Y019853D01*
X004203Y019853D01*
X004205Y019869D01*
X004211Y019885D01*
X004220Y019898D01*
X004232Y019910D01*
X004245Y019919D01*
X004261Y019925D01*
X004277Y019927D01*
X006706Y019852D02*
X006652Y019852D01*
X006653Y019853D02*
X006651Y019868D01*
X006645Y019883D01*
X006637Y019896D01*
X006626Y019907D01*
X006613Y019915D01*
X006598Y019921D01*
X006583Y019923D01*
X006582Y019976D01*
X006583Y019977D01*
X006604Y019975D01*
X006625Y019969D01*
X006644Y019959D01*
X006662Y019947D01*
X006677Y019932D01*
X006689Y019914D01*
X006699Y019895D01*
X006705Y019874D01*
X006707Y019853D01*
X006702Y019853D01*
X006700Y019873D01*
X006694Y019893D01*
X006685Y019912D01*
X006673Y019929D01*
X006659Y019943D01*
X006642Y019955D01*
X006623Y019964D01*
X006603Y019970D01*
X006583Y019972D01*
X006583Y019967D01*
X006603Y019965D01*
X006622Y019959D01*
X006639Y019951D01*
X006655Y019939D01*
X006669Y019925D01*
X006681Y019909D01*
X006689Y019892D01*
X006695Y019873D01*
X006697Y019853D01*
X006692Y019853D01*
X006690Y019872D01*
X006685Y019890D01*
X006676Y019907D01*
X006666Y019922D01*
X006652Y019936D01*
X006637Y019946D01*
X006620Y019955D01*
X006602Y019960D01*
X006583Y019962D01*
X006583Y019957D01*
X006603Y019954D01*
X006622Y019948D01*
X006640Y019939D01*
X006656Y019926D01*
X006669Y019910D01*
X006678Y019892D01*
X006684Y019873D01*
X006687Y019853D01*
X006682Y019853D01*
X006680Y019872D01*
X006674Y019890D01*
X006664Y019907D01*
X006652Y019922D01*
X006637Y019934D01*
X006620Y019944D01*
X006602Y019950D01*
X006583Y019952D01*
X006583Y019947D01*
X006601Y019945D01*
X006619Y019939D01*
X006635Y019930D01*
X006649Y019919D01*
X006660Y019905D01*
X006669Y019889D01*
X006675Y019871D01*
X006677Y019853D01*
X006672Y019853D01*
X006670Y019870D01*
X006664Y019887D01*
X006656Y019902D01*
X006645Y019915D01*
X006632Y019926D01*
X006617Y019934D01*
X006600Y019940D01*
X006583Y019942D01*
X006583Y019937D01*
X006599Y019935D01*
X006615Y019930D01*
X006629Y019922D01*
X006642Y019912D01*
X006652Y019899D01*
X006660Y019885D01*
X006665Y019869D01*
X006667Y019853D01*
X006662Y019853D01*
X006659Y019870D01*
X006653Y019887D01*
X006644Y019901D01*
X006631Y019914D01*
X006617Y019923D01*
X006600Y019929D01*
X006583Y019932D01*
X006583Y019927D01*
X006599Y019925D01*
X006615Y019919D01*
X006628Y019910D01*
X006640Y019898D01*
X006649Y019885D01*
X006655Y019869D01*
X006657Y019853D01*
X006582Y019024D02*
X006582Y019078D01*
X006583Y019077D02*
X006598Y019079D01*
X006613Y019085D01*
X006626Y019093D01*
X006637Y019104D01*
X006645Y019117D01*
X006651Y019132D01*
X006653Y019147D01*
X006706Y019148D01*
X006707Y019147D01*
X006705Y019126D01*
X006699Y019105D01*
X006689Y019086D01*
X006677Y019068D01*
X006662Y019053D01*
X006644Y019041D01*
X006625Y019031D01*
X006604Y019025D01*
X006583Y019023D01*
X006583Y019028D01*
X006603Y019030D01*
X006623Y019036D01*
X006642Y019045D01*
X006659Y019057D01*
X006673Y019071D01*
X006685Y019088D01*
X006694Y019107D01*
X006700Y019127D01*
X006702Y019147D01*
X006697Y019147D01*
X006695Y019127D01*
X006689Y019108D01*
X006681Y019091D01*
X006669Y019075D01*
X006655Y019061D01*
X006639Y019049D01*
X006622Y019041D01*
X006603Y019035D01*
X006583Y019033D01*
X006583Y019038D01*
X006602Y019040D01*
X006620Y019045D01*
X006637Y019054D01*
X006652Y019064D01*
X006666Y019078D01*
X006676Y019093D01*
X006685Y019110D01*
X006690Y019128D01*
X006692Y019147D01*
X006687Y019147D01*
X006684Y019127D01*
X006678Y019108D01*
X006669Y019090D01*
X006656Y019074D01*
X006640Y019061D01*
X006622Y019052D01*
X006603Y019046D01*
X006583Y019043D01*
X006583Y019048D01*
X006602Y019050D01*
X006620Y019056D01*
X006637Y019066D01*
X006652Y019078D01*
X006664Y019093D01*
X006674Y019110D01*
X006680Y019128D01*
X006682Y019147D01*
X006677Y019147D01*
X006675Y019129D01*
X006669Y019111D01*
X006660Y019095D01*
X006649Y019081D01*
X006635Y019070D01*
X006619Y019061D01*
X006601Y019055D01*
X006583Y019053D01*
X006583Y019058D01*
X006600Y019060D01*
X006617Y019066D01*
X006632Y019074D01*
X006645Y019085D01*
X006656Y019098D01*
X006664Y019113D01*
X006670Y019130D01*
X006672Y019147D01*
X006667Y019147D01*
X006665Y019131D01*
X006660Y019115D01*
X006652Y019101D01*
X006642Y019088D01*
X006629Y019078D01*
X006615Y019070D01*
X006599Y019065D01*
X006583Y019063D01*
X006583Y019068D01*
X006600Y019071D01*
X006617Y019077D01*
X006631Y019086D01*
X006644Y019099D01*
X006653Y019113D01*
X006659Y019130D01*
X006662Y019147D01*
X006657Y019147D01*
X006655Y019131D01*
X006649Y019115D01*
X006640Y019102D01*
X006628Y019090D01*
X006615Y019081D01*
X006599Y019075D01*
X006583Y019073D01*
X006706Y018852D02*
X006652Y018852D01*
X006653Y018853D02*
X006651Y018868D01*
X006645Y018883D01*
X006637Y018896D01*
X006626Y018907D01*
X006613Y018915D01*
X006598Y018921D01*
X006583Y018923D01*
X006582Y018976D01*
X006583Y018977D01*
X006604Y018975D01*
X006625Y018969D01*
X006644Y018959D01*
X006662Y018947D01*
X006677Y018932D01*
X006689Y018914D01*
X006699Y018895D01*
X006705Y018874D01*
X006707Y018853D01*
X006702Y018853D01*
X006700Y018873D01*
X006694Y018893D01*
X006685Y018912D01*
X006673Y018929D01*
X006659Y018943D01*
X006642Y018955D01*
X006623Y018964D01*
X006603Y018970D01*
X006583Y018972D01*
X006583Y018967D01*
X006603Y018965D01*
X006622Y018959D01*
X006639Y018951D01*
X006655Y018939D01*
X006669Y018925D01*
X006681Y018909D01*
X006689Y018892D01*
X006695Y018873D01*
X006697Y018853D01*
X006692Y018853D01*
X006690Y018872D01*
X006685Y018890D01*
X006676Y018907D01*
X006666Y018922D01*
X006652Y018936D01*
X006637Y018946D01*
X006620Y018955D01*
X006602Y018960D01*
X006583Y018962D01*
X006583Y018957D01*
X006603Y018954D01*
X006622Y018948D01*
X006640Y018939D01*
X006656Y018926D01*
X006669Y018910D01*
X006678Y018892D01*
X006684Y018873D01*
X006687Y018853D01*
X006682Y018853D01*
X006680Y018872D01*
X006674Y018890D01*
X006664Y018907D01*
X006652Y018922D01*
X006637Y018934D01*
X006620Y018944D01*
X006602Y018950D01*
X006583Y018952D01*
X006583Y018947D01*
X006601Y018945D01*
X006619Y018939D01*
X006635Y018930D01*
X006649Y018919D01*
X006660Y018905D01*
X006669Y018889D01*
X006675Y018871D01*
X006677Y018853D01*
X006672Y018853D01*
X006670Y018870D01*
X006664Y018887D01*
X006656Y018902D01*
X006645Y018915D01*
X006632Y018926D01*
X006617Y018934D01*
X006600Y018940D01*
X006583Y018942D01*
X006583Y018937D01*
X006599Y018935D01*
X006615Y018930D01*
X006629Y018922D01*
X006642Y018912D01*
X006652Y018899D01*
X006660Y018885D01*
X006665Y018869D01*
X006667Y018853D01*
X006662Y018853D01*
X006659Y018870D01*
X006653Y018887D01*
X006644Y018901D01*
X006631Y018914D01*
X006617Y018923D01*
X006600Y018929D01*
X006583Y018932D01*
X006583Y018927D01*
X006599Y018925D01*
X006615Y018919D01*
X006628Y018910D01*
X006640Y018898D01*
X006649Y018885D01*
X006655Y018869D01*
X006657Y018853D01*
X006582Y018024D02*
X006582Y018078D01*
X006583Y018077D02*
X006598Y018079D01*
X006613Y018085D01*
X006626Y018093D01*
X006637Y018104D01*
X006645Y018117D01*
X006651Y018132D01*
X006653Y018147D01*
X006706Y018148D01*
X006707Y018147D01*
X006705Y018126D01*
X006699Y018105D01*
X006689Y018086D01*
X006677Y018068D01*
X006662Y018053D01*
X006644Y018041D01*
X006625Y018031D01*
X006604Y018025D01*
X006583Y018023D01*
X006583Y018028D01*
X006603Y018030D01*
X006623Y018036D01*
X006642Y018045D01*
X006659Y018057D01*
X006673Y018071D01*
X006685Y018088D01*
X006694Y018107D01*
X006700Y018127D01*
X006702Y018147D01*
X006697Y018147D01*
X006695Y018127D01*
X006689Y018108D01*
X006681Y018091D01*
X006669Y018075D01*
X006655Y018061D01*
X006639Y018049D01*
X006622Y018041D01*
X006603Y018035D01*
X006583Y018033D01*
X006583Y018038D01*
X006602Y018040D01*
X006620Y018045D01*
X006637Y018054D01*
X006652Y018064D01*
X006666Y018078D01*
X006676Y018093D01*
X006685Y018110D01*
X006690Y018128D01*
X006692Y018147D01*
X006687Y018147D01*
X006684Y018127D01*
X006678Y018108D01*
X006669Y018090D01*
X006656Y018074D01*
X006640Y018061D01*
X006622Y018052D01*
X006603Y018046D01*
X006583Y018043D01*
X006583Y018048D01*
X006602Y018050D01*
X006620Y018056D01*
X006637Y018066D01*
X006652Y018078D01*
X006664Y018093D01*
X006674Y018110D01*
X006680Y018128D01*
X006682Y018147D01*
X006677Y018147D01*
X006675Y018129D01*
X006669Y018111D01*
X006660Y018095D01*
X006649Y018081D01*
X006635Y018070D01*
X006619Y018061D01*
X006601Y018055D01*
X006583Y018053D01*
X006583Y018058D01*
X006600Y018060D01*
X006617Y018066D01*
X006632Y018074D01*
X006645Y018085D01*
X006656Y018098D01*
X006664Y018113D01*
X006670Y018130D01*
X006672Y018147D01*
X006667Y018147D01*
X006665Y018131D01*
X006660Y018115D01*
X006652Y018101D01*
X006642Y018088D01*
X006629Y018078D01*
X006615Y018070D01*
X006599Y018065D01*
X006583Y018063D01*
X006583Y018068D01*
X006600Y018071D01*
X006617Y018077D01*
X006631Y018086D01*
X006644Y018099D01*
X006653Y018113D01*
X006659Y018130D01*
X006662Y018147D01*
X006657Y018147D01*
X006655Y018131D01*
X006649Y018115D01*
X006640Y018102D01*
X006628Y018090D01*
X006615Y018081D01*
X006599Y018075D01*
X006583Y018073D01*
X006706Y017852D02*
X006652Y017852D01*
X006653Y017853D02*
X006651Y017868D01*
X006645Y017883D01*
X006637Y017896D01*
X006626Y017907D01*
X006613Y017915D01*
X006598Y017921D01*
X006583Y017923D01*
X006582Y017976D01*
X006583Y017977D01*
X006604Y017975D01*
X006625Y017969D01*
X006644Y017959D01*
X006662Y017947D01*
X006677Y017932D01*
X006689Y017914D01*
X006699Y017895D01*
X006705Y017874D01*
X006707Y017853D01*
X006702Y017853D01*
X006700Y017873D01*
X006694Y017893D01*
X006685Y017912D01*
X006673Y017929D01*
X006659Y017943D01*
X006642Y017955D01*
X006623Y017964D01*
X006603Y017970D01*
X006583Y017972D01*
X006583Y017967D01*
X006603Y017965D01*
X006622Y017959D01*
X006639Y017951D01*
X006655Y017939D01*
X006669Y017925D01*
X006681Y017909D01*
X006689Y017892D01*
X006695Y017873D01*
X006697Y017853D01*
X006692Y017853D01*
X006690Y017872D01*
X006685Y017890D01*
X006676Y017907D01*
X006666Y017922D01*
X006652Y017936D01*
X006637Y017946D01*
X006620Y017955D01*
X006602Y017960D01*
X006583Y017962D01*
X006583Y017957D01*
X006603Y017954D01*
X006622Y017948D01*
X006640Y017939D01*
X006656Y017926D01*
X006669Y017910D01*
X006678Y017892D01*
X006684Y017873D01*
X006687Y017853D01*
X006682Y017853D01*
X006680Y017872D01*
X006674Y017890D01*
X006664Y017907D01*
X006652Y017922D01*
X006637Y017934D01*
X006620Y017944D01*
X006602Y017950D01*
X006583Y017952D01*
X006583Y017947D01*
X006601Y017945D01*
X006619Y017939D01*
X006635Y017930D01*
X006649Y017919D01*
X006660Y017905D01*
X006669Y017889D01*
X006675Y017871D01*
X006677Y017853D01*
X006672Y017853D01*
X006670Y017870D01*
X006664Y017887D01*
X006656Y017902D01*
X006645Y017915D01*
X006632Y017926D01*
X006617Y017934D01*
X006600Y017940D01*
X006583Y017942D01*
X006583Y017937D01*
X006599Y017935D01*
X006615Y017930D01*
X006629Y017922D01*
X006642Y017912D01*
X006652Y017899D01*
X006660Y017885D01*
X006665Y017869D01*
X006667Y017853D01*
X006662Y017853D01*
X006659Y017870D01*
X006653Y017887D01*
X006644Y017901D01*
X006631Y017914D01*
X006617Y017923D01*
X006600Y017929D01*
X006583Y017932D01*
X006583Y017927D01*
X006599Y017925D01*
X006615Y017919D01*
X006628Y017910D01*
X006640Y017898D01*
X006649Y017885D01*
X006655Y017869D01*
X006657Y017853D01*
X006582Y017024D02*
X006582Y017078D01*
X006583Y017077D02*
X006598Y017079D01*
X006613Y017085D01*
X006626Y017093D01*
X006637Y017104D01*
X006645Y017117D01*
X006651Y017132D01*
X006653Y017147D01*
X006706Y017148D01*
X006707Y017147D01*
X006705Y017126D01*
X006699Y017105D01*
X006689Y017086D01*
X006677Y017068D01*
X006662Y017053D01*
X006644Y017041D01*
X006625Y017031D01*
X006604Y017025D01*
X006583Y017023D01*
X006583Y017028D01*
X006603Y017030D01*
X006623Y017036D01*
X006642Y017045D01*
X006659Y017057D01*
X006673Y017071D01*
X006685Y017088D01*
X006694Y017107D01*
X006700Y017127D01*
X006702Y017147D01*
X006697Y017147D01*
X006695Y017127D01*
X006689Y017108D01*
X006681Y017091D01*
X006669Y017075D01*
X006655Y017061D01*
X006639Y017049D01*
X006622Y017041D01*
X006603Y017035D01*
X006583Y017033D01*
X006583Y017038D01*
X006602Y017040D01*
X006620Y017045D01*
X006637Y017054D01*
X006652Y017064D01*
X006666Y017078D01*
X006676Y017093D01*
X006685Y017110D01*
X006690Y017128D01*
X006692Y017147D01*
X006687Y017147D01*
X006684Y017127D01*
X006678Y017108D01*
X006669Y017090D01*
X006656Y017074D01*
X006640Y017061D01*
X006622Y017052D01*
X006603Y017046D01*
X006583Y017043D01*
X006583Y017048D01*
X006602Y017050D01*
X006620Y017056D01*
X006637Y017066D01*
X006652Y017078D01*
X006664Y017093D01*
X006674Y017110D01*
X006680Y017128D01*
X006682Y017147D01*
X006677Y017147D01*
X006675Y017129D01*
X006669Y017111D01*
X006660Y017095D01*
X006649Y017081D01*
X006635Y017070D01*
X006619Y017061D01*
X006601Y017055D01*
X006583Y017053D01*
X006583Y017058D01*
X006600Y017060D01*
X006617Y017066D01*
X006632Y017074D01*
X006645Y017085D01*
X006656Y017098D01*
X006664Y017113D01*
X006670Y017130D01*
X006672Y017147D01*
X006667Y017147D01*
X006665Y017131D01*
X006660Y017115D01*
X006652Y017101D01*
X006642Y017088D01*
X006629Y017078D01*
X006615Y017070D01*
X006599Y017065D01*
X006583Y017063D01*
X006583Y017068D01*
X006600Y017071D01*
X006617Y017077D01*
X006631Y017086D01*
X006644Y017099D01*
X006653Y017113D01*
X006659Y017130D01*
X006662Y017147D01*
X006657Y017147D01*
X006655Y017131D01*
X006649Y017115D01*
X006640Y017102D01*
X006628Y017090D01*
X006615Y017081D01*
X006599Y017075D01*
X006583Y017073D01*
X006706Y016852D02*
X006652Y016852D01*
X006653Y016853D02*
X006651Y016868D01*
X006645Y016883D01*
X006637Y016896D01*
X006626Y016907D01*
X006613Y016915D01*
X006598Y016921D01*
X006583Y016923D01*
X006582Y016976D01*
X006583Y016977D01*
X006604Y016975D01*
X006625Y016969D01*
X006644Y016959D01*
X006662Y016947D01*
X006677Y016932D01*
X006689Y016914D01*
X006699Y016895D01*
X006705Y016874D01*
X006707Y016853D01*
X006702Y016853D01*
X006700Y016873D01*
X006694Y016893D01*
X006685Y016912D01*
X006673Y016929D01*
X006659Y016943D01*
X006642Y016955D01*
X006623Y016964D01*
X006603Y016970D01*
X006583Y016972D01*
X006583Y016967D01*
X006603Y016965D01*
X006622Y016959D01*
X006639Y016951D01*
X006655Y016939D01*
X006669Y016925D01*
X006681Y016909D01*
X006689Y016892D01*
X006695Y016873D01*
X006697Y016853D01*
X006692Y016853D01*
X006690Y016872D01*
X006685Y016890D01*
X006676Y016907D01*
X006666Y016922D01*
X006652Y016936D01*
X006637Y016946D01*
X006620Y016955D01*
X006602Y016960D01*
X006583Y016962D01*
X006583Y016957D01*
X006603Y016954D01*
X006622Y016948D01*
X006640Y016939D01*
X006656Y016926D01*
X006669Y016910D01*
X006678Y016892D01*
X006684Y016873D01*
X006687Y016853D01*
X006682Y016853D01*
X006680Y016872D01*
X006674Y016890D01*
X006664Y016907D01*
X006652Y016922D01*
X006637Y016934D01*
X006620Y016944D01*
X006602Y016950D01*
X006583Y016952D01*
X006583Y016947D01*
X006601Y016945D01*
X006619Y016939D01*
X006635Y016930D01*
X006649Y016919D01*
X006660Y016905D01*
X006669Y016889D01*
X006675Y016871D01*
X006677Y016853D01*
X006672Y016853D01*
X006670Y016870D01*
X006664Y016887D01*
X006656Y016902D01*
X006645Y016915D01*
X006632Y016926D01*
X006617Y016934D01*
X006600Y016940D01*
X006583Y016942D01*
X006583Y016937D01*
X006599Y016935D01*
X006615Y016930D01*
X006629Y016922D01*
X006642Y016912D01*
X006652Y016899D01*
X006660Y016885D01*
X006665Y016869D01*
X006667Y016853D01*
X006662Y016853D01*
X006659Y016870D01*
X006653Y016887D01*
X006644Y016901D01*
X006631Y016914D01*
X006617Y016923D01*
X006600Y016929D01*
X006583Y016932D01*
X006583Y016927D01*
X006599Y016925D01*
X006615Y016919D01*
X006628Y016910D01*
X006640Y016898D01*
X006649Y016885D01*
X006655Y016869D01*
X006657Y016853D01*
X006582Y016024D02*
X006582Y016078D01*
X006583Y016077D02*
X006598Y016079D01*
X006613Y016085D01*
X006626Y016093D01*
X006637Y016104D01*
X006645Y016117D01*
X006651Y016132D01*
X006653Y016147D01*
X006706Y016148D01*
X006707Y016147D01*
X006705Y016126D01*
X006699Y016105D01*
X006689Y016086D01*
X006677Y016068D01*
X006662Y016053D01*
X006644Y016041D01*
X006625Y016031D01*
X006604Y016025D01*
X006583Y016023D01*
X006583Y016028D01*
X006603Y016030D01*
X006623Y016036D01*
X006642Y016045D01*
X006659Y016057D01*
X006673Y016071D01*
X006685Y016088D01*
X006694Y016107D01*
X006700Y016127D01*
X006702Y016147D01*
X006697Y016147D01*
X006695Y016127D01*
X006689Y016108D01*
X006681Y016091D01*
X006669Y016075D01*
X006655Y016061D01*
X006639Y016049D01*
X006622Y016041D01*
X006603Y016035D01*
X006583Y016033D01*
X006583Y016038D01*
X006602Y016040D01*
X006620Y016045D01*
X006637Y016054D01*
X006652Y016064D01*
X006666Y016078D01*
X006676Y016093D01*
X006685Y016110D01*
X006690Y016128D01*
X006692Y016147D01*
X006687Y016147D01*
X006684Y016127D01*
X006678Y016108D01*
X006669Y016090D01*
X006656Y016074D01*
X006640Y016061D01*
X006622Y016052D01*
X006603Y016046D01*
X006583Y016043D01*
X006583Y016048D01*
X006602Y016050D01*
X006620Y016056D01*
X006637Y016066D01*
X006652Y016078D01*
X006664Y016093D01*
X006674Y016110D01*
X006680Y016128D01*
X006682Y016147D01*
X006677Y016147D01*
X006675Y016129D01*
X006669Y016111D01*
X006660Y016095D01*
X006649Y016081D01*
X006635Y016070D01*
X006619Y016061D01*
X006601Y016055D01*
X006583Y016053D01*
X006583Y016058D01*
X006600Y016060D01*
X006617Y016066D01*
X006632Y016074D01*
X006645Y016085D01*
X006656Y016098D01*
X006664Y016113D01*
X006670Y016130D01*
X006672Y016147D01*
X006667Y016147D01*
X006665Y016131D01*
X006660Y016115D01*
X006652Y016101D01*
X006642Y016088D01*
X006629Y016078D01*
X006615Y016070D01*
X006599Y016065D01*
X006583Y016063D01*
X006583Y016068D01*
X006600Y016071D01*
X006617Y016077D01*
X006631Y016086D01*
X006644Y016099D01*
X006653Y016113D01*
X006659Y016130D01*
X006662Y016147D01*
X006657Y016147D01*
X006655Y016131D01*
X006649Y016115D01*
X006640Y016102D01*
X006628Y016090D01*
X006615Y016081D01*
X006599Y016075D01*
X006583Y016073D01*
X006706Y015852D02*
X006652Y015852D01*
X006653Y015853D02*
X006651Y015868D01*
X006645Y015883D01*
X006637Y015896D01*
X006626Y015907D01*
X006613Y015915D01*
X006598Y015921D01*
X006583Y015923D01*
X006582Y015976D01*
X006583Y015977D01*
X006604Y015975D01*
X006625Y015969D01*
X006644Y015959D01*
X006662Y015947D01*
X006677Y015932D01*
X006689Y015914D01*
X006699Y015895D01*
X006705Y015874D01*
X006707Y015853D01*
X006702Y015853D01*
X006700Y015873D01*
X006694Y015893D01*
X006685Y015912D01*
X006673Y015929D01*
X006659Y015943D01*
X006642Y015955D01*
X006623Y015964D01*
X006603Y015970D01*
X006583Y015972D01*
X006583Y015967D01*
X006603Y015965D01*
X006622Y015959D01*
X006639Y015951D01*
X006655Y015939D01*
X006669Y015925D01*
X006681Y015909D01*
X006689Y015892D01*
X006695Y015873D01*
X006697Y015853D01*
X006692Y015853D01*
X006690Y015872D01*
X006685Y015890D01*
X006676Y015907D01*
X006666Y015922D01*
X006652Y015936D01*
X006637Y015946D01*
X006620Y015955D01*
X006602Y015960D01*
X006583Y015962D01*
X006583Y015957D01*
X006603Y015954D01*
X006622Y015948D01*
X006640Y015939D01*
X006656Y015926D01*
X006669Y015910D01*
X006678Y015892D01*
X006684Y015873D01*
X006687Y015853D01*
X006682Y015853D01*
X006680Y015872D01*
X006674Y015890D01*
X006664Y015907D01*
X006652Y015922D01*
X006637Y015934D01*
X006620Y015944D01*
X006602Y015950D01*
X006583Y015952D01*
X006583Y015947D01*
X006601Y015945D01*
X006619Y015939D01*
X006635Y015930D01*
X006649Y015919D01*
X006660Y015905D01*
X006669Y015889D01*
X006675Y015871D01*
X006677Y015853D01*
X006672Y015853D01*
X006670Y015870D01*
X006664Y015887D01*
X006656Y015902D01*
X006645Y015915D01*
X006632Y015926D01*
X006617Y015934D01*
X006600Y015940D01*
X006583Y015942D01*
X006583Y015937D01*
X006599Y015935D01*
X006615Y015930D01*
X006629Y015922D01*
X006642Y015912D01*
X006652Y015899D01*
X006660Y015885D01*
X006665Y015869D01*
X006667Y015853D01*
X006662Y015853D01*
X006659Y015870D01*
X006653Y015887D01*
X006644Y015901D01*
X006631Y015914D01*
X006617Y015923D01*
X006600Y015929D01*
X006583Y015932D01*
X006583Y015927D01*
X006599Y015925D01*
X006615Y015919D01*
X006628Y015910D01*
X006640Y015898D01*
X006649Y015885D01*
X006655Y015869D01*
X006657Y015853D01*
X006582Y015024D02*
X006582Y015078D01*
X006583Y015077D02*
X006598Y015079D01*
X006613Y015085D01*
X006626Y015093D01*
X006637Y015104D01*
X006645Y015117D01*
X006651Y015132D01*
X006653Y015147D01*
X006706Y015148D01*
X006707Y015147D01*
X006705Y015126D01*
X006699Y015105D01*
X006689Y015086D01*
X006677Y015068D01*
X006662Y015053D01*
X006644Y015041D01*
X006625Y015031D01*
X006604Y015025D01*
X006583Y015023D01*
X006583Y015028D01*
X006603Y015030D01*
X006623Y015036D01*
X006642Y015045D01*
X006659Y015057D01*
X006673Y015071D01*
X006685Y015088D01*
X006694Y015107D01*
X006700Y015127D01*
X006702Y015147D01*
X006697Y015147D01*
X006695Y015127D01*
X006689Y015108D01*
X006681Y015091D01*
X006669Y015075D01*
X006655Y015061D01*
X006639Y015049D01*
X006622Y015041D01*
X006603Y015035D01*
X006583Y015033D01*
X006583Y015038D01*
X006602Y015040D01*
X006620Y015045D01*
X006637Y015054D01*
X006652Y015064D01*
X006666Y015078D01*
X006676Y015093D01*
X006685Y015110D01*
X006690Y015128D01*
X006692Y015147D01*
X006687Y015147D01*
X006684Y015127D01*
X006678Y015108D01*
X006669Y015090D01*
X006656Y015074D01*
X006640Y015061D01*
X006622Y015052D01*
X006603Y015046D01*
X006583Y015043D01*
X006583Y015048D01*
X006602Y015050D01*
X006620Y015056D01*
X006637Y015066D01*
X006652Y015078D01*
X006664Y015093D01*
X006674Y015110D01*
X006680Y015128D01*
X006682Y015147D01*
X006677Y015147D01*
X006675Y015129D01*
X006669Y015111D01*
X006660Y015095D01*
X006649Y015081D01*
X006635Y015070D01*
X006619Y015061D01*
X006601Y015055D01*
X006583Y015053D01*
X006583Y015058D01*
X006600Y015060D01*
X006617Y015066D01*
X006632Y015074D01*
X006645Y015085D01*
X006656Y015098D01*
X006664Y015113D01*
X006670Y015130D01*
X006672Y015147D01*
X006667Y015147D01*
X006665Y015131D01*
X006660Y015115D01*
X006652Y015101D01*
X006642Y015088D01*
X006629Y015078D01*
X006615Y015070D01*
X006599Y015065D01*
X006583Y015063D01*
X006583Y015068D01*
X006600Y015071D01*
X006617Y015077D01*
X006631Y015086D01*
X006644Y015099D01*
X006653Y015113D01*
X006659Y015130D01*
X006662Y015147D01*
X006657Y015147D01*
X006655Y015131D01*
X006649Y015115D01*
X006640Y015102D01*
X006628Y015090D01*
X006615Y015081D01*
X006599Y015075D01*
X006583Y015073D01*
X006706Y014852D02*
X006652Y014852D01*
X006653Y014853D02*
X006651Y014868D01*
X006645Y014883D01*
X006637Y014896D01*
X006626Y014907D01*
X006613Y014915D01*
X006598Y014921D01*
X006583Y014923D01*
X006582Y014976D01*
X006583Y014977D01*
X006604Y014975D01*
X006625Y014969D01*
X006644Y014959D01*
X006662Y014947D01*
X006677Y014932D01*
X006689Y014914D01*
X006699Y014895D01*
X006705Y014874D01*
X006707Y014853D01*
X006702Y014853D01*
X006700Y014873D01*
X006694Y014893D01*
X006685Y014912D01*
X006673Y014929D01*
X006659Y014943D01*
X006642Y014955D01*
X006623Y014964D01*
X006603Y014970D01*
X006583Y014972D01*
X006583Y014967D01*
X006603Y014965D01*
X006622Y014959D01*
X006639Y014951D01*
X006655Y014939D01*
X006669Y014925D01*
X006681Y014909D01*
X006689Y014892D01*
X006695Y014873D01*
X006697Y014853D01*
X006692Y014853D01*
X006690Y014872D01*
X006685Y014890D01*
X006676Y014907D01*
X006666Y014922D01*
X006652Y014936D01*
X006637Y014946D01*
X006620Y014955D01*
X006602Y014960D01*
X006583Y014962D01*
X006583Y014957D01*
X006603Y014954D01*
X006622Y014948D01*
X006640Y014939D01*
X006656Y014926D01*
X006669Y014910D01*
X006678Y014892D01*
X006684Y014873D01*
X006687Y014853D01*
X006682Y014853D01*
X006680Y014872D01*
X006674Y014890D01*
X006664Y014907D01*
X006652Y014922D01*
X006637Y014934D01*
X006620Y014944D01*
X006602Y014950D01*
X006583Y014952D01*
X006583Y014947D01*
X006601Y014945D01*
X006619Y014939D01*
X006635Y014930D01*
X006649Y014919D01*
X006660Y014905D01*
X006669Y014889D01*
X006675Y014871D01*
X006677Y014853D01*
X006672Y014853D01*
X006670Y014870D01*
X006664Y014887D01*
X006656Y014902D01*
X006645Y014915D01*
X006632Y014926D01*
X006617Y014934D01*
X006600Y014940D01*
X006583Y014942D01*
X006583Y014937D01*
X006599Y014935D01*
X006615Y014930D01*
X006629Y014922D01*
X006642Y014912D01*
X006652Y014899D01*
X006660Y014885D01*
X006665Y014869D01*
X006667Y014853D01*
X006662Y014853D01*
X006659Y014870D01*
X006653Y014887D01*
X006644Y014901D01*
X006631Y014914D01*
X006617Y014923D01*
X006600Y014929D01*
X006583Y014932D01*
X006583Y014927D01*
X006599Y014925D01*
X006615Y014919D01*
X006628Y014910D01*
X006640Y014898D01*
X006649Y014885D01*
X006655Y014869D01*
X006657Y014853D01*
X006582Y014024D02*
X006582Y014078D01*
X006583Y014077D02*
X006598Y014079D01*
X006613Y014085D01*
X006626Y014093D01*
X006637Y014104D01*
X006645Y014117D01*
X006651Y014132D01*
X006653Y014147D01*
X006706Y014148D01*
X006707Y014147D01*
X006705Y014126D01*
X006699Y014105D01*
X006689Y014086D01*
X006677Y014068D01*
X006662Y014053D01*
X006644Y014041D01*
X006625Y014031D01*
X006604Y014025D01*
X006583Y014023D01*
X006583Y014028D01*
X006603Y014030D01*
X006623Y014036D01*
X006642Y014045D01*
X006659Y014057D01*
X006673Y014071D01*
X006685Y014088D01*
X006694Y014107D01*
X006700Y014127D01*
X006702Y014147D01*
X006697Y014147D01*
X006695Y014127D01*
X006689Y014108D01*
X006681Y014091D01*
X006669Y014075D01*
X006655Y014061D01*
X006639Y014049D01*
X006622Y014041D01*
X006603Y014035D01*
X006583Y014033D01*
X006583Y014038D01*
X006602Y014040D01*
X006620Y014045D01*
X006637Y014054D01*
X006652Y014064D01*
X006666Y014078D01*
X006676Y014093D01*
X006685Y014110D01*
X006690Y014128D01*
X006692Y014147D01*
X006687Y014147D01*
X006684Y014127D01*
X006678Y014108D01*
X006669Y014090D01*
X006656Y014074D01*
X006640Y014061D01*
X006622Y014052D01*
X006603Y014046D01*
X006583Y014043D01*
X006583Y014048D01*
X006602Y014050D01*
X006620Y014056D01*
X006637Y014066D01*
X006652Y014078D01*
X006664Y014093D01*
X006674Y014110D01*
X006680Y014128D01*
X006682Y014147D01*
X006677Y014147D01*
X006675Y014129D01*
X006669Y014111D01*
X006660Y014095D01*
X006649Y014081D01*
X006635Y014070D01*
X006619Y014061D01*
X006601Y014055D01*
X006583Y014053D01*
X006583Y014058D01*
X006600Y014060D01*
X006617Y014066D01*
X006632Y014074D01*
X006645Y014085D01*
X006656Y014098D01*
X006664Y014113D01*
X006670Y014130D01*
X006672Y014147D01*
X006667Y014147D01*
X006665Y014131D01*
X006660Y014115D01*
X006652Y014101D01*
X006642Y014088D01*
X006629Y014078D01*
X006615Y014070D01*
X006599Y014065D01*
X006583Y014063D01*
X006583Y014068D01*
X006600Y014071D01*
X006617Y014077D01*
X006631Y014086D01*
X006644Y014099D01*
X006653Y014113D01*
X006659Y014130D01*
X006662Y014147D01*
X006657Y014147D01*
X006655Y014131D01*
X006649Y014115D01*
X006640Y014102D01*
X006628Y014090D01*
X006615Y014081D01*
X006599Y014075D01*
X006583Y014073D01*
X004937Y004738D02*
X004980Y004771D01*
X005010Y004735D01*
X005043Y004702D01*
X005079Y004672D01*
X005117Y004645D01*
X005157Y004621D01*
X005199Y004600D01*
X005243Y004583D01*
X005288Y004570D01*
X005334Y004560D01*
X005380Y004554D01*
X005427Y004552D01*
X005427Y004499D01*
X005427Y004498D01*
X005380Y004500D01*
X005333Y004505D01*
X005287Y004514D01*
X005242Y004527D01*
X005198Y004543D01*
X005155Y004562D01*
X005113Y004584D01*
X005073Y004609D01*
X005036Y004637D01*
X005000Y004668D01*
X004967Y004702D01*
X004937Y004738D01*
X004941Y004741D01*
X004971Y004705D01*
X005004Y004672D01*
X005039Y004641D01*
X005076Y004613D01*
X005116Y004588D01*
X005157Y004566D01*
X005199Y004547D01*
X005243Y004532D01*
X005288Y004519D01*
X005334Y004510D01*
X005380Y004505D01*
X005427Y004503D01*
X005427Y004508D01*
X005381Y004510D01*
X005335Y004515D01*
X005289Y004524D01*
X005245Y004536D01*
X005201Y004552D01*
X005159Y004571D01*
X005118Y004593D01*
X005079Y004617D01*
X005042Y004645D01*
X005007Y004676D01*
X004975Y004709D01*
X004945Y004744D01*
X004949Y004747D01*
X004978Y004712D01*
X005011Y004679D01*
X005045Y004649D01*
X005082Y004622D01*
X005121Y004597D01*
X005161Y004575D01*
X005203Y004557D01*
X005246Y004541D01*
X005291Y004529D01*
X005336Y004520D01*
X005381Y004515D01*
X005427Y004513D01*
X005427Y004518D01*
X005382Y004520D01*
X005336Y004525D01*
X005292Y004534D01*
X005248Y004546D01*
X005205Y004561D01*
X005163Y004580D01*
X005123Y004601D01*
X005085Y004626D01*
X005048Y004653D01*
X005014Y004683D01*
X004982Y004715D01*
X004953Y004750D01*
X004957Y004753D01*
X004986Y004719D01*
X005018Y004687D01*
X005052Y004657D01*
X005088Y004630D01*
X005126Y004606D01*
X005165Y004584D01*
X005207Y004566D01*
X005249Y004551D01*
X005293Y004539D01*
X005337Y004530D01*
X005382Y004525D01*
X005427Y004523D01*
X005427Y004528D01*
X005382Y004530D01*
X005338Y004535D01*
X005294Y004544D01*
X005251Y004556D01*
X005209Y004571D01*
X005168Y004589D01*
X005128Y004610D01*
X005091Y004634D01*
X005055Y004661D01*
X005021Y004690D01*
X004990Y004722D01*
X004961Y004756D01*
X004965Y004759D01*
X004993Y004725D01*
X005024Y004694D01*
X005058Y004665D01*
X005093Y004638D01*
X005131Y004614D01*
X005170Y004593D01*
X005210Y004575D01*
X005252Y004560D01*
X005295Y004549D01*
X005339Y004540D01*
X005383Y004535D01*
X005427Y004533D01*
X005427Y004538D01*
X005383Y004540D01*
X005339Y004545D01*
X005296Y004553D01*
X005254Y004565D01*
X005212Y004580D01*
X005172Y004598D01*
X005133Y004618D01*
X005096Y004642D01*
X005061Y004668D01*
X005028Y004697D01*
X004997Y004729D01*
X004968Y004762D01*
X004972Y004765D01*
X005003Y004729D01*
X005037Y004696D01*
X005073Y004665D01*
X005112Y004637D01*
X005153Y004613D01*
X005196Y004592D01*
X005240Y004575D01*
X005286Y004561D01*
X005332Y004551D01*
X005379Y004545D01*
X005427Y004543D01*
X005427Y004548D01*
X005380Y004550D01*
X005333Y004556D01*
X005287Y004566D01*
X005242Y004580D01*
X005198Y004597D01*
X005156Y004617D01*
X005115Y004642D01*
X005077Y004669D01*
X005040Y004699D01*
X005007Y004733D01*
X004976Y004768D01*
X005938Y005491D02*
X005894Y005460D01*
X005895Y005460D02*
X005867Y005496D01*
X005836Y005529D01*
X005804Y005559D01*
X005768Y005587D01*
X005731Y005612D01*
X005692Y005634D01*
X005652Y005653D01*
X005609Y005669D01*
X005566Y005682D01*
X005522Y005691D01*
X005478Y005696D01*
X005433Y005698D01*
X005433Y005751D01*
X005433Y005752D01*
X005482Y005750D01*
X005531Y005744D01*
X005579Y005734D01*
X005626Y005720D01*
X005672Y005703D01*
X005717Y005683D01*
X005760Y005658D01*
X005800Y005631D01*
X005839Y005600D01*
X005875Y005567D01*
X005908Y005531D01*
X005938Y005492D01*
X005934Y005489D01*
X005904Y005527D01*
X005871Y005563D01*
X005836Y005596D01*
X005798Y005627D01*
X005757Y005654D01*
X005715Y005678D01*
X005670Y005699D01*
X005625Y005716D01*
X005578Y005729D01*
X005530Y005739D01*
X005482Y005745D01*
X005433Y005747D01*
X005433Y005742D01*
X005481Y005740D01*
X005529Y005734D01*
X005577Y005724D01*
X005623Y005711D01*
X005669Y005694D01*
X005712Y005674D01*
X005754Y005650D01*
X005795Y005623D01*
X005832Y005593D01*
X005868Y005560D01*
X005901Y005524D01*
X005930Y005486D01*
X005926Y005483D01*
X005897Y005521D01*
X005864Y005556D01*
X005829Y005589D01*
X005792Y005619D01*
X005752Y005646D01*
X005710Y005669D01*
X005667Y005689D01*
X005622Y005706D01*
X005576Y005719D01*
X005529Y005729D01*
X005481Y005735D01*
X005433Y005737D01*
X005433Y005732D01*
X005481Y005730D01*
X005528Y005724D01*
X005574Y005715D01*
X005620Y005701D01*
X005665Y005685D01*
X005708Y005665D01*
X005749Y005641D01*
X005789Y005615D01*
X005826Y005585D01*
X005861Y005553D01*
X005893Y005518D01*
X005922Y005480D01*
X005918Y005477D01*
X005889Y005514D01*
X005857Y005549D01*
X005823Y005581D01*
X005786Y005611D01*
X005747Y005637D01*
X005705Y005660D01*
X005663Y005680D01*
X005619Y005697D01*
X005573Y005710D01*
X005527Y005719D01*
X005480Y005725D01*
X005433Y005727D01*
X005433Y005722D01*
X005480Y005720D01*
X005526Y005714D01*
X005572Y005705D01*
X005617Y005692D01*
X005661Y005676D01*
X005703Y005656D01*
X005744Y005633D01*
X005783Y005607D01*
X005819Y005578D01*
X005854Y005546D01*
X005885Y005511D01*
X005914Y005474D01*
X005910Y005472D01*
X005881Y005508D01*
X005850Y005542D01*
X005816Y005574D01*
X005780Y005603D01*
X005741Y005629D01*
X005701Y005651D01*
X005659Y005671D01*
X005615Y005687D01*
X005571Y005700D01*
X005525Y005709D01*
X005479Y005715D01*
X005433Y005717D01*
X005433Y005712D01*
X005479Y005710D01*
X005525Y005704D01*
X005570Y005695D01*
X005614Y005682D01*
X005657Y005666D01*
X005699Y005647D01*
X005739Y005624D01*
X005777Y005599D01*
X005813Y005570D01*
X005846Y005539D01*
X005878Y005505D01*
X005906Y005469D01*
X005902Y005466D01*
X005874Y005502D01*
X005843Y005535D01*
X005810Y005566D01*
X005774Y005595D01*
X005736Y005620D01*
X005696Y005642D01*
X005655Y005662D01*
X005612Y005678D01*
X005568Y005690D01*
X005524Y005699D01*
X005479Y005705D01*
X005433Y005707D01*
X005433Y005702D01*
X005478Y005700D01*
X005523Y005694D01*
X005567Y005685D01*
X005611Y005673D01*
X005653Y005657D01*
X005694Y005638D01*
X005733Y005616D01*
X005771Y005591D01*
X005806Y005562D01*
X005839Y005532D01*
X005870Y005498D01*
X005898Y005463D01*
X005428Y005751D02*
X005428Y005697D01*
X005427Y005698D02*
X005383Y005696D01*
X005340Y005691D01*
X005297Y005682D01*
X005255Y005671D01*
X005214Y005656D01*
X005174Y005638D01*
X005135Y005616D01*
X005099Y005593D01*
X005064Y005566D01*
X005031Y005537D01*
X005001Y005505D01*
X004973Y005471D01*
X004931Y005503D01*
X004930Y005504D01*
X004961Y005541D01*
X004994Y005575D01*
X005029Y005607D01*
X005067Y005637D01*
X005108Y005663D01*
X005150Y005686D01*
X005193Y005706D01*
X005238Y005722D01*
X005284Y005735D01*
X005332Y005744D01*
X005379Y005750D01*
X005427Y005752D01*
X005427Y005747D01*
X005379Y005745D01*
X005332Y005739D01*
X005286Y005730D01*
X005240Y005717D01*
X005195Y005701D01*
X005152Y005681D01*
X005110Y005658D01*
X005070Y005632D01*
X005033Y005604D01*
X004997Y005572D01*
X004964Y005537D01*
X004934Y005501D01*
X004938Y005498D01*
X004968Y005534D01*
X005001Y005568D01*
X005036Y005600D01*
X005073Y005628D01*
X005113Y005654D01*
X005154Y005677D01*
X005197Y005696D01*
X005241Y005712D01*
X005287Y005725D01*
X005333Y005734D01*
X005380Y005740D01*
X005427Y005742D01*
X005427Y005737D01*
X005380Y005735D01*
X005334Y005729D01*
X005288Y005720D01*
X005243Y005708D01*
X005199Y005692D01*
X005156Y005672D01*
X005115Y005650D01*
X005076Y005624D01*
X005039Y005596D01*
X005004Y005565D01*
X004972Y005531D01*
X004942Y005495D01*
X004946Y005492D01*
X004976Y005527D01*
X005008Y005561D01*
X005042Y005592D01*
X005079Y005620D01*
X005118Y005646D01*
X005159Y005668D01*
X005201Y005687D01*
X005244Y005703D01*
X005289Y005715D01*
X005335Y005724D01*
X005381Y005730D01*
X005427Y005732D01*
X005427Y005727D01*
X005381Y005725D01*
X005335Y005720D01*
X005290Y005711D01*
X005246Y005698D01*
X005203Y005682D01*
X005161Y005663D01*
X005120Y005641D01*
X005082Y005616D01*
X005045Y005588D01*
X005011Y005557D01*
X004979Y005524D01*
X004950Y005489D01*
X004954Y005486D01*
X004983Y005521D01*
X005015Y005554D01*
X005049Y005584D01*
X005085Y005612D01*
X005123Y005637D01*
X005163Y005659D01*
X005205Y005678D01*
X005247Y005693D01*
X005291Y005706D01*
X005336Y005715D01*
X005381Y005720D01*
X005427Y005722D01*
X005427Y005717D01*
X005382Y005715D01*
X005337Y005710D01*
X005293Y005701D01*
X005249Y005689D01*
X005206Y005673D01*
X005165Y005655D01*
X005126Y005633D01*
X005088Y005608D01*
X005052Y005580D01*
X005018Y005550D01*
X004987Y005518D01*
X004958Y005483D01*
X004962Y005480D01*
X004991Y005514D01*
X005022Y005547D01*
X005055Y005577D01*
X005091Y005604D01*
X005128Y005628D01*
X005167Y005650D01*
X005208Y005669D01*
X005250Y005684D01*
X005294Y005696D01*
X005338Y005705D01*
X005382Y005710D01*
X005427Y005712D01*
X005427Y005707D01*
X005383Y005705D01*
X005338Y005700D01*
X005295Y005691D01*
X005252Y005679D01*
X005210Y005664D01*
X005170Y005646D01*
X005131Y005624D01*
X005094Y005600D01*
X005058Y005573D01*
X005025Y005543D01*
X004994Y005511D01*
X004966Y005477D01*
X004970Y005474D01*
X004998Y005508D01*
X005029Y005540D01*
X005061Y005569D01*
X005096Y005596D01*
X005133Y005620D01*
X005172Y005641D01*
X005212Y005659D01*
X005254Y005674D01*
X005296Y005686D01*
X005339Y005695D01*
X005383Y005700D01*
X005427Y005702D01*
X005433Y004499D02*
X005433Y004553D01*
X005433Y004552D02*
X005480Y004554D01*
X005526Y004560D01*
X005572Y004570D01*
X005617Y004583D01*
X005661Y004600D01*
X005703Y004621D01*
X005743Y004645D01*
X005781Y004672D01*
X005817Y004702D01*
X005850Y004735D01*
X005880Y004771D01*
X005923Y004738D01*
X005893Y004702D01*
X005860Y004668D01*
X005824Y004637D01*
X005787Y004609D01*
X005747Y004584D01*
X005705Y004562D01*
X005662Y004543D01*
X005618Y004527D01*
X005573Y004514D01*
X005527Y004505D01*
X005480Y004500D01*
X005433Y004498D01*
X005433Y004503D01*
X005480Y004505D01*
X005526Y004510D01*
X005572Y004519D01*
X005617Y004532D01*
X005661Y004547D01*
X005703Y004566D01*
X005744Y004588D01*
X005784Y004613D01*
X005821Y004641D01*
X005856Y004672D01*
X005889Y004705D01*
X005919Y004741D01*
X005915Y004744D01*
X005885Y004709D01*
X005853Y004676D01*
X005818Y004645D01*
X005781Y004617D01*
X005742Y004593D01*
X005701Y004571D01*
X005659Y004552D01*
X005615Y004536D01*
X005571Y004524D01*
X005525Y004515D01*
X005479Y004510D01*
X005433Y004508D01*
X005433Y004513D01*
X005479Y004515D01*
X005524Y004520D01*
X005569Y004529D01*
X005614Y004541D01*
X005657Y004557D01*
X005699Y004575D01*
X005739Y004597D01*
X005778Y004622D01*
X005815Y004649D01*
X005849Y004679D01*
X005882Y004712D01*
X005911Y004747D01*
X005907Y004750D01*
X005878Y004715D01*
X005846Y004683D01*
X005812Y004653D01*
X005775Y004626D01*
X005737Y004601D01*
X005697Y004580D01*
X005655Y004561D01*
X005612Y004546D01*
X005568Y004534D01*
X005524Y004525D01*
X005478Y004520D01*
X005433Y004518D01*
X005433Y004523D01*
X005478Y004525D01*
X005523Y004530D01*
X005567Y004539D01*
X005611Y004551D01*
X005653Y004566D01*
X005695Y004584D01*
X005734Y004606D01*
X005772Y004630D01*
X005808Y004657D01*
X005842Y004687D01*
X005874Y004719D01*
X005903Y004753D01*
X005899Y004756D01*
X005870Y004722D01*
X005839Y004690D01*
X005805Y004661D01*
X005769Y004634D01*
X005732Y004610D01*
X005692Y004589D01*
X005651Y004571D01*
X005609Y004556D01*
X005566Y004544D01*
X005522Y004535D01*
X005478Y004530D01*
X005433Y004528D01*
X005433Y004533D01*
X005477Y004535D01*
X005521Y004540D01*
X005565Y004549D01*
X005608Y004560D01*
X005650Y004575D01*
X005690Y004593D01*
X005729Y004614D01*
X005767Y004638D01*
X005802Y004665D01*
X005836Y004694D01*
X005867Y004725D01*
X005895Y004759D01*
X005892Y004762D01*
X005863Y004729D01*
X005832Y004697D01*
X005799Y004668D01*
X005764Y004642D01*
X005727Y004618D01*
X005688Y004598D01*
X005648Y004580D01*
X005606Y004565D01*
X005564Y004553D01*
X005521Y004545D01*
X005477Y004540D01*
X005433Y004538D01*
X005433Y004543D01*
X005481Y004545D01*
X005528Y004551D01*
X005574Y004561D01*
X005620Y004575D01*
X005664Y004592D01*
X005707Y004613D01*
X005748Y004637D01*
X005787Y004665D01*
X005823Y004696D01*
X005857Y004729D01*
X005888Y004765D01*
X005884Y004768D01*
X005853Y004733D01*
X005820Y004699D01*
X005783Y004669D01*
X005745Y004642D01*
X005704Y004617D01*
X005662Y004597D01*
X005618Y004580D01*
X005573Y004566D01*
X005527Y004556D01*
X005480Y004550D01*
X005433Y004548D01*
D62*
X006180Y010750D03*
X007180Y010750D03*
D63*
X005980Y012250D03*
X005980Y013375D03*
D64*
X006605Y013375D03*
X006605Y012250D03*
X004255Y012250D03*
X004255Y013375D03*
D65*
X001820Y018542D02*
X001820Y018868D01*
X001983Y018705D02*
X001656Y018705D01*
X001229Y018784D02*
X000902Y018784D01*
X008902Y018784D02*
X009229Y018784D01*
X009656Y018705D02*
X009983Y018705D01*
X009820Y018868D02*
X009820Y018542D01*
D66*
X005425Y005969D02*
X005425Y005879D01*
X005425Y005880D02*
X005371Y005878D01*
X005318Y005872D01*
X005265Y005862D01*
X005213Y005848D01*
X005162Y005831D01*
X005113Y005810D01*
X005065Y005786D01*
X005019Y005758D01*
X004975Y005727D01*
X004933Y005693D01*
X004894Y005657D01*
X004857Y005617D01*
X004824Y005575D01*
X004793Y005531D01*
X004766Y005485D01*
X004687Y005527D01*
X004715Y005576D01*
X004747Y005622D01*
X004782Y005667D01*
X004819Y005709D01*
X004860Y005749D01*
X004903Y005785D01*
X004948Y005819D01*
X004995Y005850D01*
X005045Y005877D01*
X005096Y005901D01*
X005148Y005922D01*
X005202Y005939D01*
X005257Y005952D01*
X005312Y005962D01*
X005369Y005968D01*
X005425Y005970D01*
X005425Y005961D01*
X005369Y005959D01*
X005314Y005953D01*
X005259Y005943D01*
X005204Y005930D01*
X005151Y005913D01*
X005099Y005893D01*
X005049Y005869D01*
X005000Y005842D01*
X004953Y005812D01*
X004908Y005778D01*
X004866Y005742D01*
X004826Y005703D01*
X004789Y005661D01*
X004754Y005617D01*
X004723Y005571D01*
X004695Y005523D01*
X004703Y005519D01*
X004731Y005566D01*
X004762Y005612D01*
X004796Y005655D01*
X004832Y005697D01*
X004872Y005735D01*
X004914Y005771D01*
X004958Y005804D01*
X005004Y005834D01*
X005053Y005861D01*
X005103Y005884D01*
X005154Y005905D01*
X005207Y005921D01*
X005260Y005934D01*
X005315Y005944D01*
X005370Y005950D01*
X005425Y005952D01*
X005425Y005943D01*
X005370Y005941D01*
X005316Y005935D01*
X005262Y005926D01*
X005209Y005913D01*
X005157Y005896D01*
X005106Y005876D01*
X005057Y005853D01*
X005009Y005826D01*
X004963Y005797D01*
X004919Y005764D01*
X004878Y005729D01*
X004839Y005690D01*
X004802Y005650D01*
X004769Y005607D01*
X004738Y005561D01*
X004711Y005514D01*
X004719Y005510D01*
X004746Y005557D01*
X004776Y005601D01*
X004809Y005644D01*
X004845Y005684D01*
X004884Y005722D01*
X004925Y005757D01*
X004968Y005789D01*
X005014Y005819D01*
X005061Y005845D01*
X005110Y005868D01*
X005160Y005888D01*
X005212Y005904D01*
X005264Y005917D01*
X005317Y005926D01*
X005371Y005932D01*
X005425Y005934D01*
X005425Y005925D01*
X005372Y005923D01*
X005319Y005917D01*
X005266Y005908D01*
X005214Y005895D01*
X005163Y005879D01*
X005113Y005860D01*
X005065Y005837D01*
X005018Y005811D01*
X004974Y005782D01*
X004931Y005750D01*
X004890Y005715D01*
X004852Y005678D01*
X004816Y005638D01*
X004783Y005596D01*
X004753Y005552D01*
X004726Y005506D01*
X004734Y005502D01*
X004761Y005547D01*
X004791Y005591D01*
X004823Y005632D01*
X004858Y005672D01*
X004896Y005709D01*
X004936Y005743D01*
X004979Y005775D01*
X005023Y005803D01*
X005069Y005829D01*
X005117Y005851D01*
X005166Y005871D01*
X005216Y005887D01*
X005268Y005899D01*
X005320Y005908D01*
X005372Y005914D01*
X005425Y005916D01*
X005425Y005907D01*
X005369Y005905D01*
X005314Y005898D01*
X005259Y005888D01*
X005205Y005874D01*
X005153Y005856D01*
X005101Y005835D01*
X005052Y005809D01*
X005004Y005781D01*
X004958Y005749D01*
X004915Y005714D01*
X004875Y005676D01*
X004837Y005635D01*
X004802Y005591D01*
X004771Y005545D01*
X004742Y005497D01*
X004750Y005493D01*
X004778Y005541D01*
X004809Y005586D01*
X004844Y005629D01*
X004881Y005669D01*
X004921Y005707D01*
X004964Y005742D01*
X005009Y005773D01*
X005056Y005802D01*
X005105Y005826D01*
X005156Y005848D01*
X005208Y005865D01*
X005261Y005879D01*
X005315Y005889D01*
X005370Y005896D01*
X005425Y005898D01*
X005425Y005889D01*
X005371Y005887D01*
X005317Y005881D01*
X005263Y005871D01*
X005211Y005857D01*
X005159Y005839D01*
X005109Y005818D01*
X005060Y005794D01*
X005014Y005766D01*
X004969Y005734D01*
X004927Y005700D01*
X004888Y005663D01*
X004851Y005623D01*
X004817Y005581D01*
X004786Y005536D01*
X004758Y005489D01*
X004699Y004702D02*
X004777Y004747D01*
X004777Y004746D02*
X004805Y004702D01*
X004836Y004660D01*
X004869Y004620D01*
X004905Y004582D01*
X004944Y004547D01*
X004985Y004515D01*
X005029Y004485D01*
X005074Y004459D01*
X005121Y004436D01*
X005169Y004416D01*
X005219Y004400D01*
X005269Y004387D01*
X005321Y004378D01*
X005373Y004372D01*
X005425Y004370D01*
X005426Y004281D01*
X005425Y004280D01*
X005370Y004282D01*
X005316Y004288D01*
X005261Y004297D01*
X005208Y004310D01*
X005156Y004326D01*
X005104Y004345D01*
X005054Y004368D01*
X005006Y004394D01*
X004959Y004423D01*
X004915Y004455D01*
X004872Y004490D01*
X004832Y004528D01*
X004795Y004568D01*
X004760Y004610D01*
X004728Y004655D01*
X004699Y004701D01*
X004707Y004706D01*
X004735Y004660D01*
X004767Y004616D01*
X004802Y004574D01*
X004839Y004534D01*
X004878Y004497D01*
X004920Y004462D01*
X004964Y004431D01*
X005010Y004402D01*
X005058Y004376D01*
X005108Y004354D01*
X005158Y004334D01*
X005210Y004318D01*
X005263Y004306D01*
X005317Y004297D01*
X005371Y004291D01*
X005425Y004289D01*
X005425Y004298D01*
X005371Y004300D01*
X005318Y004306D01*
X005265Y004315D01*
X005213Y004327D01*
X005161Y004343D01*
X005111Y004362D01*
X005062Y004384D01*
X005015Y004410D01*
X004969Y004438D01*
X004926Y004470D01*
X004884Y004504D01*
X004845Y004540D01*
X004808Y004580D01*
X004774Y004621D01*
X004743Y004665D01*
X004714Y004710D01*
X004722Y004715D01*
X004752Y004667D01*
X004786Y004621D01*
X004822Y004578D01*
X004862Y004537D01*
X004904Y004499D01*
X004948Y004464D01*
X004995Y004432D01*
X005044Y004404D01*
X005095Y004379D01*
X005148Y004357D01*
X005201Y004340D01*
X005256Y004326D01*
X005312Y004316D01*
X005368Y004309D01*
X005425Y004307D01*
X005425Y004316D01*
X005369Y004318D01*
X005313Y004324D01*
X005258Y004334D01*
X005204Y004348D01*
X005151Y004366D01*
X005099Y004387D01*
X005048Y004412D01*
X005000Y004440D01*
X004954Y004471D01*
X004909Y004506D01*
X004868Y004543D01*
X004829Y004584D01*
X004793Y004626D01*
X004760Y004672D01*
X004730Y004719D01*
X004738Y004724D01*
X004767Y004677D01*
X004800Y004632D01*
X004836Y004590D01*
X004874Y004550D01*
X004915Y004513D01*
X004959Y004478D01*
X005005Y004447D01*
X005053Y004420D01*
X005102Y004395D01*
X005154Y004374D01*
X005206Y004357D01*
X005260Y004343D01*
X005315Y004333D01*
X005370Y004327D01*
X005425Y004325D01*
X005425Y004334D01*
X005370Y004336D01*
X005316Y004342D01*
X005262Y004352D01*
X005209Y004366D01*
X005157Y004383D01*
X005106Y004403D01*
X005057Y004428D01*
X005010Y004455D01*
X004964Y004486D01*
X004921Y004519D01*
X004880Y004556D01*
X004842Y004596D01*
X004807Y004638D01*
X004775Y004682D01*
X004746Y004728D01*
X004754Y004733D01*
X004782Y004687D01*
X004814Y004643D01*
X004849Y004602D01*
X004887Y004563D01*
X004927Y004526D01*
X004969Y004493D01*
X005014Y004463D01*
X005061Y004435D01*
X005110Y004412D01*
X005160Y004391D01*
X005211Y004374D01*
X005264Y004361D01*
X005317Y004351D01*
X005371Y004345D01*
X005425Y004343D01*
X005425Y004352D01*
X005372Y004354D01*
X005318Y004360D01*
X005266Y004370D01*
X005214Y004383D01*
X005163Y004400D01*
X005113Y004420D01*
X005065Y004443D01*
X005019Y004470D01*
X004975Y004500D01*
X004933Y004533D01*
X004893Y004569D01*
X004856Y004608D01*
X004821Y004649D01*
X004790Y004692D01*
X004761Y004737D01*
X004769Y004742D01*
X004797Y004697D01*
X004828Y004654D01*
X004862Y004614D01*
X004899Y004576D01*
X004938Y004540D01*
X004980Y004508D01*
X005024Y004478D01*
X005070Y004451D01*
X005117Y004428D01*
X005166Y004408D01*
X005216Y004391D01*
X005268Y004378D01*
X005320Y004369D01*
X005372Y004363D01*
X005425Y004361D01*
X005434Y004281D02*
X005434Y004371D01*
X005435Y004370D02*
X005489Y004372D01*
X005542Y004378D01*
X005595Y004388D01*
X005647Y004402D01*
X005698Y004419D01*
X005748Y004440D01*
X005796Y004464D01*
X005842Y004492D01*
X005886Y004523D01*
X005927Y004557D01*
X005967Y004594D01*
X006003Y004633D01*
X006071Y004576D01*
X006072Y004575D01*
X006034Y004534D01*
X005994Y004496D01*
X005951Y004460D01*
X005906Y004427D01*
X005859Y004397D01*
X005811Y004371D01*
X005760Y004347D01*
X005708Y004327D01*
X005655Y004311D01*
X005601Y004297D01*
X005546Y004288D01*
X005491Y004282D01*
X005435Y004280D01*
X005435Y004289D01*
X005490Y004291D01*
X005545Y004297D01*
X005599Y004306D01*
X005653Y004319D01*
X005705Y004336D01*
X005757Y004355D01*
X005807Y004379D01*
X005855Y004405D01*
X005901Y004435D01*
X005946Y004467D01*
X005988Y004502D01*
X006028Y004541D01*
X006065Y004581D01*
X006058Y004587D01*
X006021Y004547D01*
X005982Y004509D01*
X005940Y004474D01*
X005896Y004442D01*
X005850Y004413D01*
X005802Y004387D01*
X005753Y004364D01*
X005702Y004344D01*
X005650Y004328D01*
X005597Y004315D01*
X005544Y004306D01*
X005489Y004300D01*
X005435Y004298D01*
X005435Y004307D01*
X005489Y004309D01*
X005542Y004315D01*
X005595Y004324D01*
X005648Y004337D01*
X005699Y004353D01*
X005750Y004372D01*
X005798Y004395D01*
X005846Y004420D01*
X005891Y004449D01*
X005935Y004481D01*
X005976Y004516D01*
X006015Y004553D01*
X006051Y004593D01*
X006044Y004599D01*
X006008Y004559D01*
X005970Y004522D01*
X005929Y004488D01*
X005886Y004457D01*
X005841Y004428D01*
X005794Y004403D01*
X005746Y004380D01*
X005696Y004361D01*
X005645Y004345D01*
X005594Y004333D01*
X005541Y004324D01*
X005488Y004318D01*
X005435Y004316D01*
X005435Y004325D01*
X005488Y004327D01*
X005540Y004333D01*
X005592Y004342D01*
X005643Y004354D01*
X005693Y004370D01*
X005743Y004389D01*
X005790Y004411D01*
X005837Y004436D01*
X005881Y004464D01*
X005923Y004495D01*
X005964Y004529D01*
X006002Y004566D01*
X006037Y004604D01*
X006031Y004610D01*
X005995Y004572D01*
X005958Y004536D01*
X005918Y004502D01*
X005876Y004472D01*
X005832Y004444D01*
X005786Y004419D01*
X005739Y004397D01*
X005690Y004378D01*
X005641Y004363D01*
X005590Y004350D01*
X005539Y004342D01*
X005487Y004336D01*
X005435Y004334D01*
X005435Y004343D01*
X005491Y004345D01*
X005546Y004352D01*
X005601Y004362D01*
X005655Y004376D01*
X005708Y004394D01*
X005759Y004416D01*
X005809Y004441D01*
X005857Y004470D01*
X005902Y004502D01*
X005945Y004537D01*
X005986Y004575D01*
X006024Y004616D01*
X006017Y004622D01*
X005980Y004581D01*
X005939Y004544D01*
X005897Y004509D01*
X005852Y004477D01*
X005804Y004449D01*
X005755Y004424D01*
X005704Y004402D01*
X005652Y004385D01*
X005599Y004371D01*
X005545Y004361D01*
X005490Y004354D01*
X005435Y004352D01*
X005435Y004361D01*
X005489Y004363D01*
X005543Y004369D01*
X005597Y004379D01*
X005650Y004393D01*
X005701Y004411D01*
X005751Y004432D01*
X005800Y004457D01*
X005847Y004485D01*
X005891Y004516D01*
X005933Y004550D01*
X005973Y004588D01*
X006010Y004628D01*
X006075Y005669D02*
X006006Y005612D01*
X006007Y005612D02*
X005970Y005652D01*
X005931Y005690D01*
X005889Y005724D01*
X005845Y005756D01*
X005799Y005784D01*
X005750Y005809D01*
X005700Y005830D01*
X005649Y005848D01*
X005596Y005861D01*
X005543Y005871D01*
X005489Y005878D01*
X005435Y005880D01*
X005434Y005969D01*
X005435Y005970D01*
X005491Y005968D01*
X005547Y005962D01*
X005602Y005952D01*
X005657Y005939D01*
X005710Y005922D01*
X005763Y005902D01*
X005814Y005878D01*
X005863Y005851D01*
X005910Y005820D01*
X005955Y005787D01*
X005998Y005751D01*
X006038Y005712D01*
X006076Y005670D01*
X006069Y005664D01*
X006032Y005705D01*
X005992Y005744D01*
X005950Y005780D01*
X005905Y005813D01*
X005858Y005843D01*
X005810Y005870D01*
X005759Y005893D01*
X005707Y005914D01*
X005654Y005930D01*
X005600Y005943D01*
X005546Y005953D01*
X005491Y005959D01*
X005435Y005961D01*
X005435Y005952D01*
X005490Y005950D01*
X005545Y005944D01*
X005599Y005935D01*
X005652Y005922D01*
X005704Y005905D01*
X005756Y005885D01*
X005805Y005862D01*
X005854Y005835D01*
X005900Y005806D01*
X005944Y005773D01*
X005986Y005737D01*
X006025Y005699D01*
X006062Y005658D01*
X006055Y005653D01*
X006019Y005693D01*
X005980Y005731D01*
X005938Y005766D01*
X005895Y005798D01*
X005849Y005828D01*
X005801Y005854D01*
X005752Y005877D01*
X005702Y005897D01*
X005650Y005913D01*
X005597Y005926D01*
X005543Y005935D01*
X005489Y005941D01*
X005435Y005943D01*
X005435Y005934D01*
X005489Y005932D01*
X005542Y005926D01*
X005595Y005917D01*
X005647Y005904D01*
X005699Y005888D01*
X005749Y005869D01*
X005797Y005846D01*
X005844Y005820D01*
X005890Y005791D01*
X005933Y005759D01*
X005974Y005724D01*
X006012Y005687D01*
X006048Y005647D01*
X006041Y005641D01*
X006006Y005680D01*
X005968Y005717D01*
X005927Y005752D01*
X005884Y005783D01*
X005840Y005812D01*
X005793Y005838D01*
X005745Y005860D01*
X005696Y005880D01*
X005645Y005896D01*
X005593Y005908D01*
X005541Y005917D01*
X005488Y005923D01*
X005435Y005925D01*
X005435Y005916D01*
X005487Y005914D01*
X005540Y005908D01*
X005591Y005899D01*
X005642Y005887D01*
X005693Y005871D01*
X005742Y005852D01*
X005789Y005830D01*
X005835Y005804D01*
X005879Y005776D01*
X005921Y005745D01*
X005962Y005711D01*
X005999Y005674D01*
X006034Y005635D01*
X006028Y005629D01*
X005993Y005668D01*
X005955Y005704D01*
X005916Y005738D01*
X005874Y005769D01*
X005830Y005797D01*
X005785Y005822D01*
X005738Y005844D01*
X005690Y005863D01*
X005640Y005878D01*
X005590Y005891D01*
X005538Y005899D01*
X005487Y005905D01*
X005435Y005907D01*
X005435Y005898D01*
X005486Y005896D01*
X005537Y005891D01*
X005588Y005882D01*
X005638Y005870D01*
X005687Y005854D01*
X005734Y005836D01*
X005781Y005814D01*
X005826Y005789D01*
X005869Y005761D01*
X005910Y005731D01*
X005949Y005698D01*
X005986Y005662D01*
X006021Y005624D01*
X006014Y005618D01*
X005977Y005659D01*
X005937Y005697D01*
X005895Y005731D01*
X005850Y005763D01*
X005803Y005792D01*
X005754Y005817D01*
X005703Y005838D01*
X005652Y005856D01*
X005598Y005870D01*
X005544Y005880D01*
X005490Y005887D01*
X005435Y005889D01*
M02*
