G75*
%MOIN*%
%OFA0B0*%
%FSLAX24Y24*%
%IPPOS*%
%LPD*%
%AMOC8*
5,1,8,0,0,1.08239X$1,22.5*
%
%ADD10C,0.0050*%
D10*
X005930Y006375D02*
X005430Y006875D01*
X005430Y009375D01*
X008430Y009375D01*
X008430Y006375D01*
X005930Y006375D01*
X006223Y007875D02*
X006225Y007928D01*
X006231Y007980D01*
X006241Y008032D01*
X006254Y008083D01*
X006272Y008133D01*
X006293Y008182D01*
X006318Y008229D01*
X006346Y008273D01*
X006377Y008316D01*
X006412Y008356D01*
X006449Y008393D01*
X006489Y008428D01*
X006532Y008459D01*
X006577Y008487D01*
X006623Y008512D01*
X006672Y008533D01*
X006722Y008551D01*
X006773Y008564D01*
X006825Y008574D01*
X006877Y008580D01*
X006930Y008582D01*
X006983Y008580D01*
X007035Y008574D01*
X007087Y008564D01*
X007138Y008551D01*
X007188Y008533D01*
X007237Y008512D01*
X007284Y008487D01*
X007328Y008459D01*
X007371Y008428D01*
X007411Y008393D01*
X007448Y008356D01*
X007483Y008316D01*
X007514Y008273D01*
X007542Y008228D01*
X007567Y008182D01*
X007588Y008133D01*
X007606Y008083D01*
X007619Y008032D01*
X007629Y007980D01*
X007635Y007928D01*
X007637Y007875D01*
X007635Y007822D01*
X007629Y007770D01*
X007619Y007718D01*
X007606Y007667D01*
X007588Y007617D01*
X007567Y007568D01*
X007542Y007521D01*
X007514Y007477D01*
X007483Y007434D01*
X007448Y007394D01*
X007411Y007357D01*
X007371Y007322D01*
X007328Y007291D01*
X007283Y007263D01*
X007237Y007238D01*
X007188Y007217D01*
X007138Y007199D01*
X007087Y007186D01*
X007035Y007176D01*
X006983Y007170D01*
X006930Y007168D01*
X006877Y007170D01*
X006825Y007176D01*
X006773Y007186D01*
X006722Y007199D01*
X006672Y007217D01*
X006623Y007238D01*
X006576Y007263D01*
X006532Y007291D01*
X006489Y007322D01*
X006449Y007357D01*
X006412Y007394D01*
X006377Y007434D01*
X006346Y007477D01*
X006318Y007522D01*
X006293Y007568D01*
X006272Y007617D01*
X006254Y007667D01*
X006241Y007718D01*
X006231Y007770D01*
X006225Y007822D01*
X006223Y007875D01*
M02*
