G75*
%MOIN*%
%OFA0B0*%
%FSLAX24Y24*%
%IPPOS*%
%LPD*%
%AMOC8*
5,1,8,0,0,1.08239X$1,22.5*
%
%ADD10C,0.0050*%
%ADD11C,0.0060*%
%ADD12C,0.0160*%
%ADD13C,0.0040*%
%ADD14C,0.0080*%
%ADD15C,0.0020*%
%ADD16R,0.0060X0.0010*%
%ADD17R,0.0090X0.0010*%
%ADD18R,0.0100X0.0010*%
%ADD19R,0.0110X0.0010*%
%ADD20R,0.0160X0.0010*%
%ADD21R,0.0170X0.0010*%
%ADD22R,0.0180X0.0010*%
%ADD23R,0.0080X0.0010*%
%ADD24R,0.0070X0.0010*%
%ADD25R,0.0120X0.0010*%
%ADD26R,0.0130X0.0010*%
%ADD27R,0.0050X0.0010*%
%ADD28R,0.0140X0.0010*%
%ADD29R,0.0200X0.0010*%
%ADD30R,0.0020X0.0010*%
%ADD31R,0.0010X0.0010*%
%ADD32R,0.0150X0.0010*%
%ADD33R,0.0190X0.0010*%
%ADD34R,0.0210X0.0010*%
%ADD35R,0.0040X0.0010*%
%ADD36R,0.0030X0.0010*%
%ADD37R,0.0230X0.0010*%
%ADD38R,0.0390X0.0010*%
%ADD39R,0.0380X0.0010*%
%ADD40R,0.0370X0.0010*%
%ADD41R,0.0250X0.0010*%
%ADD42R,0.0220X0.0010*%
%ADD43R,0.0240X0.0010*%
%ADD44R,0.0270X0.0010*%
%ADD45R,0.0260X0.0010*%
%ADD46R,0.0560X0.0010*%
%ADD47R,0.0570X0.0010*%
%ADD48R,0.0540X0.0010*%
%ADD49R,0.0530X0.0010*%
%ADD50R,0.0510X0.0010*%
%ADD51R,0.0500X0.0010*%
%ADD52R,0.0480X0.0010*%
%ADD53R,0.0280X0.0010*%
%ADD54R,0.0470X0.0010*%
%ADD55R,0.0430X0.0010*%
%ADD56R,0.0300X0.0010*%
%ADD57R,0.0320X0.0010*%
%ADD58R,0.0420X0.0010*%
%ADD59R,0.0340X0.0010*%
%ADD60C,0.0006*%
%ADD61C,0.0005*%
%ADD62C,0.0100*%
%ADD63R,0.0250X0.0250*%
%ADD64R,0.1000X0.0200*%
%ADD65R,0.0300X0.0750*%
%ADD66C,0.0070*%
%ADD67C,0.0010*%
D10*
X000455Y001275D02*
X000455Y001545D01*
X000635Y001545D01*
X000750Y001455D02*
X000795Y001455D01*
X000795Y001275D01*
X000750Y001275D02*
X000840Y001275D01*
X000946Y001320D02*
X000991Y001275D01*
X001081Y001275D01*
X001126Y001320D01*
X001126Y001410D01*
X001081Y001455D01*
X000991Y001455D01*
X000946Y001410D01*
X000946Y001320D01*
X000795Y001545D02*
X000795Y001590D01*
X000545Y001410D02*
X000455Y001410D01*
X001241Y001455D02*
X001286Y001410D01*
X001376Y001410D01*
X001421Y001365D01*
X001421Y001320D01*
X001376Y001275D01*
X001286Y001275D01*
X001241Y001320D01*
X001241Y001455D02*
X001241Y001500D01*
X001286Y001545D01*
X001376Y001545D01*
X001421Y001500D01*
X001580Y001455D02*
X001671Y001455D01*
X001716Y001410D01*
X001716Y001275D01*
X001580Y001275D01*
X001535Y001320D01*
X001580Y001365D01*
X001716Y001365D01*
X001830Y001275D02*
X001830Y001545D01*
X001830Y001455D02*
X001965Y001455D01*
X002010Y001410D01*
X002010Y001320D01*
X001965Y001275D01*
X001830Y001275D01*
X002125Y001320D02*
X002125Y001410D01*
X002170Y001455D01*
X002260Y001455D01*
X002305Y001410D01*
X002305Y001365D01*
X002125Y001365D01*
X002125Y001320D02*
X002170Y001275D01*
X002260Y001275D01*
X002419Y001275D02*
X002419Y001455D01*
X002419Y001365D02*
X002509Y001455D01*
X002554Y001455D01*
X002429Y004275D02*
X002339Y004275D01*
X002294Y004320D01*
X002294Y004410D02*
X002384Y004455D01*
X002429Y004455D01*
X002474Y004410D01*
X002474Y004320D01*
X002429Y004275D01*
X002294Y004410D02*
X002294Y004545D01*
X002474Y004545D01*
X002180Y004275D02*
X002000Y004275D01*
X002090Y004275D02*
X002090Y004545D01*
X002000Y004455D01*
X001885Y004500D02*
X001840Y004545D01*
X001705Y004545D01*
X001705Y004275D01*
X001840Y004275D01*
X001885Y004320D01*
X001885Y004500D01*
X001840Y005275D02*
X001705Y005275D01*
X001705Y005545D01*
X001840Y005545D01*
X001885Y005500D01*
X001885Y005320D01*
X001840Y005275D01*
X002000Y005275D02*
X002180Y005275D01*
X002090Y005275D02*
X002090Y005545D01*
X002000Y005455D01*
X002294Y005410D02*
X002474Y005410D01*
X002429Y005275D02*
X002429Y005545D01*
X002294Y005410D01*
X002294Y006275D02*
X002474Y006275D01*
X002384Y006275D02*
X002384Y006545D01*
X002294Y006455D01*
X002180Y006275D02*
X002000Y006275D01*
X002090Y006275D02*
X002090Y006545D01*
X002000Y006455D01*
X001885Y006500D02*
X001885Y006320D01*
X001840Y006275D01*
X001705Y006275D01*
X001705Y006545D01*
X001840Y006545D01*
X001885Y006500D01*
X001840Y007275D02*
X001705Y007275D01*
X001705Y007545D01*
X001840Y007545D01*
X001885Y007500D01*
X001885Y007320D01*
X001840Y007275D01*
X002000Y007275D02*
X002180Y007275D01*
X002090Y007275D02*
X002090Y007545D01*
X002000Y007455D01*
X002294Y007500D02*
X002339Y007545D01*
X002429Y007545D01*
X002474Y007500D01*
X002294Y007320D01*
X002339Y007275D01*
X002429Y007275D01*
X002474Y007320D01*
X002474Y007500D01*
X002294Y007500D02*
X002294Y007320D01*
X002135Y008275D02*
X002045Y008275D01*
X002000Y008320D01*
X002045Y008410D02*
X002180Y008410D01*
X002180Y008320D02*
X002180Y008500D01*
X002135Y008545D01*
X002045Y008545D01*
X002000Y008500D01*
X002000Y008455D01*
X002045Y008410D01*
X002135Y008275D02*
X002180Y008320D01*
X001885Y008320D02*
X001885Y008500D01*
X001840Y008545D01*
X001705Y008545D01*
X001705Y008275D01*
X001840Y008275D01*
X001885Y008320D01*
X001840Y009275D02*
X001705Y009275D01*
X001705Y009545D01*
X001840Y009545D01*
X001885Y009500D01*
X001885Y009320D01*
X001840Y009275D01*
X002000Y009320D02*
X002000Y009365D01*
X002045Y009410D01*
X002135Y009410D01*
X002180Y009365D01*
X002180Y009320D01*
X002135Y009275D01*
X002045Y009275D01*
X002000Y009320D01*
X002045Y009410D02*
X002000Y009455D01*
X002000Y009500D01*
X002045Y009545D01*
X002135Y009545D01*
X002180Y009500D01*
X002180Y009455D01*
X002135Y009410D01*
X002000Y010275D02*
X002000Y010320D01*
X002180Y010500D01*
X002180Y010545D01*
X002000Y010545D01*
X001885Y010500D02*
X001885Y010320D01*
X001840Y010275D01*
X001705Y010275D01*
X001705Y010545D01*
X001840Y010545D01*
X001885Y010500D01*
X001840Y011275D02*
X001705Y011275D01*
X001705Y011545D01*
X001840Y011545D01*
X001885Y011500D01*
X001885Y011320D01*
X001840Y011275D01*
X002000Y011320D02*
X002045Y011275D01*
X002135Y011275D01*
X002180Y011320D01*
X002180Y011365D01*
X002135Y011410D01*
X002000Y011410D01*
X002000Y011320D01*
X002000Y011410D02*
X002090Y011500D01*
X002180Y011545D01*
X002135Y012275D02*
X002045Y012275D01*
X002000Y012320D01*
X002000Y012410D02*
X002090Y012455D01*
X002135Y012455D01*
X002180Y012410D01*
X002180Y012320D01*
X002135Y012275D01*
X002000Y012410D02*
X002000Y012545D01*
X002180Y012545D01*
X001885Y012500D02*
X001885Y012320D01*
X001840Y012275D01*
X001705Y012275D01*
X001705Y012545D01*
X001840Y012545D01*
X001885Y012500D01*
X001840Y013275D02*
X001705Y013275D01*
X001705Y013545D01*
X001840Y013545D01*
X001885Y013500D01*
X001885Y013320D01*
X001840Y013275D01*
X002000Y013410D02*
X002180Y013410D01*
X002135Y013275D02*
X002135Y013545D01*
X002000Y013410D01*
X002045Y014275D02*
X002000Y014320D01*
X002045Y014275D02*
X002135Y014275D01*
X002180Y014320D01*
X002180Y014365D01*
X002135Y014410D01*
X002090Y014410D01*
X002135Y014410D02*
X002180Y014455D01*
X002180Y014500D01*
X002135Y014545D01*
X002045Y014545D01*
X002000Y014500D01*
X001885Y014500D02*
X001885Y014320D01*
X001840Y014275D01*
X001705Y014275D01*
X001705Y014545D01*
X001840Y014545D01*
X001885Y014500D01*
X001840Y015275D02*
X001705Y015275D01*
X001705Y015545D01*
X001840Y015545D01*
X001885Y015500D01*
X001885Y015320D01*
X001840Y015275D01*
X002000Y015275D02*
X002180Y015455D01*
X002180Y015500D01*
X002135Y015545D01*
X002045Y015545D01*
X002000Y015500D01*
X002000Y015275D02*
X002180Y015275D01*
X002180Y016275D02*
X002180Y016545D01*
X002294Y016545D02*
X002294Y016275D01*
X002429Y016275D01*
X002474Y016320D01*
X002474Y016500D01*
X002429Y016545D01*
X002294Y016545D01*
X002180Y016275D02*
X002000Y016545D01*
X002000Y016275D01*
X001885Y016320D02*
X001885Y016410D01*
X001795Y016410D01*
X001705Y016320D02*
X001750Y016275D01*
X001840Y016275D01*
X001885Y016320D01*
X001885Y016500D02*
X001840Y016545D01*
X001750Y016545D01*
X001705Y016500D01*
X001705Y016320D01*
X001750Y017275D02*
X001705Y017320D01*
X001750Y017275D02*
X001840Y017275D01*
X001885Y017320D01*
X001885Y017365D01*
X001840Y017410D01*
X001795Y017410D01*
X001840Y017410D02*
X001885Y017455D01*
X001885Y017500D01*
X001840Y017545D01*
X001750Y017545D01*
X001705Y017500D01*
X002000Y017545D02*
X002000Y017365D01*
X002090Y017275D01*
X002180Y017365D01*
X002180Y017545D01*
X002294Y017500D02*
X002339Y017545D01*
X002429Y017545D01*
X002474Y017500D01*
X002474Y017455D01*
X002429Y017410D01*
X002474Y017365D01*
X002474Y017320D01*
X002429Y017275D01*
X002339Y017275D01*
X002294Y017320D01*
X002384Y017410D02*
X002429Y017410D01*
X003170Y019478D02*
X003170Y020463D01*
X002619Y020463D01*
X003170Y019478D02*
X003505Y019478D01*
X003505Y021053D01*
X002816Y022431D02*
X001044Y022431D01*
X000355Y021053D02*
X000355Y019478D01*
X000690Y019478D01*
X000690Y020463D01*
X001241Y020463D01*
X003130Y014800D02*
X005330Y014800D01*
X005430Y014700D01*
X005530Y014800D01*
X007730Y014800D01*
X007730Y014600D01*
X007530Y014600D01*
X007530Y013400D01*
X007730Y013400D01*
X007730Y013200D01*
X005530Y013200D01*
X005430Y013300D01*
X005330Y013200D01*
X003130Y013200D01*
X003130Y013400D01*
X003330Y013400D01*
X003330Y014600D01*
X003130Y014600D01*
X003130Y014800D01*
X005630Y014400D02*
X005630Y013600D01*
X005730Y013600D02*
X005730Y014400D01*
X005830Y014400D02*
X005830Y013600D01*
X005930Y013600D02*
X005930Y014400D01*
X006030Y014400D02*
X006030Y013600D01*
X006130Y013600D02*
X006130Y014400D01*
X006230Y014400D02*
X006230Y013600D01*
X008026Y016275D02*
X008026Y016455D01*
X008116Y016545D01*
X008207Y016455D01*
X008207Y016275D01*
X008321Y016275D02*
X008321Y016545D01*
X008456Y016545D01*
X008501Y016500D01*
X008501Y016410D01*
X008456Y016365D01*
X008321Y016365D01*
X008411Y016365D02*
X008501Y016275D01*
X008616Y016275D02*
X008616Y016545D01*
X008796Y016545D01*
X008910Y016545D02*
X008910Y016275D01*
X008796Y016275D02*
X008616Y016275D01*
X008616Y016410D02*
X008706Y016410D01*
X008910Y016410D02*
X009000Y016410D01*
X008910Y016545D02*
X009091Y016545D01*
X009045Y017275D02*
X008910Y017275D01*
X008910Y017545D01*
X009045Y017545D01*
X009091Y017500D01*
X009091Y017320D01*
X009045Y017275D01*
X008796Y017275D02*
X008796Y017545D01*
X008616Y017545D02*
X008796Y017275D01*
X008616Y017275D02*
X008616Y017545D01*
X008501Y017500D02*
X008456Y017545D01*
X008366Y017545D01*
X008321Y017500D01*
X008321Y017320D01*
X008366Y017275D01*
X008456Y017275D01*
X008501Y017320D01*
X008501Y017410D01*
X008411Y017410D01*
X008207Y016410D02*
X008026Y016410D01*
X008661Y015545D02*
X008616Y015500D01*
X008661Y015545D02*
X008751Y015545D01*
X008796Y015500D01*
X008796Y015455D01*
X008751Y015410D01*
X008796Y015365D01*
X008796Y015320D01*
X008751Y015275D01*
X008661Y015275D01*
X008616Y015320D01*
X008706Y015410D02*
X008751Y015410D01*
X008910Y015365D02*
X009000Y015275D01*
X009091Y015365D01*
X009091Y015545D01*
X008910Y015545D02*
X008910Y015365D01*
X008910Y014545D02*
X009091Y014275D01*
X008910Y014275D02*
X009091Y014545D01*
X008796Y014500D02*
X008796Y014410D01*
X008751Y014365D01*
X008616Y014365D01*
X008706Y014365D02*
X008796Y014275D01*
X008796Y014500D02*
X008751Y014545D01*
X008616Y014545D01*
X008616Y014275D01*
X008616Y013545D02*
X008796Y013545D01*
X008706Y013545D02*
X008706Y013275D01*
X008910Y013275D02*
X009091Y013545D01*
X008910Y013545D02*
X009091Y013275D01*
X009091Y012545D02*
X008910Y012545D01*
X009000Y012545D02*
X009000Y012275D01*
X008796Y012320D02*
X008751Y012275D01*
X008661Y012275D01*
X008616Y012320D01*
X008661Y012410D02*
X008751Y012410D01*
X008796Y012365D01*
X008796Y012320D01*
X008796Y012500D02*
X008751Y012545D01*
X008661Y012545D01*
X008616Y012500D01*
X008616Y012455D01*
X008661Y012410D01*
X008501Y012410D02*
X008501Y012500D01*
X008456Y012545D01*
X008321Y012545D01*
X008321Y012275D01*
X008321Y012365D02*
X008456Y012365D01*
X008501Y012410D01*
X008411Y012365D02*
X008501Y012275D01*
X008706Y011545D02*
X008796Y011455D01*
X008796Y011275D01*
X008910Y011320D02*
X008955Y011275D01*
X009045Y011275D01*
X009091Y011320D01*
X009091Y011410D01*
X009045Y011455D01*
X009000Y011455D01*
X008910Y011410D01*
X008910Y011545D01*
X009091Y011545D01*
X008796Y011410D02*
X008616Y011410D01*
X008616Y011455D02*
X008706Y011545D01*
X008616Y011455D02*
X008616Y011275D01*
X008706Y010545D02*
X008616Y010455D01*
X008616Y010275D01*
X008616Y010410D02*
X008796Y010410D01*
X008796Y010455D02*
X008796Y010275D01*
X008910Y010410D02*
X009091Y010410D01*
X009045Y010275D02*
X009045Y010545D01*
X008910Y010410D01*
X008796Y010455D02*
X008706Y010545D01*
X008706Y009545D02*
X008616Y009455D01*
X008616Y009275D01*
X008616Y009410D02*
X008796Y009410D01*
X008796Y009455D02*
X008796Y009275D01*
X008910Y009320D02*
X008955Y009275D01*
X009045Y009275D01*
X009091Y009320D01*
X009091Y009365D01*
X009045Y009410D01*
X009000Y009410D01*
X009045Y009410D02*
X009091Y009455D01*
X009091Y009500D01*
X009045Y009545D01*
X008955Y009545D01*
X008910Y009500D01*
X008796Y009455D02*
X008706Y009545D01*
X008706Y008545D02*
X008796Y008455D01*
X008796Y008275D01*
X008910Y008275D02*
X009091Y008455D01*
X009091Y008500D01*
X009045Y008545D01*
X008955Y008545D01*
X008910Y008500D01*
X008796Y008410D02*
X008616Y008410D01*
X008616Y008455D02*
X008706Y008545D01*
X008616Y008455D02*
X008616Y008275D01*
X008910Y008275D02*
X009091Y008275D01*
X009000Y007545D02*
X009000Y007275D01*
X008910Y007275D02*
X009091Y007275D01*
X008910Y007455D02*
X009000Y007545D01*
X008796Y007455D02*
X008796Y007275D01*
X008796Y007410D02*
X008616Y007410D01*
X008616Y007455D02*
X008706Y007545D01*
X008796Y007455D01*
X008616Y007455D02*
X008616Y007275D01*
X008706Y006545D02*
X008616Y006455D01*
X008616Y006275D01*
X008616Y006410D02*
X008796Y006410D01*
X008796Y006455D02*
X008796Y006275D01*
X008910Y006320D02*
X008910Y006500D01*
X008955Y006545D01*
X009045Y006545D01*
X009091Y006500D01*
X008910Y006320D01*
X008955Y006275D01*
X009045Y006275D01*
X009091Y006320D01*
X009091Y006500D01*
X008796Y006455D02*
X008706Y006545D01*
X008706Y005545D02*
X008616Y005455D01*
X008501Y005500D02*
X008501Y005320D01*
X008456Y005275D01*
X008321Y005275D01*
X008321Y005545D01*
X008456Y005545D01*
X008501Y005500D01*
X008616Y005275D02*
X008796Y005275D01*
X008706Y005275D02*
X008706Y005545D01*
X008910Y005545D02*
X009091Y005545D01*
X009091Y005500D01*
X008910Y005320D01*
X008910Y005275D01*
X009091Y004545D02*
X009000Y004500D01*
X008910Y004410D01*
X009045Y004410D01*
X009091Y004365D01*
X009091Y004320D01*
X009045Y004275D01*
X008955Y004275D01*
X008910Y004320D01*
X008910Y004410D01*
X008796Y004275D02*
X008616Y004275D01*
X008706Y004275D02*
X008706Y004545D01*
X008616Y004455D01*
X008501Y004500D02*
X008456Y004545D01*
X008321Y004545D01*
X008321Y004275D01*
X008456Y004275D01*
X008501Y004320D01*
X008501Y004500D01*
X008780Y003075D02*
X008780Y001425D01*
X009380Y001697D02*
X009380Y001803D01*
X009380Y002697D02*
X009380Y002803D01*
X007135Y004525D02*
X006955Y004795D01*
X006841Y004795D02*
X006660Y004795D01*
X006750Y004795D02*
X006750Y004525D01*
X006955Y004525D02*
X007135Y004795D01*
X006200Y006430D02*
X005910Y006430D01*
X006050Y006580D02*
X006050Y006270D01*
X005930Y008000D02*
X005930Y009500D01*
X005946Y008750D02*
X005948Y008812D01*
X005954Y008875D01*
X005964Y008936D01*
X005978Y008997D01*
X005995Y009057D01*
X006016Y009116D01*
X006042Y009173D01*
X006070Y009228D01*
X006102Y009282D01*
X006138Y009333D01*
X006176Y009383D01*
X006218Y009429D01*
X006262Y009473D01*
X006310Y009514D01*
X006359Y009552D01*
X006411Y009586D01*
X006465Y009617D01*
X006521Y009645D01*
X006579Y009669D01*
X006638Y009690D01*
X006698Y009706D01*
X006759Y009719D01*
X006821Y009728D01*
X006883Y009733D01*
X006946Y009734D01*
X007008Y009731D01*
X007070Y009724D01*
X007132Y009713D01*
X007192Y009698D01*
X007252Y009680D01*
X007310Y009658D01*
X007367Y009632D01*
X007422Y009602D01*
X007475Y009569D01*
X007526Y009533D01*
X007574Y009494D01*
X007620Y009451D01*
X007663Y009406D01*
X007703Y009358D01*
X007740Y009308D01*
X007774Y009255D01*
X007805Y009201D01*
X007831Y009145D01*
X007855Y009087D01*
X007874Y009027D01*
X007890Y008967D01*
X007902Y008905D01*
X007910Y008844D01*
X007914Y008781D01*
X007914Y008719D01*
X007910Y008656D01*
X007902Y008595D01*
X007890Y008533D01*
X007874Y008473D01*
X007855Y008413D01*
X007831Y008355D01*
X007805Y008299D01*
X007774Y008245D01*
X007740Y008192D01*
X007703Y008142D01*
X007663Y008094D01*
X007620Y008049D01*
X007574Y008006D01*
X007526Y007967D01*
X007475Y007931D01*
X007422Y007898D01*
X007367Y007868D01*
X007310Y007842D01*
X007252Y007820D01*
X007192Y007802D01*
X007132Y007787D01*
X007070Y007776D01*
X007008Y007769D01*
X006946Y007766D01*
X006883Y007767D01*
X006821Y007772D01*
X006759Y007781D01*
X006698Y007794D01*
X006638Y007810D01*
X006579Y007831D01*
X006521Y007855D01*
X006465Y007883D01*
X006411Y007914D01*
X006359Y007948D01*
X006310Y007986D01*
X006262Y008027D01*
X006218Y008071D01*
X006176Y008117D01*
X006138Y008167D01*
X006102Y008218D01*
X006070Y008272D01*
X006042Y008327D01*
X006016Y008384D01*
X005995Y008443D01*
X005978Y008503D01*
X005964Y008564D01*
X005954Y008625D01*
X005948Y008688D01*
X005946Y008750D01*
X005930Y008000D02*
X005973Y007946D01*
X006019Y007894D01*
X006068Y007845D01*
X006120Y007798D01*
X006174Y007755D01*
X006230Y007714D01*
X006289Y007677D01*
X006349Y007643D01*
X006412Y007613D01*
X006475Y007586D01*
X006541Y007562D01*
X006607Y007542D01*
X006675Y007526D01*
X006743Y007514D01*
X006812Y007506D01*
X006881Y007501D01*
X006951Y007500D01*
X007020Y007503D01*
X007089Y007510D01*
X007157Y007521D01*
X007225Y007535D01*
X007292Y007554D01*
X007358Y007576D01*
X007423Y007601D01*
X007486Y007630D01*
X007547Y007663D01*
X007606Y007699D01*
X007663Y007738D01*
X007719Y007780D01*
X007771Y007825D01*
X007821Y007873D01*
X007868Y007924D01*
X007913Y007978D01*
X007954Y008033D01*
X007992Y008091D01*
X008027Y008151D01*
X008059Y008213D01*
X008087Y008276D01*
X008111Y008341D01*
X008132Y008407D01*
X008149Y008475D01*
X008163Y008543D01*
X008172Y008612D01*
X008178Y008681D01*
X008180Y008750D01*
X008178Y008819D01*
X008172Y008888D01*
X008163Y008957D01*
X008149Y009025D01*
X008132Y009093D01*
X008111Y009159D01*
X008087Y009224D01*
X008059Y009287D01*
X008027Y009349D01*
X007992Y009409D01*
X007954Y009467D01*
X007913Y009522D01*
X007868Y009576D01*
X007821Y009627D01*
X007771Y009675D01*
X007719Y009720D01*
X007663Y009762D01*
X007606Y009801D01*
X007547Y009837D01*
X007486Y009870D01*
X007423Y009899D01*
X007358Y009924D01*
X007292Y009946D01*
X007225Y009965D01*
X007157Y009979D01*
X007089Y009990D01*
X007020Y009997D01*
X006951Y010000D01*
X006881Y009999D01*
X006812Y009994D01*
X006743Y009986D01*
X006675Y009974D01*
X006607Y009958D01*
X006541Y009938D01*
X006475Y009914D01*
X006412Y009887D01*
X006349Y009857D01*
X006289Y009823D01*
X006230Y009786D01*
X006174Y009745D01*
X006120Y009702D01*
X006068Y009655D01*
X006019Y009606D01*
X005973Y009554D01*
X005930Y009500D01*
X007355Y019478D02*
X007355Y021053D01*
X007690Y020463D02*
X007690Y019478D01*
X007355Y019478D01*
X007690Y020463D02*
X008241Y020463D01*
X008044Y022431D02*
X009816Y022431D01*
X010505Y021053D02*
X010505Y019478D01*
X010170Y019478D01*
X010170Y020463D01*
X009619Y020463D01*
D11*
X007380Y018150D02*
X007380Y018000D01*
X007330Y017950D01*
X007330Y016050D01*
X007380Y016000D01*
X007380Y015850D01*
X006530Y016050D02*
X006530Y017950D01*
X006480Y018000D01*
X006480Y018150D01*
X006380Y018150D02*
X006380Y018000D01*
X006330Y017950D01*
X006330Y016050D01*
X006380Y016000D01*
X006380Y015850D01*
X006480Y015850D02*
X006480Y016000D01*
X006530Y016050D01*
X005530Y016050D02*
X005530Y017950D01*
X005480Y018000D01*
X005480Y018150D01*
X005380Y018150D02*
X005380Y018000D01*
X005330Y017950D01*
X005330Y016050D01*
X005380Y016000D01*
X005380Y015850D01*
X005480Y015850D02*
X005480Y016000D01*
X005530Y016050D01*
X004530Y016050D02*
X004530Y017950D01*
X004480Y018000D01*
X004480Y018150D01*
X004380Y018150D02*
X004380Y018000D01*
X004330Y017950D01*
X004330Y016050D01*
X004380Y016000D01*
X004380Y015850D01*
X004480Y015850D02*
X004480Y016000D01*
X004530Y016050D01*
X003530Y016050D02*
X003530Y017950D01*
X003480Y018000D01*
X003480Y018150D01*
X003530Y016050D02*
X003480Y016000D01*
X003480Y015850D01*
X004580Y012700D02*
X004980Y012700D01*
X005930Y012700D01*
X006280Y012700D01*
X006630Y011900D02*
X006630Y011800D01*
X006730Y011800D01*
X006730Y011200D01*
X006630Y011200D01*
X006630Y011100D01*
X006280Y010300D02*
X005930Y010300D01*
X004930Y010300D01*
X004580Y010300D01*
X004230Y011100D02*
X004230Y011200D01*
X004130Y011200D01*
X004130Y011800D01*
X004230Y011800D01*
X004230Y011900D01*
X005330Y011500D02*
X005332Y011520D01*
X005338Y011538D01*
X005347Y011556D01*
X005359Y011571D01*
X005374Y011583D01*
X005392Y011592D01*
X005410Y011598D01*
X005430Y011600D01*
X005450Y011598D01*
X005468Y011592D01*
X005486Y011583D01*
X005501Y011571D01*
X005513Y011556D01*
X005522Y011538D01*
X005528Y011520D01*
X005530Y011500D01*
X005528Y011480D01*
X005522Y011462D01*
X005513Y011444D01*
X005501Y011429D01*
X005486Y011417D01*
X005468Y011408D01*
X005450Y011402D01*
X005430Y011400D01*
X005410Y011402D01*
X005392Y011408D01*
X005374Y011417D01*
X005359Y011429D01*
X005347Y011444D01*
X005338Y011462D01*
X005332Y011480D01*
X005330Y011500D01*
X004730Y011500D02*
X004732Y011552D01*
X004738Y011604D01*
X004748Y011656D01*
X004761Y011706D01*
X004778Y011756D01*
X004799Y011804D01*
X004824Y011850D01*
X004852Y011894D01*
X004883Y011936D01*
X004917Y011976D01*
X004954Y012013D01*
X004994Y012047D01*
X005036Y012078D01*
X005080Y012106D01*
X005126Y012131D01*
X005174Y012152D01*
X005224Y012169D01*
X005274Y012182D01*
X005326Y012192D01*
X005378Y012198D01*
X005430Y012200D01*
X005482Y012198D01*
X005534Y012192D01*
X005586Y012182D01*
X005636Y012169D01*
X005686Y012152D01*
X005734Y012131D01*
X005780Y012106D01*
X005824Y012078D01*
X005866Y012047D01*
X005906Y012013D01*
X005943Y011976D01*
X005977Y011936D01*
X006008Y011894D01*
X006036Y011850D01*
X006061Y011804D01*
X006082Y011756D01*
X006099Y011706D01*
X006112Y011656D01*
X006122Y011604D01*
X006128Y011552D01*
X006130Y011500D01*
X006128Y011448D01*
X006122Y011396D01*
X006112Y011344D01*
X006099Y011294D01*
X006082Y011244D01*
X006061Y011196D01*
X006036Y011150D01*
X006008Y011106D01*
X005977Y011064D01*
X005943Y011024D01*
X005906Y010987D01*
X005866Y010953D01*
X005824Y010922D01*
X005780Y010894D01*
X005734Y010869D01*
X005686Y010848D01*
X005636Y010831D01*
X005586Y010818D01*
X005534Y010808D01*
X005482Y010802D01*
X005430Y010800D01*
X005378Y010802D01*
X005326Y010808D01*
X005274Y010818D01*
X005224Y010831D01*
X005174Y010848D01*
X005126Y010869D01*
X005080Y010894D01*
X005036Y010922D01*
X004994Y010953D01*
X004954Y010987D01*
X004917Y011024D01*
X004883Y011064D01*
X004852Y011106D01*
X004824Y011150D01*
X004799Y011196D01*
X004778Y011244D01*
X004761Y011294D01*
X004748Y011344D01*
X004738Y011396D01*
X004732Y011448D01*
X004730Y011500D01*
X005180Y007800D02*
X004180Y007800D01*
X004180Y006200D01*
X005180Y006200D01*
X005180Y007800D01*
X004930Y007400D02*
X004680Y007000D01*
X004930Y007000D01*
X004930Y007400D02*
X004430Y007400D01*
X004680Y007000D01*
X004430Y007000D01*
X004680Y007000D02*
X004680Y006750D01*
X004680Y007000D02*
X004680Y007600D01*
X004180Y007800D02*
X003180Y007800D01*
X003180Y006200D01*
X004180Y006200D01*
X004180Y007800D01*
X003930Y007400D02*
X003680Y007000D01*
X003930Y007000D01*
X003680Y007000D02*
X003680Y006750D01*
X003680Y007000D02*
X003430Y007000D01*
X003680Y007000D02*
X003430Y007400D01*
X003930Y007400D01*
X003680Y007600D02*
X003680Y007000D01*
X006223Y007030D02*
X006223Y007370D01*
X006337Y007257D01*
X006450Y007370D01*
X006450Y007030D01*
X006592Y007087D02*
X006648Y007030D01*
X006762Y007030D01*
X006819Y007087D01*
X006819Y007314D01*
X006762Y007370D01*
X006648Y007370D01*
X006592Y007314D01*
X006592Y007087D01*
X006960Y007030D02*
X007130Y007030D01*
X007187Y007087D01*
X007187Y007314D01*
X007130Y007370D01*
X006960Y007370D01*
X006960Y007030D01*
X007328Y007030D02*
X007555Y007030D01*
X007442Y007200D02*
X007328Y007200D01*
X007328Y007370D02*
X007328Y007030D01*
X007328Y007370D02*
X007555Y007370D01*
X006280Y021000D02*
X004580Y021000D01*
X004563Y021002D01*
X004546Y021006D01*
X004530Y021013D01*
X004516Y021023D01*
X004503Y021036D01*
X004493Y021050D01*
X004486Y021066D01*
X004482Y021083D01*
X004480Y021100D01*
X004480Y021900D01*
X004482Y021917D01*
X004486Y021934D01*
X004493Y021950D01*
X004503Y021964D01*
X004516Y021977D01*
X004530Y021987D01*
X004546Y021994D01*
X004563Y021998D01*
X004580Y022000D01*
X006280Y022000D01*
X006297Y021998D01*
X006314Y021994D01*
X006330Y021987D01*
X006344Y021977D01*
X006357Y021964D01*
X006367Y021950D01*
X006374Y021934D01*
X006378Y021917D01*
X006380Y021900D01*
X006380Y021100D01*
X006378Y021083D01*
X006374Y021066D01*
X006367Y021050D01*
X006357Y021036D01*
X006344Y021023D01*
X006330Y021013D01*
X006314Y021006D01*
X006297Y021002D01*
X006280Y021000D01*
X005580Y021500D02*
X005530Y021500D01*
X005330Y021500D02*
X005280Y021500D01*
D12*
X000180Y022500D02*
X000180Y000650D01*
X002950Y000650D01*
X002950Y001990D01*
X002550Y001990D01*
X002550Y002900D01*
X002950Y002900D01*
X002950Y003980D01*
X004340Y003980D01*
X004340Y001400D01*
X006520Y001400D01*
X006520Y003980D01*
X007910Y003980D01*
X007910Y002900D01*
X008310Y002900D01*
X008310Y001990D01*
X007910Y001990D01*
X007910Y000650D01*
X010680Y000650D01*
X010680Y022500D01*
X000180Y022500D01*
D13*
X003729Y017100D02*
X003729Y016900D01*
X003729Y016967D02*
X003829Y016967D01*
X003862Y017000D01*
X003862Y017067D01*
X003829Y017100D01*
X003729Y017100D01*
X003796Y016967D02*
X003862Y016900D01*
X003950Y016900D02*
X004083Y016900D01*
X004017Y016900D02*
X004017Y017100D01*
X003950Y017033D01*
X004729Y016967D02*
X004829Y016967D01*
X004862Y017000D01*
X004862Y017067D01*
X004829Y017100D01*
X004729Y017100D01*
X004729Y016900D01*
X004796Y016967D02*
X004862Y016900D01*
X004950Y016900D02*
X005083Y017033D01*
X005083Y017067D01*
X005050Y017100D01*
X004983Y017100D01*
X004950Y017067D01*
X004950Y016900D02*
X005083Y016900D01*
X005729Y016900D02*
X005729Y017100D01*
X005829Y017100D01*
X005862Y017067D01*
X005862Y017000D01*
X005829Y016967D01*
X005729Y016967D01*
X005796Y016967D02*
X005862Y016900D01*
X005950Y016933D02*
X005983Y016900D01*
X006050Y016900D01*
X006083Y016933D01*
X006083Y016967D01*
X006050Y017000D01*
X006017Y017000D01*
X006050Y017000D02*
X006083Y017033D01*
X006083Y017067D01*
X006050Y017100D01*
X005983Y017100D01*
X005950Y017067D01*
X006729Y017100D02*
X006729Y016900D01*
X006729Y016967D02*
X006829Y016967D01*
X006862Y017000D01*
X006862Y017067D01*
X006829Y017100D01*
X006729Y017100D01*
X006796Y016967D02*
X006862Y016900D01*
X006950Y017000D02*
X007083Y017000D01*
X007050Y016900D02*
X007050Y017100D01*
X006950Y017000D01*
X006124Y019135D02*
X005991Y019135D01*
X005991Y019335D01*
X006124Y019335D01*
X006057Y019235D02*
X005991Y019235D01*
X005903Y019335D02*
X005770Y019335D01*
X005836Y019335D02*
X005836Y019135D01*
X005682Y019135D02*
X005682Y019268D01*
X005615Y019335D01*
X005549Y019268D01*
X005549Y019135D01*
X005461Y019135D02*
X005394Y019202D01*
X005428Y019202D02*
X005328Y019202D01*
X005328Y019135D02*
X005328Y019335D01*
X005428Y019335D01*
X005461Y019302D01*
X005461Y019235D01*
X005428Y019202D01*
X005549Y019235D02*
X005682Y019235D01*
X005240Y019202D02*
X005240Y019168D01*
X005207Y019135D01*
X005107Y019135D01*
X005107Y019335D01*
X005207Y019335D01*
X005240Y019302D01*
X005240Y019268D01*
X005207Y019235D01*
X005107Y019235D01*
X005207Y019235D02*
X005240Y019202D01*
X005026Y019135D02*
X004959Y019135D01*
X004993Y019135D02*
X004993Y019335D01*
X005026Y019335D02*
X004959Y019335D01*
X004872Y019335D02*
X004872Y019202D01*
X004805Y019135D01*
X004738Y019202D01*
X004738Y019335D01*
D14*
X004680Y019500D02*
X004430Y019750D01*
X004430Y020250D01*
X004680Y020500D01*
X005180Y020500D01*
X005430Y020250D01*
X005680Y020500D01*
X006180Y020500D01*
X006430Y020250D01*
X006430Y019750D01*
X006180Y019500D01*
X005680Y019500D01*
X005430Y019750D01*
X005180Y019500D01*
X004680Y019500D01*
X001430Y017750D02*
X001430Y017250D01*
X001180Y017000D01*
X001430Y016750D01*
X001430Y016250D01*
X001180Y016000D01*
X001430Y015750D01*
X001430Y015250D01*
X001180Y015000D01*
X001430Y014750D01*
X001430Y014250D01*
X001180Y014000D01*
X001430Y013750D01*
X001430Y013250D01*
X001180Y013000D01*
X001430Y012750D01*
X001430Y012250D01*
X001180Y012000D01*
X001430Y011750D01*
X001430Y011250D01*
X001180Y011000D01*
X001430Y010750D01*
X001430Y010250D01*
X001180Y010000D01*
X001430Y009750D01*
X001430Y009250D01*
X001180Y009000D01*
X001430Y008750D01*
X001430Y008250D01*
X001180Y008000D01*
X001430Y007750D01*
X001430Y007250D01*
X001180Y007000D01*
X001430Y006750D01*
X001430Y006250D01*
X001180Y006000D01*
X001430Y005750D01*
X001430Y005250D01*
X001180Y005000D01*
X001430Y004750D01*
X001430Y004250D01*
X001180Y004000D01*
X000680Y004000D01*
X000430Y004250D01*
X000430Y004750D01*
X000680Y005000D01*
X000430Y005250D01*
X000430Y005750D01*
X000680Y006000D01*
X000430Y006250D01*
X000430Y006750D01*
X000680Y007000D01*
X000430Y007250D01*
X000430Y007750D01*
X000680Y008000D01*
X000430Y008250D01*
X000430Y008750D01*
X000680Y009000D01*
X000430Y009250D01*
X000430Y009750D01*
X000680Y010000D01*
X000430Y010250D01*
X000430Y010750D01*
X000680Y011000D01*
X000430Y011250D01*
X000430Y011750D01*
X000680Y012000D01*
X000430Y012250D01*
X000430Y012750D01*
X000680Y013000D01*
X000430Y013250D01*
X000430Y013750D01*
X000680Y014000D01*
X000430Y014250D01*
X000430Y014750D01*
X000680Y015000D01*
X000430Y015250D01*
X000430Y015750D01*
X000680Y016000D01*
X000430Y016250D01*
X000430Y016750D01*
X000680Y017000D01*
X000430Y017250D01*
X000430Y017750D01*
X000680Y018000D01*
X001180Y018000D01*
X001430Y017750D01*
X009430Y017750D02*
X009430Y017250D01*
X009680Y017000D01*
X009430Y016750D01*
X009430Y016250D01*
X009680Y016000D01*
X009430Y015750D01*
X009430Y015250D01*
X009680Y015000D01*
X009430Y014750D01*
X009430Y014250D01*
X009680Y014000D01*
X009430Y013750D01*
X009430Y013250D01*
X009680Y013000D01*
X009430Y012750D01*
X009430Y012250D01*
X009680Y012000D01*
X009430Y011750D01*
X009430Y011250D01*
X009680Y011000D01*
X009430Y010750D01*
X009430Y010250D01*
X009680Y010000D01*
X009430Y009750D01*
X009430Y009250D01*
X009680Y009000D01*
X009430Y008750D01*
X009430Y008250D01*
X009680Y008000D01*
X009430Y007750D01*
X009430Y007250D01*
X009680Y007000D01*
X009430Y006750D01*
X009430Y006250D01*
X009680Y006000D01*
X009430Y005750D01*
X009430Y005250D01*
X009680Y005000D01*
X009430Y004750D01*
X009430Y004250D01*
X009680Y004000D01*
X010180Y004000D01*
X010430Y004250D01*
X010430Y004750D01*
X010180Y005000D01*
X010430Y005250D01*
X010430Y005750D01*
X010180Y006000D01*
X010430Y006250D01*
X010430Y006750D01*
X010180Y007000D01*
X010430Y007250D01*
X010430Y007750D01*
X010180Y008000D01*
X010430Y008250D01*
X010430Y008750D01*
X010180Y009000D01*
X010430Y009250D01*
X010430Y009750D01*
X010180Y010000D01*
X010430Y010250D01*
X010430Y010750D01*
X010180Y011000D01*
X010430Y011250D01*
X010430Y011750D01*
X010180Y012000D01*
X010430Y012250D01*
X010430Y012750D01*
X010180Y013000D01*
X010430Y013250D01*
X010430Y013750D01*
X010180Y014000D01*
X010430Y014250D01*
X010430Y014750D01*
X010180Y015000D01*
X010430Y015250D01*
X010430Y015750D01*
X010180Y016000D01*
X010430Y016250D01*
X010430Y016750D01*
X010180Y017000D01*
X010430Y017250D01*
X010430Y017750D01*
X010180Y018000D01*
X009680Y018000D01*
X009430Y017750D01*
D15*
X005930Y012700D02*
X005930Y012600D01*
X004980Y012600D01*
X004980Y012700D01*
X004930Y010400D02*
X004930Y010300D01*
X004930Y010400D02*
X005930Y010400D01*
X005930Y010300D01*
X001762Y001150D02*
X001692Y001150D01*
X001692Y001010D01*
X001762Y001010D01*
X001786Y001033D01*
X001786Y001057D01*
X001762Y001080D01*
X001692Y001080D01*
X001762Y001080D02*
X001786Y001103D01*
X001786Y001127D01*
X001762Y001150D01*
X001491Y001080D02*
X001491Y001057D01*
X001398Y001057D01*
X001398Y001080D02*
X001421Y001103D01*
X001468Y001103D01*
X001491Y001080D01*
X001468Y001010D02*
X001421Y001010D01*
X001398Y001033D01*
X001398Y001080D01*
X001344Y001080D02*
X001344Y001033D01*
X001320Y001010D01*
X001250Y001010D01*
X001250Y000963D02*
X001250Y001103D01*
X001320Y001103D01*
X001344Y001080D01*
X001196Y001103D02*
X001196Y000987D01*
X001173Y000963D01*
X001150Y000963D01*
X001126Y001010D02*
X001196Y001010D01*
X001126Y001010D02*
X001103Y001033D01*
X001103Y001103D01*
X001049Y001080D02*
X001026Y001103D01*
X000979Y001103D01*
X000956Y001080D01*
X000956Y001033D01*
X000979Y001010D01*
X001026Y001010D01*
X001049Y001033D01*
X001049Y001080D01*
X000904Y001103D02*
X000857Y001103D01*
X000881Y001127D02*
X000881Y001033D01*
X000904Y001010D01*
X000804Y001033D02*
X000804Y001080D01*
X000780Y001103D01*
X000733Y001103D01*
X000710Y001080D01*
X000710Y001033D01*
X000733Y001010D01*
X000780Y001010D01*
X000804Y001033D01*
X000657Y001103D02*
X000634Y001103D01*
X000587Y001057D01*
X000587Y001103D02*
X000587Y001010D01*
X000533Y001080D02*
X000510Y001057D01*
X000440Y001057D01*
X000440Y001010D02*
X000440Y001150D01*
X000510Y001150D01*
X000533Y001127D01*
X000533Y001080D01*
D16*
X001015Y001760D03*
X000985Y001880D03*
X000985Y001890D03*
X000975Y001930D03*
X000985Y001950D03*
X001175Y002470D03*
X001165Y002990D03*
X001645Y003090D03*
X001645Y003110D03*
X001645Y003130D03*
X001645Y003140D03*
X001645Y003150D03*
X001645Y003160D03*
X001655Y003170D03*
X001655Y003190D03*
X001655Y003200D03*
X001655Y003210D03*
X001655Y003230D03*
X001675Y003310D03*
X001675Y003320D03*
X001685Y003370D03*
X001685Y003390D03*
X001685Y003400D03*
X001855Y003000D03*
X001845Y002980D03*
X001655Y002810D03*
X002295Y003390D03*
X002455Y003280D03*
X002695Y003470D03*
X002695Y003480D03*
D17*
X002680Y003430D03*
X002670Y003420D03*
X002680Y003570D03*
X002640Y003640D03*
X002640Y003650D03*
X002290Y003870D03*
X001950Y003210D03*
X001870Y003080D03*
X001860Y003050D03*
X001830Y002670D03*
X001830Y002660D03*
X001830Y002650D03*
X001830Y002630D03*
X001830Y002620D03*
X001830Y002610D03*
X001820Y002500D03*
X001810Y002450D03*
X001810Y002440D03*
X001800Y002410D03*
X001790Y002400D03*
X001790Y002390D03*
X001780Y002370D03*
X001780Y002360D03*
X001770Y002350D03*
X001640Y002830D03*
X001650Y002850D03*
X001650Y002870D03*
X001640Y002880D03*
X001640Y002890D03*
X001550Y003030D03*
X001540Y003040D03*
X001530Y003080D03*
X001530Y003090D03*
X001520Y003100D03*
X001510Y003110D03*
X001500Y003120D03*
X001500Y003130D03*
X001690Y003430D03*
X001690Y003440D03*
X001700Y003460D03*
X001700Y003470D03*
X001700Y003480D03*
X001700Y003490D03*
X001720Y003530D03*
X001720Y003540D03*
X001730Y003550D03*
X001740Y003560D03*
X001750Y003580D03*
X001770Y003600D03*
X001780Y003610D03*
X001780Y003620D03*
X001190Y002480D03*
X001040Y002600D03*
X001030Y002590D03*
X001020Y002560D03*
X001020Y002550D03*
X001010Y002430D03*
X001140Y002710D03*
X001120Y002810D03*
X001110Y003010D03*
X000840Y003010D03*
X000600Y003200D03*
X000570Y003240D03*
X000530Y003270D03*
X000520Y003280D03*
X000510Y003300D03*
X000510Y003310D03*
X000930Y003450D03*
X001040Y003540D03*
X001020Y002000D03*
X001010Y001990D03*
X001020Y001770D03*
D18*
X001025Y001780D03*
X001025Y002010D03*
X001185Y001910D03*
X001295Y002520D03*
X000965Y002810D03*
X000955Y002800D03*
X000825Y002830D03*
X000815Y002840D03*
X000875Y003220D03*
X000775Y003350D03*
X000775Y003380D03*
X000595Y003210D03*
X000585Y003220D03*
X000575Y003230D03*
X000545Y003250D03*
X000535Y003260D03*
X001115Y003430D03*
X001395Y003230D03*
X001405Y003220D03*
X001415Y003210D03*
X001435Y003190D03*
X001445Y003180D03*
X001455Y003170D03*
X001485Y003140D03*
X001635Y002900D03*
X001875Y003120D03*
X001885Y003130D03*
X001945Y003200D03*
X001715Y003520D03*
X001705Y003510D03*
X001705Y003500D03*
X001745Y003570D03*
X001785Y003630D03*
X001805Y002430D03*
X001805Y002420D03*
X001765Y002340D03*
X001755Y002320D03*
X001745Y002310D03*
X001725Y002290D03*
X001705Y002260D03*
X001695Y002250D03*
X002605Y003680D03*
X002595Y003700D03*
X002585Y003710D03*
X002575Y003720D03*
X002555Y003750D03*
X002545Y003760D03*
X002625Y003670D03*
X002635Y003660D03*
X002645Y003630D03*
X002655Y003610D03*
X002655Y003600D03*
X002665Y003590D03*
X002645Y003410D03*
X002635Y003400D03*
D19*
X002670Y003580D03*
X002650Y003620D03*
X002600Y003690D03*
X002570Y003730D03*
X002560Y003740D03*
X001930Y003190D03*
X001890Y003150D03*
X001480Y003150D03*
X001460Y003160D03*
X001420Y003200D03*
X001380Y003240D03*
X001360Y003250D03*
X001350Y003260D03*
X001130Y002700D03*
X001000Y002440D03*
X001100Y002210D03*
X001110Y002200D03*
X001120Y002190D03*
X001120Y002180D03*
X001140Y002170D03*
X001160Y002160D03*
X001160Y002150D03*
X001170Y002140D03*
X001130Y002110D03*
X001030Y002020D03*
X001170Y001890D03*
X001180Y001900D03*
X001200Y001920D03*
X001110Y001840D03*
X001030Y001790D03*
X000690Y002470D03*
X000820Y002850D03*
X000820Y002860D03*
X000860Y003020D03*
X000610Y003190D03*
X000780Y003340D03*
X000780Y003360D03*
X000780Y003390D03*
X001710Y002270D03*
X001720Y002280D03*
X001730Y002300D03*
X001760Y002330D03*
X001690Y002240D03*
X001680Y002230D03*
X001670Y002220D03*
D20*
X001595Y003000D03*
X001155Y003390D03*
X001155Y003400D03*
X001025Y003520D03*
X000895Y003320D03*
X000775Y003090D03*
X000785Y003080D03*
X000735Y003110D03*
X000905Y002770D03*
X000725Y002440D03*
X000725Y002430D03*
X000895Y002340D03*
X001125Y002660D03*
X001045Y001800D03*
X001995Y003230D03*
X002005Y003240D03*
X002055Y003280D03*
X001835Y003680D03*
X001845Y003690D03*
X001905Y003720D03*
X001925Y003740D03*
X002415Y003290D03*
D21*
X002080Y003300D03*
X002070Y003290D03*
X001910Y003730D03*
X001590Y003020D03*
X001570Y002160D03*
X001460Y002100D03*
X001440Y002090D03*
X001390Y002060D03*
X001050Y001810D03*
X000980Y002290D03*
X000980Y002300D03*
X000950Y002310D03*
X000930Y002320D03*
X000880Y002350D03*
X000850Y002370D03*
X000840Y002380D03*
X000810Y002390D03*
X000790Y002400D03*
X000770Y002410D03*
X000910Y002780D03*
X000980Y002900D03*
X000810Y003400D03*
X002480Y003790D03*
D22*
X002455Y003800D03*
X001945Y003750D03*
X001475Y002110D03*
X001405Y002070D03*
X001055Y001830D03*
X001055Y001820D03*
X000915Y002330D03*
X000865Y002360D03*
X000745Y002420D03*
X000805Y002550D03*
X000955Y002480D03*
X001115Y002640D03*
X001115Y002650D03*
X000845Y002880D03*
X000825Y003070D03*
X001015Y003510D03*
X000545Y003430D03*
X000525Y003420D03*
D23*
X000475Y003400D03*
X000475Y003390D03*
X000475Y003380D03*
X000485Y003360D03*
X000495Y003340D03*
X000505Y003330D03*
X000505Y003320D03*
X000515Y003290D03*
X000765Y003320D03*
X000765Y003330D03*
X000795Y002950D03*
X000785Y002920D03*
X000795Y002890D03*
X000825Y002820D03*
X000845Y002810D03*
X000855Y002800D03*
X001025Y002580D03*
X001025Y002570D03*
X001015Y002540D03*
X001015Y002530D03*
X001015Y002420D03*
X001135Y002770D03*
X001135Y002780D03*
X001125Y002800D03*
X001145Y002750D03*
X001145Y002730D03*
X001145Y002720D03*
X001185Y002610D03*
X001545Y003050D03*
X001535Y003060D03*
X001535Y003070D03*
X001645Y003070D03*
X001645Y003060D03*
X001645Y003050D03*
X001645Y003040D03*
X001645Y003030D03*
X001645Y002860D03*
X001645Y002840D03*
X001645Y002820D03*
X001825Y002880D03*
X001835Y002850D03*
X001835Y002840D03*
X001835Y002830D03*
X001835Y002800D03*
X001835Y002790D03*
X001835Y002780D03*
X001835Y002770D03*
X001835Y002750D03*
X001825Y002730D03*
X001825Y002720D03*
X001825Y002710D03*
X001825Y002700D03*
X001825Y002690D03*
X001825Y002680D03*
X001835Y002640D03*
X001825Y002600D03*
X001825Y002590D03*
X001825Y002580D03*
X001825Y002570D03*
X001825Y002560D03*
X001825Y002530D03*
X001825Y002520D03*
X001815Y002470D03*
X001815Y002460D03*
X001785Y002380D03*
X001835Y002940D03*
X001835Y002950D03*
X001835Y002960D03*
X001855Y003030D03*
X001855Y003040D03*
X001865Y003070D03*
X001875Y003090D03*
X001875Y003100D03*
X001875Y003110D03*
X001665Y003260D03*
X001665Y003270D03*
X001675Y003330D03*
X001685Y003420D03*
X001695Y003450D03*
X001765Y003590D03*
X002195Y003870D03*
X002685Y003560D03*
X002685Y003550D03*
X002685Y003540D03*
X002685Y003530D03*
X002685Y003440D03*
X001105Y003440D03*
X001085Y003490D03*
X001005Y001980D03*
X000995Y001970D03*
X000995Y001840D03*
D24*
X000990Y001850D03*
X000990Y001860D03*
X000990Y001870D03*
X000980Y001910D03*
X000980Y001920D03*
X000980Y001940D03*
X000990Y001960D03*
X001020Y002410D03*
X001140Y002740D03*
X001140Y002760D03*
X001130Y002790D03*
X001140Y003000D03*
X000830Y003000D03*
X000820Y002990D03*
X000810Y002980D03*
X000800Y002970D03*
X000800Y002960D03*
X000790Y002940D03*
X000790Y002930D03*
X000790Y002910D03*
X000790Y002900D03*
X000930Y003330D03*
X001090Y003460D03*
X001090Y003470D03*
X001090Y003480D03*
X001100Y003450D03*
X001040Y003550D03*
X000490Y003350D03*
X000480Y003370D03*
X001650Y003180D03*
X001660Y003220D03*
X001660Y003240D03*
X001660Y003250D03*
X001670Y003280D03*
X001670Y003290D03*
X001670Y003300D03*
X001680Y003340D03*
X001680Y003350D03*
X001680Y003360D03*
X001680Y003380D03*
X001680Y003410D03*
X001650Y003120D03*
X001650Y003100D03*
X001650Y003080D03*
X001860Y003060D03*
X001860Y003020D03*
X001860Y003010D03*
X001850Y002990D03*
X001840Y002970D03*
X001830Y002930D03*
X001830Y002920D03*
X001830Y002910D03*
X001830Y002900D03*
X001830Y002890D03*
X001830Y002870D03*
X001830Y002860D03*
X001840Y002820D03*
X001840Y002810D03*
X001840Y002760D03*
X001830Y002740D03*
X001820Y002550D03*
X001820Y002540D03*
X001820Y002510D03*
X001820Y002490D03*
X001820Y002480D03*
X002690Y003450D03*
X002690Y003460D03*
D25*
X001895Y003160D03*
X001885Y003140D03*
X001625Y002950D03*
X001625Y002940D03*
X001635Y002930D03*
X001635Y002920D03*
X001635Y002910D03*
X001285Y003310D03*
X001125Y003420D03*
X001035Y003530D03*
X000815Y003510D03*
X000785Y003370D03*
X000675Y003150D03*
X000625Y003180D03*
X000495Y003410D03*
X000905Y002740D03*
X000705Y002480D03*
X001055Y002040D03*
X001045Y002030D03*
X001125Y002100D03*
X001155Y002120D03*
X001285Y001990D03*
X001275Y001980D03*
X001215Y001940D03*
X001205Y001930D03*
X001155Y001880D03*
X001125Y001850D03*
X001795Y003640D03*
X001795Y003650D03*
D26*
X001910Y003180D03*
X001900Y003170D03*
X001610Y002980D03*
X001610Y002970D03*
X001620Y002960D03*
X001340Y003270D03*
X001330Y003280D03*
X001310Y003290D03*
X001300Y003300D03*
X001270Y003320D03*
X001250Y003330D03*
X001190Y003380D03*
X001080Y003020D03*
X001130Y002690D03*
X001060Y002610D03*
X000990Y002450D03*
X001080Y002220D03*
X001170Y002130D03*
X001120Y002090D03*
X001090Y002060D03*
X001080Y002050D03*
X001230Y001950D03*
X001240Y001960D03*
X001260Y001970D03*
X001300Y002000D03*
X001340Y002040D03*
X001140Y001870D03*
X001130Y001860D03*
X000700Y002460D03*
X000830Y002870D03*
X000700Y003140D03*
X000640Y003170D03*
X000870Y003230D03*
X000810Y003410D03*
X001610Y002190D03*
X001630Y002200D03*
X001640Y002210D03*
X002530Y003770D03*
X002520Y003780D03*
D27*
X002700Y003520D03*
X002700Y003510D03*
X002700Y003500D03*
X002700Y003490D03*
X001650Y002800D03*
X001180Y002600D03*
X001170Y002460D03*
X001030Y002400D03*
X000980Y001900D03*
X000940Y003340D03*
D28*
X001145Y003410D03*
X001195Y003370D03*
X001235Y003340D03*
X001135Y002680D03*
X000975Y002460D03*
X001075Y002230D03*
X001125Y002080D03*
X001105Y002070D03*
X001305Y002010D03*
X001315Y002020D03*
X001335Y002030D03*
X001355Y002050D03*
X001505Y002120D03*
X001515Y002130D03*
X001595Y002180D03*
X001305Y002510D03*
X000905Y002750D03*
X000715Y002450D03*
X000755Y003100D03*
X000705Y003130D03*
X000655Y003160D03*
X001805Y003660D03*
X001815Y003670D03*
D29*
X002405Y003300D03*
X001415Y002080D03*
X001035Y002260D03*
X001055Y002870D03*
D30*
X001215Y002820D03*
X001195Y002970D03*
X001085Y003380D03*
X000735Y003510D03*
X001155Y002440D03*
X001145Y002430D03*
X001135Y002420D03*
X001135Y002410D03*
X001205Y002090D03*
X001695Y002570D03*
X001685Y002650D03*
X001675Y002680D03*
X001675Y002690D03*
X001675Y002700D03*
X001665Y002750D03*
X002245Y003300D03*
X002355Y003870D03*
X002435Y003860D03*
X002655Y003520D03*
D31*
X002640Y003510D03*
X002440Y003780D03*
X002290Y003790D03*
X002160Y003760D03*
X001680Y002670D03*
X001680Y002660D03*
X001700Y002600D03*
X001700Y002590D03*
X001700Y002580D03*
X001400Y002120D03*
X001230Y002120D03*
X001200Y002960D03*
X001110Y003030D03*
X001070Y002980D03*
X000880Y003210D03*
X000850Y003380D03*
X000860Y003390D03*
X000940Y003430D03*
X001050Y003560D03*
X000710Y003510D03*
X000570Y003410D03*
X000750Y002370D03*
D32*
X000730Y002490D03*
X000800Y002560D03*
X000970Y002470D03*
X001070Y002240D03*
X001130Y002670D03*
X000900Y002760D03*
X000720Y003120D03*
X000870Y003240D03*
X001210Y003360D03*
X001220Y003350D03*
X001600Y002990D03*
X001990Y003220D03*
X002020Y003250D03*
X002030Y003260D03*
X002040Y003270D03*
X001870Y003700D03*
X001890Y003710D03*
X002610Y003390D03*
X001580Y002170D03*
X001560Y002150D03*
X001550Y002140D03*
D33*
X001590Y003010D03*
X001050Y002880D03*
X001110Y002630D03*
X000910Y002790D03*
X000850Y003060D03*
X000860Y003250D03*
X001050Y002250D03*
D34*
X001030Y002270D03*
X001020Y002280D03*
X000950Y002490D03*
X001110Y002620D03*
X001050Y002830D03*
X000860Y003260D03*
D35*
X000835Y003330D03*
X000895Y003390D03*
X000915Y003370D03*
X000925Y003360D03*
X000935Y003350D03*
X000935Y003440D03*
X000815Y003420D03*
X000895Y002730D03*
X001045Y002390D03*
X001105Y002300D03*
X001105Y002290D03*
X001175Y002510D03*
X001165Y002520D03*
X001175Y002530D03*
X001175Y002540D03*
X001175Y002550D03*
X001175Y002560D03*
X001175Y002570D03*
X001175Y002580D03*
X001175Y002590D03*
X001665Y002760D03*
X001665Y002770D03*
X001665Y002780D03*
X001655Y002790D03*
X002385Y003390D03*
D36*
X001670Y002740D03*
X001670Y002730D03*
X001670Y002720D03*
X001670Y002710D03*
X001360Y002480D03*
X001160Y002450D03*
X001130Y002400D03*
X001130Y002390D03*
X001120Y002380D03*
X001120Y002370D03*
X001110Y002360D03*
X001110Y002350D03*
X001110Y002340D03*
X001110Y002330D03*
X001110Y002320D03*
X001110Y002310D03*
X001200Y002830D03*
X001180Y002980D03*
X000910Y003380D03*
D37*
X000850Y003280D03*
X000890Y003050D03*
X001270Y002500D03*
X001270Y002490D03*
D38*
X000860Y002500D03*
D39*
X000865Y002510D03*
D40*
X000870Y002520D03*
D41*
X000820Y002530D03*
X001070Y002840D03*
X000850Y003300D03*
X000850Y003310D03*
D42*
X000855Y003270D03*
X000575Y003440D03*
X001065Y002860D03*
X001045Y002820D03*
X000805Y002540D03*
D43*
X000995Y002890D03*
X001075Y002850D03*
X000855Y003290D03*
X002015Y003760D03*
D44*
X002080Y003790D03*
X000940Y003030D03*
D45*
X000925Y003040D03*
X002265Y003860D03*
D46*
X002275Y003310D03*
D47*
X002300Y003320D03*
X002310Y003330D03*
D48*
X002355Y003340D03*
X002265Y003810D03*
D49*
X002370Y003350D03*
D50*
X002400Y003360D03*
X002270Y003820D03*
D51*
X002415Y003370D03*
D52*
X002435Y003380D03*
X000875Y003500D03*
X000775Y003470D03*
X000735Y003460D03*
D53*
X000615Y003450D03*
D54*
X000790Y003480D03*
X002280Y003830D03*
D55*
X000810Y003490D03*
D56*
X002065Y003770D03*
X002075Y003780D03*
D57*
X002135Y003800D03*
D58*
X002295Y003840D03*
D59*
X002285Y003850D03*
D60*
X007438Y006116D02*
X007394Y006085D01*
X007395Y006085D02*
X007367Y006121D01*
X007336Y006154D01*
X007304Y006184D01*
X007268Y006212D01*
X007231Y006237D01*
X007192Y006259D01*
X007152Y006278D01*
X007109Y006294D01*
X007066Y006307D01*
X007022Y006316D01*
X006978Y006321D01*
X006933Y006323D01*
X006933Y006376D01*
X006933Y006377D01*
X006982Y006375D01*
X007031Y006369D01*
X007079Y006359D01*
X007126Y006345D01*
X007172Y006328D01*
X007217Y006308D01*
X007260Y006283D01*
X007300Y006256D01*
X007339Y006225D01*
X007375Y006192D01*
X007408Y006156D01*
X007438Y006117D01*
X007434Y006114D01*
X007404Y006152D01*
X007371Y006188D01*
X007336Y006221D01*
X007298Y006252D01*
X007257Y006279D01*
X007215Y006303D01*
X007170Y006324D01*
X007125Y006341D01*
X007078Y006354D01*
X007030Y006364D01*
X006982Y006370D01*
X006933Y006372D01*
X006933Y006367D01*
X006981Y006365D01*
X007029Y006359D01*
X007077Y006349D01*
X007123Y006336D01*
X007169Y006319D01*
X007212Y006299D01*
X007254Y006275D01*
X007295Y006248D01*
X007332Y006218D01*
X007368Y006185D01*
X007401Y006149D01*
X007430Y006111D01*
X007426Y006108D01*
X007397Y006146D01*
X007364Y006181D01*
X007329Y006214D01*
X007292Y006244D01*
X007252Y006271D01*
X007210Y006294D01*
X007167Y006314D01*
X007122Y006331D01*
X007076Y006344D01*
X007029Y006354D01*
X006981Y006360D01*
X006933Y006362D01*
X006933Y006357D01*
X006981Y006355D01*
X007028Y006349D01*
X007074Y006340D01*
X007120Y006326D01*
X007165Y006310D01*
X007208Y006290D01*
X007249Y006266D01*
X007289Y006240D01*
X007326Y006210D01*
X007361Y006178D01*
X007393Y006143D01*
X007422Y006105D01*
X007418Y006102D01*
X007389Y006139D01*
X007357Y006174D01*
X007323Y006206D01*
X007286Y006236D01*
X007247Y006262D01*
X007205Y006285D01*
X007163Y006305D01*
X007119Y006322D01*
X007073Y006335D01*
X007027Y006344D01*
X006980Y006350D01*
X006933Y006352D01*
X006933Y006347D01*
X006980Y006345D01*
X007026Y006339D01*
X007072Y006330D01*
X007117Y006317D01*
X007161Y006301D01*
X007203Y006281D01*
X007244Y006258D01*
X007283Y006232D01*
X007319Y006203D01*
X007354Y006171D01*
X007385Y006136D01*
X007414Y006099D01*
X007410Y006097D01*
X007381Y006133D01*
X007350Y006167D01*
X007316Y006199D01*
X007280Y006228D01*
X007241Y006254D01*
X007201Y006276D01*
X007159Y006296D01*
X007115Y006312D01*
X007071Y006325D01*
X007025Y006334D01*
X006979Y006340D01*
X006933Y006342D01*
X006933Y006337D01*
X006979Y006335D01*
X007025Y006329D01*
X007070Y006320D01*
X007114Y006307D01*
X007157Y006291D01*
X007199Y006272D01*
X007239Y006249D01*
X007277Y006224D01*
X007313Y006195D01*
X007346Y006164D01*
X007378Y006130D01*
X007406Y006094D01*
X007402Y006091D01*
X007374Y006127D01*
X007343Y006160D01*
X007310Y006191D01*
X007274Y006220D01*
X007236Y006245D01*
X007196Y006267D01*
X007155Y006287D01*
X007112Y006303D01*
X007068Y006315D01*
X007024Y006324D01*
X006979Y006330D01*
X006933Y006332D01*
X006933Y006327D01*
X006978Y006325D01*
X007023Y006319D01*
X007067Y006310D01*
X007111Y006298D01*
X007153Y006282D01*
X007194Y006263D01*
X007233Y006241D01*
X007271Y006216D01*
X007306Y006187D01*
X007339Y006157D01*
X007370Y006123D01*
X007398Y006088D01*
X006437Y005363D02*
X006480Y005396D01*
X006510Y005360D01*
X006543Y005327D01*
X006579Y005297D01*
X006617Y005270D01*
X006657Y005246D01*
X006699Y005225D01*
X006743Y005208D01*
X006788Y005195D01*
X006834Y005185D01*
X006880Y005179D01*
X006927Y005177D01*
X006927Y005124D01*
X006927Y005123D01*
X006880Y005125D01*
X006833Y005130D01*
X006787Y005139D01*
X006742Y005152D01*
X006698Y005168D01*
X006655Y005187D01*
X006613Y005209D01*
X006573Y005234D01*
X006536Y005262D01*
X006500Y005293D01*
X006467Y005327D01*
X006437Y005363D01*
X006441Y005366D01*
X006471Y005330D01*
X006504Y005297D01*
X006539Y005266D01*
X006576Y005238D01*
X006616Y005213D01*
X006657Y005191D01*
X006699Y005172D01*
X006743Y005157D01*
X006788Y005144D01*
X006834Y005135D01*
X006880Y005130D01*
X006927Y005128D01*
X006927Y005133D01*
X006881Y005135D01*
X006835Y005140D01*
X006789Y005149D01*
X006745Y005161D01*
X006701Y005177D01*
X006659Y005196D01*
X006618Y005218D01*
X006579Y005242D01*
X006542Y005270D01*
X006507Y005301D01*
X006475Y005334D01*
X006445Y005369D01*
X006449Y005372D01*
X006478Y005337D01*
X006511Y005304D01*
X006545Y005274D01*
X006582Y005247D01*
X006621Y005222D01*
X006661Y005200D01*
X006703Y005182D01*
X006746Y005166D01*
X006791Y005154D01*
X006836Y005145D01*
X006881Y005140D01*
X006927Y005138D01*
X006927Y005143D01*
X006882Y005145D01*
X006836Y005150D01*
X006792Y005159D01*
X006748Y005171D01*
X006705Y005186D01*
X006663Y005205D01*
X006623Y005226D01*
X006585Y005251D01*
X006548Y005278D01*
X006514Y005308D01*
X006482Y005340D01*
X006453Y005375D01*
X006457Y005378D01*
X006486Y005344D01*
X006518Y005312D01*
X006552Y005282D01*
X006588Y005255D01*
X006626Y005231D01*
X006665Y005209D01*
X006707Y005191D01*
X006749Y005176D01*
X006793Y005164D01*
X006837Y005155D01*
X006882Y005150D01*
X006927Y005148D01*
X006927Y005153D01*
X006882Y005155D01*
X006838Y005160D01*
X006794Y005169D01*
X006751Y005181D01*
X006709Y005196D01*
X006668Y005214D01*
X006628Y005235D01*
X006591Y005259D01*
X006555Y005286D01*
X006521Y005315D01*
X006490Y005347D01*
X006461Y005381D01*
X006465Y005384D01*
X006493Y005350D01*
X006524Y005319D01*
X006558Y005290D01*
X006593Y005263D01*
X006631Y005239D01*
X006670Y005218D01*
X006710Y005200D01*
X006752Y005185D01*
X006795Y005174D01*
X006839Y005165D01*
X006883Y005160D01*
X006927Y005158D01*
X006927Y005163D01*
X006883Y005165D01*
X006839Y005170D01*
X006796Y005178D01*
X006754Y005190D01*
X006712Y005205D01*
X006672Y005223D01*
X006633Y005243D01*
X006596Y005267D01*
X006561Y005293D01*
X006528Y005322D01*
X006497Y005354D01*
X006468Y005387D01*
X006472Y005390D01*
X006503Y005354D01*
X006537Y005321D01*
X006573Y005290D01*
X006612Y005262D01*
X006653Y005238D01*
X006696Y005217D01*
X006740Y005200D01*
X006786Y005186D01*
X006832Y005176D01*
X006879Y005170D01*
X006927Y005168D01*
X006927Y005173D01*
X006880Y005175D01*
X006833Y005181D01*
X006787Y005191D01*
X006742Y005205D01*
X006698Y005222D01*
X006656Y005242D01*
X006615Y005267D01*
X006577Y005294D01*
X006540Y005324D01*
X006507Y005358D01*
X006476Y005393D01*
X006933Y005124D02*
X006933Y005178D01*
X006933Y005177D02*
X006980Y005179D01*
X007026Y005185D01*
X007072Y005195D01*
X007117Y005208D01*
X007161Y005225D01*
X007203Y005246D01*
X007243Y005270D01*
X007281Y005297D01*
X007317Y005327D01*
X007350Y005360D01*
X007380Y005396D01*
X007423Y005363D01*
X007393Y005327D01*
X007360Y005293D01*
X007324Y005262D01*
X007287Y005234D01*
X007247Y005209D01*
X007205Y005187D01*
X007162Y005168D01*
X007118Y005152D01*
X007073Y005139D01*
X007027Y005130D01*
X006980Y005125D01*
X006933Y005123D01*
X006933Y005128D01*
X006980Y005130D01*
X007026Y005135D01*
X007072Y005144D01*
X007117Y005157D01*
X007161Y005172D01*
X007203Y005191D01*
X007244Y005213D01*
X007284Y005238D01*
X007321Y005266D01*
X007356Y005297D01*
X007389Y005330D01*
X007419Y005366D01*
X007415Y005369D01*
X007385Y005334D01*
X007353Y005301D01*
X007318Y005270D01*
X007281Y005242D01*
X007242Y005218D01*
X007201Y005196D01*
X007159Y005177D01*
X007115Y005161D01*
X007071Y005149D01*
X007025Y005140D01*
X006979Y005135D01*
X006933Y005133D01*
X006933Y005138D01*
X006979Y005140D01*
X007024Y005145D01*
X007069Y005154D01*
X007114Y005166D01*
X007157Y005182D01*
X007199Y005200D01*
X007239Y005222D01*
X007278Y005247D01*
X007315Y005274D01*
X007349Y005304D01*
X007382Y005337D01*
X007411Y005372D01*
X007407Y005375D01*
X007378Y005340D01*
X007346Y005308D01*
X007312Y005278D01*
X007275Y005251D01*
X007237Y005226D01*
X007197Y005205D01*
X007155Y005186D01*
X007112Y005171D01*
X007068Y005159D01*
X007024Y005150D01*
X006978Y005145D01*
X006933Y005143D01*
X006933Y005148D01*
X006978Y005150D01*
X007023Y005155D01*
X007067Y005164D01*
X007111Y005176D01*
X007153Y005191D01*
X007195Y005209D01*
X007234Y005231D01*
X007272Y005255D01*
X007308Y005282D01*
X007342Y005312D01*
X007374Y005344D01*
X007403Y005378D01*
X007399Y005381D01*
X007370Y005347D01*
X007339Y005315D01*
X007305Y005286D01*
X007269Y005259D01*
X007232Y005235D01*
X007192Y005214D01*
X007151Y005196D01*
X007109Y005181D01*
X007066Y005169D01*
X007022Y005160D01*
X006978Y005155D01*
X006933Y005153D01*
X006933Y005158D01*
X006977Y005160D01*
X007021Y005165D01*
X007065Y005174D01*
X007108Y005185D01*
X007150Y005200D01*
X007190Y005218D01*
X007229Y005239D01*
X007267Y005263D01*
X007302Y005290D01*
X007336Y005319D01*
X007367Y005350D01*
X007395Y005384D01*
X007392Y005387D01*
X007363Y005354D01*
X007332Y005322D01*
X007299Y005293D01*
X007264Y005267D01*
X007227Y005243D01*
X007188Y005223D01*
X007148Y005205D01*
X007106Y005190D01*
X007064Y005178D01*
X007021Y005170D01*
X006977Y005165D01*
X006933Y005163D01*
X006933Y005168D01*
X006981Y005170D01*
X007028Y005176D01*
X007074Y005186D01*
X007120Y005200D01*
X007164Y005217D01*
X007207Y005238D01*
X007248Y005262D01*
X007287Y005290D01*
X007323Y005321D01*
X007357Y005354D01*
X007388Y005390D01*
X007384Y005393D01*
X007353Y005358D01*
X007320Y005324D01*
X007283Y005294D01*
X007245Y005267D01*
X007204Y005242D01*
X007162Y005222D01*
X007118Y005205D01*
X007073Y005191D01*
X007027Y005181D01*
X006980Y005175D01*
X006933Y005173D01*
X006928Y006376D02*
X006928Y006322D01*
X006927Y006323D02*
X006883Y006321D01*
X006840Y006316D01*
X006797Y006307D01*
X006755Y006296D01*
X006714Y006281D01*
X006674Y006263D01*
X006635Y006241D01*
X006599Y006218D01*
X006564Y006191D01*
X006531Y006162D01*
X006501Y006130D01*
X006473Y006096D01*
X006431Y006128D01*
X006430Y006129D01*
X006461Y006166D01*
X006494Y006200D01*
X006529Y006232D01*
X006567Y006262D01*
X006608Y006288D01*
X006650Y006311D01*
X006693Y006331D01*
X006738Y006347D01*
X006784Y006360D01*
X006832Y006369D01*
X006879Y006375D01*
X006927Y006377D01*
X006927Y006372D01*
X006879Y006370D01*
X006832Y006364D01*
X006786Y006355D01*
X006740Y006342D01*
X006695Y006326D01*
X006652Y006306D01*
X006610Y006283D01*
X006570Y006257D01*
X006533Y006229D01*
X006497Y006197D01*
X006464Y006162D01*
X006434Y006126D01*
X006438Y006123D01*
X006468Y006159D01*
X006501Y006193D01*
X006536Y006225D01*
X006573Y006253D01*
X006613Y006279D01*
X006654Y006302D01*
X006697Y006321D01*
X006741Y006337D01*
X006787Y006350D01*
X006833Y006359D01*
X006880Y006365D01*
X006927Y006367D01*
X006927Y006362D01*
X006880Y006360D01*
X006834Y006354D01*
X006788Y006345D01*
X006743Y006333D01*
X006699Y006317D01*
X006656Y006297D01*
X006615Y006275D01*
X006576Y006249D01*
X006539Y006221D01*
X006504Y006190D01*
X006472Y006156D01*
X006442Y006120D01*
X006446Y006117D01*
X006476Y006152D01*
X006508Y006186D01*
X006542Y006217D01*
X006579Y006245D01*
X006618Y006271D01*
X006659Y006293D01*
X006701Y006312D01*
X006744Y006328D01*
X006789Y006340D01*
X006835Y006349D01*
X006881Y006355D01*
X006927Y006357D01*
X006927Y006352D01*
X006881Y006350D01*
X006835Y006345D01*
X006790Y006336D01*
X006746Y006323D01*
X006703Y006307D01*
X006661Y006288D01*
X006620Y006266D01*
X006582Y006241D01*
X006545Y006213D01*
X006511Y006182D01*
X006479Y006149D01*
X006450Y006114D01*
X006454Y006111D01*
X006483Y006146D01*
X006515Y006179D01*
X006549Y006209D01*
X006585Y006237D01*
X006623Y006262D01*
X006663Y006284D01*
X006705Y006303D01*
X006747Y006318D01*
X006791Y006331D01*
X006836Y006340D01*
X006881Y006345D01*
X006927Y006347D01*
X006927Y006342D01*
X006882Y006340D01*
X006837Y006335D01*
X006793Y006326D01*
X006749Y006314D01*
X006706Y006298D01*
X006665Y006280D01*
X006626Y006258D01*
X006588Y006233D01*
X006552Y006205D01*
X006518Y006175D01*
X006487Y006143D01*
X006458Y006108D01*
X006462Y006105D01*
X006491Y006139D01*
X006522Y006172D01*
X006555Y006202D01*
X006591Y006229D01*
X006628Y006253D01*
X006667Y006275D01*
X006708Y006294D01*
X006750Y006309D01*
X006794Y006321D01*
X006838Y006330D01*
X006882Y006335D01*
X006927Y006337D01*
X006927Y006332D01*
X006883Y006330D01*
X006838Y006325D01*
X006795Y006316D01*
X006752Y006304D01*
X006710Y006289D01*
X006670Y006271D01*
X006631Y006249D01*
X006594Y006225D01*
X006558Y006198D01*
X006525Y006168D01*
X006494Y006136D01*
X006466Y006102D01*
X006470Y006099D01*
X006498Y006133D01*
X006529Y006165D01*
X006561Y006194D01*
X006596Y006221D01*
X006633Y006245D01*
X006672Y006266D01*
X006712Y006284D01*
X006754Y006299D01*
X006796Y006311D01*
X006839Y006320D01*
X006883Y006325D01*
X006927Y006327D01*
X006454Y015848D02*
X006508Y015848D01*
X006507Y015847D02*
X006509Y015832D01*
X006515Y015817D01*
X006523Y015804D01*
X006534Y015793D01*
X006547Y015785D01*
X006562Y015779D01*
X006577Y015777D01*
X006578Y015724D01*
X006577Y015723D01*
X006556Y015725D01*
X006535Y015731D01*
X006516Y015741D01*
X006498Y015753D01*
X006483Y015768D01*
X006471Y015786D01*
X006461Y015805D01*
X006455Y015826D01*
X006453Y015847D01*
X006458Y015847D01*
X006460Y015827D01*
X006466Y015807D01*
X006475Y015788D01*
X006487Y015771D01*
X006501Y015757D01*
X006518Y015745D01*
X006537Y015736D01*
X006557Y015730D01*
X006577Y015728D01*
X006577Y015733D01*
X006557Y015735D01*
X006538Y015741D01*
X006521Y015749D01*
X006505Y015761D01*
X006491Y015775D01*
X006479Y015791D01*
X006471Y015808D01*
X006465Y015827D01*
X006463Y015847D01*
X006468Y015847D01*
X006470Y015828D01*
X006475Y015810D01*
X006484Y015793D01*
X006494Y015778D01*
X006508Y015764D01*
X006523Y015754D01*
X006540Y015745D01*
X006558Y015740D01*
X006577Y015738D01*
X006577Y015743D01*
X006557Y015746D01*
X006538Y015752D01*
X006520Y015761D01*
X006504Y015774D01*
X006491Y015790D01*
X006482Y015808D01*
X006476Y015827D01*
X006473Y015847D01*
X006478Y015847D01*
X006480Y015828D01*
X006486Y015810D01*
X006496Y015793D01*
X006508Y015778D01*
X006523Y015766D01*
X006540Y015756D01*
X006558Y015750D01*
X006577Y015748D01*
X006577Y015753D01*
X006559Y015755D01*
X006541Y015761D01*
X006525Y015770D01*
X006511Y015781D01*
X006500Y015795D01*
X006491Y015811D01*
X006485Y015829D01*
X006483Y015847D01*
X006488Y015847D01*
X006490Y015830D01*
X006496Y015813D01*
X006504Y015798D01*
X006515Y015785D01*
X006528Y015774D01*
X006543Y015766D01*
X006560Y015760D01*
X006577Y015758D01*
X006577Y015763D01*
X006561Y015765D01*
X006545Y015770D01*
X006531Y015778D01*
X006518Y015788D01*
X006508Y015801D01*
X006500Y015815D01*
X006495Y015831D01*
X006493Y015847D01*
X006498Y015847D01*
X006501Y015830D01*
X006507Y015813D01*
X006516Y015799D01*
X006529Y015786D01*
X006543Y015777D01*
X006560Y015771D01*
X006577Y015768D01*
X006577Y015773D01*
X006561Y015775D01*
X006545Y015781D01*
X006532Y015790D01*
X006520Y015802D01*
X006511Y015815D01*
X006505Y015831D01*
X006503Y015847D01*
X006282Y015724D02*
X006282Y015778D01*
X006283Y015777D02*
X006298Y015779D01*
X006313Y015785D01*
X006326Y015793D01*
X006337Y015804D01*
X006345Y015817D01*
X006351Y015832D01*
X006353Y015847D01*
X006406Y015848D01*
X006407Y015847D01*
X006405Y015826D01*
X006399Y015805D01*
X006389Y015786D01*
X006377Y015768D01*
X006362Y015753D01*
X006344Y015741D01*
X006325Y015731D01*
X006304Y015725D01*
X006283Y015723D01*
X006283Y015728D01*
X006303Y015730D01*
X006323Y015736D01*
X006342Y015745D01*
X006359Y015757D01*
X006373Y015771D01*
X006385Y015788D01*
X006394Y015807D01*
X006400Y015827D01*
X006402Y015847D01*
X006397Y015847D01*
X006395Y015827D01*
X006389Y015808D01*
X006381Y015791D01*
X006369Y015775D01*
X006355Y015761D01*
X006339Y015749D01*
X006322Y015741D01*
X006303Y015735D01*
X006283Y015733D01*
X006283Y015738D01*
X006302Y015740D01*
X006320Y015745D01*
X006337Y015754D01*
X006352Y015764D01*
X006366Y015778D01*
X006376Y015793D01*
X006385Y015810D01*
X006390Y015828D01*
X006392Y015847D01*
X006387Y015847D01*
X006384Y015827D01*
X006378Y015808D01*
X006369Y015790D01*
X006356Y015774D01*
X006340Y015761D01*
X006322Y015752D01*
X006303Y015746D01*
X006283Y015743D01*
X006283Y015748D01*
X006302Y015750D01*
X006320Y015756D01*
X006337Y015766D01*
X006352Y015778D01*
X006364Y015793D01*
X006374Y015810D01*
X006380Y015828D01*
X006382Y015847D01*
X006377Y015847D01*
X006375Y015829D01*
X006369Y015811D01*
X006360Y015795D01*
X006349Y015781D01*
X006335Y015770D01*
X006319Y015761D01*
X006301Y015755D01*
X006283Y015753D01*
X006283Y015758D01*
X006300Y015760D01*
X006317Y015766D01*
X006332Y015774D01*
X006345Y015785D01*
X006356Y015798D01*
X006364Y015813D01*
X006370Y015830D01*
X006372Y015847D01*
X006367Y015847D01*
X006365Y015831D01*
X006360Y015815D01*
X006352Y015801D01*
X006342Y015788D01*
X006329Y015778D01*
X006315Y015770D01*
X006299Y015765D01*
X006283Y015763D01*
X006283Y015768D01*
X006300Y015771D01*
X006317Y015777D01*
X006331Y015786D01*
X006344Y015799D01*
X006353Y015813D01*
X006359Y015830D01*
X006362Y015847D01*
X006357Y015847D01*
X006355Y015831D01*
X006349Y015815D01*
X006340Y015802D01*
X006328Y015790D01*
X006315Y015781D01*
X006299Y015775D01*
X006283Y015773D01*
X005454Y015848D02*
X005508Y015848D01*
X005507Y015847D02*
X005509Y015832D01*
X005515Y015817D01*
X005523Y015804D01*
X005534Y015793D01*
X005547Y015785D01*
X005562Y015779D01*
X005577Y015777D01*
X005578Y015724D01*
X005577Y015723D01*
X005556Y015725D01*
X005535Y015731D01*
X005516Y015741D01*
X005498Y015753D01*
X005483Y015768D01*
X005471Y015786D01*
X005461Y015805D01*
X005455Y015826D01*
X005453Y015847D01*
X005458Y015847D01*
X005460Y015827D01*
X005466Y015807D01*
X005475Y015788D01*
X005487Y015771D01*
X005501Y015757D01*
X005518Y015745D01*
X005537Y015736D01*
X005557Y015730D01*
X005577Y015728D01*
X005577Y015733D01*
X005557Y015735D01*
X005538Y015741D01*
X005521Y015749D01*
X005505Y015761D01*
X005491Y015775D01*
X005479Y015791D01*
X005471Y015808D01*
X005465Y015827D01*
X005463Y015847D01*
X005468Y015847D01*
X005470Y015828D01*
X005475Y015810D01*
X005484Y015793D01*
X005494Y015778D01*
X005508Y015764D01*
X005523Y015754D01*
X005540Y015745D01*
X005558Y015740D01*
X005577Y015738D01*
X005577Y015743D01*
X005557Y015746D01*
X005538Y015752D01*
X005520Y015761D01*
X005504Y015774D01*
X005491Y015790D01*
X005482Y015808D01*
X005476Y015827D01*
X005473Y015847D01*
X005478Y015847D01*
X005480Y015828D01*
X005486Y015810D01*
X005496Y015793D01*
X005508Y015778D01*
X005523Y015766D01*
X005540Y015756D01*
X005558Y015750D01*
X005577Y015748D01*
X005577Y015753D01*
X005559Y015755D01*
X005541Y015761D01*
X005525Y015770D01*
X005511Y015781D01*
X005500Y015795D01*
X005491Y015811D01*
X005485Y015829D01*
X005483Y015847D01*
X005488Y015847D01*
X005490Y015830D01*
X005496Y015813D01*
X005504Y015798D01*
X005515Y015785D01*
X005528Y015774D01*
X005543Y015766D01*
X005560Y015760D01*
X005577Y015758D01*
X005577Y015763D01*
X005561Y015765D01*
X005545Y015770D01*
X005531Y015778D01*
X005518Y015788D01*
X005508Y015801D01*
X005500Y015815D01*
X005495Y015831D01*
X005493Y015847D01*
X005498Y015847D01*
X005501Y015830D01*
X005507Y015813D01*
X005516Y015799D01*
X005529Y015786D01*
X005543Y015777D01*
X005560Y015771D01*
X005577Y015768D01*
X005577Y015773D01*
X005561Y015775D01*
X005545Y015781D01*
X005532Y015790D01*
X005520Y015802D01*
X005511Y015815D01*
X005505Y015831D01*
X005503Y015847D01*
X005282Y015724D02*
X005282Y015778D01*
X005283Y015777D02*
X005298Y015779D01*
X005313Y015785D01*
X005326Y015793D01*
X005337Y015804D01*
X005345Y015817D01*
X005351Y015832D01*
X005353Y015847D01*
X005406Y015848D01*
X005407Y015847D01*
X005405Y015826D01*
X005399Y015805D01*
X005389Y015786D01*
X005377Y015768D01*
X005362Y015753D01*
X005344Y015741D01*
X005325Y015731D01*
X005304Y015725D01*
X005283Y015723D01*
X005283Y015728D01*
X005303Y015730D01*
X005323Y015736D01*
X005342Y015745D01*
X005359Y015757D01*
X005373Y015771D01*
X005385Y015788D01*
X005394Y015807D01*
X005400Y015827D01*
X005402Y015847D01*
X005397Y015847D01*
X005395Y015827D01*
X005389Y015808D01*
X005381Y015791D01*
X005369Y015775D01*
X005355Y015761D01*
X005339Y015749D01*
X005322Y015741D01*
X005303Y015735D01*
X005283Y015733D01*
X005283Y015738D01*
X005302Y015740D01*
X005320Y015745D01*
X005337Y015754D01*
X005352Y015764D01*
X005366Y015778D01*
X005376Y015793D01*
X005385Y015810D01*
X005390Y015828D01*
X005392Y015847D01*
X005387Y015847D01*
X005384Y015827D01*
X005378Y015808D01*
X005369Y015790D01*
X005356Y015774D01*
X005340Y015761D01*
X005322Y015752D01*
X005303Y015746D01*
X005283Y015743D01*
X005283Y015748D01*
X005302Y015750D01*
X005320Y015756D01*
X005337Y015766D01*
X005352Y015778D01*
X005364Y015793D01*
X005374Y015810D01*
X005380Y015828D01*
X005382Y015847D01*
X005377Y015847D01*
X005375Y015829D01*
X005369Y015811D01*
X005360Y015795D01*
X005349Y015781D01*
X005335Y015770D01*
X005319Y015761D01*
X005301Y015755D01*
X005283Y015753D01*
X005283Y015758D01*
X005300Y015760D01*
X005317Y015766D01*
X005332Y015774D01*
X005345Y015785D01*
X005356Y015798D01*
X005364Y015813D01*
X005370Y015830D01*
X005372Y015847D01*
X005367Y015847D01*
X005365Y015831D01*
X005360Y015815D01*
X005352Y015801D01*
X005342Y015788D01*
X005329Y015778D01*
X005315Y015770D01*
X005299Y015765D01*
X005283Y015763D01*
X005283Y015768D01*
X005300Y015771D01*
X005317Y015777D01*
X005331Y015786D01*
X005344Y015799D01*
X005353Y015813D01*
X005359Y015830D01*
X005362Y015847D01*
X005357Y015847D01*
X005355Y015831D01*
X005349Y015815D01*
X005340Y015802D01*
X005328Y015790D01*
X005315Y015781D01*
X005299Y015775D01*
X005283Y015773D01*
X004454Y015848D02*
X004508Y015848D01*
X004507Y015847D02*
X004509Y015832D01*
X004515Y015817D01*
X004523Y015804D01*
X004534Y015793D01*
X004547Y015785D01*
X004562Y015779D01*
X004577Y015777D01*
X004578Y015724D01*
X004577Y015723D01*
X004556Y015725D01*
X004535Y015731D01*
X004516Y015741D01*
X004498Y015753D01*
X004483Y015768D01*
X004471Y015786D01*
X004461Y015805D01*
X004455Y015826D01*
X004453Y015847D01*
X004458Y015847D01*
X004460Y015827D01*
X004466Y015807D01*
X004475Y015788D01*
X004487Y015771D01*
X004501Y015757D01*
X004518Y015745D01*
X004537Y015736D01*
X004557Y015730D01*
X004577Y015728D01*
X004577Y015733D01*
X004557Y015735D01*
X004538Y015741D01*
X004521Y015749D01*
X004505Y015761D01*
X004491Y015775D01*
X004479Y015791D01*
X004471Y015808D01*
X004465Y015827D01*
X004463Y015847D01*
X004468Y015847D01*
X004470Y015828D01*
X004475Y015810D01*
X004484Y015793D01*
X004494Y015778D01*
X004508Y015764D01*
X004523Y015754D01*
X004540Y015745D01*
X004558Y015740D01*
X004577Y015738D01*
X004577Y015743D01*
X004557Y015746D01*
X004538Y015752D01*
X004520Y015761D01*
X004504Y015774D01*
X004491Y015790D01*
X004482Y015808D01*
X004476Y015827D01*
X004473Y015847D01*
X004478Y015847D01*
X004480Y015828D01*
X004486Y015810D01*
X004496Y015793D01*
X004508Y015778D01*
X004523Y015766D01*
X004540Y015756D01*
X004558Y015750D01*
X004577Y015748D01*
X004577Y015753D01*
X004559Y015755D01*
X004541Y015761D01*
X004525Y015770D01*
X004511Y015781D01*
X004500Y015795D01*
X004491Y015811D01*
X004485Y015829D01*
X004483Y015847D01*
X004488Y015847D01*
X004490Y015830D01*
X004496Y015813D01*
X004504Y015798D01*
X004515Y015785D01*
X004528Y015774D01*
X004543Y015766D01*
X004560Y015760D01*
X004577Y015758D01*
X004577Y015763D01*
X004561Y015765D01*
X004545Y015770D01*
X004531Y015778D01*
X004518Y015788D01*
X004508Y015801D01*
X004500Y015815D01*
X004495Y015831D01*
X004493Y015847D01*
X004498Y015847D01*
X004501Y015830D01*
X004507Y015813D01*
X004516Y015799D01*
X004529Y015786D01*
X004543Y015777D01*
X004560Y015771D01*
X004577Y015768D01*
X004577Y015773D01*
X004561Y015775D01*
X004545Y015781D01*
X004532Y015790D01*
X004520Y015802D01*
X004511Y015815D01*
X004505Y015831D01*
X004503Y015847D01*
X004282Y015724D02*
X004282Y015778D01*
X004283Y015777D02*
X004298Y015779D01*
X004313Y015785D01*
X004326Y015793D01*
X004337Y015804D01*
X004345Y015817D01*
X004351Y015832D01*
X004353Y015847D01*
X004406Y015848D01*
X004407Y015847D01*
X004405Y015826D01*
X004399Y015805D01*
X004389Y015786D01*
X004377Y015768D01*
X004362Y015753D01*
X004344Y015741D01*
X004325Y015731D01*
X004304Y015725D01*
X004283Y015723D01*
X004283Y015728D01*
X004303Y015730D01*
X004323Y015736D01*
X004342Y015745D01*
X004359Y015757D01*
X004373Y015771D01*
X004385Y015788D01*
X004394Y015807D01*
X004400Y015827D01*
X004402Y015847D01*
X004397Y015847D01*
X004395Y015827D01*
X004389Y015808D01*
X004381Y015791D01*
X004369Y015775D01*
X004355Y015761D01*
X004339Y015749D01*
X004322Y015741D01*
X004303Y015735D01*
X004283Y015733D01*
X004283Y015738D01*
X004302Y015740D01*
X004320Y015745D01*
X004337Y015754D01*
X004352Y015764D01*
X004366Y015778D01*
X004376Y015793D01*
X004385Y015810D01*
X004390Y015828D01*
X004392Y015847D01*
X004387Y015847D01*
X004384Y015827D01*
X004378Y015808D01*
X004369Y015790D01*
X004356Y015774D01*
X004340Y015761D01*
X004322Y015752D01*
X004303Y015746D01*
X004283Y015743D01*
X004283Y015748D01*
X004302Y015750D01*
X004320Y015756D01*
X004337Y015766D01*
X004352Y015778D01*
X004364Y015793D01*
X004374Y015810D01*
X004380Y015828D01*
X004382Y015847D01*
X004377Y015847D01*
X004375Y015829D01*
X004369Y015811D01*
X004360Y015795D01*
X004349Y015781D01*
X004335Y015770D01*
X004319Y015761D01*
X004301Y015755D01*
X004283Y015753D01*
X004283Y015758D01*
X004300Y015760D01*
X004317Y015766D01*
X004332Y015774D01*
X004345Y015785D01*
X004356Y015798D01*
X004364Y015813D01*
X004370Y015830D01*
X004372Y015847D01*
X004367Y015847D01*
X004365Y015831D01*
X004360Y015815D01*
X004352Y015801D01*
X004342Y015788D01*
X004329Y015778D01*
X004315Y015770D01*
X004299Y015765D01*
X004283Y015763D01*
X004283Y015768D01*
X004300Y015771D01*
X004317Y015777D01*
X004331Y015786D01*
X004344Y015799D01*
X004353Y015813D01*
X004359Y015830D01*
X004362Y015847D01*
X004357Y015847D01*
X004355Y015831D01*
X004349Y015815D01*
X004340Y015802D01*
X004328Y015790D01*
X004315Y015781D01*
X004299Y015775D01*
X004283Y015773D01*
X003454Y015848D02*
X003508Y015848D01*
X003507Y015847D02*
X003509Y015832D01*
X003515Y015817D01*
X003523Y015804D01*
X003534Y015793D01*
X003547Y015785D01*
X003562Y015779D01*
X003577Y015777D01*
X003578Y015724D01*
X003577Y015723D01*
X003556Y015725D01*
X003535Y015731D01*
X003516Y015741D01*
X003498Y015753D01*
X003483Y015768D01*
X003471Y015786D01*
X003461Y015805D01*
X003455Y015826D01*
X003453Y015847D01*
X003458Y015847D01*
X003460Y015827D01*
X003466Y015807D01*
X003475Y015788D01*
X003487Y015771D01*
X003501Y015757D01*
X003518Y015745D01*
X003537Y015736D01*
X003557Y015730D01*
X003577Y015728D01*
X003577Y015733D01*
X003557Y015735D01*
X003538Y015741D01*
X003521Y015749D01*
X003505Y015761D01*
X003491Y015775D01*
X003479Y015791D01*
X003471Y015808D01*
X003465Y015827D01*
X003463Y015847D01*
X003468Y015847D01*
X003470Y015828D01*
X003475Y015810D01*
X003484Y015793D01*
X003494Y015778D01*
X003508Y015764D01*
X003523Y015754D01*
X003540Y015745D01*
X003558Y015740D01*
X003577Y015738D01*
X003577Y015743D01*
X003557Y015746D01*
X003538Y015752D01*
X003520Y015761D01*
X003504Y015774D01*
X003491Y015790D01*
X003482Y015808D01*
X003476Y015827D01*
X003473Y015847D01*
X003478Y015847D01*
X003480Y015828D01*
X003486Y015810D01*
X003496Y015793D01*
X003508Y015778D01*
X003523Y015766D01*
X003540Y015756D01*
X003558Y015750D01*
X003577Y015748D01*
X003577Y015753D01*
X003559Y015755D01*
X003541Y015761D01*
X003525Y015770D01*
X003511Y015781D01*
X003500Y015795D01*
X003491Y015811D01*
X003485Y015829D01*
X003483Y015847D01*
X003488Y015847D01*
X003490Y015830D01*
X003496Y015813D01*
X003504Y015798D01*
X003515Y015785D01*
X003528Y015774D01*
X003543Y015766D01*
X003560Y015760D01*
X003577Y015758D01*
X003577Y015763D01*
X003561Y015765D01*
X003545Y015770D01*
X003531Y015778D01*
X003518Y015788D01*
X003508Y015801D01*
X003500Y015815D01*
X003495Y015831D01*
X003493Y015847D01*
X003498Y015847D01*
X003501Y015830D01*
X003507Y015813D01*
X003516Y015799D01*
X003529Y015786D01*
X003543Y015777D01*
X003560Y015771D01*
X003577Y015768D01*
X003577Y015773D01*
X003561Y015775D01*
X003545Y015781D01*
X003532Y015790D01*
X003520Y015802D01*
X003511Y015815D01*
X003505Y015831D01*
X003503Y015847D01*
X003578Y018276D02*
X003578Y018222D01*
X003577Y018223D02*
X003562Y018221D01*
X003547Y018215D01*
X003534Y018207D01*
X003523Y018196D01*
X003515Y018183D01*
X003509Y018168D01*
X003507Y018153D01*
X003454Y018152D01*
X003453Y018153D01*
X003455Y018174D01*
X003461Y018195D01*
X003471Y018214D01*
X003483Y018232D01*
X003498Y018247D01*
X003516Y018259D01*
X003535Y018269D01*
X003556Y018275D01*
X003577Y018277D01*
X003577Y018272D01*
X003557Y018270D01*
X003537Y018264D01*
X003518Y018255D01*
X003501Y018243D01*
X003487Y018229D01*
X003475Y018212D01*
X003466Y018193D01*
X003460Y018173D01*
X003458Y018153D01*
X003463Y018153D01*
X003465Y018173D01*
X003471Y018192D01*
X003479Y018209D01*
X003491Y018225D01*
X003505Y018239D01*
X003521Y018251D01*
X003538Y018259D01*
X003557Y018265D01*
X003577Y018267D01*
X003577Y018262D01*
X003558Y018260D01*
X003540Y018255D01*
X003523Y018246D01*
X003508Y018236D01*
X003494Y018222D01*
X003484Y018207D01*
X003475Y018190D01*
X003470Y018172D01*
X003468Y018153D01*
X003473Y018153D01*
X003476Y018173D01*
X003482Y018192D01*
X003491Y018210D01*
X003504Y018226D01*
X003520Y018239D01*
X003538Y018248D01*
X003557Y018254D01*
X003577Y018257D01*
X003577Y018252D01*
X003558Y018250D01*
X003540Y018244D01*
X003523Y018234D01*
X003508Y018222D01*
X003496Y018207D01*
X003486Y018190D01*
X003480Y018172D01*
X003478Y018153D01*
X003483Y018153D01*
X003485Y018171D01*
X003491Y018189D01*
X003500Y018205D01*
X003511Y018219D01*
X003525Y018230D01*
X003541Y018239D01*
X003559Y018245D01*
X003577Y018247D01*
X003577Y018242D01*
X003560Y018240D01*
X003543Y018234D01*
X003528Y018226D01*
X003515Y018215D01*
X003504Y018202D01*
X003496Y018187D01*
X003490Y018170D01*
X003488Y018153D01*
X003493Y018153D01*
X003495Y018169D01*
X003500Y018185D01*
X003508Y018199D01*
X003518Y018212D01*
X003531Y018222D01*
X003545Y018230D01*
X003561Y018235D01*
X003577Y018237D01*
X003577Y018232D01*
X003560Y018229D01*
X003543Y018223D01*
X003529Y018214D01*
X003516Y018201D01*
X003507Y018187D01*
X003501Y018170D01*
X003498Y018153D01*
X003503Y018153D01*
X003505Y018169D01*
X003511Y018185D01*
X003520Y018198D01*
X003532Y018210D01*
X003545Y018219D01*
X003561Y018225D01*
X003577Y018227D01*
X004406Y018152D02*
X004352Y018152D01*
X004353Y018153D02*
X004351Y018168D01*
X004345Y018183D01*
X004337Y018196D01*
X004326Y018207D01*
X004313Y018215D01*
X004298Y018221D01*
X004283Y018223D01*
X004282Y018276D01*
X004283Y018277D01*
X004304Y018275D01*
X004325Y018269D01*
X004344Y018259D01*
X004362Y018247D01*
X004377Y018232D01*
X004389Y018214D01*
X004399Y018195D01*
X004405Y018174D01*
X004407Y018153D01*
X004402Y018153D01*
X004400Y018173D01*
X004394Y018193D01*
X004385Y018212D01*
X004373Y018229D01*
X004359Y018243D01*
X004342Y018255D01*
X004323Y018264D01*
X004303Y018270D01*
X004283Y018272D01*
X004283Y018267D01*
X004303Y018265D01*
X004322Y018259D01*
X004339Y018251D01*
X004355Y018239D01*
X004369Y018225D01*
X004381Y018209D01*
X004389Y018192D01*
X004395Y018173D01*
X004397Y018153D01*
X004392Y018153D01*
X004390Y018172D01*
X004385Y018190D01*
X004376Y018207D01*
X004366Y018222D01*
X004352Y018236D01*
X004337Y018246D01*
X004320Y018255D01*
X004302Y018260D01*
X004283Y018262D01*
X004283Y018257D01*
X004303Y018254D01*
X004322Y018248D01*
X004340Y018239D01*
X004356Y018226D01*
X004369Y018210D01*
X004378Y018192D01*
X004384Y018173D01*
X004387Y018153D01*
X004382Y018153D01*
X004380Y018172D01*
X004374Y018190D01*
X004364Y018207D01*
X004352Y018222D01*
X004337Y018234D01*
X004320Y018244D01*
X004302Y018250D01*
X004283Y018252D01*
X004283Y018247D01*
X004301Y018245D01*
X004319Y018239D01*
X004335Y018230D01*
X004349Y018219D01*
X004360Y018205D01*
X004369Y018189D01*
X004375Y018171D01*
X004377Y018153D01*
X004372Y018153D01*
X004370Y018170D01*
X004364Y018187D01*
X004356Y018202D01*
X004345Y018215D01*
X004332Y018226D01*
X004317Y018234D01*
X004300Y018240D01*
X004283Y018242D01*
X004283Y018237D01*
X004299Y018235D01*
X004315Y018230D01*
X004329Y018222D01*
X004342Y018212D01*
X004352Y018199D01*
X004360Y018185D01*
X004365Y018169D01*
X004367Y018153D01*
X004362Y018153D01*
X004359Y018170D01*
X004353Y018187D01*
X004344Y018201D01*
X004331Y018214D01*
X004317Y018223D01*
X004300Y018229D01*
X004283Y018232D01*
X004283Y018227D01*
X004299Y018225D01*
X004315Y018219D01*
X004328Y018210D01*
X004340Y018198D01*
X004349Y018185D01*
X004355Y018169D01*
X004357Y018153D01*
X004578Y018276D02*
X004578Y018222D01*
X004577Y018223D02*
X004562Y018221D01*
X004547Y018215D01*
X004534Y018207D01*
X004523Y018196D01*
X004515Y018183D01*
X004509Y018168D01*
X004507Y018153D01*
X004454Y018152D01*
X004453Y018153D01*
X004455Y018174D01*
X004461Y018195D01*
X004471Y018214D01*
X004483Y018232D01*
X004498Y018247D01*
X004516Y018259D01*
X004535Y018269D01*
X004556Y018275D01*
X004577Y018277D01*
X004577Y018272D01*
X004557Y018270D01*
X004537Y018264D01*
X004518Y018255D01*
X004501Y018243D01*
X004487Y018229D01*
X004475Y018212D01*
X004466Y018193D01*
X004460Y018173D01*
X004458Y018153D01*
X004463Y018153D01*
X004465Y018173D01*
X004471Y018192D01*
X004479Y018209D01*
X004491Y018225D01*
X004505Y018239D01*
X004521Y018251D01*
X004538Y018259D01*
X004557Y018265D01*
X004577Y018267D01*
X004577Y018262D01*
X004558Y018260D01*
X004540Y018255D01*
X004523Y018246D01*
X004508Y018236D01*
X004494Y018222D01*
X004484Y018207D01*
X004475Y018190D01*
X004470Y018172D01*
X004468Y018153D01*
X004473Y018153D01*
X004476Y018173D01*
X004482Y018192D01*
X004491Y018210D01*
X004504Y018226D01*
X004520Y018239D01*
X004538Y018248D01*
X004557Y018254D01*
X004577Y018257D01*
X004577Y018252D01*
X004558Y018250D01*
X004540Y018244D01*
X004523Y018234D01*
X004508Y018222D01*
X004496Y018207D01*
X004486Y018190D01*
X004480Y018172D01*
X004478Y018153D01*
X004483Y018153D01*
X004485Y018171D01*
X004491Y018189D01*
X004500Y018205D01*
X004511Y018219D01*
X004525Y018230D01*
X004541Y018239D01*
X004559Y018245D01*
X004577Y018247D01*
X004577Y018242D01*
X004560Y018240D01*
X004543Y018234D01*
X004528Y018226D01*
X004515Y018215D01*
X004504Y018202D01*
X004496Y018187D01*
X004490Y018170D01*
X004488Y018153D01*
X004493Y018153D01*
X004495Y018169D01*
X004500Y018185D01*
X004508Y018199D01*
X004518Y018212D01*
X004531Y018222D01*
X004545Y018230D01*
X004561Y018235D01*
X004577Y018237D01*
X004577Y018232D01*
X004560Y018229D01*
X004543Y018223D01*
X004529Y018214D01*
X004516Y018201D01*
X004507Y018187D01*
X004501Y018170D01*
X004498Y018153D01*
X004503Y018153D01*
X004505Y018169D01*
X004511Y018185D01*
X004520Y018198D01*
X004532Y018210D01*
X004545Y018219D01*
X004561Y018225D01*
X004577Y018227D01*
X005406Y018152D02*
X005352Y018152D01*
X005353Y018153D02*
X005351Y018168D01*
X005345Y018183D01*
X005337Y018196D01*
X005326Y018207D01*
X005313Y018215D01*
X005298Y018221D01*
X005283Y018223D01*
X005282Y018276D01*
X005283Y018277D01*
X005304Y018275D01*
X005325Y018269D01*
X005344Y018259D01*
X005362Y018247D01*
X005377Y018232D01*
X005389Y018214D01*
X005399Y018195D01*
X005405Y018174D01*
X005407Y018153D01*
X005402Y018153D01*
X005400Y018173D01*
X005394Y018193D01*
X005385Y018212D01*
X005373Y018229D01*
X005359Y018243D01*
X005342Y018255D01*
X005323Y018264D01*
X005303Y018270D01*
X005283Y018272D01*
X005283Y018267D01*
X005303Y018265D01*
X005322Y018259D01*
X005339Y018251D01*
X005355Y018239D01*
X005369Y018225D01*
X005381Y018209D01*
X005389Y018192D01*
X005395Y018173D01*
X005397Y018153D01*
X005392Y018153D01*
X005390Y018172D01*
X005385Y018190D01*
X005376Y018207D01*
X005366Y018222D01*
X005352Y018236D01*
X005337Y018246D01*
X005320Y018255D01*
X005302Y018260D01*
X005283Y018262D01*
X005283Y018257D01*
X005303Y018254D01*
X005322Y018248D01*
X005340Y018239D01*
X005356Y018226D01*
X005369Y018210D01*
X005378Y018192D01*
X005384Y018173D01*
X005387Y018153D01*
X005382Y018153D01*
X005380Y018172D01*
X005374Y018190D01*
X005364Y018207D01*
X005352Y018222D01*
X005337Y018234D01*
X005320Y018244D01*
X005302Y018250D01*
X005283Y018252D01*
X005283Y018247D01*
X005301Y018245D01*
X005319Y018239D01*
X005335Y018230D01*
X005349Y018219D01*
X005360Y018205D01*
X005369Y018189D01*
X005375Y018171D01*
X005377Y018153D01*
X005372Y018153D01*
X005370Y018170D01*
X005364Y018187D01*
X005356Y018202D01*
X005345Y018215D01*
X005332Y018226D01*
X005317Y018234D01*
X005300Y018240D01*
X005283Y018242D01*
X005283Y018237D01*
X005299Y018235D01*
X005315Y018230D01*
X005329Y018222D01*
X005342Y018212D01*
X005352Y018199D01*
X005360Y018185D01*
X005365Y018169D01*
X005367Y018153D01*
X005362Y018153D01*
X005359Y018170D01*
X005353Y018187D01*
X005344Y018201D01*
X005331Y018214D01*
X005317Y018223D01*
X005300Y018229D01*
X005283Y018232D01*
X005283Y018227D01*
X005299Y018225D01*
X005315Y018219D01*
X005328Y018210D01*
X005340Y018198D01*
X005349Y018185D01*
X005355Y018169D01*
X005357Y018153D01*
X005578Y018276D02*
X005578Y018222D01*
X005577Y018223D02*
X005562Y018221D01*
X005547Y018215D01*
X005534Y018207D01*
X005523Y018196D01*
X005515Y018183D01*
X005509Y018168D01*
X005507Y018153D01*
X005454Y018152D01*
X005453Y018153D01*
X005455Y018174D01*
X005461Y018195D01*
X005471Y018214D01*
X005483Y018232D01*
X005498Y018247D01*
X005516Y018259D01*
X005535Y018269D01*
X005556Y018275D01*
X005577Y018277D01*
X005577Y018272D01*
X005557Y018270D01*
X005537Y018264D01*
X005518Y018255D01*
X005501Y018243D01*
X005487Y018229D01*
X005475Y018212D01*
X005466Y018193D01*
X005460Y018173D01*
X005458Y018153D01*
X005463Y018153D01*
X005465Y018173D01*
X005471Y018192D01*
X005479Y018209D01*
X005491Y018225D01*
X005505Y018239D01*
X005521Y018251D01*
X005538Y018259D01*
X005557Y018265D01*
X005577Y018267D01*
X005577Y018262D01*
X005558Y018260D01*
X005540Y018255D01*
X005523Y018246D01*
X005508Y018236D01*
X005494Y018222D01*
X005484Y018207D01*
X005475Y018190D01*
X005470Y018172D01*
X005468Y018153D01*
X005473Y018153D01*
X005476Y018173D01*
X005482Y018192D01*
X005491Y018210D01*
X005504Y018226D01*
X005520Y018239D01*
X005538Y018248D01*
X005557Y018254D01*
X005577Y018257D01*
X005577Y018252D01*
X005558Y018250D01*
X005540Y018244D01*
X005523Y018234D01*
X005508Y018222D01*
X005496Y018207D01*
X005486Y018190D01*
X005480Y018172D01*
X005478Y018153D01*
X005483Y018153D01*
X005485Y018171D01*
X005491Y018189D01*
X005500Y018205D01*
X005511Y018219D01*
X005525Y018230D01*
X005541Y018239D01*
X005559Y018245D01*
X005577Y018247D01*
X005577Y018242D01*
X005560Y018240D01*
X005543Y018234D01*
X005528Y018226D01*
X005515Y018215D01*
X005504Y018202D01*
X005496Y018187D01*
X005490Y018170D01*
X005488Y018153D01*
X005493Y018153D01*
X005495Y018169D01*
X005500Y018185D01*
X005508Y018199D01*
X005518Y018212D01*
X005531Y018222D01*
X005545Y018230D01*
X005561Y018235D01*
X005577Y018237D01*
X005577Y018232D01*
X005560Y018229D01*
X005543Y018223D01*
X005529Y018214D01*
X005516Y018201D01*
X005507Y018187D01*
X005501Y018170D01*
X005498Y018153D01*
X005503Y018153D01*
X005505Y018169D01*
X005511Y018185D01*
X005520Y018198D01*
X005532Y018210D01*
X005545Y018219D01*
X005561Y018225D01*
X005577Y018227D01*
X006406Y018152D02*
X006352Y018152D01*
X006353Y018153D02*
X006351Y018168D01*
X006345Y018183D01*
X006337Y018196D01*
X006326Y018207D01*
X006313Y018215D01*
X006298Y018221D01*
X006283Y018223D01*
X006282Y018276D01*
X006283Y018277D01*
X006304Y018275D01*
X006325Y018269D01*
X006344Y018259D01*
X006362Y018247D01*
X006377Y018232D01*
X006389Y018214D01*
X006399Y018195D01*
X006405Y018174D01*
X006407Y018153D01*
X006402Y018153D01*
X006400Y018173D01*
X006394Y018193D01*
X006385Y018212D01*
X006373Y018229D01*
X006359Y018243D01*
X006342Y018255D01*
X006323Y018264D01*
X006303Y018270D01*
X006283Y018272D01*
X006283Y018267D01*
X006303Y018265D01*
X006322Y018259D01*
X006339Y018251D01*
X006355Y018239D01*
X006369Y018225D01*
X006381Y018209D01*
X006389Y018192D01*
X006395Y018173D01*
X006397Y018153D01*
X006392Y018153D01*
X006390Y018172D01*
X006385Y018190D01*
X006376Y018207D01*
X006366Y018222D01*
X006352Y018236D01*
X006337Y018246D01*
X006320Y018255D01*
X006302Y018260D01*
X006283Y018262D01*
X006283Y018257D01*
X006303Y018254D01*
X006322Y018248D01*
X006340Y018239D01*
X006356Y018226D01*
X006369Y018210D01*
X006378Y018192D01*
X006384Y018173D01*
X006387Y018153D01*
X006382Y018153D01*
X006380Y018172D01*
X006374Y018190D01*
X006364Y018207D01*
X006352Y018222D01*
X006337Y018234D01*
X006320Y018244D01*
X006302Y018250D01*
X006283Y018252D01*
X006283Y018247D01*
X006301Y018245D01*
X006319Y018239D01*
X006335Y018230D01*
X006349Y018219D01*
X006360Y018205D01*
X006369Y018189D01*
X006375Y018171D01*
X006377Y018153D01*
X006372Y018153D01*
X006370Y018170D01*
X006364Y018187D01*
X006356Y018202D01*
X006345Y018215D01*
X006332Y018226D01*
X006317Y018234D01*
X006300Y018240D01*
X006283Y018242D01*
X006283Y018237D01*
X006299Y018235D01*
X006315Y018230D01*
X006329Y018222D01*
X006342Y018212D01*
X006352Y018199D01*
X006360Y018185D01*
X006365Y018169D01*
X006367Y018153D01*
X006362Y018153D01*
X006359Y018170D01*
X006353Y018187D01*
X006344Y018201D01*
X006331Y018214D01*
X006317Y018223D01*
X006300Y018229D01*
X006283Y018232D01*
X006283Y018227D01*
X006299Y018225D01*
X006315Y018219D01*
X006328Y018210D01*
X006340Y018198D01*
X006349Y018185D01*
X006355Y018169D01*
X006357Y018153D01*
X006578Y018276D02*
X006578Y018222D01*
X006577Y018223D02*
X006562Y018221D01*
X006547Y018215D01*
X006534Y018207D01*
X006523Y018196D01*
X006515Y018183D01*
X006509Y018168D01*
X006507Y018153D01*
X006454Y018152D01*
X006453Y018153D01*
X006455Y018174D01*
X006461Y018195D01*
X006471Y018214D01*
X006483Y018232D01*
X006498Y018247D01*
X006516Y018259D01*
X006535Y018269D01*
X006556Y018275D01*
X006577Y018277D01*
X006577Y018272D01*
X006557Y018270D01*
X006537Y018264D01*
X006518Y018255D01*
X006501Y018243D01*
X006487Y018229D01*
X006475Y018212D01*
X006466Y018193D01*
X006460Y018173D01*
X006458Y018153D01*
X006463Y018153D01*
X006465Y018173D01*
X006471Y018192D01*
X006479Y018209D01*
X006491Y018225D01*
X006505Y018239D01*
X006521Y018251D01*
X006538Y018259D01*
X006557Y018265D01*
X006577Y018267D01*
X006577Y018262D01*
X006558Y018260D01*
X006540Y018255D01*
X006523Y018246D01*
X006508Y018236D01*
X006494Y018222D01*
X006484Y018207D01*
X006475Y018190D01*
X006470Y018172D01*
X006468Y018153D01*
X006473Y018153D01*
X006476Y018173D01*
X006482Y018192D01*
X006491Y018210D01*
X006504Y018226D01*
X006520Y018239D01*
X006538Y018248D01*
X006557Y018254D01*
X006577Y018257D01*
X006577Y018252D01*
X006558Y018250D01*
X006540Y018244D01*
X006523Y018234D01*
X006508Y018222D01*
X006496Y018207D01*
X006486Y018190D01*
X006480Y018172D01*
X006478Y018153D01*
X006483Y018153D01*
X006485Y018171D01*
X006491Y018189D01*
X006500Y018205D01*
X006511Y018219D01*
X006525Y018230D01*
X006541Y018239D01*
X006559Y018245D01*
X006577Y018247D01*
X006577Y018242D01*
X006560Y018240D01*
X006543Y018234D01*
X006528Y018226D01*
X006515Y018215D01*
X006504Y018202D01*
X006496Y018187D01*
X006490Y018170D01*
X006488Y018153D01*
X006493Y018153D01*
X006495Y018169D01*
X006500Y018185D01*
X006508Y018199D01*
X006518Y018212D01*
X006531Y018222D01*
X006545Y018230D01*
X006561Y018235D01*
X006577Y018237D01*
X006577Y018232D01*
X006560Y018229D01*
X006543Y018223D01*
X006529Y018214D01*
X006516Y018201D01*
X006507Y018187D01*
X006501Y018170D01*
X006498Y018153D01*
X006503Y018153D01*
X006505Y018169D01*
X006511Y018185D01*
X006520Y018198D01*
X006532Y018210D01*
X006545Y018219D01*
X006561Y018225D01*
X006577Y018227D01*
X007406Y018152D02*
X007352Y018152D01*
X007353Y018153D02*
X007351Y018168D01*
X007345Y018183D01*
X007337Y018196D01*
X007326Y018207D01*
X007313Y018215D01*
X007298Y018221D01*
X007283Y018223D01*
X007282Y018276D01*
X007283Y018277D01*
X007304Y018275D01*
X007325Y018269D01*
X007344Y018259D01*
X007362Y018247D01*
X007377Y018232D01*
X007389Y018214D01*
X007399Y018195D01*
X007405Y018174D01*
X007407Y018153D01*
X007402Y018153D01*
X007400Y018173D01*
X007394Y018193D01*
X007385Y018212D01*
X007373Y018229D01*
X007359Y018243D01*
X007342Y018255D01*
X007323Y018264D01*
X007303Y018270D01*
X007283Y018272D01*
X007283Y018267D01*
X007303Y018265D01*
X007322Y018259D01*
X007339Y018251D01*
X007355Y018239D01*
X007369Y018225D01*
X007381Y018209D01*
X007389Y018192D01*
X007395Y018173D01*
X007397Y018153D01*
X007392Y018153D01*
X007390Y018172D01*
X007385Y018190D01*
X007376Y018207D01*
X007366Y018222D01*
X007352Y018236D01*
X007337Y018246D01*
X007320Y018255D01*
X007302Y018260D01*
X007283Y018262D01*
X007283Y018257D01*
X007303Y018254D01*
X007322Y018248D01*
X007340Y018239D01*
X007356Y018226D01*
X007369Y018210D01*
X007378Y018192D01*
X007384Y018173D01*
X007387Y018153D01*
X007382Y018153D01*
X007380Y018172D01*
X007374Y018190D01*
X007364Y018207D01*
X007352Y018222D01*
X007337Y018234D01*
X007320Y018244D01*
X007302Y018250D01*
X007283Y018252D01*
X007283Y018247D01*
X007301Y018245D01*
X007319Y018239D01*
X007335Y018230D01*
X007349Y018219D01*
X007360Y018205D01*
X007369Y018189D01*
X007375Y018171D01*
X007377Y018153D01*
X007372Y018153D01*
X007370Y018170D01*
X007364Y018187D01*
X007356Y018202D01*
X007345Y018215D01*
X007332Y018226D01*
X007317Y018234D01*
X007300Y018240D01*
X007283Y018242D01*
X007283Y018237D01*
X007299Y018235D01*
X007315Y018230D01*
X007329Y018222D01*
X007342Y018212D01*
X007352Y018199D01*
X007360Y018185D01*
X007365Y018169D01*
X007367Y018153D01*
X007362Y018153D01*
X007359Y018170D01*
X007353Y018187D01*
X007344Y018201D01*
X007331Y018214D01*
X007317Y018223D01*
X007300Y018229D01*
X007283Y018232D01*
X007283Y018227D01*
X007299Y018225D01*
X007315Y018219D01*
X007328Y018210D01*
X007340Y018198D01*
X007349Y018185D01*
X007355Y018169D01*
X007357Y018153D01*
X007282Y015724D02*
X007282Y015778D01*
X007283Y015777D02*
X007298Y015779D01*
X007313Y015785D01*
X007326Y015793D01*
X007337Y015804D01*
X007345Y015817D01*
X007351Y015832D01*
X007353Y015847D01*
X007406Y015848D01*
X007407Y015847D01*
X007405Y015826D01*
X007399Y015805D01*
X007389Y015786D01*
X007377Y015768D01*
X007362Y015753D01*
X007344Y015741D01*
X007325Y015731D01*
X007304Y015725D01*
X007283Y015723D01*
X007283Y015728D01*
X007303Y015730D01*
X007323Y015736D01*
X007342Y015745D01*
X007359Y015757D01*
X007373Y015771D01*
X007385Y015788D01*
X007394Y015807D01*
X007400Y015827D01*
X007402Y015847D01*
X007397Y015847D01*
X007395Y015827D01*
X007389Y015808D01*
X007381Y015791D01*
X007369Y015775D01*
X007355Y015761D01*
X007339Y015749D01*
X007322Y015741D01*
X007303Y015735D01*
X007283Y015733D01*
X007283Y015738D01*
X007302Y015740D01*
X007320Y015745D01*
X007337Y015754D01*
X007352Y015764D01*
X007366Y015778D01*
X007376Y015793D01*
X007385Y015810D01*
X007390Y015828D01*
X007392Y015847D01*
X007387Y015847D01*
X007384Y015827D01*
X007378Y015808D01*
X007369Y015790D01*
X007356Y015774D01*
X007340Y015761D01*
X007322Y015752D01*
X007303Y015746D01*
X007283Y015743D01*
X007283Y015748D01*
X007302Y015750D01*
X007320Y015756D01*
X007337Y015766D01*
X007352Y015778D01*
X007364Y015793D01*
X007374Y015810D01*
X007380Y015828D01*
X007382Y015847D01*
X007377Y015847D01*
X007375Y015829D01*
X007369Y015811D01*
X007360Y015795D01*
X007349Y015781D01*
X007335Y015770D01*
X007319Y015761D01*
X007301Y015755D01*
X007283Y015753D01*
X007283Y015758D01*
X007300Y015760D01*
X007317Y015766D01*
X007332Y015774D01*
X007345Y015785D01*
X007356Y015798D01*
X007364Y015813D01*
X007370Y015830D01*
X007372Y015847D01*
X007367Y015847D01*
X007365Y015831D01*
X007360Y015815D01*
X007352Y015801D01*
X007342Y015788D01*
X007329Y015778D01*
X007315Y015770D01*
X007299Y015765D01*
X007283Y015763D01*
X007283Y015768D01*
X007300Y015771D01*
X007317Y015777D01*
X007331Y015786D01*
X007344Y015799D01*
X007353Y015813D01*
X007359Y015830D01*
X007362Y015847D01*
X007357Y015847D01*
X007355Y015831D01*
X007349Y015815D01*
X007340Y015802D01*
X007328Y015790D01*
X007315Y015781D01*
X007299Y015775D01*
X007283Y015773D01*
D61*
X008971Y003219D02*
X008990Y003179D01*
X008939Y003153D01*
X008889Y003124D01*
X008842Y003093D01*
X008796Y003059D01*
X008768Y003094D01*
X008816Y003130D01*
X008866Y003163D01*
X008917Y003193D01*
X008971Y003220D01*
X008972Y003216D01*
X008919Y003189D01*
X008868Y003159D01*
X008818Y003127D01*
X008770Y003091D01*
X008773Y003088D01*
X008820Y003123D01*
X008870Y003156D01*
X008921Y003186D01*
X008974Y003212D01*
X008976Y003209D01*
X008923Y003182D01*
X008872Y003152D01*
X008823Y003120D01*
X008775Y003085D01*
X008778Y003082D01*
X008825Y003117D01*
X008874Y003149D01*
X008925Y003179D01*
X008978Y003205D01*
X008979Y003202D01*
X008927Y003175D01*
X008876Y003146D01*
X008827Y003113D01*
X008780Y003078D01*
X008783Y003075D01*
X008830Y003110D01*
X008878Y003142D01*
X008929Y003172D01*
X008981Y003198D01*
X008983Y003194D01*
X008931Y003168D01*
X008880Y003139D01*
X008832Y003107D01*
X008785Y003072D01*
X008788Y003069D01*
X008834Y003104D01*
X008883Y003135D01*
X008933Y003165D01*
X008984Y003191D01*
X008986Y003187D01*
X008935Y003161D01*
X008885Y003132D01*
X008836Y003100D01*
X008790Y003066D01*
X008792Y003063D01*
X008839Y003097D01*
X008887Y003129D01*
X008936Y003157D01*
X008988Y003184D01*
X008989Y003180D01*
X008938Y003154D01*
X008889Y003125D01*
X008841Y003094D01*
X008795Y003060D01*
X009889Y001281D02*
X009870Y001321D01*
X009926Y001350D01*
X009980Y001381D01*
X010032Y001417D01*
X010081Y001455D01*
X010129Y001496D01*
X010173Y001540D01*
X010215Y001587D01*
X010254Y001636D01*
X010290Y001687D01*
X010323Y001741D01*
X010352Y001796D01*
X010378Y001853D01*
X010401Y001912D01*
X010420Y001971D01*
X010435Y002032D01*
X010446Y002094D01*
X010454Y002156D01*
X010458Y002219D01*
X010458Y002281D01*
X010454Y002344D01*
X010446Y002406D01*
X010435Y002468D01*
X010420Y002529D01*
X010401Y002588D01*
X010378Y002647D01*
X010352Y002704D01*
X010323Y002759D01*
X010290Y002813D01*
X010254Y002864D01*
X010215Y002913D01*
X010173Y002960D01*
X010129Y003004D01*
X010081Y003045D01*
X010032Y003083D01*
X009980Y003119D01*
X009926Y003150D01*
X009870Y003179D01*
X009889Y003219D01*
X009889Y003220D01*
X009948Y003190D01*
X010004Y003157D01*
X010058Y003120D01*
X010110Y003080D01*
X010159Y003037D01*
X010206Y002991D01*
X010250Y002942D01*
X010290Y002891D01*
X010328Y002838D01*
X010362Y002782D01*
X010393Y002724D01*
X010420Y002664D01*
X010443Y002603D01*
X010463Y002541D01*
X010479Y002477D01*
X010491Y002413D01*
X010499Y002348D01*
X010503Y002283D01*
X010503Y002217D01*
X010499Y002152D01*
X010491Y002087D01*
X010479Y002023D01*
X010463Y001959D01*
X010443Y001897D01*
X010420Y001836D01*
X010393Y001776D01*
X010362Y001718D01*
X010328Y001662D01*
X010290Y001609D01*
X010250Y001558D01*
X010206Y001509D01*
X010159Y001463D01*
X010110Y001420D01*
X010058Y001380D01*
X010004Y001343D01*
X009948Y001310D01*
X009889Y001280D01*
X009888Y001284D01*
X009946Y001314D01*
X010002Y001347D01*
X010056Y001383D01*
X010107Y001423D01*
X010157Y001466D01*
X010203Y001512D01*
X010247Y001560D01*
X010287Y001611D01*
X010324Y001665D01*
X010358Y001720D01*
X010389Y001778D01*
X010416Y001837D01*
X010439Y001898D01*
X010459Y001960D01*
X010475Y002024D01*
X010487Y002088D01*
X010495Y002152D01*
X010499Y002217D01*
X010499Y002283D01*
X010495Y002348D01*
X010487Y002412D01*
X010475Y002476D01*
X010459Y002540D01*
X010439Y002602D01*
X010416Y002663D01*
X010389Y002722D01*
X010358Y002780D01*
X010324Y002835D01*
X010287Y002889D01*
X010247Y002940D01*
X010203Y002988D01*
X010157Y003034D01*
X010107Y003077D01*
X010056Y003117D01*
X010002Y003153D01*
X009946Y003186D01*
X009888Y003216D01*
X009886Y003213D01*
X009944Y003183D01*
X010000Y003150D01*
X010053Y003113D01*
X010105Y003074D01*
X010154Y003031D01*
X010200Y002986D01*
X010244Y002937D01*
X010284Y002886D01*
X010321Y002833D01*
X010355Y002778D01*
X010385Y002720D01*
X010412Y002661D01*
X010436Y002601D01*
X010455Y002539D01*
X010471Y002476D01*
X010483Y002412D01*
X010491Y002347D01*
X010495Y002282D01*
X010495Y002218D01*
X010491Y002153D01*
X010483Y002088D01*
X010471Y002024D01*
X010455Y001961D01*
X010436Y001899D01*
X010412Y001839D01*
X010385Y001780D01*
X010355Y001722D01*
X010321Y001667D01*
X010284Y001614D01*
X010244Y001563D01*
X010200Y001514D01*
X010154Y001469D01*
X010105Y001426D01*
X010053Y001387D01*
X010000Y001350D01*
X009944Y001317D01*
X009886Y001287D01*
X009884Y001291D01*
X009942Y001321D01*
X009997Y001354D01*
X010051Y001390D01*
X010102Y001429D01*
X010151Y001472D01*
X010197Y001517D01*
X010240Y001565D01*
X010281Y001616D01*
X010318Y001669D01*
X010352Y001724D01*
X010382Y001781D01*
X010409Y001840D01*
X010432Y001901D01*
X010451Y001962D01*
X010467Y002025D01*
X010479Y002089D01*
X010487Y002153D01*
X010491Y002218D01*
X010491Y002282D01*
X010487Y002347D01*
X010479Y002411D01*
X010467Y002475D01*
X010451Y002538D01*
X010432Y002599D01*
X010409Y002660D01*
X010382Y002719D01*
X010352Y002776D01*
X010318Y002831D01*
X010281Y002884D01*
X010240Y002935D01*
X010197Y002983D01*
X010151Y003028D01*
X010102Y003071D01*
X010051Y003110D01*
X009997Y003146D01*
X009942Y003179D01*
X009884Y003209D01*
X009882Y003205D01*
X009940Y003176D01*
X009995Y003143D01*
X010049Y003107D01*
X010100Y003068D01*
X010148Y003025D01*
X010194Y002980D01*
X010237Y002932D01*
X010278Y002882D01*
X010314Y002829D01*
X010348Y002774D01*
X010378Y002717D01*
X010405Y002658D01*
X010428Y002598D01*
X010447Y002537D01*
X010463Y002474D01*
X010475Y002411D01*
X010483Y002347D01*
X010487Y002282D01*
X010487Y002218D01*
X010483Y002153D01*
X010475Y002089D01*
X010463Y002026D01*
X010447Y001963D01*
X010428Y001902D01*
X010405Y001842D01*
X010378Y001783D01*
X010348Y001726D01*
X010314Y001671D01*
X010278Y001618D01*
X010237Y001568D01*
X010194Y001520D01*
X010148Y001475D01*
X010100Y001432D01*
X010049Y001393D01*
X009995Y001357D01*
X009940Y001324D01*
X009882Y001295D01*
X009881Y001298D01*
X009938Y001328D01*
X009993Y001360D01*
X010046Y001396D01*
X010097Y001435D01*
X010146Y001478D01*
X010191Y001523D01*
X010234Y001570D01*
X010274Y001621D01*
X010311Y001673D01*
X010345Y001728D01*
X010375Y001785D01*
X010401Y001843D01*
X010424Y001903D01*
X010444Y001965D01*
X010459Y002027D01*
X010471Y002090D01*
X010479Y002154D01*
X010483Y002218D01*
X010483Y002282D01*
X010479Y002346D01*
X010471Y002410D01*
X010459Y002473D01*
X010444Y002535D01*
X010424Y002597D01*
X010401Y002657D01*
X010375Y002715D01*
X010345Y002772D01*
X010311Y002827D01*
X010274Y002879D01*
X010234Y002930D01*
X010191Y002977D01*
X010146Y003022D01*
X010097Y003065D01*
X010046Y003104D01*
X009993Y003140D01*
X009938Y003172D01*
X009881Y003202D01*
X009879Y003198D01*
X009936Y003169D01*
X009991Y003136D01*
X010044Y003100D01*
X010095Y003061D01*
X010143Y003019D01*
X010189Y002975D01*
X010231Y002927D01*
X010271Y002877D01*
X010308Y002824D01*
X010341Y002770D01*
X010371Y002713D01*
X010398Y002655D01*
X010421Y002595D01*
X010440Y002534D01*
X010455Y002472D01*
X010467Y002409D01*
X010475Y002346D01*
X010479Y002282D01*
X010479Y002218D01*
X010475Y002154D01*
X010467Y002091D01*
X010455Y002028D01*
X010440Y001966D01*
X010421Y001905D01*
X010398Y001845D01*
X010371Y001787D01*
X010341Y001730D01*
X010308Y001676D01*
X010271Y001623D01*
X010231Y001573D01*
X010189Y001525D01*
X010143Y001481D01*
X010095Y001439D01*
X010044Y001400D01*
X009991Y001364D01*
X009936Y001331D01*
X009879Y001302D01*
X009877Y001306D01*
X009934Y001335D01*
X009989Y001367D01*
X010042Y001403D01*
X010092Y001442D01*
X010140Y001483D01*
X010186Y001528D01*
X010228Y001576D01*
X010268Y001626D01*
X010304Y001678D01*
X010338Y001732D01*
X010368Y001788D01*
X010394Y001846D01*
X010417Y001906D01*
X010436Y001967D01*
X010451Y002029D01*
X010463Y002091D01*
X010471Y002155D01*
X010475Y002218D01*
X010475Y002282D01*
X010471Y002345D01*
X010463Y002409D01*
X010451Y002471D01*
X010436Y002533D01*
X010417Y002594D01*
X010394Y002654D01*
X010368Y002712D01*
X010338Y002768D01*
X010304Y002822D01*
X010268Y002874D01*
X010228Y002924D01*
X010186Y002972D01*
X010140Y003017D01*
X010092Y003058D01*
X010042Y003097D01*
X009989Y003133D01*
X009934Y003165D01*
X009877Y003194D01*
X009876Y003191D01*
X009932Y003162D01*
X009987Y003130D01*
X010039Y003094D01*
X010090Y003055D01*
X010138Y003014D01*
X010183Y002969D01*
X010225Y002922D01*
X010265Y002872D01*
X010301Y002820D01*
X010334Y002766D01*
X010364Y002710D01*
X010390Y002652D01*
X010413Y002593D01*
X010432Y002532D01*
X010447Y002471D01*
X010459Y002408D01*
X010467Y002345D01*
X010471Y002282D01*
X010471Y002218D01*
X010467Y002155D01*
X010459Y002092D01*
X010447Y002029D01*
X010432Y001968D01*
X010413Y001907D01*
X010390Y001848D01*
X010364Y001790D01*
X010334Y001734D01*
X010301Y001680D01*
X010265Y001628D01*
X010225Y001578D01*
X010183Y001531D01*
X010138Y001486D01*
X010090Y001445D01*
X010039Y001406D01*
X009987Y001370D01*
X009932Y001338D01*
X009876Y001309D01*
X009874Y001313D01*
X009930Y001342D01*
X009985Y001374D01*
X010037Y001409D01*
X010087Y001448D01*
X010135Y001489D01*
X010180Y001534D01*
X010222Y001581D01*
X010261Y001630D01*
X010298Y001682D01*
X010331Y001736D01*
X010360Y001792D01*
X010387Y001850D01*
X010409Y001909D01*
X010428Y001969D01*
X010443Y002030D01*
X010455Y002092D01*
X010463Y002155D01*
X010467Y002218D01*
X010467Y002282D01*
X010463Y002345D01*
X010455Y002408D01*
X010443Y002470D01*
X010428Y002531D01*
X010409Y002591D01*
X010387Y002650D01*
X010360Y002708D01*
X010331Y002764D01*
X010298Y002818D01*
X010261Y002870D01*
X010222Y002919D01*
X010180Y002966D01*
X010135Y003011D01*
X010087Y003052D01*
X010037Y003091D01*
X009985Y003126D01*
X009930Y003158D01*
X009874Y003187D01*
X009872Y003184D01*
X009928Y003155D01*
X009983Y003123D01*
X010035Y003087D01*
X010085Y003049D01*
X010132Y003008D01*
X010177Y002963D01*
X010219Y002917D01*
X010258Y002867D01*
X010294Y002816D01*
X010327Y002762D01*
X010357Y002706D01*
X010383Y002649D01*
X010405Y002590D01*
X010424Y002530D01*
X010440Y002469D01*
X010451Y002407D01*
X010459Y002344D01*
X010463Y002281D01*
X010463Y002219D01*
X010459Y002156D01*
X010451Y002093D01*
X010440Y002031D01*
X010424Y001970D01*
X010405Y001910D01*
X010383Y001851D01*
X010357Y001794D01*
X010327Y001738D01*
X010294Y001684D01*
X010258Y001633D01*
X010219Y001583D01*
X010177Y001537D01*
X010132Y001492D01*
X010085Y001451D01*
X010035Y001413D01*
X009983Y001377D01*
X009928Y001345D01*
X009872Y001316D01*
X009871Y001320D01*
X009926Y001349D01*
X009980Y001381D01*
X010032Y001416D01*
X010082Y001454D01*
X010129Y001495D01*
X010174Y001539D01*
X010216Y001586D01*
X010255Y001635D01*
X010291Y001687D01*
X010324Y001740D01*
X010353Y001796D01*
X010379Y001853D01*
X010402Y001911D01*
X010420Y001971D01*
X010436Y002032D01*
X010447Y002094D01*
X010455Y002156D01*
X010459Y002219D01*
X010459Y002281D01*
X010455Y002344D01*
X010447Y002406D01*
X010436Y002468D01*
X010420Y002529D01*
X010402Y002589D01*
X010379Y002647D01*
X010353Y002704D01*
X010324Y002760D01*
X010291Y002813D01*
X010255Y002865D01*
X010216Y002914D01*
X010174Y002961D01*
X010129Y003005D01*
X010082Y003046D01*
X010032Y003084D01*
X009980Y003119D01*
X009926Y003151D01*
X009871Y003180D01*
X008768Y001406D02*
X008796Y001442D01*
X008796Y001441D02*
X008844Y001406D01*
X008894Y001373D01*
X008946Y001343D01*
X008999Y001317D01*
X008981Y001276D01*
X008980Y001276D01*
X008924Y001304D01*
X008870Y001335D01*
X008818Y001369D01*
X008768Y001406D01*
X008770Y001409D01*
X008820Y001372D01*
X008872Y001338D01*
X008926Y001307D01*
X008982Y001279D01*
X008984Y001283D01*
X008928Y001311D01*
X008874Y001341D01*
X008823Y001375D01*
X008773Y001412D01*
X008775Y001415D01*
X008825Y001379D01*
X008877Y001345D01*
X008930Y001314D01*
X008985Y001287D01*
X008987Y001290D01*
X008932Y001318D01*
X008879Y001348D01*
X008827Y001382D01*
X008778Y001418D01*
X008780Y001422D01*
X008829Y001385D01*
X008881Y001352D01*
X008934Y001321D01*
X008989Y001294D01*
X008990Y001298D01*
X008936Y001325D01*
X008883Y001355D01*
X008832Y001388D01*
X008783Y001425D01*
X008785Y001428D01*
X008834Y001392D01*
X008885Y001358D01*
X008938Y001328D01*
X008992Y001301D01*
X008994Y001305D01*
X008940Y001332D01*
X008887Y001362D01*
X008836Y001395D01*
X008788Y001431D01*
X008790Y001434D01*
X008839Y001398D01*
X008889Y001365D01*
X008941Y001335D01*
X008995Y001308D01*
X008997Y001312D01*
X008943Y001339D01*
X008891Y001369D01*
X008841Y001402D01*
X008792Y001437D01*
X008795Y001440D01*
X008843Y001405D01*
X008893Y001372D01*
X008945Y001342D01*
X008999Y001316D01*
D62*
X005530Y021200D02*
X005530Y021500D01*
X005530Y021800D01*
X005330Y021800D02*
X005330Y021500D01*
X005330Y021200D01*
D63*
X004930Y020000D03*
X005930Y020000D03*
D64*
X004680Y006450D03*
X003680Y006450D03*
D65*
X003680Y005825D03*
X004680Y005825D03*
X004680Y008175D03*
X003680Y008175D03*
D66*
X003028Y018967D02*
X003028Y019294D01*
X002865Y019130D02*
X003192Y019130D01*
X000942Y019130D02*
X000615Y019130D01*
X007615Y019130D02*
X007942Y019130D01*
X009865Y019130D02*
X010192Y019130D01*
X010028Y019294D02*
X010028Y018967D01*
D67*
X006925Y006594D02*
X006925Y006504D01*
X006925Y006505D02*
X006871Y006503D01*
X006818Y006497D01*
X006765Y006487D01*
X006713Y006473D01*
X006662Y006456D01*
X006613Y006435D01*
X006565Y006411D01*
X006519Y006383D01*
X006475Y006352D01*
X006433Y006318D01*
X006394Y006282D01*
X006357Y006242D01*
X006324Y006200D01*
X006293Y006156D01*
X006266Y006110D01*
X006187Y006152D01*
X006215Y006201D01*
X006247Y006247D01*
X006282Y006292D01*
X006319Y006334D01*
X006360Y006374D01*
X006403Y006410D01*
X006448Y006444D01*
X006495Y006475D01*
X006545Y006502D01*
X006596Y006526D01*
X006648Y006547D01*
X006702Y006564D01*
X006757Y006577D01*
X006812Y006587D01*
X006869Y006593D01*
X006925Y006595D01*
X006925Y006586D01*
X006869Y006584D01*
X006814Y006578D01*
X006759Y006568D01*
X006704Y006555D01*
X006651Y006538D01*
X006599Y006518D01*
X006549Y006494D01*
X006500Y006467D01*
X006453Y006437D01*
X006408Y006403D01*
X006366Y006367D01*
X006326Y006328D01*
X006289Y006286D01*
X006254Y006242D01*
X006223Y006196D01*
X006195Y006148D01*
X006203Y006144D01*
X006231Y006191D01*
X006262Y006237D01*
X006296Y006280D01*
X006332Y006322D01*
X006372Y006360D01*
X006414Y006396D01*
X006458Y006429D01*
X006504Y006459D01*
X006553Y006486D01*
X006603Y006509D01*
X006654Y006530D01*
X006707Y006546D01*
X006760Y006559D01*
X006815Y006569D01*
X006870Y006575D01*
X006925Y006577D01*
X006925Y006568D01*
X006870Y006566D01*
X006816Y006560D01*
X006762Y006551D01*
X006709Y006538D01*
X006657Y006521D01*
X006606Y006501D01*
X006557Y006478D01*
X006509Y006451D01*
X006463Y006422D01*
X006419Y006389D01*
X006378Y006354D01*
X006339Y006315D01*
X006302Y006275D01*
X006269Y006232D01*
X006238Y006186D01*
X006211Y006139D01*
X006219Y006135D01*
X006246Y006182D01*
X006276Y006226D01*
X006309Y006269D01*
X006345Y006309D01*
X006384Y006347D01*
X006425Y006382D01*
X006468Y006414D01*
X006514Y006444D01*
X006561Y006470D01*
X006610Y006493D01*
X006660Y006513D01*
X006712Y006529D01*
X006764Y006542D01*
X006817Y006551D01*
X006871Y006557D01*
X006925Y006559D01*
X006925Y006550D01*
X006872Y006548D01*
X006819Y006542D01*
X006766Y006533D01*
X006714Y006520D01*
X006663Y006504D01*
X006613Y006485D01*
X006565Y006462D01*
X006518Y006436D01*
X006474Y006407D01*
X006431Y006375D01*
X006390Y006340D01*
X006352Y006303D01*
X006316Y006263D01*
X006283Y006221D01*
X006253Y006177D01*
X006226Y006131D01*
X006234Y006127D01*
X006261Y006172D01*
X006291Y006216D01*
X006323Y006257D01*
X006358Y006297D01*
X006396Y006334D01*
X006436Y006368D01*
X006479Y006400D01*
X006523Y006428D01*
X006569Y006454D01*
X006617Y006476D01*
X006666Y006496D01*
X006716Y006512D01*
X006768Y006524D01*
X006820Y006533D01*
X006872Y006539D01*
X006925Y006541D01*
X006925Y006532D01*
X006869Y006530D01*
X006814Y006523D01*
X006759Y006513D01*
X006705Y006499D01*
X006653Y006481D01*
X006601Y006460D01*
X006552Y006434D01*
X006504Y006406D01*
X006458Y006374D01*
X006415Y006339D01*
X006375Y006301D01*
X006337Y006260D01*
X006302Y006216D01*
X006271Y006170D01*
X006242Y006122D01*
X006250Y006118D01*
X006278Y006166D01*
X006309Y006211D01*
X006344Y006254D01*
X006381Y006294D01*
X006421Y006332D01*
X006464Y006367D01*
X006509Y006398D01*
X006556Y006427D01*
X006605Y006451D01*
X006656Y006473D01*
X006708Y006490D01*
X006761Y006504D01*
X006815Y006514D01*
X006870Y006521D01*
X006925Y006523D01*
X006925Y006514D01*
X006871Y006512D01*
X006817Y006506D01*
X006763Y006496D01*
X006711Y006482D01*
X006659Y006464D01*
X006609Y006443D01*
X006560Y006419D01*
X006514Y006391D01*
X006469Y006359D01*
X006427Y006325D01*
X006388Y006288D01*
X006351Y006248D01*
X006317Y006206D01*
X006286Y006161D01*
X006258Y006114D01*
X006199Y005327D02*
X006277Y005372D01*
X006277Y005371D02*
X006305Y005327D01*
X006336Y005285D01*
X006369Y005245D01*
X006405Y005207D01*
X006444Y005172D01*
X006485Y005140D01*
X006529Y005110D01*
X006574Y005084D01*
X006621Y005061D01*
X006669Y005041D01*
X006719Y005025D01*
X006769Y005012D01*
X006821Y005003D01*
X006873Y004997D01*
X006925Y004995D01*
X006926Y004906D01*
X006925Y004905D01*
X006870Y004907D01*
X006816Y004913D01*
X006761Y004922D01*
X006708Y004935D01*
X006656Y004951D01*
X006604Y004970D01*
X006554Y004993D01*
X006506Y005019D01*
X006459Y005048D01*
X006415Y005080D01*
X006372Y005115D01*
X006332Y005153D01*
X006295Y005193D01*
X006260Y005235D01*
X006228Y005280D01*
X006199Y005326D01*
X006207Y005331D01*
X006235Y005285D01*
X006267Y005241D01*
X006302Y005199D01*
X006339Y005159D01*
X006378Y005122D01*
X006420Y005087D01*
X006464Y005056D01*
X006510Y005027D01*
X006558Y005001D01*
X006608Y004979D01*
X006658Y004959D01*
X006710Y004943D01*
X006763Y004931D01*
X006817Y004922D01*
X006871Y004916D01*
X006925Y004914D01*
X006925Y004923D01*
X006871Y004925D01*
X006818Y004931D01*
X006765Y004940D01*
X006713Y004952D01*
X006661Y004968D01*
X006611Y004987D01*
X006562Y005009D01*
X006515Y005035D01*
X006469Y005063D01*
X006426Y005095D01*
X006384Y005129D01*
X006345Y005165D01*
X006308Y005205D01*
X006274Y005246D01*
X006243Y005290D01*
X006214Y005335D01*
X006222Y005340D01*
X006252Y005292D01*
X006286Y005246D01*
X006322Y005203D01*
X006362Y005162D01*
X006404Y005124D01*
X006448Y005089D01*
X006495Y005057D01*
X006544Y005029D01*
X006595Y005004D01*
X006648Y004982D01*
X006701Y004965D01*
X006756Y004951D01*
X006812Y004941D01*
X006868Y004934D01*
X006925Y004932D01*
X006925Y004941D01*
X006869Y004943D01*
X006813Y004949D01*
X006758Y004959D01*
X006704Y004973D01*
X006651Y004991D01*
X006599Y005012D01*
X006548Y005037D01*
X006500Y005065D01*
X006454Y005096D01*
X006409Y005131D01*
X006368Y005168D01*
X006329Y005209D01*
X006293Y005251D01*
X006260Y005297D01*
X006230Y005344D01*
X006238Y005349D01*
X006267Y005302D01*
X006300Y005257D01*
X006336Y005215D01*
X006374Y005175D01*
X006415Y005138D01*
X006459Y005103D01*
X006505Y005072D01*
X006553Y005045D01*
X006602Y005020D01*
X006654Y004999D01*
X006706Y004982D01*
X006760Y004968D01*
X006815Y004958D01*
X006870Y004952D01*
X006925Y004950D01*
X006925Y004959D01*
X006870Y004961D01*
X006816Y004967D01*
X006762Y004977D01*
X006709Y004991D01*
X006657Y005008D01*
X006606Y005028D01*
X006557Y005053D01*
X006510Y005080D01*
X006464Y005111D01*
X006421Y005144D01*
X006380Y005181D01*
X006342Y005221D01*
X006307Y005263D01*
X006275Y005307D01*
X006246Y005353D01*
X006254Y005358D01*
X006282Y005312D01*
X006314Y005268D01*
X006349Y005227D01*
X006387Y005188D01*
X006427Y005151D01*
X006469Y005118D01*
X006514Y005088D01*
X006561Y005060D01*
X006610Y005037D01*
X006660Y005016D01*
X006711Y004999D01*
X006764Y004986D01*
X006817Y004976D01*
X006871Y004970D01*
X006925Y004968D01*
X006925Y004977D01*
X006872Y004979D01*
X006818Y004985D01*
X006766Y004995D01*
X006714Y005008D01*
X006663Y005025D01*
X006613Y005045D01*
X006565Y005068D01*
X006519Y005095D01*
X006475Y005125D01*
X006433Y005158D01*
X006393Y005194D01*
X006356Y005233D01*
X006321Y005274D01*
X006290Y005317D01*
X006261Y005362D01*
X006269Y005367D01*
X006297Y005322D01*
X006328Y005279D01*
X006362Y005239D01*
X006399Y005201D01*
X006438Y005165D01*
X006480Y005133D01*
X006524Y005103D01*
X006570Y005076D01*
X006617Y005053D01*
X006666Y005033D01*
X006716Y005016D01*
X006768Y005003D01*
X006820Y004994D01*
X006872Y004988D01*
X006925Y004986D01*
X006934Y004906D02*
X006934Y004996D01*
X006935Y004995D02*
X006989Y004997D01*
X007042Y005003D01*
X007095Y005013D01*
X007147Y005027D01*
X007198Y005044D01*
X007248Y005065D01*
X007296Y005089D01*
X007342Y005117D01*
X007386Y005148D01*
X007427Y005182D01*
X007467Y005219D01*
X007503Y005258D01*
X007571Y005201D01*
X007572Y005200D01*
X007534Y005159D01*
X007494Y005121D01*
X007451Y005085D01*
X007406Y005052D01*
X007359Y005022D01*
X007311Y004996D01*
X007260Y004972D01*
X007208Y004952D01*
X007155Y004936D01*
X007101Y004922D01*
X007046Y004913D01*
X006991Y004907D01*
X006935Y004905D01*
X006935Y004914D01*
X006990Y004916D01*
X007045Y004922D01*
X007099Y004931D01*
X007153Y004944D01*
X007205Y004961D01*
X007257Y004980D01*
X007307Y005004D01*
X007355Y005030D01*
X007401Y005060D01*
X007446Y005092D01*
X007488Y005127D01*
X007528Y005166D01*
X007565Y005206D01*
X007558Y005212D01*
X007521Y005172D01*
X007482Y005134D01*
X007440Y005099D01*
X007396Y005067D01*
X007350Y005038D01*
X007302Y005012D01*
X007253Y004989D01*
X007202Y004969D01*
X007150Y004953D01*
X007097Y004940D01*
X007044Y004931D01*
X006989Y004925D01*
X006935Y004923D01*
X006935Y004932D01*
X006989Y004934D01*
X007042Y004940D01*
X007095Y004949D01*
X007148Y004962D01*
X007199Y004978D01*
X007250Y004997D01*
X007298Y005020D01*
X007346Y005045D01*
X007391Y005074D01*
X007435Y005106D01*
X007476Y005141D01*
X007515Y005178D01*
X007551Y005218D01*
X007544Y005224D01*
X007508Y005184D01*
X007470Y005147D01*
X007429Y005113D01*
X007386Y005082D01*
X007341Y005053D01*
X007294Y005028D01*
X007246Y005005D01*
X007196Y004986D01*
X007145Y004970D01*
X007094Y004958D01*
X007041Y004949D01*
X006988Y004943D01*
X006935Y004941D01*
X006935Y004950D01*
X006988Y004952D01*
X007040Y004958D01*
X007092Y004967D01*
X007143Y004979D01*
X007193Y004995D01*
X007243Y005014D01*
X007290Y005036D01*
X007337Y005061D01*
X007381Y005089D01*
X007423Y005120D01*
X007464Y005154D01*
X007502Y005191D01*
X007537Y005229D01*
X007531Y005235D01*
X007495Y005197D01*
X007458Y005161D01*
X007418Y005127D01*
X007376Y005097D01*
X007332Y005069D01*
X007286Y005044D01*
X007239Y005022D01*
X007190Y005003D01*
X007141Y004988D01*
X007090Y004975D01*
X007039Y004967D01*
X006987Y004961D01*
X006935Y004959D01*
X006935Y004968D01*
X006991Y004970D01*
X007046Y004977D01*
X007101Y004987D01*
X007155Y005001D01*
X007208Y005019D01*
X007259Y005041D01*
X007309Y005066D01*
X007357Y005095D01*
X007402Y005127D01*
X007445Y005162D01*
X007486Y005200D01*
X007524Y005241D01*
X007517Y005247D01*
X007480Y005206D01*
X007439Y005169D01*
X007397Y005134D01*
X007352Y005102D01*
X007304Y005074D01*
X007255Y005049D01*
X007204Y005027D01*
X007152Y005010D01*
X007099Y004996D01*
X007045Y004986D01*
X006990Y004979D01*
X006935Y004977D01*
X006935Y004986D01*
X006989Y004988D01*
X007043Y004994D01*
X007097Y005004D01*
X007150Y005018D01*
X007201Y005036D01*
X007251Y005057D01*
X007300Y005082D01*
X007347Y005110D01*
X007391Y005141D01*
X007433Y005175D01*
X007473Y005213D01*
X007510Y005253D01*
X007575Y006294D02*
X007506Y006237D01*
X007507Y006237D02*
X007470Y006277D01*
X007431Y006315D01*
X007389Y006349D01*
X007345Y006381D01*
X007299Y006409D01*
X007250Y006434D01*
X007200Y006455D01*
X007149Y006473D01*
X007096Y006486D01*
X007043Y006496D01*
X006989Y006503D01*
X006935Y006505D01*
X006934Y006594D01*
X006935Y006595D01*
X006991Y006593D01*
X007047Y006587D01*
X007102Y006577D01*
X007157Y006564D01*
X007210Y006547D01*
X007263Y006527D01*
X007314Y006503D01*
X007363Y006476D01*
X007410Y006445D01*
X007455Y006412D01*
X007498Y006376D01*
X007538Y006337D01*
X007576Y006295D01*
X007569Y006289D01*
X007532Y006330D01*
X007492Y006369D01*
X007450Y006405D01*
X007405Y006438D01*
X007358Y006468D01*
X007310Y006495D01*
X007259Y006518D01*
X007207Y006539D01*
X007154Y006555D01*
X007100Y006568D01*
X007046Y006578D01*
X006991Y006584D01*
X006935Y006586D01*
X006935Y006577D01*
X006990Y006575D01*
X007045Y006569D01*
X007099Y006560D01*
X007152Y006547D01*
X007204Y006530D01*
X007256Y006510D01*
X007305Y006487D01*
X007354Y006460D01*
X007400Y006431D01*
X007444Y006398D01*
X007486Y006362D01*
X007525Y006324D01*
X007562Y006283D01*
X007555Y006278D01*
X007519Y006318D01*
X007480Y006356D01*
X007438Y006391D01*
X007395Y006423D01*
X007349Y006453D01*
X007301Y006479D01*
X007252Y006502D01*
X007202Y006522D01*
X007150Y006538D01*
X007097Y006551D01*
X007043Y006560D01*
X006989Y006566D01*
X006935Y006568D01*
X006935Y006559D01*
X006989Y006557D01*
X007042Y006551D01*
X007095Y006542D01*
X007147Y006529D01*
X007199Y006513D01*
X007249Y006494D01*
X007297Y006471D01*
X007344Y006445D01*
X007390Y006416D01*
X007433Y006384D01*
X007474Y006349D01*
X007512Y006312D01*
X007548Y006272D01*
X007541Y006266D01*
X007506Y006305D01*
X007468Y006342D01*
X007427Y006377D01*
X007384Y006408D01*
X007340Y006437D01*
X007293Y006463D01*
X007245Y006485D01*
X007196Y006505D01*
X007145Y006521D01*
X007093Y006533D01*
X007041Y006542D01*
X006988Y006548D01*
X006935Y006550D01*
X006935Y006541D01*
X006987Y006539D01*
X007040Y006533D01*
X007091Y006524D01*
X007142Y006512D01*
X007193Y006496D01*
X007242Y006477D01*
X007289Y006455D01*
X007335Y006429D01*
X007379Y006401D01*
X007421Y006370D01*
X007462Y006336D01*
X007499Y006299D01*
X007534Y006260D01*
X007528Y006254D01*
X007493Y006293D01*
X007455Y006329D01*
X007416Y006363D01*
X007374Y006394D01*
X007330Y006422D01*
X007285Y006447D01*
X007238Y006469D01*
X007190Y006488D01*
X007140Y006503D01*
X007090Y006516D01*
X007038Y006524D01*
X006987Y006530D01*
X006935Y006532D01*
X006935Y006523D01*
X006986Y006521D01*
X007037Y006516D01*
X007088Y006507D01*
X007138Y006495D01*
X007187Y006479D01*
X007234Y006461D01*
X007281Y006439D01*
X007326Y006414D01*
X007369Y006386D01*
X007410Y006356D01*
X007449Y006323D01*
X007486Y006287D01*
X007521Y006249D01*
X007514Y006243D01*
X007477Y006284D01*
X007437Y006322D01*
X007395Y006356D01*
X007350Y006388D01*
X007303Y006417D01*
X007254Y006442D01*
X007203Y006463D01*
X007152Y006481D01*
X007098Y006495D01*
X007044Y006505D01*
X006990Y006512D01*
X006935Y006514D01*
M02*
