G75*
%MOIN*%
%OFA0B0*%
%FSLAX24Y24*%
%IPPOS*%
%LPD*%
%AMOC8*
5,1,8,0,0,1.08239X$1,22.5*
%
%ADD10C,0.0740*%
%ADD11OC8,0.0660*%
%ADD12C,0.0700*%
%ADD13R,0.0551X0.2362*%
%ADD14C,0.0560*%
%ADD15C,0.0760*%
%ADD16OC8,0.0560*%
%ADD17C,0.0080*%
%ADD18C,0.0300*%
D10*
X001117Y005000D03*
X001117Y006000D03*
X001117Y007000D03*
X001117Y008000D03*
X001117Y009000D03*
X001117Y010000D03*
X001117Y011000D03*
X001117Y012000D03*
X001117Y013000D03*
X001117Y014000D03*
X001117Y015000D03*
X001117Y016000D03*
X001117Y017000D03*
X001117Y018000D03*
X010117Y018000D03*
X010117Y017000D03*
X010117Y016000D03*
X010117Y015000D03*
X010117Y014000D03*
X010117Y013000D03*
X010117Y012000D03*
X010117Y011000D03*
X010117Y010000D03*
X010117Y009000D03*
X010117Y008000D03*
X010117Y007000D03*
X010117Y006000D03*
X010117Y005000D03*
D11*
X008367Y011000D03*
X007367Y011000D03*
X007367Y012750D03*
X008367Y012750D03*
X008367Y014500D03*
X007367Y014500D03*
X007367Y016250D03*
X008367Y016250D03*
X005867Y016000D03*
X004867Y016000D03*
X003867Y016000D03*
X002867Y016000D03*
X002867Y012000D03*
X002867Y011000D03*
X003867Y011000D03*
X003867Y012000D03*
X004867Y012000D03*
X005867Y012000D03*
X003867Y007000D03*
X002867Y007000D03*
D12*
X003367Y004625D03*
X004367Y004625D03*
X005617Y004625D03*
X005617Y005625D03*
X005617Y006625D03*
X005617Y007625D03*
X009867Y002500D03*
X009867Y001500D03*
D13*
X006306Y002705D03*
X005617Y002705D03*
X004928Y002705D03*
D14*
X005337Y008750D02*
X005897Y008750D01*
X005897Y009750D02*
X005337Y009750D01*
X005337Y010750D02*
X005897Y010750D01*
D15*
X008117Y009500D03*
X008117Y005500D03*
D16*
X001367Y001500D03*
X001367Y002500D03*
D17*
X001367Y001500D02*
X002517Y001500D01*
X002467Y004400D02*
X001367Y004400D01*
X002467Y004400D02*
X002717Y004650D01*
X003367Y004650D01*
X003367Y004625D01*
X002517Y005250D02*
X004367Y005250D01*
X004467Y005150D01*
X007067Y005150D01*
X007417Y005500D01*
X008117Y005500D01*
X008767Y004650D02*
X006617Y004650D01*
X006317Y004350D01*
X006017Y004350D01*
X005817Y004150D01*
X005167Y004150D01*
X004767Y003750D01*
X004767Y003350D01*
X004867Y003350D01*
X004917Y003300D01*
X004917Y002750D01*
X004928Y002705D01*
X004967Y004650D02*
X005617Y004650D01*
X005617Y004625D01*
X005617Y005625D02*
X005617Y005650D01*
X006467Y005650D01*
X006667Y005450D01*
X006717Y004350D02*
X006517Y004150D01*
X006317Y004150D01*
X006317Y002750D01*
X006306Y002705D01*
X005617Y005650D02*
X004967Y005650D01*
X005617Y006625D02*
X005617Y006650D01*
X006617Y006650D01*
X006617Y006550D01*
X006617Y006650D02*
X008767Y006650D01*
X008567Y006850D02*
X008717Y007000D01*
X010117Y007000D01*
X010117Y008000D02*
X006367Y008000D01*
X006317Y008050D01*
X006217Y007650D02*
X005617Y007650D01*
X005617Y007625D01*
X005467Y007100D02*
X005817Y007100D01*
X006067Y006850D01*
X008567Y006850D01*
X009267Y008200D02*
X007267Y008200D01*
X007167Y008300D01*
X007467Y007650D02*
X006217Y007650D01*
X005467Y007100D02*
X004967Y007600D01*
X002417Y007600D01*
X002117Y008350D02*
X004967Y008350D01*
X004867Y009200D02*
X007667Y009200D01*
X007917Y008950D01*
X009417Y008950D01*
X009467Y009000D01*
X010117Y009000D01*
X010117Y010000D02*
X009417Y010000D01*
X009017Y008750D02*
X009117Y008650D01*
X009017Y008750D02*
X005617Y008750D01*
X005617Y009750D02*
X003867Y009750D01*
X003567Y010400D02*
X004417Y010400D01*
X004767Y010750D01*
X005617Y010750D01*
X006967Y010750D01*
X007267Y010450D01*
X008117Y010450D01*
X008417Y010150D02*
X007467Y010150D01*
X007367Y011000D02*
X006617Y011000D01*
X006567Y011050D01*
X006267Y011400D02*
X004817Y011400D01*
X004217Y012000D01*
X003867Y012000D01*
X003017Y011500D02*
X003517Y011000D01*
X003867Y011000D01*
X003017Y011500D02*
X001817Y011500D01*
X001817Y013000D02*
X001117Y013000D01*
X001117Y015000D02*
X004267Y015000D01*
X003867Y014500D02*
X007367Y014500D01*
X006567Y016000D02*
X005867Y016000D01*
X006367Y016600D02*
X006717Y016250D01*
X007367Y016250D01*
X006817Y016850D02*
X008367Y016850D01*
X009117Y018000D02*
X010117Y018000D01*
X010117Y016000D02*
X009467Y016000D01*
X008867Y015400D01*
X003467Y015400D01*
X002867Y016600D02*
X006367Y016600D01*
X006767Y016800D02*
X006817Y016850D01*
X006767Y016800D02*
X003067Y016800D01*
X002867Y017000D01*
X001117Y017000D01*
X001117Y018000D02*
X001767Y018000D01*
X002017Y018250D01*
X006667Y018250D01*
X006767Y018150D01*
X009417Y015000D02*
X010117Y015000D01*
X010117Y014000D02*
X009467Y014000D01*
X009367Y013900D01*
X008817Y013900D01*
X009417Y012400D02*
X009317Y012300D01*
X008567Y012300D01*
X008517Y012250D01*
X008217Y012250D01*
X008167Y012300D01*
X007967Y012300D01*
X007367Y012750D02*
X004867Y012750D01*
X005867Y012000D02*
X009417Y012000D01*
X009367Y008300D02*
X009267Y008200D01*
X009067Y002500D02*
X009867Y002500D01*
X009867Y001500D02*
X009267Y001500D01*
X002117Y016000D02*
X001117Y016000D01*
D18*
X002117Y016000D03*
X002867Y016600D03*
X003467Y015400D03*
X003867Y014500D03*
X004267Y015000D03*
X004867Y012750D03*
X003567Y010400D03*
X003867Y009750D03*
X004867Y009200D03*
X004967Y008350D03*
X006217Y007650D03*
X006317Y008050D03*
X007167Y008300D03*
X007467Y007650D03*
X006617Y006550D03*
X006667Y005450D03*
X006717Y004350D03*
X004967Y004650D03*
X004367Y005250D03*
X004967Y005650D03*
X002517Y005250D03*
X001367Y004400D03*
X002517Y001500D03*
X002417Y007600D03*
X002117Y008350D03*
X001817Y011500D03*
X001817Y013000D03*
X006267Y011400D03*
X006567Y011050D03*
X007467Y010150D03*
X008117Y010450D03*
X008417Y010150D03*
X009117Y008650D03*
X009367Y008300D03*
X009417Y010000D03*
X009417Y012000D03*
X009417Y012400D03*
X008817Y013900D03*
X009417Y015000D03*
X008367Y016850D03*
X009117Y018000D03*
X006767Y018150D03*
X006567Y016000D03*
X007967Y012300D03*
X008767Y006650D03*
X008767Y004650D03*
X009067Y002500D03*
X009267Y001500D03*
M02*
