G75*
%MOIN*%
%OFA0B0*%
%FSLAX24Y24*%
%IPPOS*%
%LPD*%
%AMOC8*
5,1,8,0,0,1.08239X$1,22.5*
%
%ADD10C,0.0160*%
%ADD11C,0.0000*%
D10*
X000617Y000650D02*
X000617Y018500D01*
X010617Y018500D01*
X010607Y000650D01*
X008097Y000650D01*
X008097Y001990D01*
X008497Y001990D01*
X008497Y002900D01*
X008097Y002900D01*
X008097Y003980D01*
X006707Y003980D01*
X006707Y001400D01*
X004527Y001400D01*
X004527Y003980D01*
X003137Y003980D01*
X003137Y002900D01*
X002737Y002900D01*
X002737Y001990D01*
X003137Y001990D01*
X003137Y000650D01*
X000617Y000650D01*
X002897Y002150D02*
X003277Y002150D01*
X003277Y002160D01*
X003297Y002160D01*
X003297Y000650D01*
X007937Y000650D01*
X007937Y002150D01*
X008337Y002150D01*
X008337Y002740D01*
X007937Y002740D01*
X007937Y003820D01*
X006867Y003820D01*
X006867Y001240D01*
X004357Y001240D01*
X004357Y001260D01*
X004367Y001260D01*
X004367Y003820D01*
X003297Y003820D01*
X003297Y002740D01*
X002897Y002740D01*
X002897Y002150D01*
X002897Y002244D02*
X004367Y002244D01*
X004367Y002402D02*
X002897Y002402D01*
X002897Y002561D02*
X004367Y002561D01*
X004367Y002719D02*
X002897Y002719D01*
X003297Y002878D02*
X004367Y002878D01*
X004367Y003036D02*
X003297Y003036D01*
X003297Y003195D02*
X004367Y003195D01*
X004367Y003353D02*
X003297Y003353D01*
X003297Y003512D02*
X004367Y003512D01*
X004367Y003670D02*
X003297Y003670D01*
X003297Y002085D02*
X004367Y002085D01*
X004367Y001927D02*
X003297Y001927D01*
X003297Y001768D02*
X004367Y001768D01*
X004367Y001610D02*
X003297Y001610D01*
X003297Y001451D02*
X004367Y001451D01*
X004367Y001293D02*
X003297Y001293D01*
X003297Y001134D02*
X007937Y001134D01*
X007937Y000976D02*
X003297Y000976D01*
X003297Y000817D02*
X007937Y000817D01*
X007937Y000659D02*
X003297Y000659D01*
X006867Y001293D02*
X007937Y001293D01*
X007937Y001451D02*
X006867Y001451D01*
X006867Y001610D02*
X007937Y001610D01*
X007937Y001768D02*
X006867Y001768D01*
X006867Y001927D02*
X007937Y001927D01*
X007937Y002085D02*
X006867Y002085D01*
X006867Y002244D02*
X008337Y002244D01*
X008337Y002402D02*
X006867Y002402D01*
X006867Y002561D02*
X008337Y002561D01*
X008337Y002719D02*
X006867Y002719D01*
X006867Y002878D02*
X007937Y002878D01*
X007937Y003036D02*
X006867Y003036D01*
X006867Y003195D02*
X007937Y003195D01*
X007937Y003353D02*
X006867Y003353D01*
X006867Y003512D02*
X007937Y003512D01*
X007937Y003670D02*
X006867Y003670D01*
D11*
X006684Y006000D02*
X006686Y006041D01*
X006692Y006082D01*
X006702Y006122D01*
X006715Y006161D01*
X006732Y006198D01*
X006753Y006234D01*
X006777Y006268D01*
X006804Y006299D01*
X006833Y006327D01*
X006866Y006353D01*
X006900Y006375D01*
X006937Y006394D01*
X006975Y006409D01*
X007015Y006421D01*
X007055Y006429D01*
X007096Y006433D01*
X007138Y006433D01*
X007179Y006429D01*
X007219Y006421D01*
X007259Y006409D01*
X007297Y006394D01*
X007333Y006375D01*
X007368Y006353D01*
X007401Y006327D01*
X007430Y006299D01*
X007457Y006268D01*
X007481Y006234D01*
X007502Y006198D01*
X007519Y006161D01*
X007532Y006122D01*
X007542Y006082D01*
X007548Y006041D01*
X007550Y006000D01*
X007548Y005959D01*
X007542Y005918D01*
X007532Y005878D01*
X007519Y005839D01*
X007502Y005802D01*
X007481Y005766D01*
X007457Y005732D01*
X007430Y005701D01*
X007401Y005673D01*
X007368Y005647D01*
X007334Y005625D01*
X007297Y005606D01*
X007259Y005591D01*
X007219Y005579D01*
X007179Y005571D01*
X007138Y005567D01*
X007096Y005567D01*
X007055Y005571D01*
X007015Y005579D01*
X006975Y005591D01*
X006937Y005606D01*
X006901Y005625D01*
X006866Y005647D01*
X006833Y005673D01*
X006804Y005701D01*
X006777Y005732D01*
X006753Y005766D01*
X006732Y005802D01*
X006715Y005839D01*
X006702Y005878D01*
X006692Y005918D01*
X006686Y005959D01*
X006684Y006000D01*
X003684Y006000D02*
X003686Y006041D01*
X003692Y006082D01*
X003702Y006122D01*
X003715Y006161D01*
X003732Y006198D01*
X003753Y006234D01*
X003777Y006268D01*
X003804Y006299D01*
X003833Y006327D01*
X003866Y006353D01*
X003900Y006375D01*
X003937Y006394D01*
X003975Y006409D01*
X004015Y006421D01*
X004055Y006429D01*
X004096Y006433D01*
X004138Y006433D01*
X004179Y006429D01*
X004219Y006421D01*
X004259Y006409D01*
X004297Y006394D01*
X004333Y006375D01*
X004368Y006353D01*
X004401Y006327D01*
X004430Y006299D01*
X004457Y006268D01*
X004481Y006234D01*
X004502Y006198D01*
X004519Y006161D01*
X004532Y006122D01*
X004542Y006082D01*
X004548Y006041D01*
X004550Y006000D01*
X004548Y005959D01*
X004542Y005918D01*
X004532Y005878D01*
X004519Y005839D01*
X004502Y005802D01*
X004481Y005766D01*
X004457Y005732D01*
X004430Y005701D01*
X004401Y005673D01*
X004368Y005647D01*
X004334Y005625D01*
X004297Y005606D01*
X004259Y005591D01*
X004219Y005579D01*
X004179Y005571D01*
X004138Y005567D01*
X004096Y005567D01*
X004055Y005571D01*
X004015Y005579D01*
X003975Y005591D01*
X003937Y005606D01*
X003901Y005625D01*
X003866Y005647D01*
X003833Y005673D01*
X003804Y005701D01*
X003777Y005732D01*
X003753Y005766D01*
X003732Y005802D01*
X003715Y005839D01*
X003702Y005878D01*
X003692Y005918D01*
X003686Y005959D01*
X003684Y006000D01*
M02*
