G75*
%MOIN*%
%OFA0B0*%
%FSLAX24Y24*%
%IPPOS*%
%LPD*%
%AMOC8*
5,1,8,0,0,1.08239X$1,22.5*
%
%ADD10C,0.0740*%
%ADD11OC8,0.0660*%
%ADD12C,0.0700*%
%ADD13R,0.0551X0.2362*%
%ADD14C,0.0560*%
%ADD15C,0.0760*%
%ADD16OC8,0.0560*%
%ADD17C,0.0080*%
%ADD18C,0.0300*%
D10*
X001117Y005000D03*
X001117Y006000D03*
X001117Y007000D03*
X001117Y008000D03*
X001117Y009000D03*
X001117Y010000D03*
X001117Y011000D03*
X001117Y012000D03*
X001117Y013000D03*
X001117Y014000D03*
X001117Y015000D03*
X001117Y016000D03*
X001117Y017000D03*
X001117Y018000D03*
X010117Y018000D03*
X010117Y017000D03*
X010117Y016000D03*
X010117Y015000D03*
X010117Y014000D03*
X010117Y013000D03*
X010117Y012000D03*
X010117Y011000D03*
X010117Y010000D03*
X010117Y009000D03*
X010117Y008000D03*
X010117Y007000D03*
X010117Y006000D03*
X010117Y005000D03*
D11*
X008367Y011000D03*
X007367Y011000D03*
X007367Y012750D03*
X008367Y012750D03*
X008367Y014500D03*
X007367Y014500D03*
X007367Y016250D03*
X008367Y016250D03*
X005867Y016000D03*
X004867Y016000D03*
X003867Y016000D03*
X002867Y016000D03*
X002867Y012000D03*
X002867Y011000D03*
X003867Y011000D03*
X003867Y012000D03*
X004867Y012000D03*
X005867Y012000D03*
X003867Y007000D03*
X002867Y007000D03*
D12*
X003367Y004625D03*
X004367Y004625D03*
X005617Y004625D03*
X005617Y005625D03*
X005617Y006625D03*
X005617Y007625D03*
X009867Y002500D03*
X009867Y001500D03*
D13*
X006306Y002705D03*
X005617Y002705D03*
X004928Y002705D03*
D14*
X005337Y008750D02*
X005897Y008750D01*
X005897Y009750D02*
X005337Y009750D01*
X005337Y010750D02*
X005897Y010750D01*
D15*
X008117Y009500D03*
X008117Y005500D03*
D16*
X001367Y001500D03*
X001367Y002500D03*
D17*
X001367Y004400D01*
X002517Y005250D02*
X002517Y001500D01*
X003367Y004625D02*
X003367Y005250D01*
X003267Y005350D01*
X003267Y006750D01*
X003367Y006850D01*
X003367Y007150D01*
X003667Y007450D01*
X003667Y009550D01*
X003567Y009650D01*
X003567Y010400D01*
X003867Y009750D02*
X003867Y007000D01*
X004767Y008150D02*
X004567Y008350D01*
X004567Y009300D01*
X004667Y009400D01*
X004667Y011550D01*
X004367Y011850D01*
X004367Y012150D01*
X004267Y012250D01*
X004267Y015000D01*
X003867Y014500D02*
X003867Y016000D01*
X003467Y015400D02*
X003467Y012250D01*
X003367Y012150D01*
X003367Y011850D01*
X003017Y011500D01*
X002967Y011500D01*
X002867Y011400D01*
X002867Y011000D01*
X002317Y011100D02*
X002867Y011650D01*
X002867Y012000D01*
X002317Y011100D02*
X002317Y008550D01*
X002417Y008450D01*
X002417Y007600D01*
X002867Y007000D02*
X002867Y006350D01*
X002517Y006000D01*
X002517Y005250D01*
X004367Y005250D02*
X004367Y004625D01*
X004967Y005150D02*
X004667Y005450D01*
X004667Y005750D01*
X004767Y005850D01*
X004767Y008150D01*
X004967Y008350D02*
X004967Y005650D01*
X004967Y005150D02*
X004967Y004650D01*
X004967Y003400D01*
X004917Y003350D01*
X004917Y002750D01*
X004928Y002705D01*
X006317Y004250D02*
X006217Y004350D01*
X006217Y004550D01*
X006317Y004650D01*
X006317Y006450D01*
X006217Y006550D01*
X006217Y007650D01*
X006317Y008050D02*
X006317Y010900D01*
X006267Y010950D01*
X006267Y011400D01*
X006567Y011050D02*
X006567Y016000D01*
X006767Y016200D02*
X006867Y016100D01*
X006867Y015900D01*
X006767Y015800D01*
X006767Y011250D01*
X006867Y011150D01*
X006867Y010950D01*
X006517Y010600D01*
X006517Y008250D01*
X006617Y008150D01*
X006617Y006550D01*
X006667Y005450D02*
X006717Y005400D01*
X006717Y004350D01*
X006317Y004250D02*
X006317Y002750D01*
X006306Y002705D01*
X008767Y004650D02*
X008767Y006650D01*
X008967Y006450D02*
X009067Y006550D01*
X009067Y008300D01*
X008817Y008550D01*
X008817Y008750D01*
X008917Y008850D01*
X008917Y010150D01*
X009017Y010250D01*
X009017Y011750D01*
X008917Y011850D01*
X008917Y013800D01*
X008817Y013900D01*
X008367Y014500D02*
X008367Y016250D01*
X008367Y016850D01*
X009117Y018000D02*
X009117Y011900D01*
X009217Y011800D01*
X009217Y010200D01*
X009117Y010100D01*
X009117Y008650D01*
X009367Y008300D02*
X009267Y008200D01*
X009267Y006500D01*
X009167Y006400D01*
X009167Y004900D01*
X009267Y004800D01*
X009267Y002700D01*
X009367Y002600D01*
X009367Y002400D01*
X009267Y002300D01*
X009267Y001500D01*
X009067Y002500D02*
X009067Y004750D01*
X008967Y004850D01*
X008967Y006450D01*
X007467Y007650D02*
X007467Y010150D01*
X007267Y009950D02*
X007167Y010050D01*
X007167Y010250D01*
X007417Y010500D01*
X007517Y010500D01*
X007867Y010850D01*
X007867Y011150D01*
X007967Y011250D01*
X007967Y012300D01*
X008367Y012750D02*
X008367Y014500D01*
X009317Y014900D02*
X009417Y015000D01*
X009317Y014900D02*
X009317Y012500D01*
X009417Y012400D01*
X009417Y012000D02*
X009417Y010000D01*
X008417Y010150D02*
X008417Y010550D01*
X008367Y010600D01*
X008367Y011000D01*
X008367Y012750D01*
X008117Y010450D02*
X008117Y009500D01*
X007267Y009950D02*
X007267Y008400D01*
X007167Y008300D01*
X004867Y009200D02*
X004867Y012000D01*
X004867Y012750D02*
X004867Y016000D01*
X006767Y016200D02*
X006767Y018150D01*
X002867Y016600D02*
X002867Y016000D01*
X002117Y016000D02*
X002117Y008350D01*
X001817Y011500D02*
X001817Y013000D01*
D18*
X001817Y013000D03*
X001817Y011500D03*
X003567Y010400D03*
X003867Y009750D03*
X004867Y009200D03*
X004967Y008350D03*
X006217Y007650D03*
X006317Y008050D03*
X007167Y008300D03*
X007467Y007650D03*
X006617Y006550D03*
X006667Y005450D03*
X006717Y004350D03*
X004967Y004650D03*
X004367Y005250D03*
X004967Y005650D03*
X002517Y005250D03*
X001367Y004400D03*
X002517Y001500D03*
X002417Y007600D03*
X002117Y008350D03*
X004867Y012750D03*
X003867Y014500D03*
X004267Y015000D03*
X003467Y015400D03*
X002867Y016600D03*
X002117Y016000D03*
X006267Y011400D03*
X006567Y011050D03*
X007467Y010150D03*
X008117Y010450D03*
X008417Y010150D03*
X009117Y008650D03*
X009367Y008300D03*
X009417Y010000D03*
X009417Y012000D03*
X009417Y012400D03*
X008817Y013900D03*
X009417Y015000D03*
X008367Y016850D03*
X009117Y018000D03*
X006767Y018150D03*
X006567Y016000D03*
X007967Y012300D03*
X008767Y006650D03*
X008767Y004650D03*
X009067Y002500D03*
X009267Y001500D03*
M02*
