%
M48
M72
T01C0.0100
T02C0.0320
T03C0.0400
T04C0.0440
T05C0.0866
%
T01
X2517Y1500
X1367Y4400
X2517Y5250
X2417Y7600
X2117Y8350
X3567Y10400
X3867Y9750
X4867Y9200
X4967Y8350
X6217Y7650
X6317Y8050
X7167Y8300
X7467Y7650
X6617Y6550
X6667Y5450
X6717Y4350
X4967Y4650
X4367Y5250
X4967Y5650
X7467Y10150
X8117Y10450
X8417Y10150
X9117Y8650
X9367Y8300
X9417Y10000
X9417Y12000
X9417Y12400
X8817Y13900
X9417Y15000
X8367Y16850
X9117Y18000
X6767Y18150
X6567Y16000
X4867Y12750
X3867Y14500
X4267Y15000
X3467Y15400
X2867Y16600
X2117Y16000
X1817Y13000
X1817Y11500
X6267Y11400
X6567Y11050
X7967Y12300
X8767Y6650
X8767Y4650
X9067Y2500
X9267Y1500
T02
X1367Y1500
X1367Y2500
X2867Y7000
X3867Y7000
X5617Y8750
X5617Y9750
X5617Y10750
X5867Y12000
X4867Y12000
X3867Y12000
X3867Y11000
X2867Y11000
X2867Y12000
X2867Y16000
X3867Y16000
X4867Y16000
X5867Y16000
X7367Y16250
X8367Y16250
X8367Y14500
X7367Y14500
X7367Y12750
X8367Y12750
X8367Y11000
X7367Y11000
T03
X5617Y7625
X5617Y6625
X5617Y5625
X5617Y4625
X4367Y4625
X3367Y4625
X1117Y5000
X1117Y6000
X1117Y7000
X1117Y8000
X1117Y9000
X1117Y10000
X1117Y11000
X1117Y12000
X1117Y13000
X1117Y14000
X1117Y15000
X1117Y16000
X1117Y17000
X1117Y18000
X10117Y18000
X10117Y17000
X10117Y16000
X10117Y15000
X10117Y14000
X10117Y13000
X10117Y12000
X10117Y11000
X10117Y10000
X10117Y9000
X10117Y8000
X10117Y7000
X10117Y6000
X10117Y5000
X9867Y2500
X9867Y1500
T04
X8117Y5500
X8117Y9500
T05
X7117Y6000
X4117Y6000
M30
