G75*
%MOIN*%
%OFA0B0*%
%FSLAX24Y24*%
%IPPOS*%
%LPD*%
%AMOC8*
5,1,8,0,0,1.08239X$1,22.5*
%
%ADD10C,0.0946*%
%ADD11C,0.0820*%
%ADD12OC8,0.0740*%
%ADD13C,0.0780*%
%ADD14R,0.0631X0.2442*%
%ADD15C,0.0640*%
%ADD16C,0.0840*%
%ADD17OC8,0.0640*%
D10*
X004117Y006000D03*
X007117Y006000D03*
D11*
X010117Y006000D03*
X010117Y005000D03*
X010117Y007000D03*
X010117Y008000D03*
X010117Y009000D03*
X010117Y010000D03*
X010117Y011000D03*
X010117Y012000D03*
X010117Y013000D03*
X010117Y014000D03*
X010117Y015000D03*
X010117Y016000D03*
X010117Y017000D03*
X010117Y018000D03*
X001117Y018000D03*
X001117Y017000D03*
X001117Y016000D03*
X001117Y015000D03*
X001117Y014000D03*
X001117Y013000D03*
X001117Y012000D03*
X001117Y011000D03*
X001117Y010000D03*
X001117Y009000D03*
X001117Y008000D03*
X001117Y007000D03*
X001117Y006000D03*
X001117Y005000D03*
D12*
X002867Y007000D03*
X003867Y007000D03*
X003867Y011000D03*
X003867Y012000D03*
X004867Y012000D03*
X005867Y012000D03*
X007367Y012750D03*
X008367Y012750D03*
X008367Y011000D03*
X007367Y011000D03*
X007367Y014500D03*
X008367Y014500D03*
X008367Y016250D03*
X007367Y016250D03*
X005867Y016000D03*
X004867Y016000D03*
X003867Y016000D03*
X002867Y016000D03*
X002867Y012000D03*
X002867Y011000D03*
D13*
X005617Y007625D03*
X005617Y006625D03*
X005617Y005625D03*
X005617Y004625D03*
X004367Y004625D03*
X003367Y004625D03*
X009867Y002500D03*
X009867Y001500D03*
D14*
X006306Y002705D03*
X005617Y002705D03*
X004928Y002705D03*
D15*
X005337Y008750D02*
X005897Y008750D01*
X005897Y009750D02*
X005337Y009750D01*
X005337Y010750D02*
X005897Y010750D01*
D16*
X008117Y009500D03*
X008117Y005500D03*
D17*
X001367Y001500D03*
X001367Y002500D03*
M02*
